<svg width="16" height="17" viewBox="0 0 16 17" fill="none" xmlns="http://www.w3.org/2000/svg">
<g clip-path="url(#clip0_4172_98065)">
<path d="M13.75 0.589063L0.75 8.08906C0.395833 8.2974 0.166667 8.58385 0.0625 8.94844C-0.0416667 9.31302 -0.015625 9.6724 0.140625 10.0266C0.296875 10.3807 0.5625 10.6307 0.9375 10.7766L4.5 12.2766V14.9016C4.5 15.3599 4.66667 15.7297 5 16.0109C5.33333 16.2922 5.71354 16.4172 6.14062 16.3859C6.56771 16.3547 6.92708 16.162 7.21875 15.8078L8.5625 13.9328L12.0625 15.4016C12.25 15.4641 12.4479 15.4953 12.6562 15.4953C12.9062 15.4953 13.1458 15.4328 13.375 15.3078C13.7917 15.0786 14.0417 14.7245 14.125 14.2453L15.9688 2.12031C16.0312 1.72448 15.9531 1.37031 15.7344 1.05781C15.5156 0.745313 15.2188 0.542188 14.8438 0.448438C14.4688 0.354687 14.1042 0.401563 13.75 0.589063ZM6 14.9016V12.8703L7.15625 13.3391L6 14.9016ZM12.6562 13.9953L7.84375 12.0266L12.2188 5.68281C12.3229 5.53698 12.3438 5.38594 12.2812 5.22969C12.2188 5.07344 12.1042 4.96927 11.9375 4.91719C11.7708 4.8651 11.6146 4.90156 11.4688 5.02656L4.875 10.8078L1.5 9.40156L14.5 1.90156L12.6562 13.9953Z" fill="#FF6501"/>
</g>
<defs>
<clipPath id="clip0_4172_98065">
<rect width="16" height="16" fill="white" transform="matrix(1 0 0 -1 0 16.3984)"/>
</clipPath>
</defs>
</svg>
