<svg width="485" height="292" viewBox="0 0 485 292" fill="none" xmlns="http://www.w3.org/2000/svg">
<path d="M352.977 69.2812H123.164C117.961 69.2812 113.742 73.5083 113.742 78.7226V224.613C113.742 229.828 117.961 234.055 123.164 234.055H352.977C358.18 234.055 362.398 229.828 362.398 224.613V78.7226C362.398 73.5083 358.18 69.2812 352.977 69.2812Z" fill="#455A64"/>
<path d="M104.023 223.414H373.425V226.298C373.425 229.357 372.212 232.291 370.053 234.454C367.895 236.617 364.967 237.832 361.914 237.832H115.534C112.481 237.832 109.554 236.617 107.395 234.454C105.236 232.291 104.023 229.357 104.023 226.298V223.414Z" fill="#455A64"/>
<path d="M355.027 75.8242H120.416V214.969H355.027V75.8242Z" fill="#263238"/>
<path d="M213.562 221.867L216.899 227.2H263.944L267.048 221.867H213.562Z" fill="#263238"/>
<path d="M348.567 80.5352H127.369C126.201 80.5352 125.254 81.4838 125.254 82.6541V212.41C125.254 213.58 126.201 214.529 127.369 214.529H348.567C349.735 214.529 350.682 213.58 350.682 212.41V82.6541C350.682 81.4838 349.735 80.5352 348.567 80.5352Z" fill="#EBEBEB"/>
<path d="M350.436 214.724H125.008L125.254 90.5547H350.436V214.724Z" fill="#FAFAFA"/>
<path d="M143.741 85.7155C143.742 86.0734 143.638 86.4235 143.44 86.7217C143.243 87.0199 142.961 87.2526 142.632 87.3904C142.302 87.5283 141.939 87.565 141.589 87.496C141.239 87.4269 140.917 87.2553 140.664 87.0027C140.411 86.7501 140.238 86.428 140.168 86.0771C140.098 85.7262 140.133 85.3624 140.27 85.0316C140.406 84.7009 140.637 84.4182 140.934 84.2192C141.231 84.0203 141.58 83.9141 141.937 83.9141C142.174 83.9132 142.408 83.9592 142.627 84.0493C142.846 84.1395 143.045 84.272 143.212 84.4394C143.38 84.6068 143.513 84.8056 143.604 85.0246C143.694 85.2436 143.741 85.4784 143.741 85.7155Z" fill="#263238"/>
<path d="M132.825 85.7155C132.826 86.0736 132.722 86.4241 132.524 86.7224C132.326 87.0207 132.044 87.2534 131.714 87.391C131.384 87.5287 131.021 87.565 130.671 87.4955C130.32 87.4259 129.998 87.2536 129.745 87.0004C129.493 86.7471 129.321 86.4244 129.251 86.0731C129.182 85.7218 129.218 85.3577 129.355 85.0271C129.493 84.6965 129.725 84.4142 130.023 84.2161C130.32 84.0179 130.67 83.9128 131.027 83.9141C131.264 83.9132 131.498 83.9592 131.716 84.0495C131.935 84.1397 132.133 84.2723 132.301 84.4398C132.468 84.6072 132.6 84.8062 132.69 85.0251C132.78 85.2441 132.826 85.4787 132.825 85.7155Z" fill="#263238"/>
<path d="M138.063 85.7155C138.065 86.0736 137.96 86.4241 137.762 86.7224C137.564 87.0207 137.283 87.2534 136.953 87.391C136.623 87.5287 136.259 87.565 135.909 87.4955C135.558 87.4259 135.236 87.2536 134.984 87.0004C134.731 86.7471 134.559 86.4244 134.489 86.0731C134.42 85.7218 134.456 85.3577 134.594 85.0271C134.731 84.6965 134.963 84.4142 135.261 84.2161C135.559 84.0179 135.908 83.9128 136.266 83.9141C136.502 83.9132 136.736 83.9592 136.955 84.0495C137.173 84.1397 137.372 84.2723 137.539 84.4398C137.706 84.6072 137.838 84.8062 137.928 85.0251C138.018 85.2441 138.064 85.4787 138.063 85.7155Z" fill="#263238"/>
<path d="M360.258 221.865C360.258 221.956 305.071 222.027 237.01 222.027C168.948 222.027 113.742 221.956 113.742 221.865C113.742 221.774 168.922 221.703 237.01 221.703C305.097 221.703 360.258 221.781 360.258 221.865Z" fill="#263238"/>
<path d="M197.434 139.058L289.151 138.203L291.835 200.677L196.865 199.996L197.434 139.058Z" fill="#FF6501"/>
<path d="M197.434 139.073L240.76 103.789C241.65 103.064 242.762 102.668 243.91 102.668C245.057 102.668 246.169 103.064 247.059 103.789L289.144 138.211" fill="#FF6501"/>
<g opacity="0.3">
<path d="M197.434 139.073L240.76 103.789C241.65 103.064 242.762 102.668 243.91 102.668C245.057 102.668 246.169 103.064 247.059 103.789L289.144 138.211" fill="black"/>
</g>
<path d="M196.865 199.984C196.755 199.873 204.075 191.825 213.225 182.008C222.376 172.191 229.89 164.344 230.006 164.434C230.123 164.525 222.796 172.586 213.639 182.41C204.482 192.234 196.981 200.1 196.865 199.984Z" fill="#263238"/>
<path d="M291.835 200.677C291.719 200.787 284.554 192.901 275.83 183.136C267.107 173.37 260.129 165.316 260.246 165.212C260.362 165.108 267.527 172.988 276.257 182.76C284.987 192.532 291.952 200.573 291.835 200.677Z" fill="#263238"/>
<g opacity="0.5">
<path d="M289.15 138.203L243.172 175.165L197.434 139.058" fill="black"/>
</g>
<path d="M202.064 142.465L201.857 113.759L282.167 112.645L283.13 142.841L243.166 174.678L202.064 142.465Z" fill="#FAFAFA"/>
<path d="M202.064 142.467C202.064 142.467 202.329 142.655 202.827 143.038L205.013 144.729L213.329 151.209C220.494 156.814 230.789 164.817 243.25 174.589H243.082L283.027 142.727L282.968 142.863C282.781 137.102 282.587 131.056 282.393 124.907C282.257 120.766 282.128 116.671 281.998 112.659L282.167 112.821L201.863 113.884L201.967 113.774C202.006 122.801 202.045 129.974 202.064 134.886C202.064 137.342 202.064 139.234 202.064 140.523C202.064 141.171 202.064 141.644 202.064 141.981C202.064 142.318 202.064 142.48 202.064 142.48C202.064 142.48 202.064 142.318 202.064 141.994C202.064 141.67 202.064 141.178 202.064 140.549C202.064 139.253 202.025 137.374 201.999 134.925C201.954 129.993 201.883 122.82 201.799 113.774V113.67H201.902L282.16 112.504H282.328V112.672C282.458 116.684 282.587 120.772 282.723 124.913C282.917 131.063 283.111 137.108 283.292 142.869V142.953L283.227 143.005L243.237 174.822L243.153 174.893L243.069 174.822L213.18 151.319L204.929 144.8L202.775 143.09L202.064 142.467Z" fill="#263238"/>
<path d="M269.506 127.12C269.506 127.211 257.219 127.386 242.074 127.509C226.929 127.632 214.643 127.658 214.643 127.567C214.643 127.476 226.929 127.301 242.074 127.172C257.219 127.042 269.506 127.023 269.506 127.12Z" fill="#263238"/>
<path d="M269.519 135.23C269.519 135.321 257.232 135.502 242.094 135.625C226.955 135.748 214.662 135.774 214.662 135.677C214.662 135.58 226.949 135.411 242.094 135.288C257.239 135.165 269.519 135.139 269.519 135.23Z" fill="#263238"/>
<path d="M269.538 144.574C269.538 144.671 257.252 144.846 242.113 144.969C226.975 145.092 214.682 145.118 214.682 145.021C214.682 144.924 226.968 144.755 242.113 144.632C257.258 144.509 269.538 144.483 269.538 144.574Z" fill="#263238"/>
<path d="M269.557 153.916C269.557 154.014 257.846 154.182 243.393 154.299C228.94 154.415 217.223 154.441 217.223 154.344C217.223 154.247 228.934 154.078 243.393 153.962C257.853 153.845 269.557 153.826 269.557 153.916Z" fill="#263238"/>
<path d="M259.314 162.138C259.209 162.167 259.1 162.18 258.99 162.177L258.066 162.216L254.677 162.3L243.483 162.507C239.112 162.585 235.148 162.611 232.283 162.611H228.895H227.97C227.861 162.614 227.752 162.603 227.646 162.579C227.752 162.549 227.861 162.536 227.97 162.54L228.888 162.501L232.283 162.417L243.477 162.216C247.848 162.131 251.806 162.105 254.671 162.105H258.066H258.99C259.099 162.106 259.207 162.116 259.314 162.138Z" fill="#263238"/>
<path d="M248.968 170.045C247.033 170.22 245.09 170.281 243.148 170.227C241.207 170.288 239.263 170.236 237.328 170.071C239.263 169.901 241.206 169.84 243.148 169.89C245.089 169.832 247.033 169.884 248.968 170.045Z" fill="#263238"/>
</svg>
