<svg width="525" height="375" viewBox="0 0 525 375" fill="none" xmlns="http://www.w3.org/2000/svg">
<path d="M457.732 142.568C443.43 95.8127 406.642 58.3727 363.112 38.6402C321.585 19.8152 269.085 10.5002 229.732 39.4877C203.827 58.5677 189.15 89.1377 165.428 110.535C153.638 121.17 140.73 124.628 126.697 130.988C92.5125 146.49 63.9 176.393 61.545 215.835C57.6075 281.79 109.882 327.405 168.217 342.368C245.31 362.138 302.925 362.138 355.875 340.785C383.378 329.693 411.375 315.668 431.182 292.703C461.182 257.97 469.433 208.643 462.63 164.04C461.522 156.773 459.885 149.597 457.732 142.568Z" fill="#FF6501"/>
<path opacity="0.8" d="M457.732 142.568C443.43 95.8127 406.642 58.3727 363.112 38.6402C321.585 19.8152 269.085 10.5002 229.732 39.4877C203.827 58.5677 189.15 89.1377 165.428 110.535C153.638 121.17 140.73 124.628 126.697 130.988C92.5125 146.49 63.9 176.393 61.545 215.835C57.6075 281.79 109.882 327.405 168.217 342.368C245.31 362.138 302.925 362.138 355.875 340.785C383.378 329.693 411.375 315.668 431.182 292.703C461.182 257.97 469.433 208.643 462.63 164.04C461.522 156.773 459.885 149.597 457.732 142.568Z" fill="white"/>
<path d="M204.606 30H135.816V115.717H204.606V30Z" stroke="#A3A3A3" stroke-miterlimit="10"/>
<path d="M201.794 33.5117H138.629V112.217H201.794V33.5117Z" stroke="#A3A3A3" stroke-miterlimit="10"/>
<path d="M182.228 57.8906H158.205V87.8231H182.228V57.8906Z" fill="#D6D6D6"/>
<path d="M255.615 57.0977H208.965V115.23H255.615V57.0977Z" stroke="#A3A3A3" stroke-miterlimit="10"/>
<path d="M253.761 59.3984H210.809V112.918H253.761V59.3984Z" stroke="#A3A3A3" stroke-miterlimit="10"/>
<path d="M240.435 76.0117H224.145V96.3142H240.435V76.0117Z" fill="#D6D6D6"/>
<path d="M172.68 174.509V127.859H114.547V174.509H172.68Z" stroke="#A3A3A3" stroke-miterlimit="10"/>
<path d="M169.941 172.321V130.059H117.276V172.321H169.941Z" stroke="#A3A3A3" stroke-miterlimit="10"/>
<path d="M153.764 159.329V143.039H133.461V159.329H153.764Z" fill="#D6D6D6"/>
<path d="M237.644 127.516H178.094V201.713H237.644V127.516Z" stroke="#A3A3A3" stroke-miterlimit="10"/>
<path d="M235.244 130.508H180.494V198.728H235.244V130.508Z" stroke="#A3A3A3" stroke-miterlimit="10"/>
<path d="M218.272 151.656H197.475V177.569H218.272V151.656Z" fill="#D6D6D6"/>
<path d="M60.4414 191.004L75.4039 334.434" stroke="#263238" stroke-width="2" stroke-miterlimit="10"/>
<path d="M72.6515 306.413L66.209 299.82" stroke="#263238" stroke-width="2" stroke-miterlimit="10"/>
<path d="M68.2487 301.966C68.2358 300.869 67.9882 299.787 67.5225 298.793C67.0567 297.8 66.3838 296.917 65.5487 296.206C63.8087 294.653 54.6362 290.798 53.7662 294.023C52.8437 297.533 62.2487 304.433 68.2487 301.966Z" fill="#FF6501" stroke="#263238" stroke-miterlimit="10"/>
<path d="M68.271 301.965L59.541 296.527" stroke="#263238" stroke-width="0.5" stroke-miterlimit="10"/>
<path d="M73.8896 322.65L67.9121 316.125" stroke="#263238" stroke-width="2" stroke-miterlimit="10"/>
<path d="M69.9745 318.278C69.9616 317.181 69.714 316.099 69.2483 315.106C68.7825 314.112 68.1095 313.23 67.2745 312.518C65.5345 310.966 56.362 307.111 55.492 310.336C54.547 313.846 63.9295 320.746 69.9745 318.278Z" fill="#FF6501" stroke="#263238" stroke-miterlimit="10"/>
<path d="M69.9741 318.277L61.2441 312.84" stroke="#263238" stroke-width="0.5" stroke-miterlimit="10"/>
<path d="M68.5336 266.565L61.7461 259.395" stroke="#263238" stroke-width="2" stroke-miterlimit="10"/>
<path d="M64.1171 262.161C64.1042 261.064 63.8565 259.982 63.3908 258.989C62.9251 257.995 62.2521 257.113 61.4171 256.401C59.6771 254.849 50.5046 250.994 49.6346 254.219C48.6896 257.729 58.0721 264.628 64.1171 262.161Z" fill="#FF6501" stroke="#263238" stroke-miterlimit="10"/>
<path d="M64.1167 262.164L55.3867 256.727" stroke="#263238" stroke-width="0.5" stroke-miterlimit="10"/>
<path d="M69.8684 282.913L63.7559 276.32" stroke="#263238" stroke-width="2" stroke-miterlimit="10"/>
<path d="M65.8202 278.473C65.8073 277.376 65.5597 276.295 65.094 275.301C64.6283 274.308 63.9553 273.425 63.1202 272.714C61.3802 271.161 52.2077 267.306 51.3377 270.531C50.3927 274.041 59.7752 280.941 65.8202 278.473Z" fill="#FF6501" stroke="#263238" stroke-miterlimit="10"/>
<path d="M65.8198 278.477L57.0898 273.039" stroke="#263238" stroke-width="0.5" stroke-miterlimit="10"/>
<path d="M65.8496 240.082L59.2871 233.512" stroke="#263238" stroke-width="2" stroke-miterlimit="10"/>
<path d="M61.3498 235.665C61.3369 234.568 61.0893 233.486 60.6236 232.493C60.1579 231.499 59.4849 230.617 58.6498 229.905C56.9098 228.352 47.7448 224.497 46.8748 227.722C45.9298 231.232 55.3123 238.132 61.3498 235.665Z" fill="#FF6501" stroke="#263238" stroke-miterlimit="10"/>
<path d="M61.3495 235.664L52.627 230.227" stroke="#263238" stroke-width="0.5" stroke-miterlimit="10"/>
<path d="M62.7517 213.487L56.5117 206.902" stroke="#263238" stroke-width="2" stroke-miterlimit="10"/>
<path d="M58.5743 209.046C58.5608 207.95 58.3129 206.87 57.8472 205.878C57.3815 204.885 56.7088 204.004 55.8743 203.294C54.1343 201.749 44.9993 197.879 44.0918 201.111C43.1468 204.621 52.4993 211.499 58.5743 209.046Z" fill="#FF6501" stroke="#263238" stroke-miterlimit="10"/>
<path d="M58.5737 209.047L49.8438 203.609" stroke="#263238" stroke-width="0.5" stroke-miterlimit="10"/>
<path d="M71.8574 297.329L77.0174 288.922" stroke="#263238" stroke-width="2" stroke-miterlimit="10"/>
<path d="M75.4425 291.444C75.2284 290.369 75.2474 289.26 75.4984 288.192C75.7494 287.125 76.2266 286.124 76.8975 285.256C78.2775 283.374 86.4525 277.711 87.9676 280.689C89.6175 283.929 81.8625 292.614 75.4425 291.444Z" fill="#FF6501" stroke="#263238" stroke-miterlimit="10"/>
<path d="M75.4414 291.441L83.2939 283.934" stroke="#263238" stroke-width="0.5" stroke-miterlimit="10"/>
<path d="M67.3711 254.407L72.5311 245.992" stroke="#263238" stroke-width="2" stroke-miterlimit="10"/>
<path d="M70.9575 248.518C70.7458 247.443 70.7661 246.334 71.017 245.267C71.2679 244.2 71.7437 243.199 72.4125 242.331C73.8 240.448 81.9675 234.786 83.49 237.763C85.14 241.003 77.385 249.688 70.9575 248.518Z" fill="#FF6501" stroke="#263238" stroke-miterlimit="10"/>
<path d="M70.957 248.519L78.817 241.012" stroke="#263238" stroke-width="0.5" stroke-miterlimit="10"/>
<path d="M65.4062 235.544L70.5662 227.129" stroke="#263238" stroke-width="2" stroke-miterlimit="10"/>
<path d="M68.9999 229.659C68.7891 228.589 68.8092 227.486 69.0589 226.424C69.3085 225.362 69.7819 224.366 70.4474 223.502C71.8274 221.619 80.0024 215.949 81.5174 218.934C83.1674 222.144 75.4124 230.829 68.9999 229.659Z" fill="#FF6501" stroke="#263238" stroke-miterlimit="10"/>
<path d="M68.9922 229.656L76.8522 222.148" stroke="#263238" stroke-width="0.5" stroke-miterlimit="10"/>
<path d="M62.5195 207.892L67.6795 199.477" stroke="#263238" stroke-width="2" stroke-miterlimit="10"/>
<path d="M66.104 202.005C65.8923 200.93 65.9126 199.822 66.1635 198.755C66.4144 197.687 66.8902 196.686 67.559 195.818C68.939 193.935 77.114 188.265 78.6365 191.243C80.2865 194.49 72.524 203.168 66.104 202.005Z" fill="#FF6501" stroke="#263238" stroke-miterlimit="10"/>
<path d="M66.1035 202.003L73.9635 194.488" stroke="#263238" stroke-width="0.5" stroke-miterlimit="10"/>
<path d="M60.3136 190.206C60.0995 189.13 60.1185 188.021 60.3695 186.954C60.6205 185.887 61.0976 184.885 61.7686 184.018C63.1486 182.136 71.3236 176.473 72.8386 179.451C74.4886 182.691 66.7486 191.376 60.3136 190.206Z" fill="#FF6501" stroke="#263238" stroke-miterlimit="10"/>
<path d="M60.3145 190.207L68.1745 182.699" stroke="#263238" stroke-width="0.5" stroke-miterlimit="10"/>
<path d="M60.7498 190.498C59.6583 190.598 58.558 190.463 57.523 190.102C56.488 189.741 55.5424 189.163 54.7498 188.406C53.0248 186.831 48.2473 178.108 51.3673 176.916C54.7498 175.641 62.6023 184.266 60.7498 190.498Z" fill="#FF6501" stroke="#263238" stroke-miterlimit="10"/>
<path d="M60.772 190.529L54.127 181.934" stroke="#263238" stroke-width="0.5" stroke-miterlimit="10"/>
<path d="M99.9209 211.059L87.7109 334.434" stroke="#263238" stroke-width="2" stroke-miterlimit="10"/>
<path d="M88.3277 327.134L83.1602 318.719" stroke="#263238" stroke-width="2" stroke-miterlimit="10"/>
<path d="M84.7488 321.247C84.963 320.171 84.9439 319.062 84.6929 317.995C84.4419 316.928 83.9648 315.926 83.2938 315.059C81.8913 313.177 73.7163 307.499 72.2013 310.499C70.5513 313.739 78.3138 322.417 84.7488 321.247Z" fill="#FF6501" stroke="#263238" stroke-miterlimit="10"/>
<path d="M84.7339 321.246L77.3164 314.129" stroke="#263238" stroke-width="0.5" stroke-miterlimit="10"/>
<path d="M92.4585 287.325L87.291 278.918" stroke="#263238" stroke-width="2" stroke-miterlimit="10"/>
<path d="M88.8667 281.444C89.0785 280.367 89.0583 279.258 88.8074 278.19C88.5565 277.121 88.0807 276.119 87.4117 275.249C86.0242 273.374 77.8492 267.712 76.3342 270.689C74.6842 273.929 82.4467 282.614 88.8667 281.444Z" fill="#FF6501" stroke="#263238" stroke-miterlimit="10"/>
<path d="M88.8667 281.445L81.4492 274.32" stroke="#263238" stroke-width="0.5" stroke-miterlimit="10"/>
<path d="M90.7652 303.638L85.5977 295.23" stroke="#263238" stroke-width="2" stroke-miterlimit="10"/>
<path d="M87.1713 297.749C87.3856 296.672 87.3667 295.562 87.1157 294.493C86.8647 293.425 86.3875 292.422 85.7163 291.554C84.3288 289.679 76.1538 284.016 74.6388 286.994C72.9888 290.249 80.7513 298.926 87.1713 297.749Z" fill="#FF6501" stroke="#263238" stroke-miterlimit="10"/>
<path d="M87.1714 297.758L79.7539 290.633" stroke="#263238" stroke-width="0.5" stroke-miterlimit="10"/>
<path d="M95.2049 260.825L90.0449 252.418" stroke="#263238" stroke-width="2" stroke-miterlimit="10"/>
<path d="M91.6193 254.941C91.8258 253.863 91.7987 252.752 91.54 251.685C91.2812 250.617 90.7968 249.618 90.1193 248.754C88.7393 246.871 80.5568 241.216 79.0418 244.194C77.4368 247.434 85.1918 256.119 91.6193 254.941Z" fill="#FF6501" stroke="#263238" stroke-miterlimit="10"/>
<path d="M91.6184 254.938L84.1934 247.82" stroke="#263238" stroke-width="0.5" stroke-miterlimit="10"/>
<path d="M97.9647 234.208L92.8047 225.801" stroke="#263238" stroke-width="2" stroke-miterlimit="10"/>
<path d="M94.3791 228.331C94.5856 227.252 94.5585 226.142 94.2998 225.074C94.041 224.007 93.5566 223.008 92.8791 222.143C91.4991 220.261 83.3241 214.598 81.8091 217.576C80.1966 220.823 87.9591 229.501 94.3791 228.331Z" fill="#FF6501" stroke="#263238" stroke-miterlimit="10"/>
<path d="M94.3801 228.328L86.9551 221.211" stroke="#263238" stroke-width="0.5" stroke-miterlimit="10"/>
<path d="M89.1973 317.451L95.9773 310.281" stroke="#263238" stroke-width="2" stroke-miterlimit="10"/>
<path d="M93.9141 312.426C93.9276 311.33 94.1755 310.249 94.6412 309.257C95.1069 308.265 95.7796 307.384 96.6141 306.673C98.3541 305.113 107.519 301.251 108.389 304.483C109.342 307.993 99.9591 314.893 93.9141 312.426Z" fill="#FF6501" stroke="#263238" stroke-miterlimit="10"/>
<path d="M93.9141 312.425L103.154 306.695" stroke="#263238" stroke-width="0.5" stroke-miterlimit="10"/>
<path d="M93.6523 274.522L100.432 267.352" stroke="#263238" stroke-width="2" stroke-miterlimit="10"/>
<path d="M98.3691 269.503C98.3821 268.406 98.6297 267.324 99.0954 266.331C99.5611 265.337 100.234 264.455 101.069 263.743C102.809 262.191 111.974 258.328 112.844 261.553C113.797 265.063 104.414 271.963 98.3691 269.503Z" fill="#FF6501" stroke="#263238" stroke-miterlimit="10"/>
<path d="M98.3691 269.503L107.609 263.773" stroke="#263238" stroke-width="0.5" stroke-miterlimit="10"/>
<path d="M95.6094 255.658L102.389 248.488" stroke="#263238" stroke-width="2" stroke-miterlimit="10"/>
<path d="M100.326 250.633C100.34 249.537 100.588 248.456 101.053 247.464C101.519 246.472 102.192 245.591 103.026 244.88C104.766 243.32 113.931 239.458 114.801 242.69C115.754 246.2 106.371 253.1 100.326 250.633Z" fill="#FF6501" stroke="#263238" stroke-miterlimit="10"/>
<path d="M100.326 250.636L109.566 244.906" stroke="#263238" stroke-width="0.5" stroke-miterlimit="10"/>
<path d="M98.4746 228.006L105.262 220.836" stroke="#263238" stroke-width="2" stroke-miterlimit="10"/>
<path d="M103.199 222.983C103.212 221.886 103.46 220.805 103.925 219.811C104.391 218.818 105.064 217.935 105.899 217.223C107.639 215.671 116.804 211.808 117.674 215.033C118.619 218.543 109.244 225.451 103.199 222.983Z" fill="#FF6501" stroke="#263238" stroke-miterlimit="10"/>
<path d="M103.199 222.984L112.432 217.254" stroke="#263238" stroke-width="0.5" stroke-miterlimit="10"/>
<path d="M99.959 210.249C99.972 209.153 100.22 208.072 100.685 207.08C101.151 206.088 101.824 205.207 102.659 204.496C104.399 202.936 113.564 199.074 114.434 202.299C115.379 205.816 106.004 212.716 99.959 210.249Z" fill="#FF6501" stroke="#263238" stroke-miterlimit="10"/>
<path d="M99.959 210.246L109.191 204.516" stroke="#263238" stroke-width="0.5" stroke-miterlimit="10"/>
<path d="M100.334 210.659C99.2449 210.532 98.1961 210.174 97.2581 209.607C96.32 209.04 95.5145 208.279 94.896 207.374C93.531 205.477 90.651 195.959 93.951 195.434C97.5435 194.857 103.424 204.907 100.334 210.659Z" fill="#FF6501" stroke="#263238" stroke-miterlimit="10"/>
<path d="M100.334 210.659L95.6094 200.871" stroke="#263238" stroke-width="0.5" stroke-miterlimit="10"/>
<path d="M82.8594 153.051V334.431" stroke="#263238" stroke-width="2" stroke-miterlimit="10"/>
<path d="M83.0095 307.162L77.002 299.324" stroke="#263238" stroke-width="2" stroke-miterlimit="10"/>
<path d="M78.8321 301.68C78.9302 300.588 78.7943 299.488 78.4334 298.454C78.0726 297.419 77.4951 296.473 76.7396 295.68C75.1721 293.947 66.4496 289.162 65.2496 292.282C63.9446 295.672 72.5621 303.502 78.8321 301.68Z" fill="#FF6501" stroke="#263238" stroke-miterlimit="10"/>
<path d="M78.8318 301.678L70.7168 295.363" stroke="#263238" stroke-width="0.5" stroke-miterlimit="10"/>
<path d="M83.0095 273.076L77.002 265.238" stroke="#263238" stroke-width="2" stroke-miterlimit="10"/>
<path d="M78.8321 267.593C78.9302 266.501 78.7943 265.402 78.4334 264.367C78.0726 263.332 77.4951 262.386 76.7396 261.593C75.1721 259.868 66.4496 255.075 65.2496 258.195C63.9446 261.585 72.5621 269.415 78.8321 267.593Z" fill="#FF6501" stroke="#263238" stroke-miterlimit="10"/>
<path d="M78.8318 267.592L70.7168 261.277" stroke="#263238" stroke-width="0.5" stroke-miterlimit="10"/>
<path d="M83.0095 233.056L77.002 225.219" stroke="#263238" stroke-width="2" stroke-miterlimit="10"/>
<path d="M78.8321 227.574C78.9302 226.482 78.7943 225.383 78.4334 224.348C78.0726 223.313 77.4951 222.367 76.7396 221.574C75.1721 219.849 66.4496 215.056 65.2496 218.184C63.9446 221.566 72.5621 229.396 78.8321 227.574Z" fill="#FF6501" stroke="#263238" stroke-miterlimit="10"/>
<path d="M78.8318 227.573L70.7168 221.258" stroke="#263238" stroke-width="0.5" stroke-miterlimit="10"/>
<path d="M83.0095 206.416L77.002 198.578" stroke="#263238" stroke-width="2" stroke-miterlimit="10"/>
<path d="M78.8321 200.933C78.9302 199.841 78.7943 198.741 78.4334 197.707C78.0726 196.672 77.4951 195.726 76.7396 194.933C75.1721 193.208 66.4496 188.415 65.2496 191.535C63.9446 194.925 72.5621 202.755 78.8321 200.933Z" fill="#FF6501" stroke="#263238" stroke-miterlimit="10"/>
<path d="M78.8318 200.932L70.7168 194.617" stroke="#263238" stroke-width="0.5" stroke-miterlimit="10"/>
<path d="M83.0095 179.654L77.002 171.824" stroke="#263238" stroke-width="2" stroke-miterlimit="10"/>
<path d="M78.8321 174.172C78.9302 173.081 78.7943 171.981 78.4334 170.946C78.0726 169.912 77.4951 168.966 76.7396 168.172C75.1721 166.447 66.4496 161.662 65.2496 164.782C63.9446 168.165 72.5621 176.002 78.8321 174.172Z" fill="#FF6501" stroke="#263238" stroke-miterlimit="10"/>
<path d="M78.8318 174.17L70.7168 167.855" stroke="#263238" stroke-width="0.5" stroke-miterlimit="10"/>
<path d="M82.875 317.564L88.8825 309.734" stroke="#263238" stroke-width="2" stroke-miterlimit="10"/>
<path d="M87.0525 312.082C86.951 310.991 87.0846 309.891 87.4442 308.856C87.8039 307.821 88.3813 306.875 89.1375 306.082C90.7125 304.35 99.4275 299.565 100.627 302.685C101.932 306.082 93.315 313.912 87.0525 312.082Z" fill="#FF6501" stroke="#263238" stroke-miterlimit="10"/>
<path d="M87.0527 312.082L95.6477 305.43" stroke="#263238" stroke-width="0.5" stroke-miterlimit="10"/>
<path d="M82.875 263.353L88.8825 255.523" stroke="#263238" stroke-width="2" stroke-miterlimit="10"/>
<path d="M87.0519 257.871C86.9514 256.781 87.0854 255.681 87.4451 254.646C87.8047 253.611 88.3815 252.665 89.1369 251.871C90.7119 250.146 99.4269 245.361 100.627 248.481C101.932 251.864 93.3144 259.701 87.0519 257.871Z" fill="#FF6501" stroke="#263238" stroke-miterlimit="10"/>
<path d="M87.0527 257.871L95.6477 251.219" stroke="#263238" stroke-width="0.5" stroke-miterlimit="10"/>
<path d="M82.875 236.596L88.8825 228.766" stroke="#263238" stroke-width="2" stroke-miterlimit="10"/>
<path d="M87.0525 231.113C86.951 230.022 87.0846 228.922 87.4442 227.887C87.8039 226.852 88.3813 225.906 89.1375 225.113C90.7125 223.381 99.4275 218.596 100.627 221.716C101.932 225.113 93.315 232.943 87.0525 231.113Z" fill="#FF6501" stroke="#263238" stroke-miterlimit="10"/>
<path d="M87.0527 231.113L95.6477 224.461" stroke="#263238" stroke-width="0.5" stroke-miterlimit="10"/>
<path d="M82.875 201.232L88.8825 193.402" stroke="#263238" stroke-width="2" stroke-miterlimit="10"/>
<path d="M87.0519 195.75C86.9514 194.659 87.0854 193.56 87.4451 192.525C87.8047 191.49 88.3815 190.544 89.1369 189.75C90.7119 188.025 99.4269 183.24 100.627 186.36C101.932 189.75 93.3144 197.58 87.0519 195.75Z" fill="#FF6501" stroke="#263238" stroke-miterlimit="10"/>
<path d="M87.0527 195.75L95.6477 189.098" stroke="#263238" stroke-width="0.5" stroke-miterlimit="10"/>
<path d="M82.875 173.431L88.8825 165.594" stroke="#263238" stroke-width="2" stroke-miterlimit="10"/>
<path d="M87.0519 167.948C86.9514 166.857 87.0854 165.757 87.4451 164.723C87.8047 163.688 88.3815 162.742 89.1369 161.948C90.7119 160.223 99.4269 155.431 100.627 158.551C101.932 161.941 93.3144 169.771 87.0519 167.948Z" fill="#FF6501" stroke="#263238" stroke-miterlimit="10"/>
<path d="M87.0527 167.949L95.6477 161.289" stroke="#263238" stroke-width="0.5" stroke-miterlimit="10"/>
<path d="M82.4998 155.609C82.3982 154.518 82.5318 153.418 82.8915 152.383C83.2512 151.348 83.8286 150.402 84.5848 149.609C86.1598 147.877 94.8748 143.092 96.0748 146.212C97.3948 149.609 88.7773 157.439 82.4998 155.609Z" fill="#FF6501" stroke="#263238" stroke-miterlimit="10"/>
<path d="M82.5137 155.61L91.1087 148.957" stroke="#263238" stroke-width="0.5" stroke-miterlimit="10"/>
<path d="M82.9345 156C81.8381 155.984 80.7577 155.735 79.7656 155.268C78.7735 154.801 77.8926 154.127 77.182 153.292C75.6295 151.545 71.782 142.38 75.007 141.51C78.5245 140.55 85.4095 149.94 82.9345 156Z" fill="#FF6501" stroke="#263238" stroke-miterlimit="10"/>
<path d="M82.9338 155.986L77.2188 146.738" stroke="#263238" stroke-width="0.5" stroke-miterlimit="10"/>
<path d="M186.832 334.537C184.169 326.362 177.659 306.165 178.184 305.385C178.829 304.41 178.829 299.205 178.829 299.205C178.829 299.205 157.679 301.807 142.717 289.117C127.754 276.427 109.852 261.465 109.852 261.465C109.852 261.465 107.249 269.25 104.647 277.41C102.449 284.287 98.152 322.807 96.877 334.537H186.832Z" fill="#263238" stroke="#263238" stroke-linecap="round" stroke-linejoin="round"/>
<path d="M134.49 311.871C138.285 315.381 144.848 321.569 149.678 326.766" stroke="#6E6E6E" stroke-linecap="round" stroke-linejoin="round"/>
<path d="M131.445 309.082L132.623 310.155" stroke="#6E6E6E" stroke-linecap="round" stroke-linejoin="round"/>
<path d="M205.29 171.75C205.29 171.75 183.045 181.08 172.883 187.95C162.72 194.82 142.133 214.86 136.088 222.825C130.043 230.79 115.215 247.575 111.375 252.202C107.535 256.83 105.06 259.62 106.125 267.308C107.19 274.995 113.813 287.355 120.953 293.67C128.093 299.985 142.365 307.875 160.77 307.125C171.473 306.69 177.795 304.38 183.563 298.613C189.33 292.845 198.12 277.74 205.808 270.33C213.495 262.92 226.673 247.83 226.673 247.83C226.673 247.83 261.825 260.46 265.118 260.46C268.41 260.46 284.895 251.123 285.165 248.378C285.435 245.633 248.918 221.468 245.625 215.423C242.333 209.378 235.5 198.375 235.5 198.375C235.5 198.375 219 174.488 205.29 171.75Z" fill="#7D7D7D" stroke="#263238" stroke-linecap="round" stroke-linejoin="round"/>
<path d="M245.654 215.397C242.354 209.359 235.491 198.372 235.491 198.372C232.043 193.521 228.253 188.922 224.151 184.609C222.793 184.832 221.499 185.343 220.356 186.109C211.836 192.387 215.856 208.077 216.764 220.609C217.387 228.334 219.691 235.829 223.514 242.569L210.246 265.894C217.709 258.124 226.746 247.797 226.746 247.797C226.746 247.797 261.899 260.427 265.191 260.427C268.484 260.427 284.969 251.089 285.239 248.344C285.509 245.599 248.946 221.442 245.654 215.397Z" fill="#263238" stroke="#263238" stroke-linecap="round" stroke-linejoin="round"/>
<path d="M195.105 178.161C195.105 178.161 189.697 175.461 185.91 188.444C182.122 201.426 191.857 235.514 196.732 236.054C201.607 236.594 211.882 211.169 213.502 203.594C215.122 196.019 210.255 173.294 195.105 178.161Z" fill="#FF6501" stroke="#263238" stroke-linecap="round" stroke-linejoin="round"/>
<path d="M211.874 206.341C211.874 206.341 209.069 208.726 205.011 211.831C200.346 215.401 199.484 222.046 196.191 218.198C192.899 214.351 187.986 187.396 191.009 181.898C194.031 176.401 205.259 168.991 206.106 168.443C206.954 167.896 214.619 178.058 215.174 185.468C215.729 192.878 211.874 206.341 211.874 206.341Z" fill="white" stroke="#263238" stroke-linecap="round" stroke-linejoin="round"/>
<path d="M206.107 168.44C205.289 168.987 194.024 176.405 191.009 181.895C189.817 184.055 189.862 189.545 190.544 195.635C191.624 196.37 192.794 197.152 194.054 197.982C204.232 204.695 211.874 206.337 211.874 206.337L212.437 176.99C209.999 172.107 206.639 168.087 206.107 168.44Z" fill="#263238" stroke="#263238" stroke-linecap="round" stroke-linejoin="round"/>
<path d="M254.999 175.582L243.464 195.352C239.617 201.945 235.214 209.602 227.534 211.282C219.854 212.962 212.437 214.027 208.312 207.435C204.187 200.842 199.799 192.06 202.544 179.977C205.289 167.895 209.962 164.325 215.729 159.93C221.497 155.535 227.249 152.79 233.842 155.25C240.434 157.71 254.999 175.582 254.999 175.582Z" fill="white" stroke="#263238" stroke-linecap="round" stroke-linejoin="round"/>
<path d="M231.653 182.368C231.075 183.388 230.108 183.936 229.5 183.583C228.893 183.231 228.863 182.128 229.44 181.108C230.018 180.088 230.985 179.548 231.6 179.893C232.215 180.238 232.238 181.348 231.653 182.368Z" fill="#263238" stroke="#263238" stroke-linecap="round" stroke-linejoin="round"/>
<path d="M243.585 188.017C243.007 189.037 242.04 189.584 241.432 189.239C240.825 188.894 240.795 187.777 241.372 186.757C241.95 185.737 242.917 185.197 243.532 185.542C244.147 185.887 244.17 187.004 243.585 188.017Z" fill="#263238" stroke="#263238" stroke-linecap="round" stroke-linejoin="round"/>
<path d="M228.299 174.142C229.682 173.893 231.102 173.932 232.47 174.256C233.837 174.58 235.124 175.182 236.249 176.024" stroke="#263238" stroke-width="2" stroke-linecap="round" stroke-linejoin="round"/>
<path d="M243.383 180.082C243.383 180.082 248.97 180.375 248.73 184.432" stroke="#263238" stroke-width="2" stroke-linecap="round" stroke-linejoin="round"/>
<path d="M222.195 194.414C222.195 194.414 223.695 199.192 230.955 201.352" stroke="#263238" stroke-linecap="round" stroke-linejoin="round"/>
<path d="M241.604 183.75L239.909 187.717C239.909 187.717 236.159 197.1 235.491 198.353C234.824 199.605 229.709 197.063 228.299 194.798" stroke="#263238" stroke-linecap="round" stroke-linejoin="round"/>
<path d="M209.678 173.384C209.678 173.384 210.503 173.384 212.678 172.011C214.853 170.639 217.35 173.114 222.563 171.186C227.775 169.259 220.365 161.849 227.505 161.301C234.645 160.754 238.493 172.289 247.275 176.406C256.058 180.524 262.11 178.881 265.95 168.989C269.79 159.096 264.308 153.336 259.913 148.949C255.518 144.561 259.913 143.699 258.54 136.866C257.168 130.034 250.29 127.251 243.713 129.726C237.135 132.201 238.763 134.121 235.193 134.121C231.623 134.121 228.33 129.449 218.445 131.369C208.56 133.289 200.873 143.729 199.77 153.614C198.668 163.499 201.968 173.931 203.34 174.486C204.713 175.041 209.678 173.384 209.678 173.384Z" fill="#263238" stroke="#263238" stroke-linecap="round" stroke-linejoin="round"/>
<path d="M209.693 177C209.693 177 212.408 168.57 209.528 166.073C206.648 163.575 201.87 165.173 200.888 168.9C199.905 172.628 198.353 179.318 199.98 181.028C201.608 182.738 204.788 182.22 204.788 182.22" fill="white"/>
<path d="M209.693 177C209.693 177 212.408 168.57 209.528 166.073C206.648 163.575 201.87 165.173 200.888 168.9C199.905 172.628 198.353 179.318 199.98 181.028C201.608 182.738 204.788 182.22 204.788 182.22" stroke="#263238" stroke-linecap="round" stroke-linejoin="round"/>
<path d="M300.75 334.537L288.945 291.164C288.074 287.961 286.173 285.133 283.535 283.118C280.897 281.102 277.669 280.011 274.35 280.012H227.122C223.35 280.011 219.713 281.419 216.925 283.961C214.138 286.503 212.401 289.995 212.055 293.752L208.305 334.537H300.75Z" fill="#263238" stroke="#263238" stroke-linecap="round" stroke-linejoin="round"/>
<path d="M267.074 245.622C267.074 245.622 231.644 261.552 230.002 263.195C228.359 264.837 218.189 334.535 218.189 334.535H340.394C340.394 334.535 321.442 260.997 318.974 259.355C316.507 257.712 284.099 244.25 283.274 244.25C282.449 244.25 267.074 245.622 267.074 245.622Z" fill="#FF6501" stroke="#263238" stroke-linecap="round" stroke-linejoin="round"/>
<path d="M309.749 248.625C309.749 248.625 313.251 248.79 313.889 249.742C314.526 250.695 316.139 256.59 315.479 257.992C314.819 259.395 313.409 258.15 312.479 256.402C311.549 254.655 310.724 252.9 310.724 252.9L308.969 251.625L309.749 248.625Z" fill="white" stroke="#263238" stroke-linecap="round" stroke-linejoin="round"/>
<path d="M305.251 245.121C305.251 245.121 309.713 245.601 310.351 247.191C310.988 248.781 310.823 252.929 310.186 255.314C309.548 257.699 308.438 259.296 307.478 258.501C306.518 257.706 304.613 249.261 304.613 248.309C304.613 247.356 304.771 245.121 305.251 245.121Z" fill="white" stroke="#263238" stroke-linecap="round" stroke-linejoin="round"/>
<path d="M302.071 242.895C302.071 242.895 306.211 244.012 307.006 245.145C307.801 246.277 307.801 252.472 307.006 254.857C306.211 257.242 304.299 257.857 303.339 257.25C302.379 256.642 301.434 252.63 301.434 250.717C301.434 248.805 302.071 242.895 302.071 242.895Z" fill="white" stroke="#263238" stroke-linecap="round" stroke-linejoin="round"/>
<path d="M296.803 242.204C296.803 242.204 301.01 240.584 302.3 242.204C303.59 243.824 302.945 256.109 301.978 257.407C301.01 258.704 298.093 257.407 298.093 255.787C298.093 254.167 296.998 249.749 296.998 249.749L291.98 247.709C291.98 247.709 294.538 242.204 296.803 242.204Z" fill="white" stroke="#263238" stroke-linecap="round" stroke-linejoin="round"/>
<path d="M296.969 249.739L296.496 245.922" stroke="#263238" stroke-linecap="round" stroke-linejoin="round"/>
<path d="M265.101 246.838C265.101 246.838 259.753 247.903 259.401 252.186C259.048 256.468 260.113 277.483 262.963 279.621C265.813 281.758 279.748 271.776 279.748 271.776C279.748 271.776 290.751 277.498 293.248 275.698C295.746 273.898 293.601 255.388 288.261 248.263C282.921 241.138 265.101 246.838 265.101 246.838Z" fill="white" stroke="#263238" stroke-linecap="round" stroke-linejoin="round"/>
<path d="M243.254 311.555L248.669 282.883" stroke="#263238" stroke-linecap="round" stroke-linejoin="round"/>
<path d="M309.801 277.469L316.296 300.974L311.968 333.741" stroke="#263238" stroke-linecap="round" stroke-linejoin="round"/>
<path d="M249.525 242.235C258.853 242.235 266.415 235.043 266.415 226.17C266.415 217.298 258.853 210.105 249.525 210.105C240.197 210.105 232.635 217.298 232.635 226.17C232.635 235.043 240.197 242.235 249.525 242.235Z" fill="#263238" stroke="#263238" stroke-linecap="round" stroke-linejoin="round"/>
<path d="M255.848 240.749C256.692 240.418 257.501 240.003 258.263 239.512" stroke="#6E6E6E" stroke-linecap="round" stroke-linejoin="round"/>
<path d="M234.75 218.812C234.75 218.812 230.76 229.613 237.337 236.888C241.965 242.018 248.34 242.602 253.177 241.515" stroke="#6E6E6E" stroke-linecap="round" stroke-linejoin="round"/>
<path d="M263.774 236.562C263.774 236.562 263.504 247.272 263.504 250.295C263.504 253.317 272.564 266.795 278.054 267.59C283.544 268.385 285.741 258.252 286.019 253.587C286.296 248.922 287.391 242.337 287.391 242.337C287.391 242.337 271.499 245.622 263.774 236.562Z" fill="white" stroke="#263238" stroke-linecap="round" stroke-linejoin="round"/>
<path d="M283.823 246.875L281.033 242.907C275.723 242.952 268.283 241.91 263.783 236.562C263.783 236.562 263.61 243.477 263.535 247.76C276.285 250.452 283.823 246.875 283.823 246.875Z" fill="#263238" stroke="#263238" stroke-linecap="round" stroke-linejoin="round"/>
<path d="M258.285 228.598C258.285 228.598 261.577 237.658 266.25 242.053C270.922 246.448 279.983 252.215 286.298 248.915C292.613 245.615 296.73 241.228 298.38 231.073C300.03 220.918 298.38 197.57 298.38 197.57C298.38 197.57 297.555 192.628 288.765 190.978C279.975 189.328 264.878 192.35 261.855 198.395C258.833 204.44 258 212.398 258 217.34C258 222.283 258.285 228.598 258.285 228.598Z" fill="white" stroke="#263238" stroke-linecap="round" stroke-linejoin="round"/>
<path d="M278.841 221.429C279.546 221.429 280.116 220.478 280.116 219.306C280.116 218.134 279.546 217.184 278.841 217.184C278.137 217.184 277.566 218.134 277.566 219.306C277.566 220.478 278.137 221.429 278.841 221.429Z" fill="#263238" stroke="#263238" stroke-linecap="round" stroke-linejoin="round"/>
<path d="M293.288 218.31C293.288 219.487 292.718 220.44 292.013 220.44C291.308 220.44 290.738 219.487 290.738 218.31C290.738 217.132 291.308 216.188 292.013 216.188C292.718 216.188 293.288 217.14 293.288 218.31Z" fill="#263238" stroke="#263238" stroke-linecap="round" stroke-linejoin="round"/>
<path d="M275.016 214.635C275.016 214.635 276.148 210.953 280.963 211.515" stroke="#263238" stroke-linecap="round" stroke-linejoin="round"/>
<path d="M289.176 211.498C289.176 211.498 292.011 207.538 295.971 212.631" stroke="#263238" stroke-linecap="round" stroke-linejoin="round"/>
<path d="M289.176 219.75C289.176 219.75 288.043 222.862 289.176 224.25C290.308 225.638 290.878 228.503 288.891 229.065C287.418 229.429 285.908 229.621 284.391 229.635" stroke="#263238" stroke-linecap="round" stroke-linejoin="round"/>
<path d="M277.852 234.449C277.852 234.449 281.534 237.854 288.892 236.152" stroke="#263238" stroke-linecap="round" stroke-linejoin="round"/>
<path d="M293.707 197.075L299.37 210.38C299.37 210.38 305.887 205.288 304.755 196.79C303.622 188.293 298.807 187.73 298.807 187.73L293.707 197.075Z" fill="#263238" stroke="#263238" stroke-linecap="round" stroke-linejoin="round"/>
<path d="M256.634 215.692C256.634 215.692 257.699 219.442 260.991 216.967C264.284 214.492 267.891 206.632 267.891 206.632C267.891 206.632 263.504 212.399 266.249 214.049C268.994 215.699 280.499 212.669 293.159 200.317C305.819 187.964 303.321 180.817 297.276 175.874C291.231 170.932 277.506 178.874 277.506 178.874C277.506 178.874 267.891 175.874 255.816 182.992C243.741 190.109 245.924 206.887 247.851 209.902C249.779 212.917 250.049 218.437 256.634 215.692Z" fill="#263238" stroke="#263238" stroke-linecap="round" stroke-linejoin="round"/>
<path d="M259.627 218.691C259.627 218.691 257.429 211.821 253.859 212.098C250.289 212.376 248.092 223.348 252.487 228.298C256.882 233.248 259.349 229.123 259.349 229.123" fill="white"/>
<path d="M259.627 218.691C259.627 218.691 257.429 211.821 253.859 212.098C250.289 212.376 248.092 223.348 252.487 228.298C256.882 233.248 259.349 229.123 259.349 229.123" stroke="#263238" stroke-linecap="round" stroke-linejoin="round"/>
<path d="M257.685 227.997C257.686 228.347 257.583 228.69 257.39 228.982C257.196 229.274 256.92 229.502 256.597 229.637C256.274 229.773 255.918 229.809 255.574 229.741C255.23 229.674 254.914 229.506 254.666 229.259C254.417 229.011 254.248 228.696 254.179 228.352C254.11 228.009 254.145 227.653 254.279 227.329C254.412 227.005 254.639 226.728 254.93 226.533C255.222 226.338 255.564 226.234 255.915 226.234C256.383 226.234 256.832 226.42 257.163 226.75C257.495 227.08 257.683 227.529 257.685 227.997Z" fill="#FF6501" stroke="#263238" stroke-linecap="round" stroke-linejoin="round"/>
<path d="M293.436 270.613L301.686 288.463C301.686 288.463 332.991 306.861 334.911 307.686C336.831 308.511 342.051 313.453 342.876 320.038C343.701 326.623 339.876 330.478 335.188 330.478C330.501 330.478 326.128 329.376 322.558 326.361C318.988 323.346 295.093 293.683 295.093 293.683C295.093 293.683 289.881 290.683 288.508 289.558C287.136 288.433 285.756 285.441 285.756 285.441C285.756 285.441 283.011 286.813 281.091 286.543C279.171 286.273 276.148 279.951 276.148 279.951C276.148 279.951 279.148 270.066 279.996 268.701C280.843 267.336 288.246 267.051 288.246 267.051L293.436 270.613Z" fill="white" stroke="#263238" stroke-linecap="round" stroke-linejoin="round"/>
<path d="M282.172 282.696L285.194 281.594L285.742 282.974V285.441" stroke="#263238" stroke-linecap="round" stroke-linejoin="round"/>
<path d="M264.878 285.747L271.74 264.875C271.74 264.875 279.705 261.875 281.903 261.305C284.1 260.735 290.685 266.555 292.065 266.795C293.445 267.035 294.255 270.365 293.438 270.642C292.62 270.92 289.868 269.54 289.868 269.54L281.618 270.92C281.618 270.92 279.15 283.82 276.405 286.842C274.152 289.112 271.665 291.138 268.988 292.887C268.988 292.887 242.355 324.747 240.435 327.747C238.515 330.747 229.185 336.26 222.585 332.412C215.985 328.565 219.585 319.235 221.49 315.912C223.395 312.59 264.878 285.747 264.878 285.747Z" fill="white" stroke="#263238" stroke-linecap="round" stroke-linejoin="round"/>
<path d="M292.063 266.764L284.998 265.234L279.988 266.352" stroke="#263238" stroke-linecap="round" stroke-linejoin="round"/>
<path d="M277.004 264.418L284.444 263.016L286.671 263.293" stroke="#263238" stroke-linecap="round" stroke-linejoin="round"/>
<path d="M178.763 191.555C178.763 191.555 183.713 204.74 182.888 217.917C182.063 231.095 186.18 274.212 187.283 278.877C188.385 283.542 189.75 291.515 189.75 291.515C189.75 291.515 232.86 312.38 240.555 315.402C246.204 317.515 251.98 319.268 257.85 320.652C257.85 320.652 274.05 315.155 275.7 313.782C277.35 312.41 281.467 314.33 281.467 314.33C281.467 314.33 290.257 316.805 290.805 317.63C291.352 318.455 291.075 329.435 291.075 329.435C291.075 329.435 292.178 332.435 291.353 332.735C290.527 333.035 281.468 335.202 278.445 334.377C275.423 333.552 267.465 329.982 267.465 329.982C267.465 329.982 261.42 332.18 258.397 331.632C255.375 331.085 251.535 330.26 251.535 330.26C251.535 330.26 200.46 322.01 186.728 318.725C172.995 315.44 164.49 313.512 163.118 308.57C161.745 303.627 147.735 242.937 147.188 239.645" fill="#7D7D7D"/>
<path d="M178.763 191.555C178.763 191.555 183.713 204.74 182.888 217.917C182.063 231.095 186.18 274.212 187.283 278.877C188.385 283.542 189.75 291.515 189.75 291.515C189.75 291.515 232.86 312.38 240.555 315.402C246.204 317.515 251.98 319.268 257.85 320.652C257.85 320.652 274.05 315.155 275.7 313.782C277.35 312.41 281.468 314.33 281.468 314.33C281.468 314.33 290.257 316.805 290.805 317.63C291.352 318.455 291.075 329.435 291.075 329.435C291.075 329.435 292.178 332.435 291.353 332.735C290.528 333.035 281.468 335.202 278.445 334.377C275.423 333.552 267.465 329.982 267.465 329.982C267.465 329.982 261.42 332.18 258.397 331.632C255.375 331.085 251.535 330.26 251.535 330.26C251.535 330.26 200.46 322.01 186.728 318.725C172.995 315.44 164.49 313.512 163.118 308.57C161.745 303.627 147.735 242.937 147.188 239.645" stroke="#263238" stroke-linecap="round" stroke-linejoin="round"/>
<path d="M270.854 323.781H287.999C289.65 323.781 291.233 324.437 292.401 325.605C293.568 326.772 294.224 328.355 294.224 330.006V334.506H264.629V330.006C264.629 328.355 265.285 326.772 266.452 325.605C267.62 324.437 269.203 323.781 270.854 323.781Z" fill="#263238" stroke="#263238" stroke-linecap="round" stroke-linejoin="round"/>
<path d="M278.444 334.349C281.444 335.174 290.526 332.976 291.351 332.706C292.176 332.436 291.074 329.406 291.074 329.406C291.074 329.406 291.351 318.426 290.804 317.601C290.256 316.776 281.466 314.301 281.466 314.301C281.466 314.301 277.349 312.381 275.699 313.754C274.049 315.126 257.849 320.624 257.849 320.624C251.979 319.24 246.202 317.487 240.554 315.374C237.831 314.309 230.691 311.009 222.591 307.191C212.249 309.966 211.416 318.989 211.671 323.481C230.421 326.796 251.534 330.231 251.534 330.231C251.534 330.231 255.381 331.056 258.396 331.604C261.411 332.151 267.464 329.954 267.464 329.954C267.464 329.954 275.429 333.524 278.444 334.349Z" fill="white" stroke="#263238" stroke-linecap="round" stroke-linejoin="round"/>
<path d="M281.191 317.055C281.191 317.055 285.864 322.545 287.506 324.742C289.149 326.94 291.076 329.407 291.076 329.407" stroke="#263238" stroke-linecap="round" stroke-linejoin="round"/>
<path d="M274.328 318.695C274.328 318.695 281.468 326.113 283.388 327.485C285.308 328.858 287.783 333.523 287.783 333.523" stroke="#263238" stroke-linecap="round" stroke-linejoin="round"/>
<path d="M268.559 323.367C268.559 323.367 277.619 329.952 278.721 330.777C279.98 331.896 281.172 333.088 282.291 334.347" stroke="#263238" stroke-linecap="round" stroke-linejoin="round"/>
<path d="M228.794 310.125C226.836 309.218 224.751 308.243 222.591 307.223C212.249 309.998 211.416 319.02 211.671 323.513L219.111 324.818C220.026 316.628 225.531 312.113 228.794 310.125Z" fill="#FF6501" stroke="#263238" stroke-linecap="round" stroke-linejoin="round"/>
<path d="M313.125 329.672H424.77V334.502H308.723V334.037C308.734 332.876 309.203 331.767 310.027 330.95C310.852 330.133 311.965 329.674 313.125 329.672Z" fill="#263238" stroke="#263238" stroke-linecap="round" stroke-linejoin="round"/>
<path d="M424.769 329.672H354.164V334.539H424.769V329.672Z" fill="white" stroke="#263238" stroke-linecap="round" stroke-linejoin="round"/>
<path d="M432.479 274.891H361.874L354.164 329.258H424.769L432.479 274.891Z" fill="white" stroke="#263238" stroke-linecap="round" stroke-linejoin="round"/>
<path d="M424.77 329.249L431.52 281.512C422.392 288.614 409.238 299.587 394.178 312.074C382.68 321.644 373.05 326.647 366 329.249H424.77Z" fill="#263238" stroke="#263238" stroke-linecap="round" stroke-linejoin="round"/>
<path d="M395.019 310.996C398.755 310.996 401.784 308.454 401.784 305.318C401.784 302.183 398.755 299.641 395.019 299.641C391.283 299.641 388.254 302.183 388.254 305.318C388.254 308.454 391.283 310.996 395.019 310.996Z" fill="white" stroke="#263238" stroke-linecap="round" stroke-linejoin="round"/>
<path d="M453 334.539H459.637" stroke="#263238" stroke-linecap="round" stroke-linejoin="round"/>
<path d="M51 334.539H447.75" stroke="#263238" stroke-linecap="round" stroke-linejoin="round"/>
<path d="M422.408 184.457H367.988C365.089 184.457 362.738 186.808 362.738 189.707V204.092C362.738 206.992 365.089 209.342 367.988 209.342H422.408C425.308 209.342 427.658 206.992 427.658 204.092V189.707C427.658 186.808 425.308 184.457 422.408 184.457Z" fill="#FF6501" stroke="#263238" stroke-linecap="round" stroke-linejoin="round"/>
<path d="M382.133 191.91C383.633 191.91 384.443 192.825 384.443 194.43V194.745H382.943V194.31C382.943 193.598 382.658 193.328 382.155 193.328C381.653 193.328 381.405 193.598 381.405 194.31C381.405 196.373 384.473 196.755 384.473 199.613C384.473 201.218 383.678 202.133 382.133 202.133C380.588 202.133 379.785 201.218 379.785 199.613V198.998H381.285V199.748C381.285 200.46 381.6 200.715 382.103 200.715C382.605 200.715 382.92 200.46 382.92 199.748C382.92 197.685 379.845 197.303 379.845 194.445C379.815 192.81 380.603 191.91 382.133 191.91Z" fill="#263238"/>
<path d="M386.934 196.244H389.087V197.669H386.934V200.601H389.649V202.026H385.359V192.059H389.649V193.484H386.934V196.244Z" fill="#263238"/>
<path d="M390.613 192.059H392.181V200.631H394.768V202.056H390.613V192.059Z" fill="#263238"/>
<path d="M397.029 196.244H399.227V197.669H397.067V200.601H399.782V202.026H395.477V192.059H399.767V193.484H397.052L397.029 196.244Z" fill="#263238"/>
<path d="M405.27 198.3V199.628C405.27 201.233 404.467 202.148 402.93 202.148C401.392 202.148 400.582 201.233 400.582 199.628V194.43C400.582 192.825 401.385 191.91 402.93 191.91C404.475 191.91 405.27 192.825 405.27 194.43V195.398H403.77V194.31C403.77 193.598 403.455 193.328 402.952 193.328C402.45 193.328 402.142 193.598 402.142 194.31V199.718C402.142 200.43 402.457 200.685 402.952 200.685C403.447 200.685 403.77 200.43 403.77 199.718V198.285L405.27 198.3Z" fill="#263238"/>
<path d="M405.773 192.059H410.626V193.484H408.976V202.056H407.408V193.454H405.766L405.773 192.059Z" fill="#263238"/>
<path d="M416.474 220.77C416.474 220.77 413.249 215.565 412.207 214.77C411.164 213.975 408.667 214.02 408.254 215.805C407.842 217.59 408.877 218.512 409.604 219.24C410.548 220.435 411.417 221.687 412.207 222.99C413.099 224.437 413.294 226.665 414.082 228.24C415.882 231.847 419.414 234.907 423.614 234.93C428.264 234.93 432.719 230.947 433.364 226.312C433.619 224.347 433.664 218.872 433.672 216.982C433.678 216.56 433.532 216.15 433.259 215.827C432.91 215.424 432.428 215.158 431.901 215.077C431.373 214.996 430.834 215.105 430.379 215.385L430.034 215.595L429.667 215.017C429.4 214.561 429.003 214.196 428.527 213.967C428.122 213.753 427.658 213.677 427.206 213.75C426.754 213.823 426.339 214.042 426.022 214.372L425.662 214.77L425.242 214.087C424.327 212.985 422.347 212.88 421.492 214.035V205.785C421.492 205.134 421.233 204.51 420.773 204.05C420.313 203.59 419.69 203.332 419.039 203.332C418.389 203.332 417.765 203.59 417.305 204.05C416.845 204.51 416.587 205.134 416.587 205.785L416.474 220.77Z" fill="white" stroke="#263238" stroke-linecap="round" stroke-linejoin="round"/>
<path d="M425.602 214.738V219.523" stroke="#263238" stroke-linecap="round" stroke-linejoin="round"/>
<path d="M429.977 215.566V219.834" stroke="#263238" stroke-linecap="round" stroke-linejoin="round"/>
<path d="M421.441 214.004V218.894" stroke="#263238" stroke-linecap="round" stroke-linejoin="round"/>
<path d="M418.988 196.648V201.508" stroke="#263238" stroke-linecap="round" stroke-linejoin="round"/>
<path d="M422.918 204.504H427.035" stroke="#263238" stroke-linecap="round" stroke-linejoin="round"/>
<path d="M410.387 204.504H414.504" stroke="#263238" stroke-linecap="round" stroke-linejoin="round"/>
<path d="M421.98 201.512L423.668 199.457" stroke="#263238" stroke-linecap="round" stroke-linejoin="round"/>
<path d="M415.434 201.512L413.754 199.457" stroke="#263238" stroke-linecap="round" stroke-linejoin="round"/>
<path d="M446.686 86.25H344.034C340.857 86.25 338.281 88.8255 338.281 92.0025V236.31C338.281 239.487 340.857 242.063 344.034 242.063H446.686C449.863 242.063 452.439 239.487 452.439 236.31V92.0025C452.439 88.8255 449.863 86.25 446.686 86.25Z" stroke="#263238" stroke-linecap="round" stroke-linejoin="round"/>
<path d="M446.22 86.2501H344.475C342.824 86.2501 341.241 86.906 340.073 88.0734C338.906 89.2408 338.25 90.8241 338.25 92.4751V93.8101H452.475V92.4601C452.474 91.6411 452.311 90.8303 451.996 90.0744C451.681 89.3185 451.219 88.6323 450.638 88.0552C450.057 87.4782 449.367 87.0217 448.609 86.7119C447.851 86.4021 447.039 86.2452 446.22 86.2501Z" fill="#263238" stroke="#263238" stroke-linecap="round" stroke-linejoin="round"/>
<path d="M435.126 91.6428C436.095 91.6428 436.881 90.8571 436.881 89.8878C436.881 88.9186 436.095 88.1328 435.126 88.1328C434.157 88.1328 433.371 88.9186 433.371 89.8878C433.371 90.8571 434.157 91.6428 435.126 91.6428Z" fill="white" stroke="#263238" stroke-linecap="round" stroke-linejoin="round"/>
<path d="M441.622 91.6428C442.591 91.6428 443.377 90.8571 443.377 89.8878C443.377 88.9186 442.591 88.1328 441.622 88.1328C440.653 88.1328 439.867 88.9186 439.867 89.8878C439.867 90.8571 440.653 91.6428 441.622 91.6428Z" fill="white" stroke="#263238" stroke-linecap="round" stroke-linejoin="round"/>
<path d="M398.43 242.602V275.069" stroke="#263238" stroke-linecap="round" stroke-linejoin="round"/>
<path d="M383.559 105.769C383.559 108.323 384.458 111.149 385.916 113.663C386.147 114.062 386.391 114.454 386.649 114.838C386.907 115.222 387.177 115.59 387.458 115.944C387.705 116.258 387.964 116.566 388.226 116.86C388.351 116.998 388.482 117.148 388.607 117.271C389.519 118.236 390.564 119.068 391.712 119.742C392.251 120.055 392.82 120.313 393.412 120.511C393.601 120.575 393.79 120.627 393.973 120.67C394.93 120.934 395.945 120.902 396.883 120.58C398.705 119.915 399.866 117.989 399.869 115.085C399.869 109.939 396.217 103.684 391.721 101.112C387.225 98.5399 383.559 100.634 383.559 105.769Z" fill="#FAFAFA"/>
<path d="M385.73 113.354C385.792 113.464 385.85 113.57 385.911 113.674C386.036 113.893 386.167 114.109 386.307 114.319C386.446 114.529 386.531 114.671 386.647 114.846C386.907 115.23 387.177 115.599 387.456 115.952C387.48 115.984 387.505 116.015 387.532 116.044L387.968 113.648C387.002 113.38 386.283 113.274 385.73 113.354Z" fill="#263238"/>
<path d="M386.309 114.32C386.419 114.495 386.533 114.67 386.649 114.847C386.909 115.231 387.179 115.6 387.458 115.953C387.482 115.985 387.507 116.016 387.534 116.045C387.758 116.333 387.991 116.621 388.229 116.872L388.605 117.281C389.517 118.248 390.563 119.082 391.712 119.757C392.252 120.069 392.821 120.327 393.412 120.526C393.601 120.587 393.787 120.639 393.974 120.682C394.668 120.864 395.393 120.902 396.104 120.794C396.369 120.755 396.629 120.689 396.881 120.595C397.205 120.477 397.513 120.317 397.794 120.117C397.704 119.449 397.524 118.928 397.227 118.677C396.153 117.865 393.499 115.046 391.02 114.409C390.042 114.159 389.067 113.879 387.97 113.637C387.388 113.516 386.806 113.738 386.309 114.32Z" fill="#37474F"/>
<path d="M395.099 105.88C396.437 107.559 395.483 109.241 395.003 110.837C394.447 112.645 394.22 113.328 393.603 113.553C393.999 108.901 392.8 111.874 390.201 110.589C389.178 109.971 388.327 109.109 387.725 108.084C387.628 107.842 387.515 107.607 387.387 107.381C386.747 106.908 386.514 106.088 387.041 105.434C386.86 105.407 386.694 105.316 386.575 105.178C386.457 105.039 386.392 104.863 386.395 104.682C386.397 104.5 386.465 104.326 386.587 104.191C386.709 104.055 386.876 103.968 387.058 103.945C386.462 103.26 386.639 102.217 387.143 101.949C387.434 101.779 387.725 101.845 388.088 102.038C388.462 102.27 388.864 102.454 389.284 102.586C390.335 102.874 391.263 102.931 392.331 103.185C393.719 103.513 395.186 104.328 395.099 105.88Z" fill="#37474F"/>
<path d="M395.083 112.557C394.469 112.845 393.951 112.01 393.951 112.01L393.645 116.007C393.645 116.007 393.185 117.082 390.13 116.768C389.394 116.693 388.14 115.806 389.746 114.769L389.807 113.551C389.392 113.451 388.99 113.306 388.608 113.119C388.041 112.796 387.665 112.255 387.47 111.27C387.153 109.706 387.307 107.526 387.892 104.781C388.844 105.766 390.916 104.271 392.627 106.123C392.158 107.031 392.833 108.715 393.444 109.055C393.25 109.844 393.351 110.224 393.581 110.308C393.986 110.455 394.262 109.908 394.501 109.692C394.739 109.476 395.499 109.297 395.845 110.285C396.192 111.273 395.615 112.31 395.083 112.557Z" fill="#FFA8A7"/>
<path d="M389.804 113.543C390.529 113.71 391.914 113.652 392.458 113.226C392.816 112.928 393.119 112.572 393.355 112.172C393.264 112.733 392.984 113.247 392.56 113.629C391.449 114.493 389.77 114.148 389.77 114.148L389.804 113.543Z" fill="#F28F8F"/>
<path d="M391.27 107.517L391.98 108.214C392.042 108.098 392.064 107.965 392.043 107.835C392.022 107.705 391.959 107.585 391.863 107.494C391.827 107.449 391.781 107.413 391.729 107.389C391.676 107.365 391.618 107.353 391.56 107.356C391.502 107.358 391.446 107.374 391.395 107.402C391.345 107.43 391.302 107.47 391.27 107.517Z" fill="#37474F"/>
<path d="M388.052 106.646L388.925 106.594C388.912 106.469 388.853 106.352 388.759 106.265C388.666 106.179 388.544 106.129 388.416 106.125C388.356 106.132 388.298 106.151 388.246 106.182C388.194 106.213 388.149 106.254 388.114 106.304C388.08 106.353 388.056 106.409 388.046 106.468C388.035 106.527 388.037 106.588 388.052 106.646Z" fill="#37474F"/>
<path d="M391.572 108.748C391.574 108.794 391.565 108.84 391.545 108.882C391.526 108.924 391.497 108.96 391.46 108.988C391.423 109.016 391.38 109.036 391.334 109.044C391.288 109.052 391.241 109.05 391.197 109.036C391.099 108.998 391.015 108.93 390.959 108.842C390.902 108.754 390.874 108.651 390.88 108.547C390.878 108.501 390.887 108.455 390.906 108.413C390.926 108.371 390.955 108.335 390.992 108.306C391.029 108.278 391.072 108.259 391.118 108.251C391.163 108.243 391.21 108.245 391.255 108.259C391.353 108.297 391.437 108.365 391.494 108.452C391.551 108.54 391.578 108.644 391.572 108.748Z" fill="#37474F"/>
<path d="M388.842 107.82C388.844 107.866 388.835 107.912 388.815 107.954C388.795 107.996 388.766 108.032 388.729 108.06C388.693 108.088 388.649 108.108 388.604 108.116C388.558 108.124 388.511 108.122 388.466 108.108C388.365 108.071 388.278 108.002 388.219 107.913C388.16 107.823 388.131 107.717 388.138 107.61C388.135 107.564 388.145 107.517 388.164 107.475C388.184 107.433 388.214 107.397 388.251 107.368C388.288 107.34 388.331 107.321 388.378 107.313C388.424 107.305 388.471 107.308 388.516 107.322C388.617 107.36 388.703 107.429 388.761 107.518C388.82 107.608 388.848 107.714 388.842 107.82Z" fill="#37474F"/>
<path d="M390.197 107.887L389.687 110.225L388.523 109.404C388.977 108.728 389.693 108.031 390.197 107.887Z" fill="#F28F8F"/>
<path d="M390.607 111.027L389.344 111.094C389.347 111.173 389.366 111.251 389.399 111.323C389.433 111.395 389.481 111.46 389.54 111.514C389.6 111.567 389.669 111.609 389.745 111.636C389.821 111.662 389.901 111.674 389.981 111.67C390.065 111.668 390.147 111.65 390.224 111.617C390.301 111.584 390.37 111.536 390.428 111.477C390.486 111.417 390.532 111.347 390.563 111.27C390.593 111.192 390.608 111.11 390.607 111.027Z" fill="#B16668"/>
<path d="M389.982 111.662C389.873 111.669 389.764 111.645 389.668 111.593C389.729 111.465 389.826 111.356 389.947 111.28C390.068 111.204 390.208 111.164 390.352 111.164C390.432 111.164 390.512 111.178 390.588 111.204C390.546 111.333 390.466 111.446 390.358 111.527C390.249 111.609 390.118 111.656 389.982 111.662Z" fill="#F28F8F"/>
<path d="M396.117 120.793C396.383 120.754 396.643 120.687 396.894 120.594C397.219 120.476 397.526 120.315 397.808 120.116C398.005 119.974 398.189 119.815 398.358 119.641C398.007 119.299 397.634 118.981 397.24 118.688C396.705 119.293 396.321 120.014 396.117 120.793Z" fill="#263238"/>
<path d="M388.069 100.463C389.28 100.514 390.457 100.874 391.485 101.508C395.85 104.005 399.415 110.099 399.415 115.096C399.415 117.688 398.432 119.549 396.723 120.174C396.285 120.332 395.822 120.411 395.356 120.407C394.925 120.405 394.496 120.351 394.078 120.248C393.909 120.208 393.732 120.159 393.552 120.099C392.99 119.909 392.449 119.664 391.936 119.367C390.826 118.715 389.814 117.909 388.933 116.974C388.814 116.844 388.686 116.709 388.564 116.574C388.319 116.286 388.066 115.998 387.813 115.678C387.56 115.358 387.275 114.967 387.021 114.598C386.768 114.229 386.527 113.84 386.306 113.446C384.824 110.891 384.01 108.167 384.01 105.774C384.01 102.496 385.566 100.457 388.069 100.457M388.069 100.014C385.395 100.014 383.559 102.122 383.559 105.774C383.559 108.328 384.458 111.153 385.916 113.668C386.147 114.067 386.391 114.459 386.649 114.843C386.907 115.227 387.177 115.595 387.458 115.949C387.705 116.263 387.964 116.571 388.226 116.864C388.351 117.003 388.482 117.152 388.607 117.276C389.519 118.241 390.564 119.073 391.712 119.747C392.251 120.06 392.82 120.318 393.412 120.516C393.601 120.58 393.79 120.631 393.973 120.675C394.426 120.786 394.89 120.844 395.356 120.847C395.876 120.853 396.393 120.764 396.881 120.585C398.702 119.92 399.863 117.993 399.866 115.09C399.866 109.944 396.214 103.688 391.718 101.117C390.621 100.437 389.363 100.055 388.069 100.008V100.014Z" fill="#FF6501"/>
<path d="M383.44 97.7485C382.171 97.0228 381.141 97.6103 381.141 99.0618C381.184 99.8507 381.415 100.618 381.814 101.303C382.214 101.987 382.77 102.568 383.44 102.999C384.708 103.725 385.736 103.137 385.736 101.688C385.693 100.899 385.463 100.131 385.064 99.4467C384.665 98.7621 384.108 98.1803 383.44 97.7485Z" fill="#FF6501"/>
<path d="M382.121 99.6208C382.136 99.5942 382.156 99.5708 382.18 99.5519C382.205 99.5331 382.233 99.5193 382.262 99.5113C382.292 99.5032 382.323 99.5011 382.354 99.5051C382.385 99.5091 382.414 99.519 382.441 99.5344L383.203 99.9722V98.9037C383.2 98.8711 383.203 98.8381 383.213 98.8068C383.223 98.7755 383.24 98.7467 383.262 98.7223C383.284 98.6978 383.311 98.6782 383.341 98.6649C383.372 98.6515 383.404 98.6445 383.437 98.6445C383.471 98.6445 383.503 98.6515 383.534 98.6649C383.564 98.6782 383.591 98.6978 383.613 98.7223C383.635 98.7467 383.652 98.7755 383.662 98.8068C383.672 98.8381 383.675 98.8711 383.672 98.9037V100.24L384.67 100.816C384.714 100.842 384.749 100.881 384.769 100.928C384.789 100.976 384.792 101.028 384.779 101.077C384.766 101.127 384.737 101.17 384.696 101.202C384.655 101.233 384.605 101.25 384.553 101.251C384.512 101.25 384.471 101.239 384.434 101.219L383.672 100.784V101.85C383.675 101.883 383.672 101.916 383.662 101.947C383.652 101.978 383.635 102.007 383.613 102.031C383.591 102.056 383.564 102.075 383.534 102.089C383.503 102.102 383.471 102.109 383.437 102.109C383.404 102.109 383.372 102.102 383.341 102.089C383.311 102.075 383.284 102.056 383.262 102.031C383.24 102.007 383.223 101.978 383.213 101.947C383.203 101.916 383.2 101.883 383.203 101.85V100.508L382.205 99.9319C382.179 99.9169 382.156 99.897 382.137 99.8733C382.119 99.8496 382.106 99.8225 382.098 99.7937C382.09 99.7648 382.088 99.7346 382.092 99.705C382.096 99.6753 382.106 99.6467 382.121 99.6208Z" fill="#FAFAFA"/>
<path d="M383.559 153.293C383.559 155.848 384.458 158.673 385.916 161.187C386.147 161.587 386.391 161.978 386.649 162.362C386.907 162.746 387.177 163.115 387.458 163.468C387.705 163.782 387.964 164.09 388.226 164.384C388.351 164.522 388.482 164.672 388.607 164.796C389.519 165.761 390.564 166.593 391.712 167.267C392.251 167.579 392.821 167.837 393.412 168.036C393.601 168.099 393.79 168.151 393.973 168.194C394.93 168.458 395.945 168.427 396.883 168.105C398.705 167.44 399.866 165.513 399.869 162.61C399.869 157.463 396.217 151.208 391.721 148.636C387.225 146.064 383.559 148.152 383.559 153.293Z" fill="#FAFAFA"/>
<path d="M396.097 156.889C396.054 157.482 395.859 158.554 396.563 159.438C397.267 160.322 397.436 161.387 396.685 162.168C395.934 162.948 396.333 163.32 396.825 163.985C397.316 164.651 397.282 165.834 396.184 165.923C395.087 166.013 388.397 162.917 387.708 162.131C387.018 161.344 386.715 160.653 387.155 159.962C387.594 159.271 388.319 159.046 388.319 157.978C388.319 156.909 387.446 156.149 387.815 155.446C388.185 154.743 396.097 156.889 396.097 156.889Z" fill="#455A64"/>
<path d="M387.332 162.861C387.446 163.031 387.556 163.201 387.679 163.368C387.801 163.535 387.97 163.78 388.121 163.984L388.889 161.602C387.274 161.118 386.983 161.314 386.523 161.519C386.678 161.827 387.073 162.455 387.292 162.795L387.332 162.861Z" fill="#FF6501"/>
<path d="M387.677 163.371L388.119 163.984C388.119 163.999 388.143 164.01 388.151 164.024C388.404 164.361 388.666 164.687 388.931 164.998L389.312 165.439C389.411 165.542 389.507 165.649 389.603 165.755C390.25 166.325 390.952 166.829 391.699 167.262C392.238 167.573 392.807 167.831 393.398 168.033C393.587 168.094 393.773 168.146 393.96 168.186C394.215 168.249 394.475 168.296 394.737 168.327C395.206 168.384 395.682 168.372 396.148 168.293C396.148 168.244 396.148 168.195 396.148 168.146C396.302 164.92 395.179 164.088 395.161 164.082C395.144 164.076 394.699 163.86 394.434 163.739C393.907 163.503 390.101 162.809 390.101 162.809L388.867 161.594C388.867 161.594 387.735 161.899 387.121 162.573C387.153 162.582 387.386 162.953 387.677 163.371Z" fill="#455A64"/>
<path d="M393.236 161.459C393.37 160.361 395.089 160.595 395.901 158.167C396.32 156.911 396.125 154.394 394.72 153.786C394.08 151.407 391.519 149.973 389.13 150.08C387.89 150.06 386.837 151.059 386.4 152.148C385.495 154.564 386.895 156.151 387.331 156.888C387.558 157.274 387.896 155.16 388.056 155.575C388.184 155.889 388.287 156.212 388.364 156.542C388.671 157.14 389.115 157.659 389.659 158.057C390.85 159.189 392.086 160.298 393.236 161.459Z" fill="#455A64"/>
<path d="M393.111 162.506L393.402 160.115C393.402 160.115 394.019 160.717 394.674 160.248C394.998 160.044 395.232 159.726 395.328 159.358C395.423 158.99 395.374 158.599 395.189 158.266C395.111 158.108 394.994 157.971 394.848 157.869C394.703 157.767 394.534 157.704 394.357 157.683C394.18 157.663 394.001 157.688 393.836 157.754C393.671 157.821 393.526 157.928 393.414 158.065C392.797 158.027 392.605 157.045 393.123 156.262C393.123 156.262 393.37 154.574 392.25 153.842C391.4 153.287 390.815 153.526 389.852 153.54C389.156 153.292 389.087 152.296 388.19 152.44C387.859 152.817 387.291 153.488 387.422 155.058C387.386 155.396 387.311 155.728 387.198 156.049C386.846 157.644 387.445 159.45 388.109 159.977C388.591 160.383 389.165 160.669 389.782 160.809L389.706 161.474C389.671 161.809 389.596 161.794 389.314 161.722L388.889 161.616C388.889 161.616 388.307 162.48 390.317 163.39C393.297 164.738 394.456 163.761 394.456 163.761C394.456 163.761 394.284 163.689 393.766 163.45C393.248 163.211 393.126 162.958 393.111 162.506Z" fill="#FFA8A7"/>
<path d="M390.688 158.59L389.582 158.613C389.608 158.778 389.69 158.929 389.813 159.042C389.937 159.155 390.095 159.224 390.263 159.238C390.338 159.231 390.41 159.208 390.475 159.17C390.54 159.131 390.594 159.079 390.635 159.017C390.676 158.954 390.702 158.883 390.711 158.809C390.721 158.735 390.712 158.66 390.688 158.59Z" fill="#9A4A4D"/>
<path d="M390.604 158.831C390.54 158.804 390.472 158.791 390.403 158.793C390.334 158.795 390.266 158.812 390.204 158.842C390.142 158.872 390.087 158.914 390.043 158.967C389.999 159.02 389.967 159.081 389.949 159.147C390.042 159.208 390.152 159.24 390.264 159.24C390.367 159.237 390.466 159.198 390.544 159.13C390.622 159.062 390.673 158.97 390.688 158.868L390.604 158.831Z" fill="#F28F8F"/>
<path d="M388.069 154.121L388.889 154C388.86 153.878 388.789 153.771 388.689 153.694C388.589 153.618 388.465 153.579 388.339 153.582C388.283 153.596 388.23 153.621 388.185 153.657C388.139 153.692 388.102 153.737 388.077 153.789C388.051 153.84 388.037 153.897 388.035 153.954C388.034 154.011 388.045 154.068 388.069 154.121Z" fill="#263238"/>
<path d="M391.648 155.612L390.895 154.927C390.929 154.88 390.974 154.843 391.025 154.816C391.077 154.789 391.134 154.775 391.192 154.774C391.25 154.772 391.308 154.784 391.361 154.808C391.414 154.832 391.46 154.868 391.497 154.912C391.596 154.997 391.664 155.111 391.691 155.237C391.719 155.364 391.703 155.495 391.648 155.612Z" fill="#263238"/>
<path d="M388.634 155.521C388.639 155.568 388.633 155.615 388.615 155.658C388.598 155.701 388.571 155.74 388.535 155.771C388.5 155.801 388.458 155.823 388.412 155.834C388.366 155.844 388.318 155.844 388.273 155.833C388.169 155.806 388.076 155.748 388.009 155.665C387.942 155.582 387.904 155.481 387.9 155.375C387.895 155.328 387.901 155.281 387.918 155.238C387.935 155.195 387.963 155.156 387.998 155.126C388.034 155.095 388.076 155.073 388.122 155.063C388.168 155.052 388.215 155.052 388.261 155.064C388.365 155.09 388.457 155.148 388.524 155.231C388.592 155.314 388.63 155.416 388.634 155.521Z" fill="#263238"/>
<path d="M391.263 156.63C391.269 156.677 391.262 156.724 391.245 156.767C391.228 156.81 391.201 156.849 391.165 156.88C391.13 156.91 391.087 156.932 391.042 156.943C390.996 156.953 390.948 156.953 390.903 156.941C390.799 156.915 390.707 156.856 390.64 156.774C390.574 156.691 390.536 156.589 390.533 156.484C390.528 156.439 390.534 156.393 390.55 156.351C390.566 156.308 390.592 156.27 390.626 156.24C390.659 156.209 390.7 156.187 390.744 156.175C390.788 156.162 390.834 156.161 390.879 156.17C390.986 156.194 391.081 156.252 391.151 156.335C391.22 156.419 391.26 156.522 391.263 156.63Z" fill="#263238"/>
<path d="M389.781 160.796C391.178 161.084 392.534 161.018 392.883 160.453C392.883 160.453 392.845 161.176 392.263 161.346C391.445 161.585 389.723 161.3 389.723 161.3L389.781 160.796Z" fill="#F28F8F"/>
<path d="M392.936 156.622L392.723 156.443L392.54 156.34C391.97 155.999 391.356 155.736 390.716 155.556C390.134 155.444 389.907 155.524 389.584 155.378C389.261 155.231 389.106 154.977 388.577 154.571C388.226 154.326 387.849 154.122 387.45 153.964C387.253 153.877 387.058 153.802 386.868 153.736L386.697 153.678C386.601 153.647 386.487 153.733 386.484 153.883C386.494 154.027 386.539 154.166 386.615 154.289C386.641 154.336 386.659 154.386 386.668 154.439C386.69 154.777 386.736 155.113 386.807 155.444C386.88 155.689 387.006 155.915 387.177 156.106C387.354 156.3 387.57 156.455 387.811 156.561C387.929 156.617 388.052 156.662 388.178 156.694H388.207C388.302 156.716 388.4 156.724 388.498 156.72H388.545H388.577H388.609H388.644H388.676L388.74 156.691C388.848 156.635 388.942 156.554 389.013 156.455C389.199 156.207 389.205 155.746 389.464 155.807H389.496L389.528 155.821C389.872 155.98 389.784 156.443 389.941 156.872C390.039 157.152 390.195 157.408 390.4 157.623C390.606 157.838 390.855 158.007 391.132 158.119L391.231 158.163L391.306 158.191C391.366 158.213 391.427 158.232 391.49 158.246L391.548 158.26H391.603H391.638C391.709 158.269 391.78 158.269 391.85 158.26H391.923C391.966 158.252 392.008 158.239 392.048 158.22C392.153 158.17 392.244 158.093 392.31 157.998C392.434 157.741 392.532 157.472 392.601 157.195C392.615 157.154 392.639 157.117 392.671 157.088L392.755 157.028L392.805 157.068L393.71 157.8C393.843 157.727 393.992 157.688 394.143 157.684L392.936 156.622ZM388.879 156.011C388.862 156.065 388.839 156.117 388.812 156.167V156.181V156.198L388.786 156.233L388.763 156.262L388.743 156.279L388.725 156.296C388.568 156.429 388.303 156.486 387.852 156.276C387.701 156.203 387.563 156.106 387.445 155.988C387.385 155.933 387.331 155.873 387.285 155.807C387.117 155.56 387.017 155.274 386.994 154.977C386.959 154.712 386.933 154.208 387.061 154.156C387.106 154.14 387.155 154.134 387.203 154.139H387.264H387.302H387.334H387.363H387.395C387.416 154.142 387.437 154.148 387.456 154.156L387.523 154.177L387.596 154.203H387.637L387.669 154.217L387.759 154.254L387.791 154.269H387.82C387.902 154.306 387.986 154.352 388.076 154.404C388.422 154.595 388.72 154.859 388.949 155.179C389.036 155.455 389.011 155.753 388.879 156.011ZM392.267 157.451C392.268 157.457 392.268 157.463 392.267 157.468L392.235 157.555C392.225 157.572 392.216 157.589 392.208 157.607L392.162 157.69C392.154 157.699 392.148 157.709 392.141 157.719V157.733L392.127 157.751L392.109 157.774L392.089 157.797L392.063 157.82L392.034 157.843C391.877 157.964 391.629 158.013 391.222 157.843C390.898 157.71 390.623 157.485 390.43 157.195C390.314 157.013 390.238 156.809 390.209 156.596C390.168 156.308 390.16 155.974 390.285 155.876C390.339 155.844 390.4 155.827 390.462 155.827H390.672C390.758 155.836 390.843 155.849 390.928 155.867L391.027 155.89C391.111 155.91 391.199 155.936 391.286 155.965L391.344 155.988C391.733 156.107 392.083 156.327 392.357 156.625C392.453 156.806 392.333 157.247 392.267 157.463V157.451Z" fill="#263238"/>
<path d="M388.32 156.903L389.484 157.684L389.851 156.333C389.807 156.091 389.758 155.887 389.56 155.792L389.528 155.777H389.496L388.32 156.903Z" fill="#F28F8F"/>
<path d="M394.749 168.335C395.219 168.392 395.694 168.38 396.16 168.301C396.788 168.193 397.381 167.938 397.889 167.558C396.9 164.914 396.725 164.701 395.183 164.102C393.92 165.282 394.513 167.575 394.749 168.335Z" fill="#FF6501"/>
<path d="M388.069 147.981C389.28 148.031 390.457 148.391 391.485 149.026C395.85 151.523 399.415 157.617 399.415 162.614C399.415 165.206 398.432 167.066 396.723 167.691C396.285 167.85 395.822 167.929 395.356 167.925C394.925 167.922 394.496 167.869 394.078 167.766C393.909 167.726 393.732 167.677 393.552 167.616C392.99 167.427 392.449 167.182 391.936 166.885C390.826 166.232 389.814 165.427 388.933 164.492C388.814 164.362 388.686 164.227 388.564 164.091C388.319 163.818 388.066 163.515 387.813 163.196C387.56 162.876 387.275 162.484 387.021 162.116C386.768 161.747 386.53 161.358 386.306 160.964C384.824 158.409 384.01 155.685 384.01 153.291C384.01 150.014 385.566 147.975 388.069 147.975M388.069 147.531C385.395 147.531 383.559 149.639 383.559 153.291C383.559 155.846 384.458 158.671 385.916 161.185C386.147 161.585 386.391 161.976 386.649 162.36C386.907 162.744 387.177 163.113 387.458 163.466C387.705 163.78 387.964 164.088 388.226 164.382C388.351 164.52 388.482 164.67 388.607 164.794C389.519 165.759 390.564 166.591 391.712 167.265C392.251 167.577 392.821 167.835 393.412 168.034C393.601 168.097 393.79 168.149 393.973 168.192C394.426 168.304 394.89 168.362 395.356 168.365C395.876 168.37 396.393 168.282 396.881 168.103C398.702 167.438 399.863 165.511 399.866 162.608C399.866 157.461 396.214 151.206 391.718 148.634C390.62 147.957 389.362 147.577 388.069 147.531Z" fill="#FF6501"/>
<path d="M383.44 145.258C382.168 144.536 381.141 145.123 381.141 146.572C381.183 147.361 381.414 148.129 381.814 148.814C382.213 149.499 382.77 150.08 383.44 150.512C384.708 151.237 385.736 150.65 385.736 149.198C385.692 148.409 385.462 147.641 385.063 146.957C384.664 146.272 384.108 145.691 383.44 145.258Z" fill="#FF6501"/>
<path d="M382.118 147.134C382.15 147.081 382.201 147.042 382.262 147.026C382.322 147.01 382.386 147.018 382.441 147.048L383.203 147.483V146.414C383.21 146.357 383.237 146.305 383.28 146.266C383.324 146.228 383.38 146.207 383.438 146.207C383.496 146.207 383.552 146.228 383.595 146.266C383.638 146.305 383.665 146.357 383.672 146.414V147.754L384.67 148.33C384.724 148.361 384.763 148.412 384.78 148.472C384.796 148.532 384.788 148.595 384.757 148.649C384.737 148.685 384.707 148.714 384.671 148.734C384.635 148.754 384.595 148.765 384.554 148.765C384.512 148.765 384.47 148.754 384.434 148.733L383.672 148.298V149.366C383.676 149.399 383.672 149.432 383.662 149.463C383.652 149.495 383.635 149.523 383.613 149.548C383.591 149.572 383.564 149.592 383.534 149.605C383.504 149.619 383.471 149.626 383.438 149.626C383.404 149.626 383.372 149.619 383.341 149.605C383.311 149.592 383.284 149.572 383.262 149.548C383.24 149.523 383.223 149.495 383.213 149.463C383.203 149.432 383.2 149.399 383.203 149.366V148.021L382.205 147.445C382.153 147.415 382.115 147.365 382.098 147.307C382.082 147.249 382.089 147.187 382.118 147.134Z" fill="#FAFAFA"/>
<path d="M404.848 165.45C404.848 168.005 405.747 170.83 407.202 173.345C407.432 173.745 407.679 174.137 407.938 174.52C408.197 174.903 408.465 175.268 408.747 175.625C408.994 175.939 409.25 176.248 409.515 176.541C409.64 176.68 409.768 176.829 409.897 176.953C410.806 177.918 411.849 178.75 412.996 179.424C413.535 179.736 414.104 179.994 414.695 180.193C414.884 180.257 415.073 180.308 415.257 180.352C416.213 180.615 417.228 180.584 418.167 180.262C419.988 179.597 421.149 177.67 421.149 174.767C421.149 169.621 417.5 163.365 413.001 160.793C408.503 158.222 404.848 160.304 404.848 165.45Z" fill="#FAFAFA"/>
<path d="M407.008 173.029C407.072 173.139 407.127 173.245 407.191 173.349C407.313 173.568 407.447 173.784 407.584 173.994C407.721 174.204 407.811 174.345 407.927 174.521C408.183 174.904 408.454 175.273 408.733 175.63C408.76 175.659 408.783 175.69 408.809 175.722L409.249 173.323C408.282 173.055 407.564 172.951 407.008 173.029Z" fill="#263238"/>
<path d="M407.586 173.992C407.699 174.168 407.813 174.343 407.929 174.519C408.185 174.902 408.456 175.271 408.735 175.628C408.762 175.656 408.785 175.688 408.811 175.72C409.038 176.008 409.268 176.281 409.509 176.544C409.632 176.679 409.76 176.832 409.885 176.952C410.795 177.92 411.841 178.754 412.99 179.429C413.53 179.74 414.099 179.997 414.689 180.198C414.881 180.259 415.068 180.311 415.254 180.357C415.949 180.537 416.674 180.574 417.384 180.466C417.649 180.427 417.91 180.36 418.161 180.267C418.485 180.149 418.793 179.988 419.075 179.789C418.984 179.121 418.804 178.6 418.493 178.349C417.422 177.511 414.771 174.706 412.288 174.081C411.311 173.833 410.336 173.551 409.239 173.309C408.651 173.188 408.081 173.41 407.586 173.992Z" fill="#FF6501"/>
<g opacity="0.2">
<path d="M407.586 173.992C407.699 174.168 407.813 174.343 407.929 174.519C408.185 174.902 408.456 175.271 408.735 175.628C408.762 175.656 408.785 175.688 408.811 175.72C409.038 176.008 409.268 176.281 409.509 176.544C409.632 176.679 409.76 176.832 409.885 176.952C410.795 177.92 411.841 178.754 412.99 179.429C413.53 179.74 414.099 179.997 414.689 180.198C414.881 180.259 415.068 180.311 415.254 180.357C415.949 180.537 416.674 180.574 417.384 180.466C417.649 180.427 417.91 180.36 418.161 180.267C418.485 180.149 418.793 179.988 419.075 179.789C418.984 179.121 418.804 178.6 418.493 178.349C417.422 177.511 414.771 174.706 412.288 174.081C411.311 173.833 410.336 173.551 409.239 173.309C408.651 173.188 408.081 173.41 407.586 173.992Z" fill="white"/>
</g>
<path d="M416.709 165.595C416.687 165.666 416.659 165.735 416.625 165.802C417.713 166.295 418.571 167.559 417.233 168.357C418.045 169.013 417.684 169.969 416.82 170.35C416.668 170.528 416.796 170.79 416.82 171.021C416.83 171.14 416.81 171.259 416.762 171.369C416.714 171.478 416.639 171.574 416.544 171.648C416.449 171.721 416.337 171.77 416.218 171.79C416.099 171.81 415.976 171.8 415.862 171.761C415.923 172.147 415.644 172.749 415.146 172.734L415.228 171.686C415.228 171.686 415.362 170.764 414.885 170.56C414.468 170.465 414.044 170.641 413.624 170.655C412.091 170.822 410.811 169.745 409.932 168.616C409.907 168.566 409.872 168.521 409.829 168.485C409.786 168.449 409.736 168.422 409.681 168.406C409.181 168.118 409.149 167.458 409.309 166.966C409.211 167.037 409.101 167.089 408.983 167.117C408.866 167.146 408.743 167.152 408.624 167.134C408.382 167.098 408.164 166.969 408.018 166.774C407.873 166.579 407.812 166.335 407.848 166.096C407.884 165.856 408.015 165.641 408.212 165.497C408.061 165.566 407.891 165.582 407.73 165.542C407.569 165.503 407.426 165.411 407.324 165.281C407.223 165.151 407.169 164.99 407.172 164.826C407.175 164.662 407.233 164.503 407.339 164.377C407.321 164.457 407.329 164.542 407.362 164.618C407.396 164.693 407.453 164.757 407.526 164.798C407.598 164.84 407.682 164.857 407.765 164.848C407.848 164.839 407.926 164.804 407.988 164.748C408.192 164.555 408.127 164.227 408.052 163.956C407.996 163.829 407.975 163.689 407.992 163.551C408.009 163.414 408.063 163.283 408.148 163.173C408.386 162.767 409.265 162.528 409.809 162.839C409.787 162.561 409.864 162.285 410.029 162.059C410.193 161.833 410.433 161.673 410.706 161.606C411.454 161.361 412.091 161.894 412.743 162.11C413.857 161.707 415.155 162.337 415.17 163.596C416.383 163.659 417.119 164.391 416.709 165.595Z" fill="#FFBDA7"/>
<path d="M416.361 172.233C415.744 172.521 415.229 171.686 415.229 171.686L414.921 175.683C414.921 175.683 414.604 176.475 412.535 176.441C410.928 176.412 409.77 175.482 411.022 174.445L411.086 173.227C410.671 173.128 410.269 172.983 409.887 172.795C409.319 172.472 408.865 171.45 408.67 170.491C408.353 168.927 408.583 167.202 409.171 164.469C410.122 165.454 412.191 163.959 413.911 165.811C413.443 166.718 414.115 168.403 414.729 168.743C414.531 169.532 414.633 169.912 414.866 169.995C415.27 170.145 415.547 169.595 415.782 169.379C416.018 169.163 416.783 168.985 417.13 169.972C417.476 170.96 416.894 171.986 416.361 172.233Z" fill="#FFA8A7"/>
<path d="M411.086 173.229C411.409 173.286 412.631 173.321 413.065 173.139C413.439 173.013 413.782 172.81 414.071 172.543C414.36 172.276 414.588 171.951 414.741 171.59C414.71 171.963 414.585 172.323 414.379 172.637C414.173 172.951 413.891 173.21 413.559 173.39C412.796 173.809 411.913 173.965 411.051 173.833L411.086 173.229Z" fill="#F28F8F"/>
<path d="M412.301 166.92L413.011 167.617C413.072 167.5 413.093 167.367 413.072 167.238C413.051 167.108 412.989 166.989 412.894 166.897C412.859 166.851 412.813 166.815 412.76 166.791C412.707 166.767 412.65 166.756 412.592 166.758C412.534 166.76 412.477 166.776 412.427 166.804C412.376 166.832 412.333 166.872 412.301 166.92Z" fill="#F28F8F"/>
<path d="M409.33 166.322L410.203 166.27C410.191 166.145 410.132 166.028 410.039 165.941C409.946 165.855 409.824 165.805 409.697 165.801C409.636 165.807 409.577 165.826 409.525 165.856C409.472 165.887 409.427 165.928 409.392 165.978C409.357 166.027 409.334 166.084 409.323 166.143C409.312 166.203 409.315 166.264 409.33 166.322Z" fill="#F28F8F"/>
<path d="M412.705 168.409C412.707 168.455 412.698 168.501 412.678 168.543C412.659 168.584 412.629 168.621 412.593 168.649C412.556 168.677 412.513 168.696 412.467 168.705C412.421 168.713 412.374 168.711 412.33 168.697C412.228 168.66 412.142 168.591 412.082 168.502C412.023 168.412 411.995 168.306 412.001 168.199C411.999 168.153 412.008 168.107 412.028 168.065C412.047 168.024 412.077 167.987 412.113 167.959C412.15 167.931 412.193 167.912 412.239 167.903C412.285 167.895 412.332 167.898 412.376 167.911C412.477 167.949 412.564 168.017 412.623 168.107C412.682 168.196 412.711 168.302 412.705 168.409Z" fill="#37474F"/>
<path d="M410.119 167.496C410.121 167.542 410.112 167.588 410.092 167.63C410.073 167.671 410.043 167.708 410.007 167.736C409.97 167.764 409.927 167.783 409.881 167.792C409.835 167.8 409.788 167.797 409.744 167.784C409.642 167.747 409.556 167.679 409.497 167.59C409.438 167.501 409.409 167.395 409.415 167.289C409.413 167.243 409.422 167.197 409.442 167.155C409.461 167.113 409.491 167.077 409.527 167.049C409.564 167.02 409.607 167.001 409.653 166.993C409.699 166.985 409.746 166.987 409.79 167.001C409.891 167.038 409.977 167.107 410.036 167.196C410.095 167.285 410.124 167.39 410.119 167.496Z" fill="#37474F"/>
<path d="M411.432 167.395L410.92 169.73L409.762 168.912L411.432 167.395Z" fill="#F28F8F"/>
<path d="M411.887 170.699L410.621 170.765C410.624 170.845 410.643 170.923 410.677 170.995C410.711 171.067 410.758 171.132 410.818 171.186C410.877 171.239 410.947 171.281 411.022 171.307C411.098 171.334 411.178 171.346 411.258 171.341C411.342 171.34 411.425 171.323 411.502 171.29C411.579 171.257 411.649 171.209 411.708 171.15C411.766 171.09 411.812 171.019 411.843 170.942C411.873 170.865 411.888 170.782 411.887 170.699Z" fill="#B16668"/>
<path d="M411.249 171.338C411.141 171.344 411.033 171.32 410.938 171.269C410.999 171.141 411.095 171.032 411.217 170.956C411.338 170.88 411.478 170.84 411.621 170.84C411.702 170.84 411.781 170.854 411.857 170.88C411.815 171.009 411.735 171.122 411.626 171.204C411.517 171.286 411.385 171.333 411.249 171.338Z" fill="#F28F8F"/>
<path d="M417.383 180.469C417.648 180.429 417.908 180.363 418.16 180.27C418.484 180.151 418.792 179.99 419.074 179.792C419.271 179.65 419.455 179.491 419.624 179.317C419.271 178.976 418.897 178.657 418.503 178.363C417.97 178.97 417.586 179.69 417.383 180.469Z" fill="#263238"/>
<path d="M409.346 160.139C410.557 160.188 411.734 160.547 412.763 161.181C417.128 163.678 420.693 169.772 420.693 174.769C420.693 177.361 419.709 179.222 418.001 179.846C417.562 180.006 417.098 180.086 416.63 180.083C416.2 180.079 415.772 180.025 415.356 179.921C415.184 179.881 415.009 179.832 414.829 179.772C414.267 179.582 413.726 179.337 413.214 179.04C412.102 178.389 411.09 177.583 410.211 176.647C410.088 176.517 409.963 176.382 409.841 176.246C409.594 175.973 409.344 175.67 409.09 175.354C408.837 175.037 408.552 174.639 408.299 174.271C408.046 173.902 407.804 173.513 407.583 173.119C406.102 170.561 405.287 167.837 405.287 165.444C405.287 162.166 406.841 160.13 409.346 160.13M409.346 159.684C406.672 159.684 404.836 161.792 404.836 165.444C404.836 167.998 405.735 170.823 407.19 173.338C407.42 173.738 407.667 174.13 407.926 174.513C408.185 174.896 408.453 175.262 408.735 175.619C408.983 175.933 409.239 176.241 409.504 176.534C409.629 176.673 409.757 176.822 409.885 176.946C410.797 177.915 411.845 178.75 412.996 179.426C413.535 179.738 414.104 179.995 414.695 180.195C414.884 180.258 415.073 180.31 415.257 180.353C415.709 180.466 416.173 180.524 416.639 180.526C417.16 180.531 417.678 180.443 418.167 180.264C419.988 179.599 421.149 177.672 421.149 174.769C421.149 169.622 417.5 163.367 413.001 160.795C411.906 160.119 410.651 159.738 409.361 159.692L409.346 159.684Z" fill="#FF6501"/>
<path d="M404.714 157.42C403.445 156.695 402.418 157.282 402.418 158.734C402.418 160.185 403.445 161.948 404.714 162.671C405.983 163.394 407.013 162.809 407.013 161.36C406.97 160.571 406.739 159.803 406.339 159.118C405.94 158.434 405.383 157.852 404.714 157.42Z" fill="#FF6501"/>
<path d="M403.394 159.294C403.409 159.267 403.43 159.244 403.455 159.225C403.479 159.206 403.508 159.193 403.538 159.185C403.568 159.177 403.599 159.175 403.63 159.18C403.661 159.184 403.69 159.195 403.717 159.211L404.477 159.646V158.577C404.477 158.515 404.501 158.456 404.546 158.412C404.59 158.368 404.65 158.344 404.712 158.344C404.775 158.344 404.835 158.368 404.879 158.412C404.923 158.456 404.948 158.515 404.948 158.577V159.916L405.946 160.492C405.973 160.507 405.996 160.528 406.015 160.552C406.034 160.576 406.047 160.604 406.055 160.633C406.063 160.663 406.065 160.693 406.061 160.724C406.056 160.754 406.046 160.783 406.03 160.809C406.01 160.845 405.98 160.874 405.945 160.895C405.909 160.916 405.868 160.927 405.827 160.927C405.786 160.926 405.746 160.915 405.71 160.895L404.948 160.461V161.529C404.948 161.591 404.923 161.65 404.879 161.694C404.835 161.738 404.775 161.762 404.712 161.762C404.65 161.762 404.59 161.738 404.546 161.694C404.501 161.65 404.477 161.591 404.477 161.529V160.19L403.481 159.614C403.427 159.583 403.388 159.531 403.372 159.472C403.355 159.412 403.363 159.348 403.394 159.294Z" fill="#FAFAFA"/>
<path d="M383.559 130.103C383.559 132.658 384.458 135.483 385.916 137.998C386.147 138.399 386.391 138.79 386.649 139.173C386.907 139.555 387.177 139.923 387.458 140.278C387.708 140.592 387.964 140.901 388.229 141.194C388.351 141.333 388.482 141.482 388.607 141.606C389.519 142.57 390.564 143.4 391.712 144.071C392.251 144.384 392.821 144.641 393.412 144.84C393.601 144.904 393.79 144.956 393.973 144.999C394.93 145.262 395.945 145.232 396.883 144.912C398.705 144.244 399.866 142.32 399.869 139.414C399.869 134.268 396.217 128.013 391.721 125.441C387.225 122.869 383.559 124.957 383.559 130.103Z" fill="#FAFAFA"/>
<path d="M385.73 137.678C385.792 137.787 385.85 137.894 385.911 137.997C386.036 138.219 386.17 138.432 386.307 138.642C386.443 138.853 386.534 138.994 386.647 139.169C386.907 139.553 387.177 139.923 387.456 140.278C387.482 140.307 387.503 140.339 387.532 140.37L387.971 137.971C387.002 137.703 386.283 137.6 385.73 137.678Z" fill="#263238"/>
<path d="M386.309 138.644C386.419 138.82 386.536 138.996 386.649 139.171C386.909 139.555 387.179 139.925 387.458 140.28C387.484 140.309 387.505 140.34 387.534 140.372C387.758 140.66 387.991 140.934 388.229 141.196C388.354 141.334 388.482 141.484 388.607 141.605C389.518 142.573 390.564 143.407 391.712 144.082C392.252 144.393 392.821 144.65 393.412 144.851C393.601 144.911 393.787 144.963 393.974 145.009C394.669 145.189 395.394 145.226 396.104 145.118C396.369 145.079 396.629 145.013 396.881 144.92C397.206 144.803 397.513 144.642 397.794 144.442C397.707 143.773 397.524 143.252 397.227 143.002C396.153 142.164 395.542 141.634 395.004 141.251C393.96 140.037 392.572 139.161 391.02 138.736C390.045 138.486 389.067 138.204 387.973 137.962C387.388 137.841 386.806 138.062 386.309 138.644Z" fill="#37474F"/>
<path d="M395.101 129.697C396.169 131.425 395.776 133.686 394.999 135.169C394.65 135.831 394.126 137.061 393.835 137.81C393.835 137.81 391.961 138.504 387.849 132.626C387.107 131.563 387.529 129.003 388.527 128.055C389.936 126.708 393.014 126.388 395.101 129.697Z" fill="#263238"/>
<path d="M395.08 136.873C394.466 137.161 393.948 136.326 393.948 136.326L393.642 140.329C393.642 140.329 393.642 140.847 392.577 141.21C391.876 141.452 390.421 141.311 389.595 142.017C389.245 141.256 388.966 139.94 389.743 139.091L389.804 137.872C389.39 137.773 388.987 137.628 388.605 137.44C388.256 137.262 387.953 137.007 387.718 136.695C387.483 136.383 387.323 136.023 387.249 135.64C387.116 135.018 387.06 134.381 387.083 133.745C387.177 132.512 387.363 131.288 387.639 130.082C387.718 129.728 388.108 128.884 388.451 128.754C389.272 128.449 389.176 129.708 390.127 130.027C391.079 130.347 393.788 129.699 393.206 130.857C392.966 131.899 393.048 132.989 393.442 133.984C393.516 134.183 393.619 134.369 393.747 134.537C394.015 134.874 394.256 134.249 394.495 134.019C394.734 133.789 395.493 133.624 395.839 134.612C396.186 135.6 395.612 136.637 395.08 136.873Z" fill="#C8856A"/>
<path d="M389.804 137.875C390.532 138.042 391.914 137.984 392.458 137.558C392.816 137.26 393.119 136.904 393.355 136.504C393.264 137.065 392.984 137.579 392.56 137.961C391.449 138.825 389.77 138.48 389.77 138.48L389.804 137.875Z" fill="#AF6152"/>
<path d="M393.365 133.75C393.45 134.346 392.783 135.783 391.744 135.671C390.705 135.558 390.51 134.899 389.594 134.66C388.779 134.449 388.264 134.714 387.848 134.55C387.432 134.386 387.074 133.75 387.074 133.75C387.074 133.75 386.841 135.596 387.277 136.506C387.859 137.715 389.387 137.98 390.304 138.064C391.106 138.167 391.918 137.977 392.588 137.528C393.17 137.111 393.519 136.393 393.79 135.671C394.061 134.948 394.494 134.017 394.494 134.017L393.403 133.672" fill="#263238"/>
<path d="M391.27 131.843L391.977 132.537C392.039 132.421 392.061 132.288 392.04 132.158C392.019 132.028 391.956 131.908 391.86 131.817C391.825 131.772 391.779 131.736 391.726 131.712C391.673 131.689 391.616 131.678 391.558 131.68C391.5 131.683 391.444 131.699 391.394 131.727C391.344 131.755 391.301 131.795 391.27 131.843Z" fill="#263238"/>
<path d="M388.048 130.972L388.921 130.923C388.908 130.797 388.849 130.68 388.755 130.593C388.662 130.507 388.54 130.457 388.412 130.453C388.352 130.46 388.294 130.479 388.242 130.509C388.19 130.54 388.145 130.581 388.111 130.63C388.076 130.679 388.053 130.735 388.042 130.794C388.031 130.853 388.033 130.914 388.048 130.972Z" fill="#263238"/>
<path d="M391.569 133.077C391.571 133.123 391.562 133.169 391.543 133.211C391.523 133.252 391.494 133.289 391.457 133.317C391.42 133.345 391.377 133.364 391.331 133.373C391.286 133.381 391.239 133.379 391.194 133.365C391.093 133.327 391.007 133.259 390.948 133.169C390.89 133.079 390.862 132.973 390.868 132.867C390.866 132.821 390.875 132.775 390.895 132.733C390.914 132.692 390.944 132.655 390.981 132.627C391.017 132.599 391.06 132.58 391.106 132.571C391.152 132.563 391.199 132.565 391.243 132.579C391.345 132.616 391.431 132.685 391.49 132.774C391.549 132.864 391.577 132.97 391.569 133.077Z" fill="#263238"/>
<path d="M388.842 132.144C388.844 132.19 388.835 132.236 388.815 132.278C388.795 132.32 388.766 132.356 388.729 132.384C388.692 132.413 388.649 132.432 388.604 132.44C388.558 132.448 388.511 132.446 388.466 132.432C388.365 132.395 388.279 132.326 388.22 132.236C388.16 132.147 388.132 132.041 388.137 131.934C388.135 131.888 388.144 131.842 388.164 131.8C388.184 131.758 388.214 131.721 388.251 131.693C388.288 131.664 388.331 131.645 388.377 131.637C388.424 131.629 388.471 131.632 388.516 131.646C388.617 131.684 388.703 131.753 388.761 131.842C388.82 131.932 388.848 132.038 388.842 132.144Z" fill="#263238"/>
<path d="M390.197 132.215L389.687 134.551L388.523 133.73C388.977 133.053 389.693 132.356 390.197 132.215Z" fill="#AF6152"/>
<path d="M390.34 135.457L389.074 135.523C389.077 135.603 389.096 135.681 389.13 135.753C389.164 135.825 389.212 135.89 389.271 135.943C389.33 135.997 389.4 136.038 389.475 136.065C389.551 136.092 389.631 136.104 389.712 136.099C389.795 136.098 389.878 136.081 389.955 136.048C390.033 136.015 390.102 135.967 390.161 135.907C390.219 135.848 390.265 135.777 390.296 135.7C390.327 135.623 390.342 135.54 390.34 135.457Z" fill="#AF6152"/>
<path d="M389.714 136.092C389.606 136.098 389.498 136.075 389.402 136.026C389.463 135.897 389.559 135.787 389.681 135.711C389.802 135.634 389.942 135.594 390.086 135.594C390.166 135.594 390.246 135.608 390.322 135.634C390.28 135.763 390.2 135.876 390.091 135.958C389.982 136.04 389.85 136.087 389.714 136.092Z" fill="#F28F8F"/>
<path d="M389.598 142.02C390.055 141.839 391.259 141.585 391.344 141.951C391.413 142.207 391.608 143.132 391.949 143.201C392.407 143.239 392.867 143.177 393.297 143.017C393.727 142.857 394.115 142.604 394.434 142.276C394.724 142.005 394.92 141.649 394.993 141.26C394.993 141.26 394.591 140.237 394.344 139.751C394.097 139.264 394.03 138.982 393.762 138.887L393.686 139.728C393.485 140.054 393.198 140.319 392.857 140.497C392.045 140.903 390.418 141.145 389.598 142.02Z" fill="#263238"/>
<path d="M389.596 142.02C389.346 141.677 388.936 140.425 388.723 140.41C388.278 140.387 387.973 140.667 387.973 140.41C387.973 140.154 388.304 139.676 388.706 139.019C389.014 138.518 389.506 138.155 389.797 138.19L389.727 139.342C389.593 139.643 389.514 139.966 389.495 140.295C389.404 140.871 389.438 141.459 389.596 142.02Z" fill="#263238"/>
<path d="M396.117 145.117C396.383 145.078 396.643 145.011 396.894 144.918C397.22 144.801 397.527 144.64 397.808 144.44C398.005 144.298 398.189 144.139 398.358 143.965C398.007 143.623 397.634 143.305 397.24 143.012C396.705 143.617 396.321 144.338 396.117 145.117Z" fill="#263238"/>
<path d="M388.069 124.791C389.28 124.841 390.457 125.2 391.485 125.834C395.85 128.33 399.415 134.425 399.415 139.421C399.415 142.013 398.432 143.874 396.723 144.499C396.286 144.658 395.822 144.738 395.356 144.735C394.926 144.732 394.498 144.678 394.081 144.574C393.909 144.533 393.732 144.484 393.552 144.424C392.99 144.235 392.449 143.989 391.936 143.692C390.826 143.04 389.814 142.234 388.933 141.299C388.814 141.17 388.686 141.034 388.564 140.899C388.319 140.625 388.066 140.323 387.813 140.006C387.56 139.689 387.275 139.292 387.021 138.923C386.768 138.554 386.53 138.166 386.309 137.771C384.824 135.214 384.01 132.489 384.01 130.096C384.01 126.818 385.566 124.782 388.069 124.782M388.069 124.336C385.395 124.336 383.559 126.447 383.559 130.096C383.559 132.65 384.458 135.476 385.916 137.99C386.147 138.391 386.391 138.783 386.649 139.165C386.907 139.547 387.177 139.916 387.458 140.271C387.708 140.585 387.964 140.893 388.229 141.187C388.351 141.325 388.482 141.475 388.607 141.599C389.518 142.566 390.564 143.399 391.712 144.073C392.251 144.385 392.821 144.643 393.412 144.842C393.601 144.905 393.79 144.957 393.973 145C394.425 145.114 394.889 145.173 395.356 145.176C395.876 145.179 396.392 145.091 396.881 144.914C398.702 144.245 399.863 142.322 399.866 139.416C399.866 134.269 396.214 128.014 391.718 125.442C390.622 124.765 389.366 124.385 388.075 124.339L388.069 124.336Z" fill="#FF6501"/>
<path d="M383.44 123.403C382.171 122.68 381.141 123.268 381.141 124.716C381.184 125.506 381.415 126.274 381.814 126.958C382.214 127.643 382.77 128.224 383.44 128.656C384.708 129.382 385.736 128.794 385.736 127.343C385.693 126.554 385.463 125.786 385.064 125.101C384.665 124.417 384.108 123.835 383.44 123.403Z" fill="#FF6501"/>
<path d="M382.122 125.276C382.137 125.249 382.157 125.226 382.182 125.207C382.206 125.188 382.234 125.175 382.264 125.167C382.293 125.158 382.324 125.156 382.355 125.16C382.386 125.164 382.415 125.174 382.442 125.19L383.204 125.625V124.556C383.201 124.523 383.204 124.49 383.214 124.459C383.224 124.428 383.241 124.399 383.263 124.375C383.285 124.35 383.312 124.331 383.342 124.317C383.373 124.304 383.405 124.297 383.439 124.297C383.472 124.297 383.505 124.304 383.535 124.317C383.565 124.331 383.592 124.35 383.614 124.375C383.636 124.399 383.653 124.428 383.663 124.459C383.673 124.49 383.677 124.523 383.673 124.556V125.892L384.671 126.468C384.699 126.483 384.724 126.503 384.744 126.527C384.764 126.551 384.78 126.579 384.789 126.609C384.798 126.639 384.801 126.671 384.798 126.702C384.795 126.733 384.785 126.763 384.77 126.791C384.749 126.826 384.72 126.856 384.684 126.876C384.648 126.896 384.607 126.906 384.566 126.906C384.524 126.907 384.483 126.896 384.447 126.874L383.684 126.44V127.508C383.688 127.541 383.685 127.574 383.675 127.605C383.665 127.636 383.648 127.665 383.626 127.689C383.604 127.714 383.577 127.733 383.546 127.747C383.516 127.76 383.483 127.767 383.45 127.767C383.417 127.767 383.384 127.76 383.354 127.747C383.324 127.733 383.297 127.714 383.275 127.689C383.252 127.665 383.236 127.636 383.226 127.605C383.216 127.574 383.212 127.541 383.216 127.508V126.172L382.218 125.596C382.189 125.582 382.164 125.562 382.144 125.538C382.124 125.514 382.108 125.487 382.099 125.457C382.09 125.427 382.088 125.395 382.092 125.364C382.095 125.333 382.106 125.303 382.122 125.276Z" fill="#FAFAFA"/>
<path d="M404.848 142.255C404.848 144.813 405.747 147.638 407.205 150.149C407.432 150.55 407.679 150.944 407.938 151.324C408.197 151.704 408.465 152.073 408.747 152.43C409.029 152.787 409.25 153.052 409.515 153.346C409.64 153.487 409.768 153.634 409.897 153.758C410.806 154.724 411.849 155.557 412.996 156.232C413.536 156.544 414.106 156.802 414.698 157.001C414.884 157.061 415.073 157.116 415.257 157.159C416.214 157.419 417.228 157.388 418.167 157.07C419.988 156.402 421.149 154.478 421.152 151.575C421.152 146.428 417.5 140.17 413.004 137.598C408.508 135.026 404.848 137.109 404.848 142.255Z" fill="#FAFAFA"/>
<path d="M417.506 144.827C417.736 145.751 417.62 146.722 417.471 147.661C417.323 148.6 417.146 149.55 417.245 150.498C417.265 150.685 417.285 150.907 417.137 151.027C417.065 151.074 416.979 151.094 416.893 151.086C416.807 151.077 416.727 151.041 416.665 150.981C416.546 150.858 416.458 150.709 416.406 150.547C416.348 151.229 416.293 151.909 416.235 152.591C416.236 152.827 416.17 153.058 416.043 153.257C415.801 153.545 415.338 153.545 414.975 153.438C414.545 153.276 414.16 153.017 413.85 152.682C413.541 152.346 413.315 151.943 413.191 151.506C412.954 150.627 412.933 149.704 413.13 148.816C413.354 147.602 413.782 146.434 414.396 145.36C414.764 144.796 415.078 144.199 415.333 143.577C415.39 143.323 415.498 143.084 415.65 142.871C415.737 142.771 415.819 142.802 415.941 142.848C416.05 142.895 416.156 142.948 416.258 143.01C416.462 143.138 416.646 143.294 416.805 143.473C416.968 143.655 417.108 143.856 417.221 144.072C417.337 144.288 417.428 144.516 417.492 144.752C417.498 144.777 417.503 144.802 417.506 144.827Z" fill="#37474F"/>
<path d="M407.191 150.146C407.418 150.546 407.666 150.94 407.925 151.321C408.184 151.701 408.451 152.069 408.734 152.427L409.458 150.362C408.478 150.068 407.835 149.918 407.191 150.146Z" fill="#FFBDA7"/>
<path d="M407.973 150.998C408.231 151.382 408.5 151.751 408.782 152.104C409.029 152.421 409.288 152.726 409.55 153.02C409.675 153.158 409.806 153.308 409.931 153.432C410.841 154.398 411.886 155.231 413.033 155.906C413.573 156.218 414.143 156.476 414.736 156.675C414.925 156.735 415.114 156.79 415.297 156.83C415.31 155.515 415.608 154.218 416.17 153.026C416.17 153.026 415.492 152.671 414.203 151.974C414.188 151.974 414.171 151.954 414.159 151.943C413.132 151.246 412.437 151.367 410.545 150.569C410.513 150.555 410.775 150.419 410.743 150.405L409.503 150.039C408.972 150.325 408.461 150.645 407.973 150.998Z" fill="#FF6501"/>
<path d="M414.271 149.83C414.425 149.254 415.144 148.845 415.814 147.857C416.483 146.869 417.359 144.649 415.982 143.612C416.236 142.282 415.159 140.646 413.689 139.995C411.754 139.131 409.496 139.252 408.186 140.89C406.638 142.826 408.239 144.666 408.239 144.666L414.271 149.83Z" fill="#455A64"/>
<path d="M408.421 147.714C408.52 148.129 408.719 148.515 409.003 148.837C409.337 149.232 409.797 149.445 410.56 149.701L410.536 150.217V150.548L410.522 150.89L410.507 151.484C410.507 151.484 409.59 152.558 409.521 153.341C409.646 153.482 409.774 153.629 409.902 153.753C411.415 153.664 412.88 153.192 414.156 152.382V152.299L414.197 151.435L414.293 149.327L414.311 148.73C414.325 148.812 414.358 148.888 414.407 148.955C414.49 149.065 414.599 149.154 414.724 149.214C414.842 149.277 414.972 149.314 415.106 149.321C415.24 149.329 415.374 149.307 415.498 149.257L415.553 149.229C415.582 149.22 415.61 149.206 415.635 149.188C415.658 149.178 415.68 149.165 415.699 149.148L415.754 149.111C415.774 149.098 415.792 149.083 415.809 149.067C416.066 148.861 416.249 148.579 416.331 148.262C416.413 147.945 416.39 147.611 416.266 147.308C416.077 146.861 415.565 146.467 415.181 146.619C414.796 146.772 414.744 147.008 414.578 147.279C414.412 147.55 413.621 146.723 414.165 145.321C413.516 144.814 413.211 143.636 413.382 143.071C413.091 142.052 411.188 141.919 410.853 142.308C410.562 141.666 410.606 141.28 410.065 141.444C409.524 141.608 408.61 141.968 408.293 144.186C408.107 145.359 408.15 146.557 408.421 147.714Z" fill="#FFBDA7"/>
<path d="M411.79 147.504L410.664 147.524C410.685 147.704 410.773 147.87 410.91 147.991C411.046 148.111 411.223 148.178 411.406 148.178C411.709 148.166 411.846 147.878 411.79 147.504Z" fill="#B16668"/>
<path d="M411.074 148.123C411.083 148.05 411.109 147.979 411.149 147.916C411.19 147.854 411.245 147.801 411.309 147.762C411.373 147.724 411.445 147.7 411.52 147.693C411.595 147.687 411.67 147.697 411.741 147.723C411.76 147.73 411.778 147.739 411.796 147.749C411.799 147.86 411.759 147.968 411.685 148.05C411.61 148.133 411.506 148.184 411.394 148.193C411.283 148.199 411.173 148.175 411.074 148.123Z" fill="#F28F8F"/>
<path d="M410.729 144.535L410.467 146.738L409.402 146.021L410.729 144.535Z" fill="#F0997A"/>
<path d="M409.576 144.644C409.581 144.69 409.575 144.737 409.558 144.781C409.541 144.824 409.513 144.863 409.478 144.893C409.442 144.924 409.4 144.945 409.354 144.956C409.309 144.967 409.261 144.967 409.215 144.955C409.112 144.929 409.02 144.871 408.953 144.789C408.886 144.707 408.847 144.606 408.843 144.5C408.836 144.453 408.841 144.404 408.858 144.359C408.875 144.314 408.904 144.274 408.94 144.242C408.977 144.211 409.021 144.189 409.069 144.179C409.116 144.168 409.166 144.17 409.212 144.183C409.315 144.211 409.406 144.271 409.472 144.354C409.537 144.437 409.574 144.539 409.576 144.644Z" fill="#263238"/>
<path d="M412.216 145.525C412.221 145.572 412.215 145.618 412.198 145.662C412.18 145.705 412.153 145.744 412.117 145.774C412.082 145.805 412.04 145.827 411.994 145.837C411.948 145.848 411.9 145.848 411.855 145.836C411.751 145.81 411.659 145.752 411.591 145.669C411.524 145.586 411.486 145.484 411.482 145.378C411.477 145.332 411.483 145.285 411.5 145.242C411.517 145.199 411.545 145.16 411.58 145.129C411.616 145.099 411.658 145.077 411.704 145.066C411.75 145.056 411.798 145.056 411.843 145.067C411.947 145.094 412.039 145.153 412.106 145.235C412.173 145.318 412.211 145.42 412.216 145.525Z" fill="#263238"/>
<path d="M410.548 149.705C411.304 149.842 412.081 149.806 412.82 149.598C413.26 149.43 413.634 149.127 413.888 148.734C413.888 148.734 413.967 149.446 412.89 149.944C412.049 150.336 410.527 150.232 410.527 150.232L410.548 149.705Z" fill="#F0997A"/>
<path d="M408.887 143.55L409.698 143.602C409.665 143.481 409.598 143.371 409.503 143.288C409.409 143.204 409.291 143.149 409.166 143.13C408.942 143.115 408.817 143.305 408.887 143.55Z" fill="#263238"/>
<path d="M411.578 144.269L412.469 144.845C412.494 144.717 412.478 144.584 412.423 144.465C412.369 144.346 412.278 144.248 412.163 144.183C411.919 144.03 411.657 144.07 411.578 144.269Z" fill="#263238"/>
<path d="M410.068 141.361C409.905 142.225 410.941 144.267 412.323 145.188C413.705 146.11 414.593 145.934 414.593 145.934C414.593 145.934 414.756 143.135 413.382 142.078C412.009 141.021 410.068 141.361 410.068 141.361Z" fill="#455A64"/>
<path d="M414.688 156.998C414.874 157.058 415.063 157.113 415.246 157.156C416.203 157.416 417.217 157.385 418.156 157.067C418.498 156.889 418.804 156.65 419.058 156.361C418.06 154.023 417.531 153.576 416.175 153.023C415.249 153.692 414.836 155.967 414.688 156.998Z" fill="#FFBDA7"/>
<path d="M409.346 136.94C410.557 136.99 411.734 137.349 412.763 137.983C417.128 140.48 420.693 146.577 420.693 151.574C420.693 154.166 419.709 156.023 418.001 156.651C417.562 156.81 417.097 156.889 416.63 156.884C416.2 156.881 415.772 156.827 415.356 156.723C415.187 156.683 415.009 156.634 414.829 156.576C414.267 156.387 413.726 156.142 413.214 155.845C412.103 155.191 411.092 154.384 410.211 153.449C410.088 153.322 409.963 153.187 409.841 153.051C409.594 152.763 409.344 152.475 409.09 152.155C408.837 151.836 408.552 151.444 408.299 151.075C408.046 150.707 407.804 150.315 407.583 149.923C406.102 147.369 405.287 144.644 405.287 142.248C405.287 138.971 406.841 136.935 409.346 136.935M409.346 136.488C406.672 136.488 404.836 138.599 404.836 142.248C404.836 144.806 405.735 147.631 407.193 150.142C407.42 150.543 407.667 150.937 407.926 151.317C408.185 151.698 408.453 152.066 408.735 152.423C409.018 152.78 409.239 153.045 409.504 153.339C409.629 153.48 409.757 153.627 409.885 153.751C410.797 154.72 411.845 155.555 412.996 156.231C413.535 156.543 414.106 156.801 414.698 157C414.884 157.06 415.073 157.115 415.257 157.158C415.709 157.27 416.173 157.328 416.639 157.331C417.16 157.334 417.677 157.246 418.167 157.069C419.988 156.401 421.149 154.477 421.152 151.574C421.152 146.427 417.5 140.169 413.004 137.597C411.909 136.92 410.654 136.54 409.364 136.494L409.346 136.488Z" fill="#FF6501"/>
<path d="M404.714 135.565C403.445 134.839 402.418 135.427 402.418 136.878C402.418 138.33 403.445 140.092 404.714 140.815C405.983 141.538 407.013 140.953 407.013 139.505C406.97 138.715 406.739 137.947 406.339 137.263C405.94 136.578 405.383 135.997 404.714 135.565Z" fill="#FF6501"/>
<path d="M403.395 137.449C403.426 137.395 403.478 137.356 403.538 137.34C403.599 137.324 403.663 137.332 403.718 137.363L404.48 137.8V136.732C404.476 136.699 404.48 136.666 404.49 136.635C404.5 136.604 404.516 136.575 404.539 136.55C404.561 136.526 404.588 136.506 404.618 136.493C404.648 136.48 404.681 136.473 404.714 136.473C404.747 136.473 404.78 136.48 404.81 136.493C404.841 136.506 404.868 136.526 404.89 136.55C404.912 136.575 404.929 136.604 404.939 136.635C404.949 136.666 404.952 136.699 404.948 136.732V138.068L405.947 138.644C405.991 138.67 406.026 138.71 406.046 138.757C406.066 138.805 406.069 138.857 406.055 138.907C406.042 138.956 406.012 139 405.971 139.031C405.93 139.062 405.879 139.079 405.827 139.079C405.786 139.078 405.747 139.067 405.711 139.047L404.951 138.601V139.667C404.955 139.699 404.952 139.732 404.942 139.763C404.932 139.795 404.915 139.823 404.893 139.848C404.871 139.872 404.844 139.892 404.813 139.905C404.783 139.919 404.75 139.926 404.717 139.926C404.684 139.926 404.651 139.919 404.621 139.905C404.591 139.892 404.564 139.872 404.541 139.848C404.519 139.823 404.503 139.795 404.493 139.763C404.483 139.732 404.479 139.699 404.483 139.667V138.313L403.485 137.737C403.437 137.708 403.402 137.662 403.385 137.61C403.369 137.557 403.372 137.5 403.395 137.449Z" fill="#FAFAFA"/>
</svg>
