<svg width="674" height="674" viewBox="0 0 674 674" fill="none" xmlns="http://www.w3.org/2000/svg">
<path d="M629.367 426.235H408.443V298.391H629.367V426.235ZM409.791 424.887H628.019V299.739H409.791V424.887Z" fill="#E0E0E0"/>
<path d="M583.79 366.562H438.031V370.836H583.79V366.562Z" fill="#F0F0F0"/>
<path d="M593.833 382.492H438.031V387.156H593.833V382.492Z" fill="#F0F0F0"/>
<path d="M593.833 398.617H438.031V403.281H593.833V398.617Z" fill="#F0F0F0"/>
<path d="M488.972 343.414H438.031V354.508H488.972V343.414Z" fill="#F0F0F0"/>
<path d="M628.693 299.066H409.158V319.421H628.693V299.066Z" fill="#E0E0E0"/>
<path d="M611.803 316.377C611.52 316.107 614.35 312.697 618.111 308.76C621.872 304.824 625.175 301.845 625.445 302.101C625.714 302.357 622.897 305.781 619.136 309.731C615.375 313.681 612.072 316.646 611.803 316.377Z" fill="white"/>
<path d="M625.472 316.374C625.202 316.644 621.913 313.678 618.139 309.729C614.364 305.779 611.547 302.369 611.83 302.099C612.113 301.829 615.389 304.795 619.163 308.758C622.938 312.721 625.728 316.105 625.472 316.374Z" fill="white"/>
<path d="M357.516 45.8984H137.98V172.408H357.516V45.8984Z" fill="#E6E6E6"/>
<path d="M312.628 113.406H166.869V117.679H312.628V113.406Z" fill="#F0F0F0"/>
<path d="M322.671 129.34H166.869V134.004H322.671V129.34Z" fill="#F0F0F0"/>
<path d="M322.671 145.461H166.869V150.125H322.671V145.461Z" fill="#F0F0F0"/>
<path d="M217.81 90.2617H166.869V101.356H217.81V90.2617Z" fill="#F0F0F0"/>
<path d="M357.516 45.8984H137.98V66.2532H357.516V45.8984Z" fill="#E0E0E0"/>
<path d="M339.885 63.1108C339.602 62.8547 342.432 59.4308 346.193 55.4946C349.954 51.5585 353.257 48.5794 353.527 48.849C353.796 49.1186 350.979 52.529 347.218 56.4652C343.457 60.4013 340.154 63.3535 339.885 63.1108Z" fill="white"/>
<path d="M353.527 63.1109C353.257 63.3805 349.968 60.4149 346.193 56.4652C342.419 52.5156 339.602 49.1186 339.885 48.849C340.168 48.5794 343.444 51.545 347.218 55.4947C350.992 59.4443 353.81 62.8548 353.527 63.1109Z" fill="white"/>
<path d="M274.372 280.909H53.4883V153.051H274.372V280.909ZM54.8363 279.561H273.024V154.399H54.8363V279.561Z" fill="#E0E0E0"/>
<path d="M228.81 221.234H83.0508V225.508H228.81V221.234Z" fill="#F0F0F0"/>
<path d="M238.853 237.168H83.0508V241.832H238.853V237.168Z" fill="#F0F0F0"/>
<path d="M238.853 253.289H83.0508V257.953H238.853V253.289Z" fill="#F0F0F0"/>
<path d="M133.992 198.086H83.0508V209.18H133.992V198.086Z" fill="#F0F0F0"/>
<path d="M273.697 153.727H54.1621V174.081H273.697V153.727Z" fill="#E0E0E0"/>
<path d="M529.293 310.199H270.072V542.271H529.293V310.199Z" fill="#E6E6E6"/>
<path d="M283.106 237.098H80.043V448.073H283.106V237.098Z" fill="#F0F0F0"/>
<path d="M283.106 237.098H80.043V260.081H283.106V237.098Z" fill="#E0E0E0"/>
<path d="M96.8121 248.355C96.7751 249.188 96.4942 249.992 96.0042 250.668C95.5143 251.343 94.8368 251.859 94.056 252.153C93.2751 252.447 92.4252 252.505 91.6117 252.319C90.7982 252.134 90.057 251.715 89.48 251.112C88.903 250.509 88.5156 249.751 88.366 248.93C88.2163 248.109 88.311 247.263 88.6382 246.495C88.9654 245.728 89.5108 245.073 90.2066 244.613C90.9024 244.153 91.7181 243.907 92.5524 243.906C93.7061 243.935 94.8016 244.418 95.5998 245.252C96.3979 246.085 96.8338 247.201 96.8121 248.355Z" fill="white"/>
<path d="M114.107 248.355C114.073 249.192 113.793 250.001 113.302 250.68C112.812 251.36 112.132 251.88 111.348 252.177C110.564 252.473 109.711 252.532 108.893 252.347C108.076 252.162 107.331 251.74 106.751 251.135C106.172 250.529 105.783 249.767 105.633 248.942C105.483 248.118 105.58 247.267 105.91 246.497C106.24 245.727 106.789 245.07 107.489 244.61C108.189 244.149 109.009 243.904 109.847 243.906C111.001 243.935 112.097 244.418 112.895 245.252C113.693 246.085 114.129 247.201 114.107 248.355Z" fill="white"/>
<path d="M131.402 248.355C131.368 249.192 131.088 250.001 130.597 250.68C130.107 251.36 129.427 251.88 128.643 252.177C127.859 252.473 127.005 252.532 126.188 252.347C125.371 252.162 124.626 251.74 124.046 251.135C123.467 250.529 123.078 249.767 122.928 248.942C122.778 248.118 122.875 247.267 123.205 246.497C123.535 245.727 124.084 245.07 124.784 244.61C125.484 244.149 126.304 243.904 127.142 243.906C128.296 243.935 129.392 244.418 130.19 245.252C130.988 246.085 131.424 247.201 131.402 248.355Z" fill="white"/>
<path d="M600.373 92.0391H341.152V350.397H600.373V92.0391Z" fill="#F0F0F0"/>
<path d="M600.373 92.0391H341.152V122.302H600.373V92.0391Z" fill="#E0E0E0"/>
<path d="M363.231 106.868C363.184 107.968 362.814 109.03 362.168 109.922C361.522 110.814 360.629 111.496 359.598 111.885C358.568 112.273 357.446 112.351 356.372 112.107C355.298 111.864 354.32 111.31 353.557 110.515C352.795 109.72 352.284 108.719 352.086 107.636C351.888 106.552 352.012 105.435 352.444 104.422C352.876 103.409 353.595 102.545 354.514 101.937C355.432 101.329 356.509 101.005 357.61 101.004C359.132 101.039 360.578 101.676 361.631 102.775C362.685 103.874 363.26 105.346 363.231 106.868Z" fill="white"/>
<path d="M384.356 102.904C385.103 103.716 385.595 104.729 385.77 105.819C385.946 106.908 385.797 108.024 385.342 109.029C384.887 110.035 384.147 110.884 383.213 111.471C382.279 112.058 381.193 112.357 380.09 112.332C378.987 112.306 377.916 111.956 377.01 111.326C376.105 110.696 375.405 109.813 374.997 108.788C374.59 107.763 374.493 106.64 374.719 105.561C374.945 104.481 375.483 103.491 376.268 102.716C377.366 101.67 378.835 101.103 380.351 101.138C381.867 101.174 383.307 101.809 384.356 102.904Z" fill="white"/>
<path d="M408.766 106.868C408.719 107.968 408.349 109.03 407.703 109.922C407.058 110.814 406.164 111.496 405.134 111.885C404.103 112.273 402.981 112.351 401.907 112.107C400.833 111.864 399.855 111.31 399.093 110.515C398.331 109.72 397.819 108.719 397.621 107.636C397.423 106.552 397.548 105.435 397.979 104.422C398.411 103.409 399.131 102.545 400.049 101.937C400.967 101.329 402.044 101.005 403.145 101.004C404.667 101.039 406.113 101.676 407.167 102.775C408.22 103.874 408.795 105.346 408.766 106.868Z" fill="white"/>
<path d="M544.377 610.819C544.377 611.008 450.772 611.17 335.342 611.17C219.913 611.17 126.268 611.008 126.268 610.819C126.268 610.631 219.859 610.469 335.342 610.469C450.826 610.469 544.377 610.644 544.377 610.819Z" fill="#263238"/>
<path d="M453.171 445.798C432.345 431.253 427.627 404.253 428.449 379.975C428.584 375.931 428.139 371.645 430.067 368.1C431.994 364.554 436.497 362.114 440.123 363.813C443.129 365.228 444.436 368.733 446.121 371.631C448.37 375.492 451.664 378.637 455.625 380.703C458.199 382.051 461.394 382.86 463.942 381.458C467.447 379.531 467.851 374.718 467.824 370.674C467.824 363.152 467.779 355.64 467.689 348.136C467.447 344.106 467.857 340.064 468.902 336.165C470.156 332.337 472.946 328.792 476.761 327.714C480.576 326.635 485.335 328.859 486.197 332.795C486.346 334.463 486.386 336.138 486.319 337.81C486.426 339.495 487.208 341.342 488.785 341.854C490.363 342.366 492.007 341.194 493.22 340.007C497.372 335.963 500.203 330.693 502.832 325.489C505.46 320.286 508.035 314.934 511.809 310.5C515.584 306.065 520.8 302.546 526.637 302.209C532.474 301.872 538.554 305.458 540.009 311.12C541.465 316.781 538.163 322.564 534.617 327.161C529.268 333.984 522.961 340 515.894 345.022C514.514 345.775 513.413 346.952 512.753 348.378C511.877 351.074 514.424 353.77 517.08 354.62C520.086 355.617 523.348 355.307 526.516 355.684C529.684 356.062 533.054 357.437 534.253 360.403C535.898 364.527 532.447 368.841 529.064 371.672C522.27 377.333 514.555 381.788 506.256 384.842C503.29 385.92 500.176 386.877 497.777 388.953C495.377 391.029 493.948 394.655 495.391 397.499C496.833 400.344 500.54 401.247 503.654 400.667C506.768 400.088 509.531 398.416 512.497 397.297C518.037 395.208 525.181 395.585 528.673 400.371C529.754 402.019 530.439 403.896 530.673 405.854C530.907 407.811 530.684 409.797 530.021 411.653C528.672 415.349 526.595 418.736 523.914 421.615C515.085 432.164 503.614 440.179 490.673 444.841C477.826 449.29 465.923 450.503 453.158 445.825" fill="#FD7401"/>
<path d="M534.079 305.539C534.079 305.539 533.958 305.674 533.688 305.917L532.488 306.981C531.437 307.925 529.887 309.3 527.932 311.12C522.39 316.265 517.244 321.821 512.538 327.741C509.532 331.475 506.418 335.707 503.102 340.304C499.786 344.901 496.362 349.861 492.965 355.132C489.343 360.69 486.027 366.441 483.03 372.359C481.466 375.446 480.092 378.668 478.676 381.957L474.497 392C468.989 404.649 464.192 417.597 460.128 430.782C456.854 441.569 454.597 452.64 453.388 463.848C452.604 471.412 452.477 479.03 453.01 486.616C453.226 489.312 453.428 491.374 453.617 492.776C453.698 493.45 453.752 493.989 453.805 494.38V494.933C453.747 494.758 453.707 494.577 453.684 494.394C453.617 494.003 453.536 493.477 453.428 492.803C453.185 491.455 452.929 489.325 452.687 486.629C452.036 479.029 452.081 471.386 452.821 463.794C453.956 452.538 456.164 441.416 459.413 430.58C463.443 417.358 468.227 404.378 473.742 391.703L478.029 381.701C479.444 378.425 480.833 375.177 482.41 372.076C485.428 366.14 488.771 360.375 492.426 354.808C495.877 349.416 499.354 344.537 502.63 339.98C505.906 335.424 509.073 331.165 512.066 327.444C516.82 321.54 522.035 316.023 527.662 310.945C529.657 309.152 531.248 307.804 532.326 306.901L533.58 305.89C533.734 305.756 533.901 305.638 534.079 305.539Z" fill="#263238"/>
<path d="M482.584 372.051C482.394 371.495 482.263 370.921 482.193 370.339C481.978 369.22 481.735 367.643 481.452 365.594C480.872 361.55 480.279 356.009 479.646 349.876C479.012 343.743 478.298 338.189 477.705 334.185C477.394 332.19 477.125 330.586 476.936 329.467C476.789 328.895 476.712 328.306 476.707 327.715C476.939 328.255 477.107 328.82 477.206 329.4C477.502 330.505 477.839 332.096 478.217 334.104C478.985 338.148 479.74 343.648 480.374 349.795C481.007 355.942 481.546 361.334 481.964 365.526C482.166 367.413 482.342 369.018 482.476 370.298C482.581 370.876 482.617 371.464 482.584 372.051Z" fill="#263238"/>
<path d="M534.456 362.373C533.8 362.515 533.132 362.597 532.461 362.615C531.113 362.737 529.199 362.898 526.826 363.168C522.081 363.68 515.557 364.624 508.399 365.972C501.241 367.32 494.811 368.843 490.187 370.016C487.882 370.609 486.022 371.148 484.795 371.512C484.14 371.745 483.463 371.907 482.773 371.997C483.396 371.684 484.046 371.427 484.715 371.229C485.982 370.784 487.815 370.164 490.107 369.503C494.703 368.155 501.133 366.551 508.318 365.176C514.404 364.013 520.546 363.158 526.718 362.615C529.104 362.413 531.032 362.332 532.38 362.305C533.072 362.258 533.768 362.281 534.456 362.373Z" fill="#263238"/>
<path d="M460.074 429.636C459.93 429.441 459.813 429.228 459.724 429.002L458.834 427.129C458.066 425.498 457.028 423.085 455.787 420.133C453.28 414.201 450.085 405.898 446.688 396.677C443.291 387.457 440.164 379.153 437.792 373.155C436.632 370.243 435.675 367.857 434.961 366.078L434.206 364.15C434.101 363.928 434.029 363.692 433.99 363.449C434.134 363.644 434.252 363.857 434.341 364.083L435.23 365.957C435.985 367.588 437.037 370.001 438.277 372.953C440.784 378.884 443.979 387.188 447.376 396.408C450.773 405.628 453.9 413.932 456.273 419.93C457.432 422.842 458.389 425.228 459.09 427.007C459.4 427.776 459.656 428.355 459.858 428.935C459.963 429.157 460.036 429.393 460.074 429.636Z" fill="#263238"/>
<path d="M528.93 407.434C528.714 407.557 528.483 407.653 528.242 407.717L526.247 408.391L518.874 410.777C512.646 412.799 504.046 415.683 494.61 418.865C485.174 422.046 476.533 424.877 470.265 426.764C467.138 427.721 464.59 428.449 462.824 428.934L460.788 429.46C460.552 429.535 460.308 429.585 460.061 429.608C460.276 429.484 460.507 429.389 460.748 429.325L462.743 428.651L470.117 426.265C476.344 424.243 484.945 421.358 494.381 418.177C503.817 414.996 512.444 412.165 518.712 410.278C521.853 409.321 524.387 408.593 526.166 408.108L528.202 407.582C528.439 407.507 528.683 407.457 528.93 407.434Z" fill="#263238"/>
<path d="M500.837 80.4501L493.894 82.9304L490.915 73.8584C485.442 57.1297 467.999 48.2464 451.972 53.8945C435.944 59.5426 427.411 77.8889 432.884 94.6176L435.863 103.69L428.894 106.183C426.236 107.214 424.078 109.229 422.868 111.81C421.658 114.391 421.489 117.339 422.397 120.041L441.713 179.07C442.114 180.407 442.78 181.651 443.671 182.726C444.562 183.801 445.66 184.687 446.9 185.329C448.14 185.972 449.496 186.359 450.888 186.467C452.281 186.575 453.681 186.402 455.005 185.958L526.947 160.225C529.64 159.196 531.829 157.163 533.053 154.553C534.277 151.944 534.442 148.961 533.512 146.233L514.182 87.2036C513.77 85.8697 513.095 84.6323 512.195 83.5653C511.294 82.4983 510.189 81.6236 508.943 80.9933C507.698 80.363 506.338 79.99 504.945 79.8967C503.552 79.8034 502.155 79.9916 500.837 80.4501ZM446 89.8861C444.524 85.5364 444.789 80.7844 446.739 76.6256C448.689 72.4669 452.173 69.2241 456.46 67.5767C458.578 66.8523 460.819 66.5618 463.051 66.7226C465.283 66.8833 467.459 67.492 469.451 68.5123C471.443 69.5326 473.208 70.9436 474.642 72.6611C476.077 74.3786 477.15 76.3675 477.799 78.509L480.765 87.581L448.966 98.9582L446 89.8861ZM486.44 142.269L491.374 157.34C491.464 157.642 491.435 157.968 491.292 158.249C491.149 158.53 490.903 158.745 490.605 158.85L483.69 161.317C483.415 161.393 483.121 161.36 482.87 161.224C482.618 161.088 482.429 160.861 482.342 160.589L477.368 145.585C474.625 145.436 471.994 144.452 469.825 142.766C467.657 141.08 466.056 138.771 465.236 136.149C464.064 132.684 464.277 128.899 465.833 125.587C467.388 122.275 470.164 119.694 473.58 118.383C475.267 117.807 477.052 117.576 478.83 117.704C480.607 117.833 482.341 118.318 483.927 119.13C485.513 119.943 486.92 121.066 488.062 122.434C489.205 123.802 490.061 125.385 490.578 127.091C491.446 129.754 491.517 132.612 490.785 135.315C490.052 138.018 488.547 140.449 486.453 142.31L486.44 142.269Z" fill="#FD7401"/>
<path d="M493.584 82.7704C493.584 82.9591 480.711 87.7985 464.697 93.5544C448.683 99.3104 435.62 103.934 435.553 103.799C435.486 103.664 448.426 98.7847 464.454 93.0152C480.482 87.2458 493.517 82.5952 493.584 82.7704Z" fill="#263238"/>
<path d="M508.87 85.25C508.93 85.367 508.979 85.4887 509.018 85.614C509.126 85.8836 509.248 86.234 509.409 86.6654C509.76 87.6494 510.245 89.0109 510.852 90.7094L516.028 105.78C518.185 112.17 520.76 119.745 523.617 128.157C524.965 132.376 526.556 136.771 528.039 141.394C528.832 143.777 529.175 146.286 529.05 148.795C528.935 150.099 528.564 151.368 527.958 152.529C527.31 153.685 526.445 154.706 525.41 155.535C523.328 157.055 521.016 158.233 518.562 159.026L511.62 161.52L498.477 166.224L476.222 174.151L461.191 179.435L457.147 180.783L456.069 181.133C455.954 181.185 455.831 181.216 455.705 181.228C455.705 181.228 455.813 181.228 456.042 181.066L457.094 180.648L461.138 179.125L476.087 173.625L498.302 165.537L511.418 160.792L518.36 158.285C520.744 157.524 522.989 156.382 525.006 154.901C525.969 154.132 526.774 153.185 527.378 152.111C527.949 151.037 528.293 149.858 528.389 148.646C528.513 146.23 528.184 143.811 527.419 141.516C525.963 136.932 524.426 132.497 523.038 128.278C520.234 119.853 517.646 112.25 515.597 105.861C513.548 99.4714 511.822 94.3355 510.636 90.7229C510.07 88.957 509.639 87.582 509.288 86.5845L508.965 85.5061C508.924 85.4244 508.892 85.3386 508.87 85.25Z" fill="#263238"/>
<path d="M470.91 66.6585C470.91 66.6585 470.196 66.308 468.875 65.7688C466.992 65.0453 465.001 64.6443 462.984 64.5826C459.996 64.4801 457.022 65.0418 454.276 66.2272C450.938 67.7032 448.083 70.0906 446.04 73.1154C443.983 76.1316 442.879 79.696 442.872 83.3468C442.9 86.3389 443.354 89.3119 444.22 92.1762C444.921 94.6295 445.649 96.5841 446.134 97.9456C446.42 98.6371 446.655 99.349 446.835 100.075C446.452 99.4289 446.132 98.7473 445.878 98.04C445.325 96.692 444.53 94.7778 443.748 92.311C442.789 89.4166 442.266 86.3953 442.198 83.3468C442.162 79.5581 443.292 75.8499 445.433 72.7245C447.548 69.5892 450.519 67.1279 453.993 65.634C456.824 64.4422 459.891 63.9164 462.957 64.0973C465.017 64.2023 467.041 64.6819 468.929 65.5127C469.434 65.7456 469.92 66.016 470.385 66.3215C470.577 66.4058 470.754 66.5195 470.91 66.6585Z" fill="#263238"/>
<path d="M471.531 119.407C471.746 119.277 471.972 119.164 472.205 119.07C472.88 118.766 473.579 118.518 474.295 118.329C475.431 117.994 476.603 117.794 477.786 117.736C479.395 117.649 481.005 117.892 482.518 118.45C485.968 119.663 489.136 123.182 490.7 127.886C491.45 130.411 491.45 133.099 490.7 135.624C489.868 138.364 488.378 140.859 486.359 142.889L486.44 142.526C488.233 147.446 490.188 152.784 492.21 158.351L492.331 158.688L491.994 158.809L488.907 159.834L482.167 162.085L481.83 162.193L481.722 161.856C479.875 156.275 477.853 151.072 476.33 145.963L476.627 146.192C473.991 145.973 471.479 144.984 469.401 143.348C467.522 141.9 465.981 140.06 464.886 137.956C463.897 136.09 463.405 134.001 463.457 131.89C463.519 129.732 464.058 127.615 465.034 125.69C466.011 123.765 467.401 122.08 469.105 120.755C469.806 120.186 470.593 119.731 471.437 119.407C470.675 119.859 469.938 120.35 469.226 120.877C467.354 122.46 465.92 124.498 465.061 126.794C464.323 128.526 463.978 130.4 464.051 132.28C464.123 134.161 464.611 136.003 465.479 137.673C466.556 139.697 468.06 141.463 469.887 142.849C471.868 144.404 474.264 145.342 476.775 145.545H477.004L477.072 145.747C478.554 150.762 480.59 156.006 482.464 161.613L482.019 161.398L488.759 159.146L491.832 158.108L491.617 158.567C489.608 152.999 487.667 147.648 485.888 142.728V142.526L486.049 142.364C488.009 140.417 489.47 138.026 490.309 135.395C491.024 132.98 491.024 130.409 490.309 127.994C488.84 123.465 485.807 120.027 482.518 118.814C481.062 118.253 479.507 117.991 477.948 118.046C476.783 118.073 475.626 118.231 474.497 118.518C472.488 119.016 471.545 119.475 471.531 119.407Z" fill="#263238"/>
<path d="M429.864 508.627L295.212 508.007C287.436 507.964 279.995 504.837 274.523 499.312C269.051 493.787 265.995 486.316 266.028 478.54L267.456 140.987C267.472 137.135 268.247 133.323 269.737 129.77C271.227 126.217 273.402 122.993 276.139 120.281C278.876 117.57 282.12 115.424 285.686 113.967C289.253 112.51 293.071 111.77 296.924 111.789L431.562 112.41C439.338 112.449 446.781 115.573 452.255 121.095C457.73 126.618 460.788 134.087 460.76 141.863L459.331 479.403C459.315 483.256 458.54 487.069 457.051 490.624C455.561 494.178 453.386 497.404 450.65 500.118C447.914 502.832 444.67 504.98 441.103 506.44C437.536 507.9 433.717 508.643 429.864 508.627Z" fill="#455A64"/>
<path d="M431.36 124.017H405.263C404.412 124.033 403.572 124.216 402.791 124.557C402.01 124.897 401.304 125.388 400.714 126.002C400.123 126.615 399.658 127.339 399.347 128.132C399.036 128.925 398.885 129.771 398.901 130.622V135.354C398.917 136.205 398.765 137.05 398.453 137.843C398.142 138.635 397.678 139.357 397.087 139.97C396.496 140.582 395.79 141.072 395.009 141.411C394.229 141.75 393.389 141.932 392.538 141.946L341.664 141.717C339.943 141.671 338.311 140.944 337.126 139.695C335.94 138.446 335.299 136.778 335.342 135.057V130.326C335.386 128.607 334.746 126.941 333.564 125.693C332.381 124.445 330.752 123.716 329.034 123.667H319.854L297.005 123.559C291.571 123.527 286.345 125.649 282.472 129.461C278.598 133.274 276.394 138.466 276.34 143.9L274.992 473.378C274.98 476.074 275.499 478.747 276.519 481.242C277.539 483.738 279.041 486.008 280.939 487.923C282.836 489.838 285.093 491.361 287.579 492.404C290.065 493.447 292.732 493.99 295.428 494.003L429.797 494.623C432.495 494.635 435.168 494.116 437.666 493.095C440.163 492.074 442.435 490.572 444.351 488.673C446.267 486.774 447.791 484.516 448.835 482.028C449.879 479.541 450.422 476.872 450.435 474.174L451.783 144.696C451.815 139.246 449.682 134.006 445.852 130.129C442.023 126.251 436.81 124.053 431.36 124.017Z" fill="white"/>
<path d="M413.284 450.662L313.37 450.23C312.332 450.23 311.496 449.098 311.51 447.723L311.618 421.585C311.618 420.237 312.467 419.078 313.505 419.078L413.419 419.536C413.994 419.636 414.508 419.954 414.855 420.423C415.202 420.893 415.354 421.478 415.279 422.057L415.185 448.168C415.185 449.556 414.322 450.675 413.284 450.662Z" fill="#FD7401"/>
<path d="M347.618 432.304C347.574 431.934 347.397 431.647 347.085 431.443C346.774 431.238 346.392 431.136 345.939 431.136C345.608 431.136 345.319 431.19 345.07 431.297C344.825 431.404 344.632 431.551 344.494 431.738C344.357 431.926 344.289 432.139 344.289 432.377C344.289 432.577 344.337 432.748 344.432 432.892C344.529 433.033 344.653 433.151 344.804 433.246C344.955 433.338 345.113 433.415 345.278 433.476C345.444 433.534 345.596 433.581 345.735 433.618L346.494 433.822C346.688 433.873 346.905 433.944 347.144 434.034C347.384 434.124 347.614 434.247 347.833 434.403C348.055 434.556 348.237 434.753 348.381 434.994C348.524 435.235 348.596 435.53 348.596 435.881C348.596 436.285 348.49 436.65 348.279 436.976C348.069 437.302 347.763 437.561 347.359 437.753C346.957 437.945 346.469 438.042 345.895 438.042C345.36 438.042 344.896 437.955 344.505 437.782C344.115 437.61 343.809 437.369 343.585 437.06C343.363 436.751 343.238 436.392 343.209 435.983H344.143C344.168 436.265 344.263 436.499 344.428 436.684C344.596 436.866 344.808 437.003 345.063 437.093C345.321 437.18 345.598 437.224 345.895 437.224C346.241 437.224 346.551 437.168 346.826 437.056C347.101 436.942 347.319 436.784 347.479 436.582C347.64 436.377 347.72 436.139 347.72 435.866C347.72 435.618 347.651 435.416 347.512 435.26C347.373 435.105 347.191 434.978 346.965 434.881C346.738 434.783 346.494 434.698 346.231 434.625L345.311 434.363C344.727 434.195 344.265 433.955 343.924 433.643C343.584 433.332 343.413 432.924 343.413 432.421C343.413 432.002 343.527 431.637 343.753 431.326C343.982 431.012 344.288 430.769 344.673 430.596C345.059 430.421 345.491 430.333 345.968 430.333C346.45 430.333 346.878 430.419 347.253 430.592C347.628 430.763 347.925 430.996 348.144 431.293C348.365 431.59 348.482 431.927 348.494 432.304H347.618ZM349.968 437.91V432.304H350.829V437.91H349.968ZM350.406 431.37C350.238 431.37 350.093 431.312 349.971 431.198C349.852 431.084 349.792 430.946 349.792 430.786C349.792 430.625 349.852 430.488 349.971 430.373C350.093 430.259 350.238 430.202 350.406 430.202C350.573 430.202 350.717 430.259 350.836 430.373C350.958 430.488 351.019 430.625 351.019 430.786C351.019 430.946 350.958 431.084 350.836 431.198C350.717 431.312 350.573 431.37 350.406 431.37ZM354.669 440.129C354.253 440.129 353.896 440.076 353.596 439.969C353.297 439.864 353.048 439.725 352.848 439.553C352.651 439.382 352.494 439.2 352.377 439.005L353.064 438.523C353.141 438.626 353.24 438.742 353.359 438.874C353.478 439.008 353.641 439.123 353.848 439.22C354.058 439.32 354.331 439.37 354.669 439.37C355.122 439.37 355.496 439.261 355.79 439.042C356.084 438.823 356.232 438.48 356.232 438.012V436.874H356.159C356.095 436.976 356.005 437.102 355.889 437.253C355.774 437.402 355.609 437.534 355.392 437.651C355.178 437.765 354.888 437.823 354.523 437.823C354.071 437.823 353.665 437.715 353.304 437.501C352.947 437.287 352.663 436.976 352.454 436.567C352.247 436.158 352.144 435.662 352.144 435.078C352.144 434.504 352.245 434.004 352.447 433.578C352.649 433.15 352.93 432.819 353.29 432.585C353.65 432.349 354.066 432.231 354.538 432.231C354.903 432.231 355.193 432.292 355.407 432.413C355.623 432.533 355.789 432.669 355.903 432.822C356.02 432.973 356.11 433.097 356.173 433.195H356.261V432.304H357.093V438.071C357.093 438.553 356.983 438.944 356.764 439.246C356.548 439.55 356.256 439.773 355.889 439.914C355.524 440.057 355.117 440.129 354.669 440.129ZM354.64 437.049C354.986 437.049 355.278 436.97 355.516 436.812C355.755 436.653 355.936 436.426 356.06 436.129C356.184 435.832 356.246 435.477 356.246 435.063C356.246 434.659 356.185 434.303 356.064 433.994C355.942 433.685 355.762 433.443 355.524 433.268C355.285 433.092 354.991 433.005 354.64 433.005C354.275 433.005 353.971 433.097 353.728 433.282C353.487 433.467 353.306 433.715 353.184 434.027C353.065 434.338 353.005 434.684 353.005 435.063C353.005 435.453 353.066 435.797 353.188 436.096C353.312 436.393 353.494 436.627 353.735 436.797C353.978 436.965 354.28 437.049 354.64 437.049ZM359.531 434.538V437.91H358.67V432.304H359.502V433.18H359.575C359.706 432.895 359.906 432.667 360.173 432.494C360.441 432.319 360.787 432.231 361.21 432.231C361.59 432.231 361.922 432.309 362.206 432.465C362.491 432.618 362.712 432.851 362.871 433.165C363.029 433.477 363.108 433.871 363.108 434.348V437.91H362.247V434.406C362.247 433.966 362.132 433.623 361.903 433.377C361.675 433.129 361.361 433.005 360.962 433.005C360.687 433.005 360.441 433.064 360.225 433.184C360.01 433.303 359.841 433.477 359.717 433.706C359.593 433.934 359.531 434.212 359.531 434.538ZM367.894 434.304V435.107H364.623V434.304H367.894ZM372.942 435.618V432.304H373.804V437.91H372.942V436.961H372.884C372.753 437.246 372.548 437.488 372.271 437.688C371.993 437.885 371.643 437.983 371.22 437.983C370.869 437.983 370.558 437.907 370.285 437.753C370.013 437.597 369.799 437.364 369.643 437.052C369.487 436.739 369.409 436.343 369.409 435.866V432.304H370.271V435.808C370.271 436.217 370.385 436.543 370.614 436.786C370.845 437.029 371.139 437.151 371.497 437.151C371.711 437.151 371.929 437.096 372.15 436.987C372.374 436.877 372.562 436.709 372.712 436.483C372.866 436.257 372.942 435.968 372.942 435.618ZM375.381 440.012V432.304H376.214V433.195H376.316C376.379 433.097 376.467 432.973 376.579 432.822C376.693 432.669 376.856 432.533 377.068 432.413C377.282 432.292 377.571 432.231 377.936 432.231C378.408 432.231 378.824 432.349 379.185 432.585C379.545 432.821 379.826 433.156 380.028 433.589C380.23 434.022 380.331 434.533 380.331 435.122C380.331 435.715 380.23 436.23 380.028 436.666C379.826 437.099 379.546 437.434 379.188 437.673C378.83 437.909 378.418 438.027 377.951 438.027C377.591 438.027 377.302 437.967 377.086 437.848C376.869 437.726 376.703 437.589 376.586 437.436C376.469 437.28 376.379 437.151 376.316 437.049H376.243V440.012H375.381ZM376.228 435.107C376.228 435.53 376.29 435.904 376.414 436.228C376.538 436.549 376.72 436.801 376.958 436.983C377.197 437.163 377.489 437.253 377.834 437.253C378.194 437.253 378.495 437.158 378.736 436.968C378.979 436.776 379.161 436.518 379.283 436.195C379.407 435.869 379.469 435.506 379.469 435.107C379.469 434.713 379.408 434.358 379.287 434.041C379.167 433.723 378.986 433.471 378.743 433.286C378.502 433.098 378.199 433.005 377.834 433.005C377.484 433.005 377.189 433.094 376.951 433.271C376.712 433.446 376.532 433.692 376.411 434.008C376.289 434.322 376.228 434.689 376.228 435.107Z" fill="#E8E8E3"/>
<path d="M333.299 220.868L298.629 220.711L298.6 227.073L333.27 227.231L333.299 220.868Z" fill="#FD7401"/>
<path opacity="0.1" d="M333.299 220.868L298.629 220.711L298.6 227.073L333.27 227.231L333.299 220.868Z" fill="black"/>
<path d="M434.932 259.936C435.204 259.908 435.472 259.845 435.727 259.747C436.1 259.601 436.425 259.353 436.663 259.031C436.902 258.709 437.045 258.326 437.075 257.927C437.075 255.784 437.075 252.656 437.075 248.639C437.075 246.631 437.075 244.38 437.075 241.899C437.075 241.293 437.075 240.659 437.075 240.026C437.163 239.411 437.029 238.785 436.698 238.26C436.512 238.008 436.271 237.803 435.993 237.66C435.714 237.517 435.407 237.441 435.094 237.437H432.991H413.512L300.766 237.02C300.477 237.015 300.192 237.079 299.933 237.209C299.675 237.338 299.452 237.527 299.283 237.761C298.957 238.288 298.833 238.915 298.932 239.527C298.932 240.875 298.932 242.223 298.932 243.571C298.932 246.267 298.932 248.963 298.932 251.659C298.932 253.007 298.932 254.355 298.932 255.703C298.876 256.331 298.876 256.962 298.932 257.59C299.003 257.859 299.135 258.109 299.317 258.319C299.499 258.529 299.727 258.695 299.984 258.803C300.249 258.909 300.534 258.959 300.82 258.952H307.681L337.62 259.113L388.305 259.423L422.477 259.693L431.764 259.801H434.177C434.73 259.801 434.999 259.801 434.999 259.801H434.177H431.764H422.477H388.305L337.62 259.639L307.681 259.518H300.82C300.442 259.533 300.065 259.469 299.714 259.329C299.359 259.177 299.044 258.947 298.791 258.655C298.539 258.363 298.357 258.017 298.258 257.644C298.18 257.29 298.153 256.927 298.177 256.566V255.568C298.177 254.22 298.177 252.872 298.177 251.524C298.177 248.828 298.177 246.132 298.177 243.436C298.177 242.088 298.177 240.74 298.177 239.392C298.152 239.033 298.152 238.673 298.177 238.314C298.228 237.917 298.381 237.541 298.622 237.222C298.855 236.896 299.163 236.632 299.519 236.451C299.876 236.271 300.271 236.179 300.671 236.184L413.418 236.804L432.897 236.939H434.999C435.37 236.939 435.735 237.029 436.063 237.2C436.392 237.371 436.674 237.619 436.887 237.923C437.267 238.509 437.42 239.213 437.318 239.904C437.318 240.538 437.318 241.171 437.318 241.778C437.318 244.231 437.318 246.482 437.318 248.518C437.318 252.562 437.224 255.662 437.197 257.819C437.164 258.234 437.013 258.631 436.762 258.962C436.512 259.294 436.171 259.548 435.781 259.693C435.526 259.851 435.232 259.935 434.932 259.936Z" fill="#E0E0E0"/>
<path d="M372.453 243.785H309.043V249.73H372.453V243.785Z" fill="#FD7401"/>
<path opacity="0.2" d="M372.453 243.785H309.043V249.73H372.453V243.785Z" fill="white"/>
<path d="M333.063 278.911L298.393 278.754L298.364 285.116L333.034 285.274L333.063 278.911Z" fill="#FD7401"/>
<path opacity="0.1" d="M333.063 278.911L298.393 278.754L298.364 285.116L333.034 285.274L333.063 278.911Z" fill="black"/>
<path d="M434.055 317.978C434.328 317.945 434.598 317.895 434.864 317.83C435.241 317.71 435.587 317.511 435.88 317.246C436.173 316.981 436.406 316.656 436.563 316.293C436.775 315.749 436.858 315.163 436.805 314.582C436.805 313.934 436.805 313.234 436.805 312.452C436.805 310.888 436.805 309.109 436.805 307.06V298.5C436.87 297.88 436.733 297.256 436.414 296.721C436.082 296.171 435.559 295.763 434.945 295.575C434.274 295.455 433.59 295.419 432.91 295.467H413.512L301.156 295.049C300.552 295.05 299.968 295.271 299.515 295.67C299.061 296.07 298.768 296.62 298.689 297.219C298.689 298.5 298.689 299.915 298.689 301.263C298.689 303.959 298.689 306.655 298.689 309.351C298.689 310.699 298.689 312.047 298.689 313.395C298.639 314.025 298.666 314.659 298.77 315.282C298.938 315.829 299.285 316.304 299.754 316.63C300.252 316.946 300.837 317.097 301.426 317.062H303.299H307.195L337.026 317.21L387.536 317.52L421.586 317.79L430.847 317.898H433.26H434.069H433.26H430.847H421.586H387.536L336.999 317.844L307.168 317.736H301.304C300.575 317.779 299.852 317.585 299.242 317.183C298.629 316.758 298.181 316.134 297.975 315.417C297.854 314.732 297.818 314.035 297.867 313.341C297.867 311.993 297.867 310.645 297.867 309.297C297.867 306.601 297.867 303.905 297.867 301.209C297.867 299.861 297.867 298.513 297.867 297.165C297.965 296.395 298.341 295.686 298.924 295.172C299.507 294.659 300.258 294.375 301.035 294.375L413.391 294.995L432.788 295.143C433.511 295.099 434.236 295.149 434.945 295.292C435.645 295.52 436.236 296.001 436.603 296.64C436.952 297.233 437.103 297.923 437.034 298.608C437.034 299.241 437.034 299.861 437.034 300.481C437.034 302.921 437.034 305.159 437.034 307.221C437.034 309.284 437.034 311.023 437.034 312.613C437.034 313.382 437.034 314.096 437.034 314.757C437.083 315.36 436.986 315.965 436.751 316.523C436.576 316.895 436.323 317.224 436.009 317.49C435.695 317.755 435.328 317.949 434.932 318.059C434.637 318.084 434.341 318.056 434.055 317.978Z" fill="#E0E0E0"/>
<path d="M332.801 339.478L298.131 339.32L298.102 345.683L332.772 345.84L332.801 339.478Z" fill="#FD7401"/>
<path opacity="0.1" d="M332.801 339.478L298.131 339.32L298.102 345.683L332.772 345.84L332.801 339.478Z" fill="black"/>
<path d="M433.786 378.517C434.058 378.485 434.328 378.435 434.594 378.369C434.969 378.25 435.315 378.052 435.607 377.79C435.9 377.527 436.134 377.205 436.293 376.845C436.504 376.301 436.587 375.715 436.536 375.134C436.536 374.473 436.536 373.786 436.536 372.99C436.536 371.44 436.536 369.647 436.536 367.598V359.038C436.6 358.419 436.463 357.795 436.145 357.259C435.804 356.72 435.284 356.318 434.675 356.127C434.004 356.002 433.321 355.961 432.64 356.005H413.242L300.886 355.588C300.282 355.589 299.699 355.81 299.245 356.209C298.791 356.608 298.498 357.159 298.42 357.758C298.42 359.106 298.42 360.454 298.42 361.802C298.42 364.498 298.42 367.194 298.42 369.89C298.42 371.238 298.42 372.586 298.42 373.934C298.369 374.559 298.396 375.189 298.5 375.808C298.662 376.358 299.01 376.834 299.484 377.156C299.979 377.479 300.567 377.63 301.156 377.587H307.02L336.851 377.749L387.361 378.059L421.411 378.328L430.672 378.436H433.085C433.624 378.436 433.894 378.436 433.894 378.436C433.894 378.436 433.624 378.436 433.085 378.436H430.672H421.411H387.361L336.851 378.288L307.02 378.167H301.156C300.426 378.216 299.701 378.021 299.094 377.614C298.48 377.189 298.032 376.565 297.826 375.848C297.706 375.163 297.669 374.466 297.719 373.772C297.719 372.424 297.719 371.076 297.719 369.728C297.719 367.032 297.719 364.336 297.719 361.64C297.719 360.292 297.719 358.944 297.719 357.529C297.814 356.759 298.187 356.051 298.768 355.537C299.349 355.023 300.097 354.739 300.873 354.738L413.229 355.358L432.626 355.507C433.349 355.462 434.074 355.512 434.783 355.655C435.484 355.884 436.074 356.364 436.441 357.003C436.79 357.597 436.941 358.286 436.873 358.971C436.873 359.605 436.873 360.238 436.873 360.845C436.873 363.285 436.873 365.522 436.873 367.585C436.873 369.647 436.873 371.386 436.873 372.977C436.873 373.745 436.873 374.46 436.873 375.12C436.924 375.723 436.827 376.329 436.59 376.886C436.415 377.258 436.161 377.588 435.847 377.853C435.533 378.118 435.166 378.312 434.77 378.423C434.454 378.531 434.117 378.563 433.786 378.517Z" fill="#E0E0E0"/>
<path d="M371.099 303.51L307.689 303.223L307.662 309.167L371.072 309.455L371.099 303.51Z" fill="#FD7401"/>
<path opacity="0.2" d="M371.099 303.51L307.689 303.223L307.662 309.167L371.072 309.455L371.099 303.51Z" fill="white"/>
<path d="M313.423 367.519C313.383 368.061 313.185 368.58 312.854 369.011C312.522 369.441 312.071 369.765 311.557 369.942C311.043 370.119 310.488 370.141 309.961 370.005C309.435 369.87 308.96 369.582 308.595 369.179C308.23 368.776 307.992 368.275 307.909 367.737C307.827 367.2 307.904 366.65 308.131 366.156C308.358 365.662 308.725 365.246 309.186 364.958C309.648 364.671 310.184 364.526 310.727 364.54C311.478 364.582 312.182 364.918 312.687 365.476C313.192 366.034 313.456 366.768 313.423 367.519Z" fill="#FD7401"/>
<path d="M322.01 367.56C322.036 367.94 321.984 368.322 321.857 368.681C321.73 369.04 321.53 369.369 321.271 369.647C321.011 369.926 320.696 370.148 320.347 370.3C319.998 370.452 319.621 370.53 319.24 370.53C318.859 370.53 318.482 370.452 318.133 370.3C317.783 370.148 317.469 369.926 317.209 369.647C316.949 369.369 316.749 369.04 316.622 368.681C316.495 368.322 316.443 367.94 316.47 367.56C316.443 367.18 316.495 366.799 316.622 366.44C316.749 366.08 316.949 365.751 317.209 365.473C317.469 365.194 317.783 364.972 318.133 364.82C318.482 364.668 318.859 364.59 319.24 364.59C319.621 364.59 319.998 364.668 320.347 364.82C320.696 364.972 321.011 365.194 321.271 365.473C321.53 365.751 321.73 366.08 321.857 366.44C321.984 366.799 322.036 367.18 322.01 367.56Z" fill="#FD7401"/>
<path d="M330.611 367.601C330.571 368.143 330.373 368.662 330.041 369.093C329.709 369.523 329.258 369.847 328.744 370.024C328.23 370.201 327.675 370.223 327.149 370.087C326.622 369.952 326.147 369.664 325.782 369.261C325.418 368.858 325.179 368.357 325.097 367.819C325.014 367.282 325.091 366.732 325.318 366.238C325.545 365.744 325.912 365.328 326.374 365.04C326.836 364.753 327.371 364.608 327.915 364.622C328.665 364.667 329.367 365.005 329.871 365.561C330.375 366.118 330.64 366.851 330.611 367.601Z" fill="#FD7401"/>
<path d="M339.197 367.64C339.157 368.182 338.959 368.701 338.627 369.132C338.295 369.562 337.844 369.886 337.33 370.063C336.816 370.24 336.261 370.262 335.735 370.126C335.208 369.991 334.733 369.703 334.368 369.3C334.004 368.897 333.765 368.396 333.683 367.859C333.6 367.321 333.677 366.771 333.904 366.277C334.131 365.783 334.498 365.367 334.96 365.08C335.421 364.792 335.957 364.647 336.501 364.661C337.25 364.706 337.953 365.044 338.457 365.601C338.961 366.157 339.226 366.89 339.197 367.64Z" fill="#FD7401"/>
<path d="M347.784 367.666C347.746 368.209 347.55 368.729 347.22 369.162C346.89 369.594 346.44 369.92 345.925 370.099C345.411 370.278 344.856 370.301 344.329 370.167C343.801 370.033 343.325 369.747 342.958 369.344C342.592 368.941 342.353 368.44 342.269 367.902C342.186 367.364 342.262 366.814 342.489 366.319C342.716 365.824 343.083 365.407 343.545 365.119C344.007 364.831 344.543 364.686 345.088 364.7C345.835 364.745 346.535 365.081 347.039 365.635C347.542 366.189 347.81 366.918 347.784 367.666Z" fill="#FD7401"/>
<path d="M356.383 367.708C356.346 368.248 356.153 368.766 355.825 369.197C355.498 369.629 355.052 369.955 354.542 370.136C354.031 370.317 353.479 370.345 352.953 370.217C352.427 370.088 351.95 369.808 351.581 369.412C351.212 369.016 350.967 368.521 350.876 367.987C350.784 367.453 350.851 366.904 351.068 366.408C351.285 365.912 351.642 365.49 352.095 365.194C352.548 364.898 353.078 364.741 353.62 364.742C354.379 364.77 355.096 365.098 355.614 365.654C356.132 366.21 356.409 366.948 356.383 367.708Z" fill="#FD7401"/>
<path d="M364.971 367.748C364.997 368.128 364.945 368.509 364.818 368.868C364.691 369.227 364.491 369.556 364.231 369.835C363.972 370.113 363.657 370.336 363.308 370.488C362.959 370.639 362.582 370.718 362.201 370.718C361.82 370.718 361.443 370.639 361.093 370.488C360.744 370.336 360.43 370.113 360.17 369.835C359.91 369.556 359.71 369.227 359.583 368.868C359.456 368.509 359.404 368.128 359.431 367.748C359.404 367.368 359.456 366.986 359.583 366.627C359.71 366.268 359.91 365.939 360.17 365.66C360.43 365.382 360.744 365.16 361.093 365.008C361.443 364.856 361.82 364.777 362.201 364.777C362.582 364.777 362.959 364.856 363.308 365.008C363.657 365.16 363.972 365.382 364.231 365.66C364.491 365.939 364.691 366.268 364.818 366.627C364.945 366.986 364.997 367.368 364.971 367.748Z" fill="#FD7401"/>
<path d="M373.557 367.79C373.52 368.33 373.326 368.848 372.999 369.279C372.672 369.711 372.226 370.037 371.715 370.218C371.205 370.399 370.653 370.427 370.127 370.299C369.601 370.17 369.124 369.89 368.755 369.494C368.386 369.098 368.141 368.603 368.049 368.069C367.958 367.535 368.025 366.986 368.242 366.49C368.458 365.994 368.815 365.572 369.269 365.276C369.722 364.98 370.252 364.823 370.794 364.824C371.553 364.852 372.27 365.18 372.788 365.736C373.306 366.292 373.583 367.03 373.557 367.79Z" fill="#FD7401"/>
<path d="M382.145 367.83C382.108 368.373 381.912 368.893 381.581 369.326C381.251 369.758 380.801 370.084 380.287 370.263C379.773 370.442 379.217 370.466 378.69 370.331C378.162 370.197 377.686 369.911 377.32 369.508C376.954 369.105 376.714 368.604 376.631 368.066C376.547 367.528 376.623 366.978 376.85 366.483C377.077 365.988 377.444 365.571 377.906 365.283C378.368 364.995 378.905 364.85 379.449 364.864C380.196 364.91 380.896 365.245 381.4 365.799C381.904 366.353 382.171 367.082 382.145 367.83Z" fill="#FD7401"/>
<g opacity="0.2">
<path d="M313.423 367.519C313.383 368.061 313.185 368.58 312.854 369.011C312.522 369.441 312.071 369.765 311.557 369.942C311.043 370.119 310.488 370.141 309.961 370.005C309.435 369.87 308.96 369.582 308.595 369.179C308.23 368.776 307.992 368.275 307.909 367.737C307.827 367.2 307.904 366.65 308.131 366.156C308.358 365.662 308.725 365.246 309.186 364.958C309.648 364.671 310.184 364.526 310.727 364.54C311.478 364.582 312.182 364.918 312.687 365.476C313.192 366.034 313.456 366.768 313.423 367.519Z" fill="white"/>
<path d="M322.01 367.56C322.036 367.94 321.984 368.322 321.857 368.681C321.73 369.04 321.53 369.369 321.271 369.647C321.011 369.926 320.696 370.148 320.347 370.3C319.998 370.452 319.621 370.53 319.24 370.53C318.859 370.53 318.482 370.452 318.133 370.3C317.783 370.148 317.469 369.926 317.209 369.647C316.949 369.369 316.749 369.04 316.622 368.681C316.495 368.322 316.443 367.94 316.47 367.56C316.443 367.18 316.495 366.799 316.622 366.44C316.749 366.08 316.949 365.751 317.209 365.473C317.469 365.194 317.783 364.972 318.133 364.82C318.482 364.668 318.859 364.59 319.24 364.59C319.621 364.59 319.998 364.668 320.347 364.82C320.696 364.972 321.011 365.194 321.271 365.473C321.53 365.751 321.73 366.08 321.857 366.44C321.984 366.799 322.036 367.18 322.01 367.56Z" fill="white"/>
<path d="M330.611 367.601C330.571 368.143 330.373 368.662 330.041 369.093C329.709 369.523 329.258 369.847 328.744 370.024C328.23 370.201 327.675 370.223 327.149 370.087C326.622 369.952 326.147 369.664 325.782 369.261C325.418 368.858 325.179 368.357 325.097 367.819C325.014 367.282 325.091 366.732 325.318 366.238C325.545 365.744 325.912 365.328 326.374 365.04C326.836 364.753 327.371 364.608 327.915 364.622C328.665 364.667 329.367 365.005 329.871 365.561C330.375 366.118 330.64 366.851 330.611 367.601Z" fill="white"/>
<path d="M339.197 367.64C339.157 368.182 338.959 368.701 338.627 369.132C338.295 369.562 337.844 369.886 337.33 370.063C336.816 370.24 336.261 370.262 335.735 370.126C335.208 369.991 334.733 369.703 334.368 369.3C334.004 368.897 333.765 368.396 333.683 367.859C333.6 367.321 333.677 366.771 333.904 366.277C334.131 365.783 334.498 365.367 334.96 365.08C335.421 364.792 335.957 364.647 336.501 364.661C337.25 364.706 337.953 365.044 338.457 365.601C338.961 366.157 339.226 366.89 339.197 367.64Z" fill="white"/>
<path d="M347.784 367.666C347.746 368.209 347.55 368.729 347.22 369.162C346.89 369.594 346.44 369.92 345.925 370.099C345.411 370.278 344.856 370.301 344.329 370.167C343.801 370.033 343.325 369.747 342.958 369.344C342.592 368.941 342.353 368.44 342.269 367.902C342.186 367.364 342.262 366.814 342.489 366.319C342.716 365.824 343.083 365.407 343.545 365.119C344.007 364.831 344.543 364.686 345.088 364.7C345.835 364.745 346.535 365.081 347.039 365.635C347.542 366.189 347.81 366.918 347.784 367.666Z" fill="white"/>
<path d="M356.383 367.708C356.346 368.248 356.153 368.766 355.825 369.197C355.498 369.629 355.052 369.955 354.542 370.136C354.031 370.317 353.479 370.345 352.953 370.217C352.427 370.088 351.95 369.808 351.581 369.412C351.212 369.016 350.967 368.521 350.876 367.987C350.784 367.453 350.851 366.904 351.068 366.408C351.285 365.912 351.642 365.49 352.095 365.194C352.548 364.898 353.078 364.741 353.62 364.742C354.379 364.77 355.096 365.098 355.614 365.654C356.132 366.21 356.409 366.948 356.383 367.708Z" fill="white"/>
<path d="M364.971 367.748C364.997 368.128 364.945 368.509 364.818 368.868C364.691 369.227 364.491 369.556 364.231 369.835C363.972 370.113 363.657 370.336 363.308 370.488C362.959 370.639 362.582 370.718 362.201 370.718C361.82 370.718 361.443 370.639 361.093 370.488C360.744 370.336 360.43 370.113 360.17 369.835C359.91 369.556 359.71 369.227 359.583 368.868C359.456 368.509 359.404 368.128 359.431 367.748C359.404 367.368 359.456 366.986 359.583 366.627C359.71 366.268 359.91 365.939 360.17 365.66C360.43 365.382 360.744 365.16 361.093 365.008C361.443 364.856 361.82 364.777 362.201 364.777C362.582 364.777 362.959 364.856 363.308 365.008C363.657 365.16 363.972 365.382 364.231 365.66C364.491 365.939 364.691 366.268 364.818 366.627C364.945 366.986 364.997 367.368 364.971 367.748Z" fill="white"/>
<path d="M373.557 367.79C373.52 368.33 373.326 368.848 372.999 369.279C372.672 369.711 372.226 370.037 371.715 370.218C371.205 370.399 370.653 370.427 370.127 370.299C369.601 370.17 369.124 369.89 368.755 369.494C368.386 369.098 368.141 368.603 368.049 368.069C367.958 367.535 368.025 366.986 368.242 366.49C368.458 365.994 368.815 365.572 369.269 365.276C369.722 364.98 370.252 364.823 370.794 364.824C371.553 364.852 372.27 365.18 372.788 365.736C373.306 366.292 373.583 367.03 373.557 367.79Z" fill="white"/>
<path d="M382.145 367.83C382.108 368.373 381.912 368.893 381.581 369.326C381.251 369.758 380.801 370.084 380.287 370.263C379.773 370.442 379.217 370.466 378.69 370.331C378.162 370.197 377.686 369.911 377.32 369.508C376.954 369.105 376.714 368.604 376.631 368.066C376.547 367.528 376.623 366.978 376.85 366.483C377.077 365.988 377.444 365.571 377.906 365.283C378.368 364.995 378.905 364.85 379.449 364.864C380.196 364.91 380.896 365.245 381.4 365.799C381.904 366.353 382.171 367.082 382.145 367.83Z" fill="white"/>
</g>
<path d="M369.945 173.23C370.881 172.817 371.676 172.139 372.229 171.278C372.783 170.418 373.071 169.413 373.059 168.39C373.093 167.725 372.993 167.06 372.762 166.435C372.532 165.81 372.176 165.239 371.718 164.756C371.259 164.273 370.707 163.888 370.095 163.625C369.484 163.362 368.825 163.227 368.159 163.227C367.493 163.227 366.833 163.362 366.222 163.625C365.61 163.888 365.058 164.273 364.599 164.756C364.141 165.239 363.786 165.81 363.555 166.435C363.325 167.06 363.224 167.725 363.259 168.39C363.238 169.424 363.524 170.44 364.081 171.311C364.637 172.182 365.439 172.868 366.386 173.284C358.837 174.416 359.174 182.612 359.174 182.612L377.022 182.693C377.022 182.693 377.44 174.349 369.945 173.23Z" fill="#FD7401"/>
<path opacity="0.1" d="M369.945 173.23C370.881 172.817 371.676 172.139 372.229 171.278C372.783 170.418 373.071 169.413 373.059 168.39C373.093 167.725 372.993 167.06 372.762 166.435C372.532 165.81 372.176 165.239 371.718 164.756C371.259 164.273 370.707 163.888 370.095 163.625C369.484 163.362 368.825 163.227 368.159 163.227C367.493 163.227 366.833 163.362 366.222 163.625C365.61 163.888 365.058 164.273 364.599 164.756C364.141 165.239 363.786 165.81 363.555 166.435C363.325 167.06 363.224 167.725 363.259 168.39C363.238 169.424 363.524 170.44 364.081 171.311C364.637 172.182 365.439 172.868 366.386 173.284C358.837 174.416 359.174 182.612 359.174 182.612L377.022 182.693C377.022 182.693 377.44 174.349 369.945 173.23Z" fill="black"/>
<path d="M398.947 187.98L335.336 187.691L335.301 195.294L398.913 195.583L398.947 187.98Z" fill="#FD7401"/>
<path opacity="0.2" d="M398.947 187.98L335.336 187.691L335.301 195.294L398.913 195.583L398.947 187.98Z" fill="white"/>
<path d="M165.09 227.379H164.456L162.623 227.514C161.631 227.573 160.644 227.704 159.671 227.905C159.04 227.993 158.415 228.115 157.797 228.269L155.707 228.848C152.151 229.939 148.796 231.601 145.773 233.769C141.778 236.668 138.443 240.38 135.986 244.66C134.542 247.128 133.393 249.757 132.562 252.492C131.689 255.466 131.187 258.535 131.066 261.632C130.986 263.258 131.013 264.888 131.147 266.511C131.147 267.334 131.376 268.156 131.484 268.992C131.575 269.834 131.732 270.668 131.956 271.486C133.168 276.895 135.627 281.946 139.138 286.236C142.649 290.526 147.113 293.936 152.176 296.194C155.84 297.775 159.767 298.658 163.755 298.796C167.874 299.023 171.997 298.432 175.887 297.057L177.073 296.612H177.235L177.37 296.693L194.368 305.32L193.869 305.752C192.05 300.117 190.297 294.658 188.599 289.414V289.212L188.747 289.063C192.87 284.91 195.932 279.824 197.671 274.235C199.246 269.127 199.706 263.739 199.019 258.437C198.408 253.725 196.893 249.175 194.557 245.038C192.543 241.484 189.946 238.294 186.873 235.602C184.338 233.471 181.533 231.685 178.529 230.291C176.257 229.311 173.89 228.565 171.466 228.066L168.77 227.622L166.815 227.473L165.629 227.392H165.224C165.359 227.378 165.494 227.378 165.629 227.392H166.828L168.783 227.473L171.479 227.864C173.933 228.327 176.332 229.045 178.637 230.008C181.692 231.386 184.548 233.167 187.129 235.305C190.258 237.985 192.911 241.176 194.975 244.741C197.377 248.923 198.938 253.535 199.571 258.316C200.315 263.699 199.888 269.18 198.318 274.384C196.567 280.088 193.459 285.283 189.259 289.522L189.34 289.171C191.039 294.415 192.804 299.874 194.638 305.496L194.894 306.318L194.125 305.927L177.127 297.313H177.424L176.211 297.758C172.246 299.153 168.046 299.758 163.849 299.537C159.775 299.382 155.766 298.468 152.027 296.841C144.896 293.787 138.963 288.479 135.137 281.73C133.376 278.614 132.091 275.251 131.322 271.755C131.112 270.917 130.954 270.066 130.85 269.207C130.743 268.358 130.567 267.522 130.527 266.687C130.162 261.89 130.669 257.067 132.023 252.452C132.874 249.678 134.056 247.017 135.541 244.526C138.057 240.206 141.462 236.47 145.53 233.566C148.603 231.393 152.015 229.744 155.627 228.687L157.743 228.147C158.366 228.003 158.996 227.89 159.63 227.81C160.614 227.628 161.61 227.52 162.609 227.487L164.456 227.419C164.666 227.391 164.878 227.378 165.09 227.379Z" fill="#FD7401"/>
<path d="M172.774 258.813H170.28L164.888 251.237V246.263C164.888 246.263 161.033 246.02 161.491 252.531C161.949 259.042 161.491 257.384 161.491 257.384C161.491 257.384 153.309 257.384 152.635 258.125C151.961 258.867 151.92 266.766 151.826 271.174C151.774 272.237 152.079 273.286 152.692 274.155C153.305 275.025 154.191 275.665 155.209 275.973C155.495 276.052 155.789 276.093 156.086 276.094C158.135 276.094 168.555 274.436 168.555 274.436H172.855L172.774 258.813Z" fill="#FD7401"/>
<path d="M179.904 257.48L178.367 274.519H174.107V257.831L179.904 257.48Z" fill="#FD7401"/>
<path d="M230.711 604.361V592.836L210.046 592.688L209.871 610.117L211.152 610.212C216.854 610.575 240.161 611.115 243.989 609.928C248.249 608.607 230.711 604.361 230.711 604.361Z" fill="#FD7401"/>
<path d="M244.473 608.85C244.473 609.039 236.736 609.201 227.205 609.201C217.675 609.201 209.938 609.039 209.938 608.85C209.938 608.662 217.675 608.5 227.205 608.5C236.736 608.5 244.473 608.662 244.473 608.85Z" fill="#263238"/>
<path d="M231.073 606.722C230.898 606.628 231.073 606.021 231.491 605.374C231.909 604.727 232.475 604.458 232.61 604.592C232.745 604.727 232.462 605.239 232.057 605.792C231.653 606.345 231.249 606.817 231.073 606.722Z" fill="#263238"/>
<path d="M232.396 607.477C232.207 607.477 232.302 606.722 232.706 606.008C233.111 605.293 233.65 604.862 233.798 604.97C233.946 605.077 233.704 605.684 233.326 606.318C232.949 606.951 232.571 607.544 232.396 607.477Z" fill="#263238"/>
<path d="M216.166 608.799C216.085 608.799 215.775 608.556 215.33 608.044C214.787 607.386 214.182 606.781 213.524 606.238C212.877 605.72 212.105 605.381 211.286 605.254C210.653 605.173 210.248 605.254 210.208 605.173C210.167 605.092 210.558 604.809 211.3 604.755C212.278 604.734 213.233 605.059 213.996 605.671C214.711 606.254 215.314 606.962 215.775 607.761C216.085 608.354 216.247 608.745 216.166 608.799Z" fill="#263238"/>
<path d="M231.141 604.55C231.235 604.711 230.885 605.116 230.292 605.331C229.698 605.547 229.173 605.466 229.146 605.331C229.119 605.197 229.537 604.914 230.049 604.725C230.561 604.536 231.033 604.388 231.141 604.55Z" fill="#263238"/>
<path d="M230.818 603.432C230.818 603.634 230.279 603.795 229.578 603.809C228.877 603.822 228.325 603.661 228.338 603.472C228.352 603.283 228.904 603.108 229.578 603.095C230.252 603.081 230.791 603.243 230.818 603.432Z" fill="#263238"/>
<path d="M281.598 604.361V592.836L260.933 592.688L260.758 609.942L262.038 610.036C267.74 610.4 291.061 611.115 294.876 609.928C299.135 608.607 281.598 604.361 281.598 604.361Z" fill="#FD7401"/>
<path d="M295.36 608.878C295.36 609.067 287.636 609.228 278.092 609.228C268.548 609.228 260.838 609.067 260.838 608.878C260.838 608.689 268.562 608.527 278.092 608.527C287.623 608.527 295.36 608.689 295.36 608.878Z" fill="#263238"/>
<path d="M281.962 606.722C281.8 606.628 281.962 606.021 282.38 605.374C282.798 604.727 283.364 604.458 283.499 604.592C283.634 604.727 283.351 605.239 282.946 605.792C282.542 606.345 282.137 606.817 281.962 606.722Z" fill="#263238"/>
<path d="M283.282 607.477C283.107 607.477 283.188 606.722 283.606 606.008C284.024 605.293 284.549 604.862 284.698 604.97C284.846 605.077 284.59 605.684 284.212 606.318C283.835 606.951 283.471 607.544 283.282 607.477Z" fill="#263238"/>
<path d="M267.053 608.799C266.972 608.799 266.675 608.556 266.217 608.044C265.674 607.386 265.069 606.781 264.411 606.238C263.763 605.72 262.992 605.381 262.173 605.254C261.553 605.173 261.135 605.254 261.095 605.173C261.054 605.092 261.445 604.809 262.187 604.755C263.165 604.734 264.119 605.059 264.883 605.671C265.601 606.25 266.205 606.959 266.662 607.761C266.972 608.354 267.134 608.745 267.053 608.799Z" fill="#263238"/>
<path d="M282.029 604.55C282.124 604.711 281.773 605.116 281.18 605.331C280.587 605.547 280.061 605.466 280.034 605.331C280.007 605.197 280.425 604.914 280.938 604.725C281.45 604.536 281.922 604.388 282.029 604.55Z" fill="#263238"/>
<path d="M281.733 603.432C281.733 603.634 281.194 603.795 280.493 603.809C279.792 603.822 279.252 603.661 279.266 603.472C279.279 603.283 279.819 603.108 280.493 603.095C281.167 603.081 281.733 603.243 281.733 603.432Z" fill="#263238"/>
<path d="M357.732 262.105C357.193 261.552 355.859 261.822 355.859 261.822C355.992 261.045 355.992 260.252 355.859 259.476C355.616 258.721 353.917 258.869 353.917 258.869C353.839 258.234 353.839 257.591 353.917 256.955C353.931 256.814 353.901 256.673 353.831 256.55C353.761 256.427 353.655 256.328 353.527 256.268C352.723 255.94 351.86 255.784 350.992 255.809C349.954 255.068 354.16 249.177 355.724 247.29C357.288 245.403 357.004 243.934 355.616 243.934C354.659 243.934 349.752 249.595 348.242 251.496C346.733 253.397 342.729 258.681 342.594 254.461C342.459 250.242 340.761 247.061 339.696 246.522C338.631 245.983 337.499 247.25 338.078 248.422C338.588 249.755 338.905 251.153 339.022 252.574C339.169 253.707 339.118 254.856 338.874 255.971C338.427 258.047 337.818 260.084 337.054 262.064H336.946C336.946 262.064 307.533 290.278 305.403 292.286C303.502 294.093 265.273 290.143 257.603 289.334C254.997 288.953 252.365 288.773 249.731 288.795C246.401 288.943 245.808 289.415 242.492 289.456C234.117 289.549 225.762 290.283 217.5 291.653C213.759 292.289 210.264 293.94 207.397 296.427C204.53 298.913 202.402 302.139 201.243 305.753C193.519 329.882 176.022 386.997 172.935 419.079C170.602 423.309 168.497 427.66 166.626 432.114C164.456 438.019 164.982 438.221 165.71 438.356C167.678 438.72 169.915 428.124 170.751 430.686C171.587 433.247 166.505 443.316 168.567 443.613C171.263 443.99 173.407 432.829 173.663 431.939C173.919 431.049 175.254 431.333 175.011 432.168C174.62 433.355 170.832 445.931 173.474 446.336C174.93 446.551 175.092 443.896 175.092 443.896C175.092 443.896 177.788 431.858 179.014 432.101C180.241 432.344 178.934 439.448 178.314 441.82C177.693 444.192 178.556 445.392 179.823 444.813C180.686 444.408 182.748 437.196 183.315 434.851C183.881 432.505 185.296 426.008 187.197 429.769C189.098 433.53 191.982 435.714 193.168 435.767C193.436 435.737 193.688 435.627 193.892 435.451C194.096 435.276 194.243 435.044 194.314 434.784C194.385 434.525 194.377 434.25 194.291 433.995C194.204 433.74 194.043 433.517 193.829 433.355C192.809 432.358 191.933 431.224 191.227 429.985C190.599 429.019 190.142 427.952 189.879 426.83C189.336 424.594 189.02 422.309 188.936 420.009L188.72 418.661C191.74 403.712 200.434 359.835 212.984 331.81L218.133 342.405L220.371 350.25L206.648 384.126L265.179 383.357L256.444 349.738L267.052 314.69C278.524 314.946 307.978 315.378 312.884 313.153C319.058 310.457 350.992 270.125 350.992 270.125C353.074 268.508 355.067 266.78 356.964 264.949C356.964 264.949 358.905 263.318 357.732 262.105Z" fill="#FFBE9D"/>
<path d="M204.075 359.095C205.773 353.298 214.495 324.64 214.495 324.64C214.495 324.64 218.781 348.001 217.649 350.818C216.607 353.23 215.377 355.556 213.969 357.774C204.075 372.831 205.369 380.366 205.369 380.366L265.152 378.546C265.287 370.189 260.34 350.75 259.316 347.65C258.291 344.55 261.702 334.399 261.702 334.399C261.702 334.399 268.442 327.538 268.199 324.006C268.071 320.834 267.679 317.677 267.026 314.57L303.422 315.918L302.276 291.25L250.001 286.02C248.181 291.155 231.722 288.635 231.722 288.635C213.955 289.228 212.85 292.49 205.463 298.232C198.076 303.975 185.85 353.258 185.85 353.258L204.075 359.095Z" fill="#FD7401"/>
<path d="M239.419 353.257C238.383 353.442 237.328 353.496 236.278 353.418C234.324 353.418 231.641 353.284 228.689 352.987C225.737 352.69 223.068 352.273 221.167 351.895C220.119 351.76 219.092 351.498 218.107 351.113C219.161 351.114 220.213 351.213 221.248 351.41C223.162 351.652 225.818 351.989 228.757 352.286C231.695 352.583 234.364 352.785 236.292 352.92C237.343 352.933 238.39 353.046 239.419 353.257Z" fill="#263238"/>
<path d="M243.516 348.176C242.479 348.684 241.384 349.059 240.254 349.295C234.876 350.708 229.327 351.366 223.768 351.249C222.617 351.287 221.467 351.178 220.344 350.926C221.479 350.782 222.624 350.724 223.768 350.75C225.884 350.683 228.796 350.535 232.004 350.157C235.212 349.78 238.07 349.241 240.092 348.809C241.215 348.509 242.36 348.298 243.516 348.176Z" fill="#263238"/>
<path d="M263.628 325.5C263.601 326.528 263.461 327.549 263.21 328.546C262.86 330.42 262.321 332.981 261.633 335.785C260.946 338.589 260.285 341.177 259.692 342.93C259.454 343.933 259.101 344.905 258.641 345.828C258.716 344.803 258.906 343.79 259.207 342.808C259.719 340.705 260.299 338.279 260.946 335.623C261.593 332.968 262.213 330.542 262.725 328.439C262.908 327.426 263.211 326.44 263.628 325.5Z" fill="#263238"/>
<path d="M204.707 355.658C201.589 355.176 198.511 354.46 195.5 353.514C192.424 352.795 189.405 351.849 186.469 350.684C189.586 351.173 192.663 351.889 195.676 352.827C198.753 353.544 201.772 354.49 204.707 355.658Z" fill="#263238"/>
<path d="M267.672 314.273C267.164 314.36 266.644 314.36 266.135 314.273C264.727 314.128 263.345 313.797 262.024 313.289C259.819 312.46 257.811 311.179 256.131 309.529C254.45 307.878 253.133 305.894 252.265 303.704C251.305 301.295 250.895 298.703 251.065 296.115C251.125 293.981 251.763 291.903 252.912 290.103C253.719 288.89 254.926 287.999 256.322 287.582C256.695 287.479 257.081 287.429 257.468 287.434C257.737 287.434 257.872 287.434 257.872 287.434C257.872 287.434 257.306 287.434 256.403 287.798C255.122 288.271 254.036 289.158 253.316 290.319C251.483 293.203 250.97 298.474 252.925 303.394C253.835 305.714 255.259 307.797 257.09 309.487C258.591 310.87 260.319 311.983 262.199 312.776C263.963 313.473 265.799 313.975 267.672 314.273Z" fill="#263238"/>
<path d="M299.095 315.433C298.757 311.3 298.649 307.151 298.771 303.005C298.665 298.863 298.791 294.718 299.148 290.59C299.486 294.719 299.594 298.864 299.472 303.005C299.585 307.152 299.459 311.301 299.095 315.433Z" fill="#263238"/>
<path d="M249.649 287.529C249.798 284.523 250.108 281.126 250.108 281.126C250.108 281.126 257.549 280.304 257.994 272.62C258.438 264.937 257.994 247.21 257.994 247.21L244.514 240.309L229.551 252.077L231.856 290.495L245.579 291.371C246.627 291.4 247.645 291.012 248.408 290.292C249.171 289.571 249.618 288.578 249.649 287.529Z" fill="#FFBE9D"/>
<path d="M250.983 266.539C250.983 266.539 250.983 266.688 250.862 266.863C250.762 266.99 250.632 267.091 250.484 267.157C250.336 267.222 250.174 267.251 250.013 267.24C249.15 267.24 248.314 266.243 248.018 265.084C247.877 264.522 247.877 263.934 248.018 263.372C248.045 263.126 248.134 262.892 248.275 262.689C248.416 262.487 248.606 262.323 248.827 262.212C249.008 262.138 249.211 262.138 249.393 262.212C249.527 262.279 249.636 262.388 249.703 262.522C249.797 262.752 249.703 262.9 249.703 262.886C249.703 262.873 249.703 262.752 249.568 262.617C249.498 262.52 249.394 262.453 249.277 262.428C249.16 262.403 249.038 262.423 248.934 262.482C248.769 262.582 248.632 262.722 248.535 262.89C248.438 263.057 248.386 263.246 248.382 263.439C248.268 263.94 248.268 264.461 248.382 264.962C248.651 266.014 249.379 266.863 250.026 266.944C250.153 266.961 250.282 266.952 250.405 266.917C250.528 266.882 250.642 266.823 250.741 266.742C250.903 266.634 250.956 266.526 250.983 266.539Z" fill="#EB996E"/>
<path d="M262.617 243.058C261.579 239.527 257.819 237.774 254.395 236.804C249.178 235.321 243.543 234.674 238.448 236.547C233.352 238.421 227.232 241.71 227.232 247.331C224.226 247.089 222.501 249.717 221.315 252.98C220.556 254.967 220.102 257.057 219.967 259.18C219.589 266.54 217.527 276.704 212.755 282.096C210.059 285.102 206.325 287.178 204.788 290.926C203.44 294.174 204.141 298.03 202.888 301.319C201.769 304.217 199.302 306.28 197.496 308.8C195.655 311.66 194.572 314.94 194.348 318.334C194.124 321.727 194.767 325.121 196.215 328.198C197.674 331.196 199.728 333.865 202.251 336.044C204.775 338.222 207.716 339.864 210.895 340.869C217.191 342.785 223.906 342.85 230.238 341.058C234.991 339.921 239.425 337.723 243.206 334.628C247.075 331.468 249.733 327.068 250.728 322.172C251.685 316.673 250.148 311.078 249.003 305.606C245.417 288.311 246.441 287.408 250.971 271.353C251.079 271.07 251.132 270.773 251.213 270.49C251.294 270.207 251.335 270.072 251.389 269.857C251.517 269.222 251.585 268.576 251.591 267.929C250.929 268.175 250.211 268.227 249.521 268.079C248.831 267.931 248.197 267.589 247.695 267.093C247.191 266.565 246.84 265.91 246.679 265.198C246.518 264.486 246.552 263.743 246.778 263.049C247.096 262.29 247.57 261.606 248.169 261.042C248.769 260.478 249.48 260.046 250.256 259.774C251.753 259.153 253.357 258.83 254.826 258.142C257.94 256.66 260.097 253.586 261.566 250.364C262.774 248.132 263.147 245.541 262.617 243.058Z" fill="#263238"/>
<path d="M251.523 266.906C251.808 267.327 252.043 267.779 252.224 268.254C252.629 269.103 253.168 270.303 253.761 271.692L253.869 271.948H253.586L252.238 272.069C251.308 272.069 250.526 272.244 249.609 272.231C249.529 272.213 249.455 272.175 249.394 272.121C249.333 272.067 249.286 271.998 249.259 271.921C249.218 271.798 249.218 271.666 249.259 271.543C249.29 271.362 249.33 271.182 249.38 271.004L249.623 270.047C249.744 269.409 249.934 268.785 250.189 268.187C250.164 268.838 250.069 269.484 249.906 270.114L249.717 271.072C249.65 271.395 249.528 271.894 249.717 271.853C250.391 271.853 251.348 271.705 252.238 271.651L253.586 271.53L253.41 271.826C252.831 270.478 252.346 269.211 252.062 268.335C251.814 267.888 251.632 267.406 251.523 266.906Z" fill="#FD7401"/>
<path d="M205.368 380.367L265.152 378.547L291.168 480.105L286.383 596.599H254.772L258.641 482.586L235.523 411.883L239.081 601.115L207.134 601.587L203.777 423.718C203.629 418.771 202.011 407.623 202.618 402.717L205.368 380.367Z" fill="#263238"/>
<path d="M243.476 413.325C242.498 413.386 241.515 413.327 240.551 413.149C238.745 412.934 236.278 412.556 233.569 412.017C230.859 411.478 228.433 410.858 226.68 410.359C225.744 410.153 224.837 409.827 223.984 409.388C223.984 409.186 228.379 410.238 233.771 411.33C239.163 412.421 243.503 413.122 243.476 413.325Z" fill="#455A64"/>
<path d="M286.058 590.21C286.058 590.399 278.9 590.56 270.071 590.56C261.242 590.56 254.07 590.399 254.07 590.21C254.07 590.021 261.228 589.859 270.071 589.859C278.914 589.859 286.058 590.008 286.058 590.21Z" fill="#455A64"/>
<path d="M238.798 596.194C238.798 596.396 231.843 596.545 223.269 596.545C214.696 596.545 207.754 596.396 207.754 596.194C207.754 595.992 214.71 595.844 223.269 595.844C231.829 595.844 238.798 596.006 238.798 596.194Z" fill="#455A64"/>
<path d="M234.673 595.707C234.484 595.707 233.649 554.364 232.799 503.369C231.95 452.374 231.451 411.004 231.627 411.004C231.802 411.004 232.665 452.334 233.5 503.355C234.336 554.377 234.875 595.707 234.673 595.707Z" fill="#455A64"/>
<path d="M281.812 590.21C281.798 590.026 281.798 589.842 281.812 589.658V588.04C281.812 586.584 281.92 584.495 282.001 581.839C282.19 576.447 282.459 568.615 282.796 559.018C283.524 539.714 284.549 513.105 285.668 483.732C285.668 483.449 285.668 483.179 285.668 482.937V483.031C278.591 454.723 272.188 429.03 267.537 410.441L262.145 388.455C261.525 385.881 261.053 383.872 260.716 382.47C260.554 381.81 260.447 381.297 260.352 380.906C260.3 380.731 260.268 380.55 260.258 380.367C260.328 380.537 260.382 380.713 260.42 380.893C260.527 381.27 260.662 381.783 260.851 382.43C261.215 383.778 261.741 385.827 262.415 388.388C263.763 393.591 265.663 401.086 268.036 410.32C272.727 428.895 279.197 454.521 286.369 482.869V482.963C286.369 483.206 286.369 483.489 286.369 483.759C285.169 513.132 284.077 539.728 283.282 559.031C282.864 568.642 282.513 576.42 282.271 581.839C282.136 584.535 282.028 586.584 281.961 588.04C281.961 588.728 281.88 589.267 281.866 589.658C281.868 589.843 281.85 590.029 281.812 590.21Z" fill="#455A64"/>
<path d="M271.501 480.562C269.23 481.309 266.891 481.828 264.518 482.113C261.606 482.611 259.126 482.962 258.007 483.016V482.746C258.371 482.854 258.56 482.922 258.56 482.975C258.56 483.029 258.331 482.975 257.953 482.975H257.145L257.953 482.733C259.005 482.423 261.485 481.91 264.397 481.385C266.732 480.878 269.112 480.603 271.501 480.562Z" fill="#455A64"/>
<path d="M270.948 484.431C268.846 484.527 266.738 484.432 264.653 484.148C262.547 484.105 260.45 483.875 258.385 483.46C262.598 483.117 266.838 483.444 270.948 484.431Z" fill="#455A64"/>
<path opacity="0.2" d="M205.111 382.51C205.819 383.419 206.711 384.169 207.729 384.71C208.746 385.251 209.866 385.572 211.016 385.651C213.423 385.936 215.859 385.891 218.254 385.516C233.689 383.804 250.04 382.227 265.151 378.547C245.592 379.639 224.927 379.275 205.367 380.367L205.165 382.038" fill="black"/>
<g opacity="0.2">
<path d="M225.264 410.074L236.29 452.86L235.522 411.881L225.264 410.074Z" fill="black"/>
</g>
</svg>
