<svg width="500" height="500" viewBox="0 0 500 500" fill="none" xmlns="http://www.w3.org/2000/svg">
<path d="M134.259 373.58C124.208 373.587 114.267 371.481 105.082 367.398C95.8975 363.316 87.6734 357.348 80.9438 349.882C74.2141 342.415 69.1292 333.618 66.0189 324.06C62.9085 314.502 61.8423 304.397 62.8894 294.4C37.2794 285.13 20.1094 259.24 20.1094 229.79C20.1094 210.73 27.4894 192.46 40.3794 179.57C33.207 168.412 29.4243 155.414 29.4894 142.15C29.4894 106.48 58.2594 85.29 86.8594 82.65C87.8278 74.4689 90.4311 66.566 94.5145 59.411C98.5979 52.256 104.078 45.9949 110.629 41C124.512 30.2065 141.8 24.7387 159.364 25.5861C176.929 26.4336 193.61 33.5401 206.389 45.62C218.409 26.42 238.229 15 259.559 15C277.279 15 293.759 22.69 306.019 36.67C316.535 30.7684 328.391 27.6692 340.449 27.67C371.959 27.67 400.559 49.23 411.729 81.37C427.825 81.7436 443.135 88.4016 454.383 99.9195C465.632 111.437 471.926 126.9 471.919 143C471.919 161.29 461.639 182.21 447.919 192.07C461.159 205.85 467.539 223.21 465.919 241.07C462.199 281.54 432.289 302.68 411.729 302.68C409.549 318.35 400.459 333 386.079 343.97C372.249 354.53 354.749 360.59 338.079 360.59C318.411 360.463 299.515 352.917 285.169 339.46C272.559 359.66 251.759 371.69 229.359 371.69C212.839 371.69 196.969 365.09 184.599 353.11C171.178 366.309 153.083 373.667 134.259 373.58ZM155.999 26.86C125.999 26.86 91.9994 46.65 88.1294 83.33L88.0694 83.88L87.5294 83.93C59.3494 86.29 30.8294 107.05 30.8294 142.15C30.7716 155.344 34.5972 168.264 41.8294 179.3L42.1294 179.76L41.7394 180.14C28.8594 192.79 21.4794 210.89 21.4794 229.79C21.4794 258.87 38.4794 284.4 63.8694 293.32L64.3594 293.5V294.02C64.0717 296.61 63.9248 299.214 63.9194 301.82C63.9455 315.72 68.0843 329.302 75.8144 340.854C83.5445 352.407 94.5202 361.414 107.359 366.741C120.198 372.068 134.327 373.476 147.965 370.789C161.603 368.102 174.141 361.439 183.999 351.64L184.469 351.18L184.939 351.64C197.119 363.64 212.849 370.3 229.229 370.3C251.409 370.3 272.009 358.23 284.329 338.01L284.759 337.31L285.349 337.87C299.999 351.63 318.699 359.2 337.999 359.2C369.429 359.2 405.999 336.2 410.429 301.87L410.499 301.27H411.099C431.099 301.74 460.889 280.96 464.569 240.88C466.199 223.19 459.749 205.96 446.409 192.38L445.859 191.81L446.509 191.36C459.999 182.1 470.589 160.83 470.589 143C470.522 127.195 464.276 112.042 453.186 100.781C442.096 89.5188 427.042 83.0405 411.239 82.73H410.779L410.629 82.29C399.739 50.39 371.539 29 340.449 29C328.438 28.9907 316.632 32.1171 306.199 38.07L305.719 38.33L305.369 37.92C293.369 23.98 277.059 16.3 259.559 16.3C238.439 16.3 218.829 27.79 207.099 47.04L206.669 47.74L206.079 47.18C192.591 34.2639 174.674 26.9941 155.999 26.86Z" fill="#E0E0E0"/>
<path d="M211.28 483.429L48.7402 389.519L306 240.949L468.54 334.859L211.28 483.429Z" fill="#E0E0E0"/>
<path d="M322.8 468.667C321.025 468.693 319.272 468.263 317.71 467.417L313.88 465.207C313.078 464.891 312.389 464.34 311.903 463.626C311.418 462.913 311.158 462.07 311.158 461.207C311.158 460.344 311.418 459.502 311.903 458.788C312.389 458.075 313.078 457.524 313.88 457.207L364.33 427.997C359.83 422.997 357.84 417.387 358.54 411.637C359.44 404.307 364.8 397.457 373.65 392.347C383.22 386.817 395.92 383.777 409.41 383.777C422.9 383.777 435.6 386.777 445.18 392.347C455.01 398.017 460.42 405.657 460.42 413.847C460.42 422.037 455.01 429.667 445.18 435.337C435.6 440.867 422.9 443.907 409.42 443.907C396.42 443.907 384.14 441.077 374.7 435.907L328.5 467.047C326.796 468.124 324.817 468.687 322.8 468.667Z" fill="#E0E0E0"/>
<path d="M156.55 472.718L144.79 459.358L76.2697 419.658L73.7797 418.218L69.7097 415.868L69.4297 415.708H69.5297L65.6197 413.468L49.6197 404.258C46.5297 402.148 41.8997 406.428 40.0997 410.748C39.8222 411.392 39.6111 412.062 39.4697 412.748C39.1197 414.538 39.4697 416.158 40.7497 417.068L53.7497 424.578L57.2897 426.578L60.2097 428.258L60.4897 428.408L63.8697 430.358C63.9059 430.403 63.95 430.44 63.9997 430.468L66.8397 432.078L136.84 472.648L154 476.038L158.67 476.968C158.774 476.988 158.882 476.983 158.985 476.954C159.087 476.924 159.182 476.871 159.26 476.798C159.383 476.673 159.452 476.504 159.452 476.328C159.452 476.153 159.383 475.984 159.26 475.858L156.55 472.718Z" fill="#E0E0E0"/>
<path d="M452.78 400.929C452.78 394.399 448.47 387.859 439.83 382.879C422.56 372.879 394.57 372.879 377.3 382.879C368.67 387.879 364.35 394.399 364.35 400.929V412.929C364.35 419.469 368.67 425.999 377.3 430.979C394.57 440.979 422.56 440.979 439.83 430.979C448.47 425.979 452.78 419.469 452.78 412.929V400.929ZM379.44 386.579C387.15 382.129 397.49 379.679 408.57 379.679C419.65 379.679 429.98 382.129 437.69 386.579C444.69 390.579 448.51 395.699 448.51 400.929C448.51 406.159 444.67 411.249 437.69 415.279C429.98 419.729 419.64 422.179 408.57 422.179C397.5 422.179 387.15 419.729 379.44 415.279C372.44 411.279 368.63 406.159 368.63 400.929C368.63 395.699 372.47 390.609 379.44 386.579Z" fill="#FF6501"/>
<path opacity="0.3" d="M377.3 418.999C394.57 428.999 422.56 428.999 439.83 418.999C457.1 408.999 457.1 392.869 439.83 382.899C422.56 372.929 394.57 372.899 377.3 382.899C360.03 392.899 360 408.999 377.3 418.999ZM368.62 400.949C368.62 395.719 372.46 390.629 379.44 386.599C387.15 382.149 397.49 379.699 408.56 379.699C419.63 379.699 429.98 382.149 437.69 386.599C444.69 390.599 448.5 395.719 448.5 400.949C448.5 406.179 444.66 411.269 437.69 415.299C429.98 419.749 419.63 422.199 408.56 422.199C397.49 422.199 387.15 419.749 379.44 415.299C372.46 411.249 368.62 406.159 368.62 400.929V400.949Z" fill="white"/>
<path d="M368.619 400.93C368.649 403.048 369.246 405.12 370.349 406.93C372.099 403.93 375.189 401.05 379.439 398.6C387.149 394.14 397.489 391.69 408.569 391.69C419.649 391.69 429.979 394.14 437.689 398.6C441.939 401.05 445.029 403.89 446.789 406.93C447.885 405.118 448.478 403.047 448.509 400.93C448.509 395.7 444.669 390.61 437.689 386.58C429.979 382.13 419.629 379.68 408.569 379.68C397.509 379.68 387.149 382.13 379.439 386.58C372.459 390.61 368.619 395.7 368.619 400.93Z" fill="#FF6501"/>
<path opacity="0.1" d="M368.619 400.93C368.649 403.048 369.246 405.12 370.349 406.93C372.099 403.93 375.189 401.05 379.439 398.6C387.149 394.14 397.489 391.69 408.569 391.69C419.649 391.69 429.979 394.14 437.689 398.6C441.939 401.05 445.029 403.89 446.789 406.93C447.885 405.118 448.478 403.047 448.509 400.93C448.509 395.7 444.669 390.61 437.689 386.58C429.979 382.13 419.629 379.68 408.569 379.68C397.509 379.68 387.149 382.13 379.439 386.58C372.459 390.61 368.619 395.7 368.619 400.93Z" fill="black"/>
<path opacity="0.6" d="M379.44 391.998C387.15 387.548 397.49 385.098 408.56 385.098C419.63 385.098 429.98 387.548 437.69 391.998C443.44 395.318 447.06 399.368 448.15 403.618C447.06 407.868 443.44 411.918 437.69 415.248C429.98 419.698 419.63 422.148 408.56 422.148C397.49 422.148 387.15 419.698 379.44 415.248C373.68 411.918 370.07 407.868 368.98 403.618C370.07 399.398 373.68 395.348 379.44 391.998Z" fill="white"/>
<path opacity="0.1" d="M398.151 425.748V437.748C390.834 436.846 383.758 434.555 377.301 430.998C368.671 425.998 364.351 419.478 364.351 412.948V400.948C364.353 399.617 364.532 398.292 364.881 397.008C362.781 404.778 366.881 413.008 377.291 419.008C383.753 422.558 390.833 424.845 398.151 425.748Z" fill="black"/>
<path d="M378.62 426.64C378.564 425.565 378.255 424.518 377.72 423.584C377.185 422.649 376.439 421.854 375.54 421.26C375.228 421.036 374.863 420.896 374.481 420.856C374.098 420.816 373.712 420.876 373.36 421.03L358.48 429.52C358.167 429.745 357.919 430.048 357.759 430.399C357.599 430.75 357.534 431.137 357.57 431.52C357.626 432.594 357.934 433.64 358.469 434.573C359.004 435.506 359.751 436.3 360.65 436.89C360.962 437.12 361.329 437.262 361.714 437.302C362.099 437.343 362.488 437.28 362.84 437.12L377.72 428.63C378.031 428.406 378.278 428.105 378.436 427.755C378.594 427.406 378.657 427.022 378.62 426.64Z" fill="#37474F"/>
<path d="M377.69 428.648C378.008 428.427 378.262 428.125 378.426 427.774C378.589 427.422 378.656 427.034 378.62 426.648C378.6 425.847 378.42 425.058 378.09 424.328L358.9 435.328C359.358 435.977 359.943 436.525 360.62 436.938C360.932 437.167 361.299 437.31 361.684 437.35C362.069 437.39 362.458 437.328 362.81 437.168L377.69 428.678V428.648Z" fill="#263238"/>
<path d="M363.13 436.869C363.06 435.47 362.661 434.108 361.966 432.891C361.271 431.675 360.3 430.64 359.13 429.869C358.73 429.58 358.262 429.4 357.771 429.345C357.28 429.291 356.784 429.365 356.33 429.559L317.66 449.829L325.02 462.829L362.02 439.449C362.415 439.154 362.726 438.761 362.921 438.308C363.115 437.855 363.188 437.359 363.13 436.869Z" fill="#FF6501"/>
<path opacity="0.1" d="M325 462.857L362 439.477C362.416 439.19 362.748 438.796 362.959 438.337C363.17 437.878 363.253 437.37 363.2 436.867C363.145 435.356 362.682 433.887 361.86 432.617L321.25 456.147L325 462.857Z" fill="black"/>
<path d="M321.25 462.469C319.716 461.458 318.442 460.1 317.53 458.505C316.618 456.911 316.094 455.124 316 453.289C316 449.909 318.39 448.559 321.3 450.289C322.834 451.3 324.108 452.658 325.02 454.253C325.932 455.847 326.456 457.634 326.55 459.469C326.54 462.809 324.16 464.169 321.25 462.469Z" fill="#FF6501"/>
<g opacity="0.2">
<path d="M321.25 462.469C319.716 461.458 318.442 460.1 317.53 458.505C316.618 456.911 316.094 455.124 316 453.289C316 449.909 318.39 448.559 321.3 450.289C322.834 451.3 324.108 452.658 325.02 454.253C325.932 455.847 326.456 457.634 326.55 459.469C326.54 462.809 324.16 464.169 321.25 462.469Z" fill="black"/>
</g>
<path d="M55.0996 418.91L56.6996 419.83L58.6296 421L139.15 467.61C138.55 466.26 139.02 463.61 140.39 460.99C141.99 457.99 144.44 455.61 146.22 455.52L66.2196 409.21L62.5096 407C64.8296 408.54 57.4396 420.39 55.0996 418.91Z" fill="#455A64"/>
<path d="M66.0007 409.051L62.4207 407.051C61.4207 406.421 59.4207 408.251 57.7807 410.671C55.5207 413.881 53.6907 418.131 55.0407 418.961L57.6807 420.471L58.6807 421.001C57.3307 420.161 59.1607 415.911 61.4207 412.701C63.0407 410.391 64.9007 408.611 65.9307 409.041L66.0007 409.051Z" fill="#EBEBEB"/>
<path d="M65.1406 408.554C62.7806 407.094 55.4106 418.994 57.7706 420.464L61.3506 422.524C58.9906 421.054 66.3506 409.154 68.7206 410.614L65.1406 408.554Z" fill="#FF6501"/>
<path d="M72.1307 412.573L68.6007 410.573C66.2907 409.113 59.0607 420.573 61.0207 422.363L61.1407 422.453L64.7107 424.453C62.4007 422.943 69.7807 411.093 72.1307 412.573Z" fill="#EBEBEB"/>
<path d="M62.5106 407.002C61.5106 406.352 59.5706 408.192 57.8706 410.622C55.6406 413.772 53.8706 417.932 55.0806 418.852L40.1006 410.292C38.9006 409.472 38.6306 408.012 38.9406 406.402C39.7706 402.052 44.8606 396.522 48.0906 398.722L62.5106 407.002Z" fill="#F28F8F"/>
<path d="M155.741 468.113C154.511 469.783 154.631 470.603 154.631 470.603L139.151 467.603C137.611 465.253 138.621 461.443 140.751 458.723L141.431 459.113L155.741 468.113Z" fill="#F28F8F"/>
<path d="M158.841 471.433L154.631 470.603C154.631 470.603 154.441 469.793 155.741 468.113L159.421 470.433C159.531 470.547 159.593 470.7 159.593 470.858C159.593 471.017 159.531 471.169 159.421 471.283C159.345 471.355 159.252 471.407 159.15 471.433C159.049 471.459 158.942 471.459 158.841 471.433Z" fill="#37474F"/>
<path d="M146.2 455.473L156.82 467.523C156.396 467.591 156.008 467.803 155.72 468.123L141.41 459.123L140.73 458.733C142.2 456.833 144.17 455.493 146.2 455.473Z" fill="#FFA8A7"/>
<path d="M155.74 468.112C155.868 467.936 156.032 467.791 156.223 467.688C156.413 467.584 156.624 467.524 156.84 467.512L159.42 470.432L155.74 468.112Z" fill="#455A64"/>
<path opacity="0.2" d="M140.751 458.683L40.4511 402.773C39.7325 403.882 39.2209 405.112 38.9411 406.403C38.6211 408.023 38.9411 409.463 40.1111 410.293L55.1111 418.913L56.7111 419.833L58.6311 421.003L139.151 467.613C137.261 464.643 139.331 460.343 140.751 458.683Z" fill="black"/>
<path d="M76.3206 180.001C73.7606 186.001 72.0006 193.281 71.2206 202.431C69.7606 219.621 75.5806 275.301 79.0706 300.201C84.1306 341.801 90.3306 341.871 99.3406 348.841C114.851 360.841 159.441 384.301 174.161 390.091C200.851 400.601 222.671 384.401 238.941 376.361C253.842 368.807 268.227 360.275 282.001 350.821C286.051 347.821 288.161 344.821 288.121 341.711C288.121 340.471 288.121 335.361 288.121 334.041C288.121 330.041 284.581 325.721 277.121 320.881C263.331 311.931 213.511 282.881 194.201 272.181C194.195 272.142 194.178 272.106 194.151 272.078C194.124 272.049 194.089 272.029 194.051 272.021C179.191 263.021 170.251 201.711 159.961 169.101C159.751 168.401 159.531 167.731 159.301 167.101C159.071 166.471 158.941 166.101 158.761 165.581C158.111 163.801 157.451 162.181 156.761 160.691" fill="#FF6501"/>
<path d="M288.16 334C288.16 330 284.62 325.68 277.16 320.84C263.38 311.89 213.56 282.84 194.25 272.14C194.245 272.101 194.227 272.065 194.2 272.036C194.173 272.008 194.138 271.988 194.1 271.98C179.24 262.98 170.3 201.67 160.01 169.06C159.4 167.023 158.683 165.021 157.86 163.06C157.8 162.91 157.73 162.77 157.67 162.62C157.49 162.19 157.29 161.75 157.08 161.3C156.99 161.08 156.89 160.85 156.79 160.63C155.12 157.12 152.79 153.27 149.92 150.71C148.913 149.773 147.783 148.979 146.56 148.35C144.89 147.35 141.38 145.45 140.5 144.94C130.41 138.94 117.18 146.15 100.68 155.18C90.4299 160.8 81.6799 167.49 76.3499 179.94C73.7899 185.94 72.0299 193.22 71.2499 202.37C69.7899 219.56 75.6099 275.24 79.0999 300.14C84.1599 341.74 90.3599 341.81 99.3699 348.78C114.88 360.78 159.47 384.24 174.19 390.03C200.88 400.54 222.7 384.34 238.97 376.3C255.24 368.26 275.21 355.76 282.05 350.79C286.11 347.79 288.22 344.79 288.18 341.68C288.13 340.47 288.16 335.36 288.16 334Z" fill="#FF6501"/>
<path opacity="0.25" d="M288.16 334C288.16 330 284.62 325.68 277.16 320.84C263.38 311.89 213.56 282.84 194.25 272.14C194.245 272.101 194.227 272.065 194.2 272.036C194.173 272.008 194.138 271.988 194.1 271.98C179.24 262.98 170.3 201.67 160.01 169.06C159.4 167.023 158.683 165.021 157.86 163.06C157.8 162.91 157.73 162.77 157.67 162.62C157.49 162.19 157.29 161.75 157.08 161.3C156.99 161.08 156.89 160.85 156.79 160.63C155.12 157.12 152.79 153.27 149.92 150.71C148.913 149.773 147.783 148.979 146.56 148.35C144.89 147.35 141.38 145.45 140.5 144.94C130.41 138.94 117.18 146.15 100.68 155.18C90.4299 160.8 81.6799 167.49 76.3499 179.94C73.7899 185.94 72.0299 193.22 71.2499 202.37C69.7899 219.56 75.6099 275.24 79.0999 300.14C84.1599 341.74 90.3599 341.81 99.3699 348.78C114.88 360.78 159.47 384.24 174.19 390.03C200.88 400.54 222.7 384.34 238.97 376.3C255.24 368.26 275.21 355.76 282.05 350.79C286.11 347.79 288.22 344.79 288.18 341.68C288.13 340.47 288.16 335.36 288.16 334Z" fill="white"/>
<path d="M238.92 368.6C253.829 361.052 268.221 352.524 282 343.07C291.25 336.36 290.4 329.48 277.14 320.88C258.72 308.93 183.63 266.32 183.63 266.32C183.63 266.32 88.7002 322.32 92.7802 332.69C96.8602 343.06 155.62 375.04 174.14 382.32C200.84 392.82 222.66 376.63 238.92 368.6Z" fill="#FF6501"/>
<path opacity="0.6" d="M238.92 368.6C253.829 361.052 268.221 352.524 282 343.07C291.25 336.36 290.4 329.48 277.14 320.88C258.72 308.93 183.63 266.32 183.63 266.32C183.63 266.32 88.7002 322.32 92.7802 332.69C96.8602 343.06 155.62 375.04 174.14 382.32C200.84 392.82 222.66 376.63 238.92 368.6Z" fill="white"/>
<path d="M146.53 148.4C136.53 143.15 123.53 150.28 107.53 159.08C97.2403 164.72 88.4703 171.41 83.1403 183.91L76.3203 180C81.6403 167.55 90.4003 160.86 100.65 155.24C117.15 146.24 130.38 138.96 140.47 145C141.35 145.5 144.86 147.45 146.53 148.4Z" fill="#FF6501"/>
<path opacity="0.5" d="M146.53 148.4C136.53 143.15 123.53 150.28 107.53 159.08C97.2403 164.72 88.4703 171.41 83.1403 183.91L76.3203 180C81.6403 167.55 90.4003 160.86 100.65 155.24C117.15 146.24 130.38 138.96 140.47 145C141.35 145.5 144.86 147.45 146.53 148.4Z" fill="white"/>
<path d="M160 169.102C159.79 168.402 156.35 156.442 149.9 150.762C146.907 148.073 143.023 146.591 139 146.602C130.27 146.602 119.8 152.372 107.51 159.082C106.49 159.648 105.49 160.228 104.51 160.822C104.12 161.042 103.74 161.272 103.37 161.502C103 161.732 102.46 162.062 102.01 162.352C101.56 162.642 101.35 162.772 101.01 163.002C98.8464 164.427 96.7817 165.997 94.83 167.702C94.51 167.972 94.21 168.252 93.9 168.552C92.6625 169.698 91.4907 170.913 90.39 172.192L89.8 172.882C89.57 173.172 89.32 173.462 89.11 173.752C88.9 174.042 88.66 174.342 88.43 174.652C88.2 174.962 87.99 175.242 87.78 175.562C86.8909 176.827 86.0698 178.139 85.32 179.492C85.22 179.662 85.12 179.832 85.03 180.012C84.83 180.372 84.64 180.742 84.45 181.122C84.18 181.672 83.92 182.222 83.66 182.772C80.86 188.942 78.92 196.572 78.1 206.282C75.71 234.522 85.39 327.872 95.1 335.922C95.1 335.922 93.61 326.792 113.1 314.492C126.38 306.142 135.7 299.122 149.87 292.172C184.4 275.172 194.09 272.022 194.09 272.022C179.22 263.002 170.28 201.712 160 169.102Z" fill="#FF6501"/>
<path opacity="0.4" d="M160 169.102C159.79 168.402 156.35 156.442 149.9 150.762C146.907 148.073 143.023 146.591 139 146.602C130.27 146.602 119.8 152.372 107.51 159.082C106.49 159.648 105.49 160.228 104.51 160.822C104.12 161.042 103.74 161.272 103.37 161.502C103 161.732 102.46 162.062 102.01 162.352C101.56 162.642 101.35 162.772 101.01 163.002C98.8464 164.427 96.7817 165.997 94.83 167.702C94.51 167.972 94.21 168.252 93.9 168.552C92.6625 169.698 91.4907 170.913 90.39 172.192L89.8 172.882C89.57 173.172 89.32 173.462 89.11 173.752C88.9 174.042 88.66 174.342 88.43 174.652C88.2 174.962 87.99 175.242 87.78 175.562C86.8909 176.827 86.0698 178.139 85.32 179.492C85.22 179.662 85.12 179.832 85.03 180.012C84.83 180.372 84.64 180.742 84.45 181.122C84.18 181.672 83.92 182.222 83.66 182.772C80.86 188.942 78.92 196.572 78.1 206.282C75.71 234.522 85.39 327.872 95.1 335.922C95.1 335.922 93.61 326.792 113.1 314.492C126.38 306.142 135.7 299.122 149.87 292.172C184.4 275.172 194.09 272.022 194.09 272.022C179.22 263.002 170.28 201.712 160 169.102Z" fill="white"/>
<path d="M114.831 277.789C108.751 296.509 109.001 314.999 112.001 325.129C115.001 335.259 118.221 349.229 145.421 362.899C176.421 378.489 212.751 393.499 212.751 393.499L320.371 331.279L219.621 281.559L114.831 277.789Z" fill="#FF6501"/>
<path opacity="0.15" d="M114.831 277.789C108.751 296.509 109.001 314.999 112.001 325.129C115.001 335.259 118.221 349.229 145.421 362.899C176.421 378.489 212.751 393.499 212.751 393.499L320.371 331.279L219.621 281.559L114.831 277.789Z" fill="black"/>
<path opacity="0.35" d="M146.001 342.68C145.111 341.89 144.251 341.1 143.421 340.3C150.661 337.6 154.131 327.93 152.181 317.6C151.071 311.67 149.801 304.95 149.981 298.45H148.661C148.481 305.09 149.761 311.89 150.891 317.88C152.891 328.31 149.251 337.25 142.351 339.31C126.431 323.65 127.031 306.87 131.801 284.2L130.511 283.93C125.281 308.78 125.851 326.58 145.121 343.71C157.791 354.97 206.591 376.42 225.971 385.89L227.361 385.12C208.051 375.66 158.711 354 146.001 342.68Z" fill="black"/>
<path opacity="0.35" d="M222.242 299.539C219.522 312.719 211.852 319.629 211.852 319.629C228.422 329.379 265.942 350.389 275.542 357.199L286.252 350.999L221.372 315.619C224.922 306.129 222.242 299.539 222.242 299.539Z" fill="black"/>
<path d="M127.87 69.9985C127.4 54.4685 157.53 37.2385 186.06 55.9985C214.59 74.7585 204.43 92.9985 202.51 98.5385L203.51 178.349L110.9 175.809C110.9 175.809 112.9 108.809 112.56 97.8085C112.22 86.8085 115.92 73.9985 127.87 69.9985Z" fill="#263238"/>
<path d="M222.241 251.878L240.541 243.538L248.151 238.738C244.391 223.228 234.151 198.958 226.721 182.808C220.721 169.748 215.431 165.698 195.361 161.238L197.591 194.998L222.241 251.878Z" fill="#455A64"/>
<path d="M109 304.887C109.44 286.267 115.53 267.347 115.4 263.277C114.81 245.617 109.64 222.507 107.87 212.277C104.02 190.017 106.62 172.377 111.72 167.857C111.72 167.857 128.59 161.767 135.02 160.077C138.88 159.077 135.86 160.077 141.76 159.077C151.61 157.474 161.608 156.971 171.57 157.577C174 157.767 185.52 159.487 185.52 159.487C189.02 160.217 195.39 161.227 195.4 161.237C195.41 161.247 203.48 167.537 211.21 180.637C217.11 190.637 217.33 209.637 217.63 230.537C218.03 258.187 219.5 265.377 224.37 283.887C211.21 312.457 138.87 321.427 109 304.887Z" fill="#37474F"/>
<path d="M111.681 167.859C103.401 170.329 96.5409 174.099 94.6809 190.259C92.8209 206.419 107.221 243.849 109.681 250.129C112.141 256.409 118.221 265.619 123.971 267.409C129.721 269.199 134.231 223.529 134.231 223.529C134.231 223.529 129.111 199.809 127.011 192.649C124.911 185.489 118.361 171.929 111.681 167.859Z" fill="#455A64"/>
<path d="M190.63 76.2499C179.75 68.1799 160.52 68.7999 144.52 81.1599C149.79 90.8199 141.76 97.8399 141.65 103.77C144.3 112.05 139.97 115.98 137.3 113.05C133.18 104.67 124.4 105.05 120.84 110.58C117.62 115.58 118.4 122.93 125.02 129.72C131.47 136.35 137.85 132.14 137.91 130.72C137.91 130.72 139.77 149 140 152.66C140.23 156.32 139.82 157.88 135 159.79C154.8 165.49 169.86 165.9 176.28 156.62C173.23 155.85 173.34 153.55 172.98 150.51L172.2 144.43C179.52 144.51 183.26 143.71 187.28 141.22C193.28 137.5 197.79 127.74 197.07 108.22C196.51 93.7899 192.78 81.2999 190.63 76.2499Z" fill="#FFBDA7"/>
<path d="M172.17 144.469C159.01 144.089 146.17 140.709 142.84 134.969C142.84 134.969 143.26 141.479 148.78 144.209C156.53 148.029 172.78 149.069 172.78 149.069L172.17 144.469Z" fill="#B16668"/>
<path d="M180.71 82.5703L188.38 85.6503C188.198 86.1537 187.915 86.6153 187.551 87.0076C187.186 87.3999 186.746 87.715 186.258 87.9341C185.769 88.1533 185.241 88.2721 184.706 88.2835C184.17 88.2948 183.638 88.1985 183.14 88.0003C182.122 87.573 181.303 86.7741 180.852 85.7656C180.401 84.7572 180.35 83.6148 180.71 82.5703Z" fill="#263238"/>
<path d="M179.731 79.2818C179.651 79.1901 179.543 79.1276 179.423 79.1041C179.304 79.0806 179.18 79.0974 179.071 79.1518C178.445 79.631 177.947 80.2563 177.619 80.9728C177.292 81.6893 177.144 82.4752 177.191 83.2618C177.218 83.5466 177.285 83.8261 177.391 84.0918C177.494 84.4188 177.693 84.7077 177.961 84.9218C177.994 84.9513 178.037 84.9676 178.081 84.9676C178.125 84.9676 178.168 84.9513 178.201 84.9218C178.451 84.7118 178.351 84.2618 178.351 83.9218C178.351 83.5818 178.351 83.4618 178.351 83.2218C178.355 82.7949 178.418 82.3707 178.541 81.9618C178.789 81.164 179.245 80.4463 179.861 79.8818C180.001 79.7318 179.871 79.4218 179.731 79.2818ZM167.731 84.4818C167.58 84.2426 167.391 84.0298 167.171 83.8518C166.927 83.6113 166.617 83.4479 166.281 83.3818C166.237 83.373 166.192 83.379 166.152 83.399C166.112 83.4189 166.08 83.4516 166.061 83.4918C165.941 83.8018 166.241 84.1518 166.391 84.4218C166.541 84.6918 166.631 84.8218 166.741 85.0218C166.937 85.4008 167.082 85.8044 167.171 86.2218C167.325 87.0482 167.256 87.901 166.971 88.6918C166.901 88.9218 167.161 89.1418 167.361 89.1918C167.474 89.233 167.597 89.2368 167.712 89.2026C167.828 89.1684 167.929 89.098 168.001 89.0018C168.467 88.0338 168.576 86.9327 168.311 85.8918C168.192 85.3879 167.982 84.9101 167.691 84.4818H167.731Z" fill="#F0997A"/>
<path d="M156.15 90.6679L163.88 87.4679C163.699 86.9527 163.414 86.4799 163.044 86.0787C162.673 85.6776 162.224 85.3566 161.725 85.1355C161.226 84.9144 160.686 84.7979 160.14 84.7931C159.594 84.7884 159.053 84.8955 158.55 85.1079C157.514 85.5512 156.688 86.3749 156.241 87.4094C155.795 88.4438 155.762 89.6101 156.15 90.6679Z" fill="#263238"/>
<path d="M157.131 101.899C157.511 103.739 159.751 104.849 162.131 104.359C164.511 103.869 166.131 101.989 165.761 100.149C165.391 98.3093 164.181 101.399 161.761 101.889C159.341 102.379 156.741 100.059 157.131 101.899Z" fill="#263238"/>
<path d="M182.191 99.4208C181.981 101.291 183.761 103.041 186.191 103.331C188.621 103.621 190.741 102.331 190.951 100.471C191.161 98.6108 189.071 101.171 186.651 100.881C184.231 100.591 182.401 97.5508 182.191 99.4208Z" fill="#263238"/>
<path d="M177.92 123.831C177.746 123.679 177.554 123.549 177.35 123.441C177.083 123.354 176.808 123.29 176.53 123.251L175.16 122.991C174.16 122.821 173.16 122.661 172.21 122.531C171.26 122.401 170.15 122.251 169.11 122.151C168.081 121.991 167.039 121.941 166 122.001C165.57 122.001 165.64 122.621 166 122.771C167.027 123.103 168.092 123.302 169.17 123.361C170.17 123.501 171.17 123.631 172.17 123.781L175.07 124.191C176.048 124.455 177.073 124.5 178.07 124.321C178.25 124.251 178 123.901 177.92 123.831Z" fill="#B16668"/>
<path d="M145.91 94L126 106.82C127.098 106.537 128.242 106.474 129.364 106.635C130.487 106.797 131.566 107.179 132.54 107.76L146.85 98.69L145.91 94Z" fill="#455A64"/>
<path d="M199.789 89.0516C194.579 88.7916 187.559 89.0516 183.369 90.7216C178.679 92.5916 177.069 94.3916 174.439 94.6216C171.609 94.8516 169.739 93.3416 164.589 92.2816C160.479 91.4516 153.279 92.3716 148.149 93.3416C146.379 93.5016 144.789 94.1616 144.889 96.5216C145.219 98.7216 146.679 98.9716 147.159 100.742C148.369 106.892 150.459 114.522 158.579 114.322C175.349 114.152 168.979 98.2516 175.169 98.6416C177.409 98.9816 177.349 103.282 178.899 106.232C179.483 107.41 180.257 108.484 181.189 109.412C186.999 114.792 197.139 110.872 198.359 105.042C199.569 102.112 199.039 97.5616 200.359 95.0416C201.559 93.7816 202.389 89.5116 199.789 89.0516ZM168.889 104.002C168.625 105.742 167.915 107.385 166.829 108.772C165.995 109.744 164.966 110.53 163.808 111.077C162.65 111.625 161.39 111.923 160.109 111.952C156.499 112.182 152.779 110.752 151.619 107.312C151.479 106.992 151.349 106.682 151.229 106.382C150.349 103.832 149.039 98.3816 150.319 96.7016C152.669 93.8716 164.669 93.2516 168.439 97.0516C169.479 98.3316 169.329 101.352 168.889 104.002ZM197.319 100.662C197.029 102.482 196.389 106.432 193.059 108.412C188.649 111.022 182.139 109.102 180.899 104.732C177.569 95.6116 181.049 93.2116 190.249 91.6616C197.869 91.0916 198.419 93.0016 197.319 100.612V100.662Z" fill="#455A64"/>
<path d="M185.58 112.181L175.09 118.181L172.09 101.571C172.26 100.749 172.651 99.9884 173.22 99.3711L185.58 112.181Z" fill="#F0997A"/>
<path d="M139.821 150.46C136.821 151.15 137.021 152.02 136.821 155.55C136.621 159.08 132.951 159.26 132.671 160.73C132.391 162.2 143.981 173.56 164.121 169.78C184.121 166.04 182.031 157.62 182.031 157.62C181.311 156.44 179.761 156.35 177.311 155.51C174.861 154.67 174.811 154.06 174.771 152.24C174.731 150.42 174.291 149.98 172.931 150.55V151.98C172.931 151.98 172.931 155.54 159.981 156.3C145.831 157.13 139.981 152.7 139.981 152.7L139.821 150.46Z" fill="#455A64"/>
<path d="M154.999 139.917C156.301 142.111 156.71 144.721 156.139 147.207C155.769 148.687 154.489 149.517 153.819 150.847C152.759 152.937 152.259 155.277 150.819 157.197C150.015 158.401 148.787 159.258 147.379 159.597C146.929 158.496 146.807 157.287 147.029 156.117C147.69 152.002 147.968 147.834 147.859 143.667C147.744 141.785 147.409 139.922 146.859 138.117C146.599 137.237 145.859 134.837 147.039 134.267C147.342 134.149 147.673 134.124 147.989 134.197C150.989 134.587 152.759 136.247 154.339 138.757C154.599 139.137 154.829 139.527 154.999 139.917Z" fill="#FFBDA7"/>
<path d="M150.879 157.197C150.078 158.453 148.825 159.352 147.379 159.707C146.479 157.987 146.989 155.997 147.149 154.177C147.739 148.787 148.289 143.237 146.569 137.997C145.139 133.237 147.709 133.167 151.259 135.077C154.859 137.737 157.369 142.747 156.179 147.207C157.049 143.577 155.269 139.967 153.019 137.207C151.89 135.815 150.308 134.862 148.549 134.517C147.739 134.357 146.829 134.197 146.709 135.257C146.709 137.917 148.149 140.517 148.149 143.257C148.316 146.936 148.105 150.622 147.519 154.257C147.309 156.047 146.779 157.907 147.519 159.587L147.419 159.537C148.821 159.228 150.056 158.404 150.879 157.227V157.197Z" fill="#B16668"/>
<path d="M143.25 176.996C145.57 165.496 144.96 160.156 148.71 154.566C150.89 151.306 157.71 143.986 159.98 141.926C162.25 139.866 166.66 137.076 170.2 134.276C173.74 131.476 174.77 130.696 178.98 130.856C184.76 131.086 189.32 131.126 191.37 132.246C193.42 133.366 193.05 134.796 190.75 136.336C188.45 137.876 184.34 137.496 183.02 137.616C181.7 137.736 178.73 138.346 178.73 138.346L172 144.826C172 144.826 180.43 148.286 181.95 149.576C183.47 150.866 184.01 155.576 182.74 157.926C182.74 157.926 185.5 160.776 183.58 163.676C183.58 163.676 185.01 166.676 183.22 168.466C181.264 170.274 179.107 171.851 176.79 173.166C175.52 173.866 171.25 173.216 171.25 173.216C170.622 175.92 169.748 178.561 168.64 181.106C166.25 185.916 163.71 186.216 162.64 190.446L143.25 176.996Z" fill="#FFBDA7"/>
<path d="M182.599 158.107C181.535 156.737 180.298 155.511 178.919 154.457C177.629 153.457 174.859 151.777 174.859 151.777C176.908 152.393 178.856 153.306 180.639 154.487C181.549 155.078 182.406 155.748 183.199 156.487C183.106 156.977 182.937 157.449 182.699 157.887L182.599 158.107Z" fill="#F0997A"/>
<path d="M182.261 161.119C182.898 161.554 183.503 162.035 184.071 162.559C183.914 163.03 183.699 163.48 183.431 163.899C182.631 162.029 178.641 159.309 178.641 159.309C179.912 159.773 181.127 160.38 182.261 161.119Z" fill="#F0997A"/>
<path d="M171.209 173.216C172.379 171.216 173.985 169.507 175.909 168.216C177.489 167.026 179.909 167.756 180.279 168.706C180.649 169.656 177.829 168.956 176.929 169.146C176.029 169.336 173.149 171.216 171.209 173.216Z" fill="#F0997A"/>
<path d="M169.609 144.096C169.609 144.096 171.689 142.166 175.319 139.166C178.949 136.166 178.659 136.656 181.569 136.686C184.279 136.686 189.949 136.896 191.739 135.516C191.423 135.794 191.089 136.051 190.739 136.286C188.499 137.776 184.329 137.446 183.009 137.566C181.689 137.686 178.719 138.296 178.719 138.296L171.719 145.016L169.609 144.096Z" fill="#F0997A"/>
<path d="M143.25 176.997C144.04 173.207 144.61 169.367 145.2 165.537C145.79 161.707 146.6 157.847 148.81 154.647C151.14 151.558 153.658 148.615 156.35 145.837C157.69 144.437 159.02 143.027 160.45 141.737C161.88 140.447 163.5 139.377 165.08 138.257C166.66 137.137 168.25 136.017 169.79 134.837C171.228 133.562 172.82 132.474 174.53 131.597C176.29 130.877 178.26 131.057 180.19 131.127C182.12 131.197 184.06 131.257 185.99 131.407C187.92 131.557 189.91 131.677 191.5 132.617C191.886 132.822 192.198 133.144 192.39 133.537C192.455 133.73 192.471 133.936 192.436 134.137C192.402 134.338 192.317 134.527 192.19 134.687C191.624 135.424 190.895 136.019 190.06 136.427C188.279 137.097 186.381 137.403 184.48 137.327C183.99 137.327 183.48 137.327 183.01 137.327L181.56 137.577L178.68 138.077H178.61H178.56L171.81 144.617L171.58 144.847L171.88 144.977C174.88 146.257 177.99 147.517 180.88 149.087C182.45 149.727 182.88 151.467 183.13 153.087C183.4 154.69 183.198 156.336 182.55 157.827L182.49 157.937L182.58 158.037C183.267 158.787 183.746 159.704 183.97 160.697C184.168 161.694 183.963 162.73 183.4 163.577L183.35 163.657V163.737C183.712 164.395 183.902 165.135 183.902 165.887C183.902 166.638 183.712 167.378 183.35 168.037C182.293 169.165 181.112 170.172 179.83 171.037C179.2 171.487 178.55 171.927 177.9 172.337C177.315 172.812 176.632 173.154 175.9 173.337C174.358 173.453 172.807 173.389 171.28 173.147H171.17V173.247C170.522 176.433 169.431 179.513 167.93 182.397C167.064 183.779 166.059 185.069 164.93 186.247C163.817 187.449 163.029 188.915 162.64 190.507C163.048 188.926 163.849 187.474 164.97 186.287C166.099 185.116 167.104 183.833 167.97 182.457C169.514 179.575 170.648 176.492 171.34 173.297L171.21 173.387C172.754 173.66 174.327 173.734 175.89 173.607C176.675 173.447 177.412 173.104 178.04 172.607C178.71 172.197 179.35 171.767 179.99 171.317C181.3 170.456 182.507 169.45 183.59 168.317C184 167.618 184.225 166.826 184.245 166.016C184.264 165.206 184.076 164.404 183.7 163.687V163.847C184.31 162.929 184.533 161.808 184.32 160.727C184.087 159.665 183.58 158.682 182.85 157.877V158.087C183.546 156.518 183.768 154.78 183.49 153.087C183.391 152.248 183.176 151.426 182.85 150.647C182.491 149.847 181.856 149.204 181.06 148.837C178.134 147.292 175.13 145.9 172.06 144.667L172.13 145.027L178.9 138.507L178.79 138.567L181.63 138.087L183.06 137.847C183.52 137.847 184.01 137.847 184.49 137.847C186.468 137.934 188.443 137.611 190.29 136.897C191.205 136.45 192 135.792 192.61 134.977C192.781 134.752 192.893 134.487 192.935 134.208C192.977 133.928 192.948 133.642 192.85 133.377C192.617 132.892 192.24 132.49 191.77 132.227C189.97 131.227 187.95 131.157 186.03 130.967C184.11 130.777 182.15 130.777 180.21 130.707C178.27 130.637 176.27 130.467 174.39 131.237C172.65 132.138 171.028 133.249 169.56 134.547C168.04 135.737 166.46 136.857 164.88 137.987C163.3 139.117 161.71 140.217 160.24 141.507C158.77 142.797 157.47 144.237 156.14 145.647C153.44 148.44 150.922 151.403 148.6 154.517C146.37 157.787 145.6 161.727 145.07 165.517C144.54 169.307 144 173.147 143.25 176.997Z" fill="#B16668"/>
<path d="M143.25 176.996C141.25 187.176 116.01 225.776 113.79 235.266C111.57 244.756 117.9 262.836 122.61 266.646C127.32 270.456 138.42 266.186 144.13 255.646C149.84 245.106 159.2 204.996 162.61 190.446L143.25 176.996Z" fill="#FFBDA7"/>
<path d="M110.65 255.997C111.57 257.547 113.55 258.997 113.82 260.617C114.48 264.737 123.22 266.827 126.53 269.737C135.88 275.637 159.12 275.257 176.75 272.187C205.46 267.187 237.75 255.947 245.18 247.607C249.66 242.607 248.65 238.847 247.11 236.437C244.29 231.997 240.94 230.357 239.04 229.167C231.04 224.167 220.69 225.167 217.52 226.097C205.124 233.652 191.997 239.938 178.34 244.857C173.568 246.356 168.618 247.213 163.62 247.407C160.52 247.317 158.68 247.307 156.87 245.467C153.971 242.534 150.588 240.122 146.87 238.337C143.87 236.857 142.19 235.547 138.47 232.587C137.7 231.957 136.39 232.437 135.68 233.147C135.345 233.532 135.108 233.992 134.989 234.489C134.871 234.985 134.875 235.502 135 235.997C135.74 241.057 139.89 244.517 142.69 248.527C143.582 249.567 144.044 250.908 143.98 252.277C143.821 252.941 143.495 253.553 143.033 254.056C142.571 254.558 141.988 254.934 141.34 255.147C137.64 256.577 118.68 256.907 109.78 250.427C109.78 250.467 109.39 253.867 110.65 255.997Z" fill="#FFBDA7"/>
<path d="M156.869 245.506C154.448 242.932 151.654 240.737 148.579 238.996C147.029 238.126 145.459 237.396 144.019 236.406C142.579 235.416 141.219 234.336 139.849 233.236L138.849 232.406C138.644 232.22 138.401 232.081 138.137 231.998C137.872 231.915 137.594 231.891 137.319 231.926C136.809 231.982 136.32 232.16 135.892 232.443C135.464 232.727 135.11 233.108 134.859 233.556C134.46 234.455 134.376 235.462 134.619 236.416C134.771 237.315 135.026 238.194 135.379 239.036C136.809 242.426 139.379 245.036 141.459 247.746C142.459 249.106 143.639 250.566 143.529 252.076C143.419 253.586 141.879 254.716 140.289 254.996C136.856 255.559 133.372 255.747 129.899 255.556C126.404 255.436 122.927 255.004 119.509 254.266C116.06 253.617 112.763 252.328 109.789 250.466C112.696 252.483 115.956 253.939 119.399 254.756C122.831 255.6 126.332 256.132 129.859 256.346C133.407 256.628 136.976 256.481 140.489 255.906C141.466 255.786 142.379 255.359 143.098 254.687C143.817 254.015 144.304 253.132 144.489 252.166C144.609 250.036 143.259 248.526 142.269 247.166C140.099 244.366 137.569 241.866 136.269 238.716C135.931 237.94 135.686 237.128 135.539 236.296C135.33 235.535 135.379 234.726 135.679 233.996C135.866 233.678 136.123 233.408 136.429 233.203C136.736 232.999 137.084 232.867 137.449 232.816C137.611 232.782 137.779 232.789 137.938 232.836C138.097 232.883 138.242 232.969 138.359 233.086L139.409 233.886C140.809 234.956 142.209 236.036 143.709 236.986C145.209 237.936 146.839 238.676 148.389 239.476C151.499 241.054 154.357 243.086 156.869 245.506Z" fill="#F0997A"/>
<path d="M74.0605 369.871V391.351L210.371 470.131V448.651L74.0605 369.871Z" fill="#37474F"/>
<path d="M210.369 448.65L448.179 311.34V332.82L210.369 470.13V448.65Z" fill="#455A64"/>
<path d="M210.37 440.52L68.5898 358.6L310.95 218.66L452.72 300.59L210.37 440.52Z" fill="#FF6501"/>
<path opacity="0.8" d="M210.37 440.52L68.5898 358.6L310.95 218.66L452.72 300.59L210.37 440.52Z" fill="white"/>
<path d="M68.5898 358.602V369.992L210.37 451.912V440.522L68.5898 358.602Z" fill="#FF6501"/>
<path opacity="0.5" d="M68.5898 358.602V369.992L210.37 451.912V440.522L68.5898 358.602Z" fill="white"/>
<path d="M210.369 451.91L452.729 311.98L452.719 300.59L210.369 440.52V451.91Z" fill="#FF6501"/>
<path opacity="0.65" d="M210.369 440.52L452.719 300.59L452.729 311.98L210.369 451.91V440.52Z" fill="white"/>
<path d="M62.0008 350.118C58.6408 347.518 55.2108 345.018 51.8308 342.438C50.3108 341.265 48.7841 340.105 47.2508 338.958C46.4108 338.338 45.5708 337.708 44.7108 337.108C44.3099 336.754 43.8242 336.509 43.3008 336.398C43.0608 336.398 42.4908 336.468 42.3608 336.718L42.2408 336.938C42.1518 337.093 42.1101 337.27 42.1208 337.447C42.1314 337.625 42.194 337.796 42.3008 337.938C43.7474 339.391 45.3055 340.729 46.9608 341.938C48.3808 343.078 49.8208 344.178 51.2508 345.288C54.2008 347.558 57.1208 349.878 60.1308 352.068C60.3154 352.228 60.5394 352.336 60.7796 352.38C61.0198 352.425 61.2674 352.404 61.4969 352.32C61.7264 352.237 61.9294 352.093 62.0848 351.905C62.2402 351.716 62.3424 351.49 62.3808 351.248C62.4224 351.043 62.4092 350.831 62.3425 350.632C62.2758 350.434 62.1579 350.257 62.0008 350.118Z" fill="#E0E0E0"/>
<path d="M59.3802 355.67C55.2802 354.56 51.1502 353.549 47.0502 352.459C45.2002 351.969 43.3402 351.459 41.4802 350.999C40.4802 350.739 39.4802 350.49 38.4302 350.26C37.9269 350.08 37.3849 350.039 36.8602 350.14C36.6302 350.22 36.1402 350.509 36.1102 350.799V351.049C36.0888 351.226 36.1189 351.405 36.197 351.565C36.2751 351.724 36.3978 351.858 36.5502 351.95C38.4414 352.73 40.3906 353.362 42.3802 353.839C44.1202 354.349 45.8702 354.839 47.6202 355.299C51.2202 356.299 54.8002 357.3 58.4202 358.17C58.6518 358.246 58.8996 358.258 59.1378 358.207C59.3761 358.155 59.5962 358.041 59.7756 357.876C59.9549 357.711 60.087 357.501 60.1581 357.268C60.2293 357.035 60.2369 356.787 60.1802 356.549C60.1387 356.344 60.0424 356.154 59.9016 355.999C59.7608 355.844 59.5806 355.73 59.3802 355.67Z" fill="#E0E0E0"/>
<path d="M57.2399 361.129C53.2399 362.439 49.1899 363.849 45.1599 365.129C43.3399 365.729 41.5099 366.329 39.6999 366.949C38.6999 367.289 37.6999 367.629 36.6999 368.009C36.1815 368.132 35.7052 368.391 35.3199 368.759C35.1699 368.959 34.9199 369.469 35.0499 369.759L35.1699 369.989C35.2478 370.149 35.3708 370.282 35.5236 370.373C35.6764 370.463 35.8524 370.507 36.0299 370.499C38.0374 370.115 40.013 369.58 41.9399 368.899C43.6799 368.369 45.3999 367.809 47.1299 367.249C50.6699 366.099 54.2299 364.999 57.7399 363.749C57.9759 363.686 58.1908 363.562 58.3625 363.389C58.5343 363.215 58.6565 362.999 58.7167 362.762C58.7768 362.526 58.7727 362.277 58.7047 362.043C58.6367 361.809 58.5073 361.597 58.3299 361.429C58.1879 361.292 58.0136 361.192 57.8232 361.14C57.6328 361.088 57.4322 361.084 57.2399 361.129Z" fill="#E0E0E0"/>
<path d="M461.309 307.002C465.309 307.792 469.309 308.472 473.309 309.232C475.119 309.572 476.919 309.922 478.719 310.232C479.719 310.412 480.719 310.582 481.719 310.732C482.213 310.867 482.734 310.867 483.229 310.732C483.439 310.642 483.889 310.332 483.899 310.052V309.822C483.91 309.652 483.871 309.482 483.785 309.334C483.7 309.186 483.572 309.067 483.419 308.992C481.561 308.377 479.659 307.905 477.729 307.582C476.039 307.212 474.329 306.882 472.629 306.582C469.139 305.892 465.629 305.162 462.139 304.582C461.912 304.526 461.674 304.53 461.449 304.596C461.225 304.662 461.022 304.786 460.861 304.956C460.7 305.126 460.588 305.335 460.535 305.563C460.481 305.791 460.49 306.029 460.559 306.252C460.613 306.428 460.71 306.589 460.841 306.72C460.972 306.85 461.132 306.947 461.309 307.002Z" fill="#E0E0E0"/>
<path d="M461.189 301.1C465.189 300.3 469.129 299.39 473.109 298.57C474.909 298.2 476.699 297.83 478.489 297.44C479.489 297.23 480.489 297.01 481.419 296.76C481.926 296.702 482.407 296.504 482.809 296.19C482.979 296.03 483.279 295.57 483.179 295.31L483.089 295.09C483.032 294.929 482.93 294.788 482.796 294.683C482.661 294.579 482.499 294.515 482.329 294.5C480.379 294.644 478.443 294.938 476.539 295.38C474.829 295.69 473.129 296.04 471.429 296.38C467.939 297.08 464.429 297.74 460.969 298.54C460.737 298.573 460.519 298.667 460.336 298.812C460.153 298.958 460.012 299.15 459.929 299.368C459.845 299.587 459.821 299.824 459.86 300.054C459.899 300.285 459.998 300.501 460.149 300.68C460.271 300.834 460.431 300.954 460.613 301.028C460.796 301.102 460.994 301.127 461.189 301.1Z" fill="#E0E0E0"/>
<path d="M460.679 295.52C463.579 292.67 466.399 289.75 469.289 286.89C470.589 285.59 471.889 284.3 473.169 283C473.879 282.28 474.579 281.57 475.259 280.83C475.646 280.499 475.939 280.071 476.109 279.59C476.159 279.36 476.159 278.82 475.929 278.65L475.739 278.51C475.601 278.396 475.43 278.327 475.25 278.315C475.071 278.302 474.892 278.346 474.739 278.44C473.185 279.627 471.724 280.931 470.369 282.34C469.109 283.53 467.879 284.75 466.639 285.97C464.099 288.46 461.529 290.97 459.059 293.5C458.883 293.655 458.752 293.854 458.679 294.076C458.606 294.298 458.594 294.536 458.644 294.765C458.694 294.994 458.804 295.205 458.963 295.376C459.122 295.548 459.325 295.673 459.549 295.74C459.74 295.809 459.946 295.825 460.145 295.787C460.344 295.748 460.528 295.656 460.679 295.52Z" fill="#E0E0E0"/>
<path d="M280.131 292.41L357.721 337.21L413.141 305.21L335.551 260.41L280.131 292.41Z" fill="#FAFAFA"/>
<path opacity="0.3" d="M415.51 299.394L409.29 302.984L335.55 260.414L286.36 288.814L282.5 286.594L337.93 254.594L415.51 299.394Z" fill="#FF6501"/>
<path d="M409.291 302.98L360.091 331.39L286.361 288.81L335.551 260.41L409.291 302.98Z" fill="#E0E0E0"/>
<path d="M283.621 283.172L361.211 327.972L416.631 295.972L339.041 251.172L283.621 283.172Z" fill="#FAFAFA"/>
<path opacity="0.1" d="M195.199 409.849L325.579 334.569L240.829 285.629L110.449 360.919L195.199 409.849Z" fill="black"/>
<path d="M195.089 403.808L317.899 332.898L239.439 287.598L116.629 358.508L195.089 403.808Z" fill="#FF6501"/>
<path opacity="0.15" d="M195.089 403.808L317.899 332.898L239.439 287.598L116.629 358.508L195.089 403.808Z" fill="black"/>
<path d="M254.869 367.41V365.22C254.869 362.52 259.689 354.8 265.709 351.32L314.499 323.16V333L254.869 367.41Z" fill="#F5F5F5"/>
<path d="M314.479 323.158L265.689 351.318C259.689 354.788 254.819 362.518 254.849 365.218V367.408L179.799 324.078V321.878C179.799 319.178 184.609 311.458 190.639 307.978L239.399 279.828L314.479 323.158Z" fill="#FAFAFA"/>
<path d="M314.479 323.159L265.689 351.319C259.689 354.789 254.819 362.519 254.849 365.219V367.409L179.799 324.079V321.879C179.799 319.179 184.609 311.459 190.639 307.979L239.429 279.809L314.479 323.159Z" fill="#FAFAFA"/>
<path d="M254.85 365.378L250.18 362.668L244 359.108C247.45 358.708 249.89 359.228 251.58 360.198C252.516 360.718 253.306 361.465 253.877 362.37C254.449 363.275 254.783 364.31 254.85 365.378Z" fill="#F0F0F0"/>
<path d="M254.85 365.378L250.18 362.668L244 359.108C247.45 358.708 249.89 359.228 251.58 360.198C252.516 360.718 253.306 361.465 253.877 362.37C254.449 363.275 254.783 364.31 254.85 365.378Z" fill="#E0E0E0"/>
<path d="M195.109 405.848L195.089 403.808L116.629 358.508V360.538L195.109 405.848Z" fill="#FF6501"/>
<path opacity="0.3" d="M195.109 405.848L195.089 403.808L116.629 358.508V360.538L195.109 405.848Z" fill="black"/>
<path d="M195.11 405.848L317.92 334.948L317.9 332.898L195.09 403.808L195.11 405.848Z" fill="#FF6501"/>
<path d="M254.85 365.377C254.85 362.667 249.85 360.377 243.85 363.877L195.08 391.817V401.927L254.87 367.407C254.87 367.407 254.87 368.077 254.85 365.377Z" fill="#F5F5F5"/>
<path d="M195.079 401.928V391.818L120.029 348.488V358.598L195.079 401.928Z" fill="#EBEBEB"/>
<path d="M243.86 363.877L241.67 365.127L195.08 391.817L128.79 353.547L120 348.487L168.78 320.547C173.2 318.007 175.67 318.207 177.41 319.197L253.49 363.117C250.77 361.567 247.57 361.897 243.86 363.877Z" fill="#FAFAFA"/>
<path d="M191.67 384.198L233.2 360.238L235.39 358.988L236.99 359.908L234.8 361.158L193.27 385.128L191.67 384.198Z" fill="#E0E0E0"/>
<path d="M187.84 381.987L229.37 358.027L231.55 356.777L233.15 357.697L230.97 358.947L189.43 382.907L187.84 381.987Z" fill="#E0E0E0"/>
<path d="M184 379.779L225.53 355.809L227.72 354.559L229.32 355.489L227.13 356.739L185.6 380.699L184 379.779Z" fill="#E0E0E0"/>
<path d="M180.16 377.558L221.7 353.598L223.88 352.348L225.48 353.268L223.3 354.518L181.76 378.488L180.16 377.558Z" fill="#E0E0E0"/>
<path d="M176.33 375.349L217.86 351.379L220.05 350.129L221.65 351.059L219.46 352.309L177.93 376.269L176.33 375.349Z" fill="#E0E0E0"/>
<path d="M172.488 373.128L214.028 349.168L216.208 347.918L217.808 348.838L215.628 350.088L174.088 374.058L172.488 373.128Z" fill="#E0E0E0"/>
<path d="M168.66 370.919L210.19 346.949L212.38 345.699L213.97 346.629L211.79 347.879L170.26 371.839L168.66 370.919Z" fill="#E0E0E0"/>
<path d="M164.818 368.698L206.358 344.738L208.538 343.488L210.138 344.408L207.948 345.658L166.418 369.628L164.818 368.698Z" fill="#E0E0E0"/>
<path d="M160.988 366.487L202.518 342.527L204.708 341.277L206.308 342.197L204.118 343.447L162.588 367.407L160.988 366.487Z" fill="#E0E0E0"/>
<path d="M157.148 364.279L198.688 340.309L200.868 339.059L202.468 339.989L200.278 341.229L158.748 365.199L157.148 364.279Z" fill="#E0E0E0"/>
<path d="M153.318 362.058L194.848 338.098L197.038 336.848L198.628 337.768L196.448 339.018L154.918 362.978L153.318 362.058Z" fill="#E0E0E0"/>
<path d="M149.479 359.849L191.009 335.879L193.199 334.629L194.799 335.559L192.609 336.809L151.079 360.769L149.479 359.849Z" fill="#E0E0E0"/>
<path d="M145.648 357.628L187.178 333.668L189.368 332.418L190.958 333.338L188.778 334.588L147.238 358.558L145.648 357.628Z" fill="#E0E0E0"/>
<path d="M141.809 355.419L183.339 331.449L185.529 330.199L187.129 331.129L184.939 332.379L143.409 356.339L141.809 355.419Z" fill="#E0E0E0"/>
<path d="M137.979 353.198L179.509 329.238L181.689 327.988L183.289 328.908L181.109 330.158L139.569 354.128L137.979 353.198Z" fill="#E0E0E0"/>
<path d="M134.139 350.987L175.669 327.017L177.859 325.777L179.459 326.697L177.269 327.947L135.739 351.907L134.139 350.987Z" fill="#E0E0E0"/>
<path d="M130.309 348.769L171.839 324.809L174.019 323.559L175.619 324.489L173.439 325.729L131.899 349.699L130.309 348.769Z" fill="#E0E0E0"/>
<path opacity="0.1" d="M244.32 361.258C243.42 361.348 241.51 361.958 240.46 362.198C236.02 363.198 228.2 366.767 220.71 370.517C210.71 375.517 201.27 380.878 201.27 380.878L132.6 341.288L168.81 320.547C170.195 319.701 171.703 319.074 173.28 318.688C174.377 318.867 175.435 319.232 176.41 319.767L176.89 318.927C177.079 319.005 177.262 319.096 177.44 319.198L253.52 363.117C249.25 360.657 247.26 360.998 244.32 361.258Z" fill="black"/>
<path d="M195.028 394.02L202.478 390.25L195.078 394.75L187.648 390.46L195.028 394.02Z" fill="#E6E6E6"/>
<path d="M195.088 399.079L208.738 391.199L195.088 398.549L179.738 390.219L195.088 399.079Z" fill="#E6E6E6"/>
<path d="M120.029 350.719L131.509 357.639L120.029 351.779V350.719Z" fill="#E6E6E6"/>
<path d="M120.049 354.668L137.089 365.088L120.029 355.608L120.049 354.668Z" fill="#E6E6E6"/>
<path d="M243.999 359.108C243.013 359.219 242.035 359.386 241.069 359.608C236.639 360.608 228.819 364.178 221.319 367.928C211.319 372.928 201.879 378.288 201.879 378.288L126.809 334.998C126.809 334.998 155.379 318.548 166.589 316.378C171.849 315.378 175.079 316.068 177.039 317.188L251.589 360.188C249.909 359.228 247.469 358.708 243.999 359.108Z" fill="#F5F5F5"/>
<path d="M243.079 355.277C241.389 354.277 238.939 353.787 235.499 354.177C234.513 354.291 233.535 354.461 232.569 354.687C228.347 355.877 224.244 357.45 220.309 359.387C217.869 360.517 215.309 361.747 212.819 363.007C206.819 366.007 200.979 369.157 197.309 371.177L199.009 372.177C202.689 370.177 208.499 367.017 214.529 363.997C217.029 362.747 219.529 361.507 222.009 360.387C225.944 358.449 230.048 356.873 234.269 355.677C235.235 355.455 236.213 355.288 237.199 355.177C240.649 354.777 243.089 355.297 244.779 356.277L243.079 355.277Z" fill="#E0E0E0"/>
<path d="M239.229 353.058C237.549 352.058 235.099 351.568 231.649 351.968C230.667 352.079 229.692 352.245 228.729 352.468C224.506 353.657 220.402 355.234 216.469 357.178C214.029 358.298 211.469 359.528 208.979 360.788C202.979 363.788 197.139 366.938 193.459 368.968L195.169 369.968C198.849 367.968 204.659 364.808 210.679 361.798C213.189 360.538 215.679 359.308 218.169 358.178C222.105 356.24 226.208 354.663 230.429 353.468C231.395 353.245 232.374 353.078 233.359 352.968C236.809 352.578 239.249 353.088 240.939 354.068L239.229 353.058Z" fill="#E0E0E0"/>
<path d="M235.389 350.847C233.699 349.847 231.259 349.347 227.809 349.747C226.824 349.858 225.846 350.025 224.879 350.247C220.658 351.45 216.558 353.04 212.629 354.997C210.179 356.117 207.629 357.357 205.139 358.607C199.139 361.607 193.299 364.767 189.619 366.787L191.329 367.787C194.999 365.787 200.819 362.627 206.839 359.617C209.349 358.357 211.839 357.127 214.329 355.997C218.265 354.06 222.368 352.483 226.589 351.287C227.556 351.07 228.534 350.903 229.519 350.787C232.969 350.397 235.409 350.917 237.099 351.887L235.389 350.847Z" fill="#E0E0E0"/>
<path d="M231.549 348.629C229.859 347.629 227.419 347.129 223.969 347.529C222.984 347.64 222.006 347.806 221.039 348.029C216.819 349.225 212.715 350.801 208.779 352.739C206.339 353.869 203.779 355.099 201.289 356.349C195.289 359.349 189.459 362.509 185.779 364.529L187.489 365.529C191.159 363.529 196.969 360.379 202.999 357.359C205.509 356.099 208.049 354.869 210.489 353.739C214.424 351.802 218.528 350.229 222.749 349.039C223.715 348.811 224.693 348.644 225.679 348.539C229.119 348.139 231.569 348.659 233.259 349.629L231.549 348.629Z" fill="#E0E0E0"/>
<path d="M227.709 346.41C226.019 345.41 223.579 344.92 220.129 345.31C219.145 345.425 218.167 345.592 217.199 345.81C212.979 347.006 208.875 348.582 204.939 350.52C202.499 351.65 199.939 352.88 197.449 354.14C191.449 357.14 185.609 360.29 181.939 362.31L183.639 363.31C187.319 361.31 193.129 358.15 199.159 355.13C201.659 353.87 204.209 352.64 206.649 351.52C210.583 349.576 214.687 347.999 218.909 346.81C219.872 346.587 220.847 346.42 221.829 346.31C225.279 345.91 227.729 346.43 229.409 347.4L227.709 346.41Z" fill="#E0E0E0"/>
<path d="M223.87 344.187C222.18 343.187 219.73 342.697 216.29 343.087C215.304 343.201 214.326 343.371 213.36 343.597C209.138 344.787 205.035 346.36 201.1 348.297C198.66 349.427 196.1 350.657 193.61 351.917C187.61 354.917 181.77 358.067 178.1 360.087L179.8 361.087C183.48 359.087 189.29 355.927 195.32 352.907C197.82 351.657 200.32 350.417 202.81 349.297C206.739 347.354 210.84 345.777 215.06 344.587C216.026 344.365 217.004 344.198 217.99 344.087C221.44 343.687 223.88 344.207 225.57 345.187L223.87 344.187Z" fill="#E0E0E0"/>
<path d="M219.999 341.999C218.319 340.999 215.869 340.509 212.419 340.909C211.436 341.02 210.462 341.187 209.499 341.409C205.275 342.597 201.171 344.174 197.239 346.119C194.799 347.239 192.239 348.469 189.749 349.729C183.749 352.729 177.909 355.879 174.229 357.899L175.939 358.899C179.619 356.899 185.429 353.739 191.449 350.719C193.959 349.469 196.499 348.239 198.939 347.109C202.874 345.171 206.978 343.595 211.199 342.399C212.165 342.177 213.143 342.01 214.129 341.899C217.579 341.509 220.019 342.019 221.709 342.999L219.999 341.999Z" fill="#E0E0E0"/>
<path d="M216.18 339.758C214.49 338.758 212.05 338.258 208.6 338.658C207.615 338.768 206.637 338.935 205.67 339.158C201.451 340.348 197.35 341.924 193.42 343.868C190.97 344.988 188.42 346.228 185.93 347.478C179.93 350.478 174.09 353.638 170.41 355.658L172.12 356.658C175.79 354.658 181.61 351.498 187.63 348.488C190.14 347.228 192.68 345.998 195.12 344.868C199.056 342.93 203.159 341.353 207.38 340.158C208.347 339.94 209.325 339.773 210.31 339.658C213.76 339.268 216.2 339.788 217.89 340.758L216.18 339.758Z" fill="#E0E0E0"/>
<path d="M206.468 337.417C205.483 337.53 204.504 337.701 203.538 337.927C199.098 338.927 191.278 342.487 183.788 346.247C177.788 349.247 171.948 352.397 168.278 354.417L166.568 353.417C170.248 351.417 176.058 348.257 182.078 345.237C189.568 341.487 197.398 337.917 201.828 336.917C202.795 336.695 203.773 336.528 204.758 336.417C208.208 336.017 210.648 336.537 212.338 337.517L214.038 338.517C212.358 337.547 209.908 336.997 206.468 337.417Z" fill="#E0E0E0"/>
<path d="M202.619 335.207C201.636 335.318 200.662 335.485 199.699 335.707C195.259 336.707 187.439 340.277 179.949 344.027C173.949 347.027 168.109 350.177 164.429 352.197L162.729 351.197C166.399 349.197 172.219 346.037 178.239 343.017C185.729 339.267 193.559 335.697 197.989 334.697C198.955 334.474 199.933 334.308 200.919 334.197C204.369 333.807 206.809 334.327 208.499 335.297L210.199 336.297C208.519 335.327 206.069 334.807 202.619 335.207Z" fill="#E0E0E0"/>
<path d="M198.779 332.997C197.793 333.108 196.815 333.275 195.849 333.497C191.419 334.497 183.599 338.067 176.109 341.817C170.109 344.817 164.269 347.977 160.589 349.997L158.889 348.997C162.559 346.997 168.369 343.837 174.399 340.827C181.889 337.067 189.709 333.497 194.149 332.497C195.116 332.279 196.094 332.112 197.079 331.997C200.519 331.607 202.969 332.127 204.659 333.097L206.359 334.097C204.669 333.107 202.229 332.587 198.779 332.997Z" fill="#E0E0E0"/>
<path d="M194.939 330.767C193.954 330.878 192.975 331.045 192.009 331.267C187.579 332.267 179.749 335.837 172.259 339.587C166.259 342.587 160.429 345.747 156.749 347.767L155.039 346.767C158.719 344.767 164.529 341.617 170.559 338.597C178.049 334.847 185.869 331.267 190.309 330.277C191.272 330.052 192.247 329.882 193.229 329.767C196.679 329.377 199.129 329.897 200.809 330.867L202.519 331.867C200.829 330.887 198.389 330.367 194.939 330.767Z" fill="#E0E0E0"/>
<path d="M191.099 328.55C190.114 328.661 189.136 328.828 188.169 329.05C183.729 330.05 175.909 333.62 168.419 337.38C162.419 340.38 156.579 343.53 152.909 345.55L151.199 344.55C154.879 342.55 160.689 339.39 166.719 336.37C174.209 332.62 182.029 329.05 186.459 328.05C187.426 327.828 188.404 327.661 189.389 327.55C192.839 327.15 195.279 327.67 196.969 328.64L198.679 329.64C196.999 328.68 194.549 328.16 191.099 328.55Z" fill="#E0E0E0"/>
<path d="M187.259 326.327C186.275 326.442 185.297 326.609 184.329 326.827C179.889 327.827 172.069 331.397 164.579 335.157C158.579 338.157 152.739 341.307 149.069 343.327L147.359 342.327C151.039 340.327 156.849 337.167 162.869 334.147C170.359 330.397 178.189 326.827 182.619 325.827C183.586 325.605 184.564 325.438 185.549 325.327C188.999 324.927 191.439 325.447 193.129 326.427L194.829 327.427C193.149 326.457 190.699 325.937 187.259 326.327Z" fill="#E0E0E0"/>
<path d="M183.41 324.108C182.427 324.223 181.452 324.393 180.49 324.618C176.05 325.618 168.23 329.188 160.74 332.938C154.74 335.938 148.9 339.088 145.22 341.108L143.52 340.108C147.19 338.108 153.01 334.948 159.03 331.928C166.52 328.178 174.34 324.608 178.78 323.608C179.746 323.386 180.724 323.219 181.71 323.108C185.16 322.708 187.6 323.228 189.29 324.208L190.99 325.208C189.31 324.238 186.86 323.718 183.41 324.108Z" fill="#E0E0E0"/>
<path d="M179.57 321.9C178.584 322.011 177.606 322.178 176.64 322.4C172.21 323.4 164.39 326.97 156.9 330.72C150.9 333.72 145.06 336.87 141.38 338.9L139.68 337.9C143.35 335.9 149.16 332.74 155.19 329.73C162.68 325.97 170.5 322.4 174.94 321.4C175.906 321.177 176.884 321.01 177.87 320.9C181.31 320.51 183.76 321.03 185.45 322L187.15 323C185.46 322 183 321.5 179.57 321.9Z" fill="#E0E0E0"/>
<path d="M175.73 319.677C174.745 319.788 173.766 319.955 172.8 320.177C168.37 321.177 160.54 324.747 153.05 328.497C147.05 331.497 141.22 334.657 137.54 336.677L135.83 335.677C139.51 333.677 145.32 330.517 151.35 327.507C158.84 323.747 166.66 320.177 171.1 319.177C172.064 318.96 173.039 318.793 174.02 318.677C177.47 318.287 179.92 318.807 181.6 319.777L183.31 320.777C181.62 319.797 179.18 319.277 175.73 319.677Z" fill="#E0E0E0"/>
<path d="M258.669 347.27C256.374 348.658 254.323 350.415 252.599 352.47L251.029 351.56C252.76 349.51 254.814 347.757 257.109 346.37L300.839 321.18L302.399 322.08L258.669 347.27Z" fill="#E0E0E0"/>
<path d="M258.669 347.27C256.374 348.658 254.323 350.415 252.599 352.47L251.029 351.56C252.76 349.51 254.814 347.757 257.109 346.37L300.839 321.18L302.399 322.08L258.669 347.27Z" fill="#E0E0E0"/>
<path d="M254.829 345.05C252.536 346.441 250.486 348.198 248.759 350.25L247.199 349.35C248.923 347.295 250.974 345.538 253.269 344.15L296.999 319L298.559 319.9L254.829 345.05Z" fill="#E0E0E0"/>
<path d="M250.999 342.84C248.702 344.225 246.648 345.978 244.919 348.03L243.359 347.13C245.086 345.078 247.137 343.321 249.429 341.93L293.159 316.75L294.719 317.65L250.999 342.84Z" fill="#E0E0E0"/>
<path d="M247.16 340.617C244.859 342.003 242.805 343.76 241.08 345.817L239.52 344.917C241.245 342.86 243.299 341.103 245.6 339.717L289.32 314.527L290.88 315.427L247.16 340.617Z" fill="#E0E0E0"/>
<path d="M243.32 338.41C241.025 339.795 238.974 341.549 237.25 343.6L235.68 342.7C237.41 340.648 239.464 338.892 241.76 337.5L285.49 312.32L287.05 313.22L243.32 338.41Z" fill="#E0E0E0"/>
<path d="M239.48 336.188C237.185 337.576 235.134 339.333 233.41 341.388L231.85 340.488C233.574 338.433 235.625 336.676 237.92 335.288L281.65 310.098L283.21 310.998L239.48 336.188Z" fill="#E0E0E0"/>
<path d="M235.65 334C233.352 335.389 231.298 337.146 229.57 339.2L228.01 338.3C229.737 336.248 231.787 334.492 234.08 333.1L277.81 307.91L279.37 308.82L235.65 334Z" fill="#E0E0E0"/>
<path d="M231.81 331.758C229.51 333.143 227.455 334.901 225.73 336.958L224.17 336.058C225.895 334.001 227.95 332.243 230.25 330.858L274 305.668L275.56 306.568L231.81 331.758Z" fill="#E0E0E0"/>
<path d="M227.999 329.539C225.705 330.928 223.654 332.685 221.929 334.739L220.359 333.839C222.088 331.785 224.142 330.028 226.439 328.639L270.159 303.449L271.729 304.349L227.999 329.539Z" fill="#E0E0E0"/>
<path d="M224.13 327.328C221.835 328.717 219.784 330.473 218.06 332.528L216.5 331.618C218.224 329.567 220.275 327.813 222.57 326.428L266.3 301.238L267.86 302.138L224.13 327.328Z" fill="#E0E0E0"/>
<path d="M220.3 325.11C218.002 326.499 215.948 328.255 214.22 330.31L212.66 329.41C214.384 327.355 216.435 325.598 218.73 324.21L262.46 299L264.02 299.9L220.3 325.11Z" fill="#E0E0E0"/>
<path d="M216.458 322.899C214.159 324.28 212.104 326.034 210.378 328.089L208.818 327.189C210.547 325.134 212.601 323.377 214.898 321.989L258.618 296.809L260.178 297.709L216.458 322.899Z" fill="#E0E0E0"/>
<path d="M212.62 320.679C210.323 322.065 208.272 323.822 206.55 325.879L205 324.999C206.725 322.942 208.78 321.185 211.08 319.799L254.8 294.609L256.37 295.509L212.62 320.679Z" fill="#E0E0E0"/>
<path d="M208.778 318.459C206.486 319.85 204.435 321.607 202.708 323.659L201.148 322.759C202.875 320.707 204.926 318.95 207.218 317.559L250.998 292.379L252.558 293.279L208.778 318.459Z" fill="#E0E0E0"/>
<path d="M204.999 316.25C202.699 317.636 200.645 319.393 198.919 321.45L197.359 320.55C199.084 318.495 201.134 316.739 203.429 315.35L247.159 290.16L248.719 291.06L204.999 316.25Z" fill="#E0E0E0"/>
<path d="M201.109 314C198.811 315.389 196.757 317.146 195.029 319.2L193.469 318.3C195.197 316.246 197.251 314.489 199.549 313.1L243.269 287.91L244.829 288.82L201.109 314Z" fill="#E0E0E0"/>
<path d="M197.269 311.82C194.971 313.209 192.917 314.965 191.189 317.02L189.629 316.11C191.357 314.059 193.411 312.306 195.709 310.92L239.429 285.73L240.999 286.63L197.269 311.82Z" fill="#E0E0E0"/>
<path d="M304.238 331.76L314.468 326.36L314.478 325.52L304.238 331.76Z" fill="#E6E6E6"/>
<path d="M314.48 329.37L297.42 338.9L314.48 328.75V329.37Z" fill="#E6E6E6"/>
<path opacity="0.02" d="M138.52 328.56C147.73 323.69 160.08 317.63 166.59 316.37C171.85 315.37 175.08 316.06 177.04 317.18L251.59 360.18C249.9 359.18 247.46 358.69 244.01 359.09C244.01 359.09 207.11 336.58 183.28 328.89C168.723 324.34 153.142 324.225 138.52 328.56Z" fill="black"/>
<path d="M341.9 200.212C338.483 200.2 335.108 199.456 332.003 198.029C328.898 196.602 326.135 194.527 323.9 191.942C319.854 194.159 315.313 195.318 310.7 195.312C297.7 195.312 286.06 185.892 282.29 172.312C271.95 169.462 264.76 159.422 264.76 147.782C264.76 134.152 274.83 122.892 287.28 122.472C291.54 107.972 303.72 98.2723 317.72 98.2723C324.738 98.289 331.529 100.766 336.91 105.272C339.216 102.276 342.203 99.8713 345.623 98.2585C349.044 96.6457 352.799 95.8708 356.578 95.9978C360.358 96.1249 364.053 97.1503 367.357 98.9892C370.661 100.828 373.48 103.427 375.58 106.572C378.562 105.496 381.709 104.944 384.88 104.942C397.31 104.942 408.48 113.462 412.76 126.162C423.24 128.772 430.82 139.102 430.82 150.872C430.82 163.872 421.59 174.872 409.73 176.082C404.9 188.262 393.96 196.082 381.73 196.082C374.563 196.042 367.667 193.341 362.38 188.502C360.225 192.018 357.22 194.934 353.64 196.981C350.06 199.028 346.023 200.139 341.9 200.212ZM324.05 190.652C324.132 190.653 324.212 190.671 324.287 190.705C324.361 190.74 324.427 190.79 324.48 190.852C326.609 193.409 329.271 195.47 332.28 196.889C335.289 198.309 338.573 199.054 341.9 199.072C349.9 199.072 357.38 194.702 361.84 187.372C361.885 187.301 361.945 187.241 362.016 187.196C362.087 187.152 362.166 187.123 362.25 187.112C362.334 187.099 362.421 187.106 362.503 187.132C362.584 187.158 362.659 187.202 362.72 187.262C367.859 192.183 374.685 194.952 381.8 195.002C393.63 195.002 404.24 187.292 408.8 175.362C408.84 175.263 408.907 175.177 408.994 175.113C409.08 175.049 409.183 175.011 409.29 175.002C420.73 174.002 429.7 163.452 429.7 150.892C429.7 139.532 422.34 129.572 412.2 127.212C412.104 127.194 412.015 127.15 411.943 127.085C411.87 127.02 411.817 126.936 411.79 126.842C407.74 114.432 396.93 106.102 384.89 106.102C381.708 106.1 378.553 106.68 375.58 107.812C375.46 107.855 375.33 107.858 375.209 107.82C375.088 107.782 374.983 107.706 374.91 107.602C372.919 104.494 370.2 101.918 366.99 100.097C363.779 98.2758 360.172 97.2649 356.483 97.1517C352.793 97.0384 349.132 97.8262 345.815 99.4468C342.499 101.067 339.628 103.472 337.45 106.452C337.404 106.515 337.346 106.567 337.279 106.605C337.211 106.643 337.137 106.666 337.06 106.672C336.983 106.682 336.905 106.675 336.831 106.652C336.757 106.63 336.689 106.592 336.63 106.542C331.388 101.982 324.678 99.4644 317.73 99.4523C304.12 99.4523 292.28 109.002 288.27 123.222C288.235 123.339 288.165 123.443 288.067 123.516C287.97 123.59 287.852 123.631 287.73 123.632C275.73 123.812 265.91 134.632 265.91 147.822C265.91 159.072 272.91 168.742 282.91 171.342C283.008 171.366 283.098 171.416 283.17 171.486C283.242 171.556 283.294 171.645 283.32 171.742C286.86 184.952 298.13 194.182 310.72 194.182C315.28 194.175 319.759 192.982 323.72 190.722C323.82 190.665 323.935 190.641 324.05 190.652Z" fill="#FF6501"/>
<path d="M269.81 112.29C268.666 112.276 267.55 111.929 266.6 111.29C266.183 111.474 265.751 111.625 265.31 111.74C263.615 112.175 261.829 112.105 260.172 111.54C258.516 110.976 257.06 109.94 255.983 108.56C254.905 107.181 254.254 105.517 254.108 103.773C253.962 102.029 254.327 100.28 255.16 98.7402C254.267 97.8244 253.681 96.6531 253.484 95.3891C253.287 94.1251 253.488 92.8311 254.059 91.6866C254.631 90.5422 255.545 89.6041 256.674 89.0026C257.803 88.4012 259.091 88.1662 260.36 88.3302C260.947 86.5745 261.969 84.9964 263.333 83.7441C264.696 82.4918 266.355 81.6062 268.154 81.1705C269.953 80.7347 271.833 80.763 273.618 81.2527C275.404 81.7424 277.035 82.6775 278.36 83.9702C278.519 83.9049 278.683 83.8514 278.85 83.8102C279.563 83.6217 280.306 83.5757 281.037 83.6748C281.768 83.7739 282.472 84.0161 283.11 84.3876C283.747 84.7592 284.304 85.2527 284.751 85.84C285.197 86.4273 285.523 87.0968 285.71 87.8102C285.945 88.7152 285.945 89.6652 285.71 90.5702C287.051 90.7079 288.304 91.3031 289.259 92.2558C290.213 93.2085 290.81 94.4606 290.949 95.8017C291.089 97.1428 290.763 98.4911 290.025 99.6199C289.288 100.749 288.184 101.589 286.9 102C286.753 103.361 286.299 104.67 285.57 105.828C284.841 106.986 283.858 107.962 282.696 108.684C281.533 109.405 280.221 109.851 278.86 109.989C277.499 110.127 276.124 109.953 274.84 109.48C274.054 110.777 272.796 111.72 271.33 112.11C270.834 112.239 270.323 112.3 269.81 112.29ZM266.66 110.14C266.779 110.142 266.894 110.18 266.99 110.25C267.552 110.664 268.198 110.949 268.883 111.086C269.568 111.223 270.274 111.208 270.952 111.042C271.63 110.876 272.263 110.563 272.807 110.126C273.351 109.688 273.793 109.137 274.1 108.51C274.163 108.384 274.271 108.287 274.403 108.239C274.535 108.191 274.681 108.195 274.81 108.25C275.97 108.756 277.235 108.974 278.498 108.887C279.76 108.8 280.983 108.41 282.062 107.749C283.142 107.089 284.046 106.178 284.699 105.093C285.351 104.009 285.732 102.783 285.81 101.52C285.815 101.403 285.857 101.289 285.931 101.198C286.005 101.106 286.106 101.04 286.22 101.01L286.46 101.53L286.32 100.99C287.541 100.664 288.583 99.8675 289.219 98.775C289.854 97.6824 290.031 96.3827 289.71 95.1602C289.426 94.1332 288.809 93.2291 287.957 92.5889C287.106 91.9486 286.066 91.608 285 91.6202C284.908 91.6326 284.814 91.6162 284.732 91.5732C284.65 91.5302 284.583 91.4628 284.54 91.3802C284.488 91.3074 284.454 91.2228 284.442 91.1339C284.43 91.045 284.439 90.9545 284.47 90.8702C284.825 89.9826 284.885 89.0043 284.64 88.0802C284.488 87.5075 284.225 86.9705 283.865 86.4997C283.505 86.0289 283.056 85.6336 282.543 85.3364C282.031 85.0392 281.464 84.846 280.877 84.7677C280.29 84.6894 279.693 84.7277 279.12 84.8802C278.888 84.9437 278.661 85.024 278.44 85.1202C278.337 85.1678 278.222 85.1818 278.111 85.1603C278 85.1388 277.898 85.0828 277.82 85.0002C276.623 83.7488 275.117 82.8358 273.454 82.3536C271.79 81.8714 270.029 81.8371 268.349 82.2543C266.668 82.6714 265.127 83.5251 263.882 84.729C262.638 85.933 261.733 87.4443 261.26 89.1102C261.223 89.2462 261.134 89.3625 261.013 89.4351C260.892 89.5077 260.748 89.531 260.61 89.5002C259.516 89.2606 258.373 89.3915 257.362 89.8723C256.35 90.3531 255.527 91.1566 255.022 92.1563C254.517 93.156 254.359 94.2952 254.572 95.3948C254.785 96.4943 255.358 97.4918 256.2 98.2302C256.3 98.314 256.366 98.431 256.386 98.5597C256.406 98.6883 256.379 98.8199 256.31 98.9302C255.472 100.269 255.056 101.83 255.117 103.408C255.177 104.987 255.712 106.511 256.65 107.782C257.589 109.053 258.888 110.012 260.379 110.534C261.87 111.056 263.484 111.118 265.01 110.71C265.488 110.584 265.954 110.413 266.4 110.2C266.48 110.158 266.57 110.138 266.66 110.14Z" fill="#FF6501"/>
<path d="M240.23 89.5511C239.248 89.5522 238.282 89.303 237.423 88.8271C236.564 88.3512 235.84 87.6643 235.32 86.8311C234.381 86.5718 233.534 86.0519 232.878 85.3314C232.222 84.611 231.783 83.7196 231.613 82.7602C231.442 81.8009 231.547 80.8128 231.915 79.9104C232.282 79.0081 232.898 78.2282 233.69 77.6611C233.636 76.7469 233.827 75.8349 234.242 75.0187C234.658 74.2026 235.283 73.5116 236.054 73.0169C236.824 72.5221 237.713 72.2414 238.628 72.2035C239.543 72.1655 240.451 72.3718 241.26 72.8011C241.591 72.4832 241.961 72.2077 242.36 71.9811C243.278 71.4791 244.327 71.2695 245.367 71.3805C246.407 71.4915 247.388 71.9177 248.179 72.6021C248.97 73.2864 249.533 74.1961 249.792 75.2094C250.051 76.2226 249.995 77.2909 249.63 78.2711C249.736 78.4183 249.833 78.572 249.92 78.7311C250.351 79.5165 250.569 80.4004 250.554 81.2959C250.54 82.1914 250.292 83.0677 249.836 83.8385C249.38 84.6093 248.731 85.2482 247.953 85.6922C247.176 86.1363 246.296 86.3702 245.4 86.3711C244.922 87.3253 244.188 88.1279 243.281 88.6894C242.373 89.251 241.327 89.5493 240.26 89.5511H240.23ZM238.84 73.3011C238.267 73.3066 237.701 73.4332 237.18 73.6726C236.659 73.912 236.194 74.2588 235.817 74.6903C235.439 75.1218 235.157 75.6282 234.988 76.1764C234.82 76.7245 234.77 77.302 234.84 77.8711C234.856 77.9768 234.84 78.085 234.794 78.1814C234.747 78.2778 234.673 78.3578 234.58 78.4111C233.894 78.8337 233.35 79.4511 233.017 80.1845C232.684 80.9179 232.577 81.7339 232.711 82.5283C232.844 83.3226 233.211 84.0593 233.765 84.644C234.318 85.2288 235.034 85.6351 235.82 85.8111C235.896 85.8276 235.967 85.8602 236.03 85.9068C236.092 85.9534 236.143 86.0129 236.18 86.0811C236.785 87.1462 237.785 87.9307 238.964 88.2656C240.142 88.6004 241.405 88.4588 242.48 87.8711C243.385 87.359 244.09 86.5553 244.48 85.5911C244.527 85.4837 244.606 85.3935 244.706 85.3326C244.807 85.2718 244.923 85.2433 245.04 85.2511C245.831 85.3108 246.623 85.1406 247.32 84.7611C248.258 84.2402 248.952 83.3701 249.251 82.3402C249.551 81.3103 249.432 80.2037 248.92 79.2611C248.805 79.0636 248.678 78.8732 248.54 78.6911C248.476 78.6123 248.435 78.517 248.423 78.4162C248.411 78.3153 248.427 78.2131 248.47 78.1211C248.725 77.5538 248.844 76.9348 248.818 76.3134C248.792 75.6919 248.622 75.0851 248.32 74.5411C248.01 73.9689 247.565 73.4809 247.024 73.1195C246.483 72.7581 245.862 72.5342 245.215 72.4672C244.567 72.4002 243.913 72.4921 243.31 72.735C242.706 72.9779 242.171 73.3645 241.75 73.8611C241.664 73.9644 241.543 74.0319 241.409 74.0504C241.276 74.0689 241.141 74.037 241.03 73.9611C240.376 73.5413 239.617 73.3127 238.84 73.3011Z" fill="#FF6501"/>
<path d="M218.36 85.5106H218.11C217.339 85.4474 216.623 85.0892 216.11 84.5106C215.844 84.1986 215.644 83.8353 215.524 83.4431C215.403 83.051 215.365 82.6383 215.41 82.2306L215.29 82.1006C215.032 81.7994 214.836 81.4501 214.714 81.0728C214.592 80.6955 214.546 80.2978 214.578 79.9026C214.611 79.5073 214.722 79.1225 214.904 78.7703C215.086 78.4181 215.336 78.1055 215.64 77.8506C215.986 77.5533 216.397 77.341 216.84 77.2306C217.027 76.6386 217.373 76.1094 217.84 75.7006C218.479 75.1581 219.298 74.8756 220.135 74.9089C220.972 74.9422 221.767 75.2891 222.36 75.8806C223.131 75.9437 223.847 76.302 224.36 76.8806C224.825 77.424 225.08 78.1155 225.08 78.8306C225.08 79.5456 224.825 80.2372 224.36 80.7806C224.477 81.3152 224.446 81.8718 224.27 82.39C224.094 82.9083 223.779 83.3684 223.36 83.7206C223.003 84.0259 222.578 84.2429 222.121 84.354C221.665 84.4652 221.188 84.4675 220.73 84.3606C220.603 84.5251 220.459 84.6759 220.3 84.8106C219.756 85.2658 219.069 85.5139 218.36 85.5106ZM220 76.0006C219.472 75.9987 218.961 76.1868 218.56 76.5306C218.173 76.8561 217.908 77.3041 217.81 77.8006C217.791 77.9153 217.734 78.0206 217.65 78.1001C217.565 78.1796 217.456 78.229 217.34 78.2406C216.972 78.2916 216.626 78.4439 216.34 78.6806C215.956 79.0098 215.718 79.4779 215.679 79.9822C215.639 80.4865 215.802 80.9858 216.13 81.3706C216.196 81.4543 216.269 81.5314 216.35 81.6006C216.427 81.6652 216.486 81.7494 216.519 81.8445C216.553 81.9395 216.56 82.0418 216.54 82.1406C216.473 82.4262 216.475 82.7234 216.545 83.0083C216.614 83.2932 216.749 83.5577 216.94 83.7806C217.266 84.1625 217.729 84.4 218.23 84.4412C218.73 84.4825 219.226 84.324 219.61 84.0006C219.783 83.8499 219.928 83.6706 220.04 83.4706C220.102 83.3522 220.207 83.2616 220.333 83.2171C220.459 83.1726 220.597 83.1774 220.72 83.2306C221.043 83.3549 221.393 83.3908 221.734 83.3346C222.075 83.2783 222.395 83.1319 222.66 82.9106C222.954 82.6617 223.165 82.3299 223.267 81.9587C223.368 81.5876 223.356 81.1944 223.23 80.8306C223.196 80.7298 223.193 80.6213 223.219 80.5184C223.246 80.4154 223.302 80.3224 223.38 80.2506C223.653 79.9899 223.842 79.6544 223.924 79.2863C224.007 78.9182 223.978 78.534 223.842 78.1821C223.706 77.8302 223.469 77.5264 223.161 77.3091C222.853 77.0917 222.487 76.9704 222.11 76.9606C221.954 76.9521 221.807 76.8841 221.7 76.7706C221.49 76.5265 221.228 76.3312 220.935 76.1983C220.641 76.0653 220.322 75.9978 220 76.0006Z" fill="#FF6501"/>
</svg>
