<svg width="500" height="500" viewBox="0 0 500 500" fill="none" xmlns="http://www.w3.org/2000/svg">
<path d="M413.22 247.35C413.22 249.217 412.666 251.042 411.629 252.595C410.592 254.147 409.117 255.357 407.392 256.072C405.667 256.786 403.769 256.973 401.938 256.609C400.107 256.245 398.425 255.345 397.105 254.025C395.785 252.705 394.885 251.023 394.521 249.192C394.157 247.361 394.344 245.463 395.058 243.738C395.773 242.013 396.983 240.538 398.535 239.501C400.088 238.464 401.913 237.91 403.78 237.91C406.283 237.91 408.685 238.905 410.455 240.675C412.225 242.445 413.22 244.847 413.22 247.35Z" fill="#EBEBEB"/>
<path d="M382.864 254.461C386.793 250.532 386.793 244.163 382.864 240.234C378.935 236.306 372.566 236.305 368.637 240.234C364.708 244.163 364.708 250.532 368.637 254.461C372.566 258.39 378.935 258.39 382.864 254.461Z" fill="#EBEBEB"/>
<path d="M354.213 240.231C360.106 240.231 364.883 235.454 364.883 229.561C364.883 223.668 360.106 218.891 354.213 218.891C348.32 218.891 343.543 223.668 343.543 229.561C343.543 235.454 348.32 240.231 354.213 240.231Z" fill="#EBEBEB"/>
<path d="M360.834 204.197C361.922 198.136 357.891 192.341 351.83 191.252C345.769 190.164 339.973 194.195 338.885 200.256C337.796 206.317 341.828 212.113 347.889 213.201C353.95 214.29 359.745 210.258 360.834 204.197Z" fill="#EBEBEB"/>
<path d="M363.493 189.79C369.855 189.79 375.013 184.632 375.013 178.27C375.013 171.908 369.855 166.75 363.493 166.75C357.13 166.75 351.973 171.908 351.973 178.27C351.973 184.632 357.13 189.79 363.493 189.79Z" fill="#EBEBEB"/>
<path d="M394.568 180.424C400.968 177.75 403.988 170.393 401.313 163.993C398.639 157.592 391.282 154.572 384.882 157.247C378.481 159.922 375.461 167.278 378.136 173.679C380.811 180.079 388.167 183.099 394.568 180.424Z" fill="#EBEBEB"/>
<path d="M433.488 231.425C434.64 226.522 431.6 221.613 426.697 220.46C421.794 219.307 416.884 222.348 415.732 227.251C414.579 232.154 417.619 237.063 422.522 238.216C427.426 239.369 432.335 236.329 433.488 231.425Z" fill="#EBEBEB"/>
<path d="M432.515 209.766C436.878 208.095 439.061 203.203 437.389 198.84C435.718 194.477 430.826 192.295 426.463 193.966C422.1 195.637 419.917 200.529 421.589 204.892C423.26 209.256 428.152 211.438 432.515 209.766Z" fill="#EBEBEB"/>
<path d="M423.079 179.212C423.762 174.998 420.899 171.028 416.684 170.346C412.47 169.663 408.5 172.526 407.818 176.741C407.135 180.955 409.998 184.924 414.213 185.607C418.427 186.29 422.396 183.427 423.079 179.212Z" fill="#EBEBEB"/>
<path fill-rule="evenodd" clip-rule="evenodd" d="M142.262 132.529C144.562 134.99 146.526 137.744 148.102 140.719H157.422L160.892 155.719L152.492 159.769C152.381 163.135 151.823 166.471 150.832 169.689L157.452 176.259L149.262 189.339L140.462 186.269C138.008 188.574 135.253 190.535 132.272 192.099V201.429L117.272 204.889L113.272 196.489C109.906 196.386 106.569 195.828 103.352 194.829L96.7923 201.449L83.7123 193.269L86.7823 184.469C84.4826 182.009 82.5189 179.255 80.9423 176.279H71.6223L68.1523 161.279L76.5523 157.229C76.6646 153.864 77.2228 150.528 78.2123 147.309L71.6023 140.739L79.7823 127.659L88.5823 130.729C91.041 128.431 93.7953 126.47 96.7723 124.899V115.569L111.772 112.109L115.772 120.509C119.138 120.617 122.475 121.175 125.692 122.169L132.252 115.549L145.342 123.729L142.262 132.529ZM123.862 144.839C121.087 143.105 117.859 142.232 114.588 142.331C111.316 142.431 108.147 143.498 105.482 145.398C102.817 147.298 100.776 149.946 99.6154 153.007C98.4551 156.067 98.2284 159.403 98.9639 162.592C99.6993 165.782 101.364 168.682 103.747 170.925C106.131 173.168 109.126 174.654 112.354 175.196C115.582 175.737 118.898 175.309 121.883 173.966C124.867 172.623 127.387 170.424 129.122 167.649C130.276 165.807 131.056 163.755 131.416 161.611C131.776 159.466 131.71 157.272 131.221 155.154C130.733 153.035 129.831 151.034 128.569 149.264C127.306 147.494 125.707 145.991 123.862 144.839Z" fill="#E0E0E0"/>
<path fill-rule="evenodd" clip-rule="evenodd" d="M151.352 69.3C152.622 70.6656 153.708 72.1919 154.582 73.84H159.742L161.662 82.16L157.002 84.38C156.943 86.2463 156.634 88.0962 156.082 89.88L159.742 93.51L155.212 100.75L150.342 99.05C148.979 100.324 147.452 101.41 145.802 102.28V107.45L137.482 109.36L135.242 104.71C133.379 104.651 131.532 104.342 129.752 103.79L126.112 107.46L118.872 102.93L120.572 98.06C119.298 96.6968 118.212 95.1701 117.342 93.52H112.182L110.262 85.2L114.942 83C115.001 81.1371 115.311 79.2906 115.862 77.51L112.202 73.88L116.722 66.63L121.602 68.34C122.959 67.0643 124.483 65.9778 126.132 65.11V59.94L134.432 58L136.682 62.66C138.544 62.7203 140.39 63.0263 142.172 63.57L145.812 59.91L153.052 64.44L151.352 69.31V69.3ZM141.162 76.12C139.626 75.1591 137.839 74.6753 136.028 74.7298C134.217 74.7844 132.463 75.3748 130.987 76.4263C129.512 77.4779 128.381 78.9435 127.739 80.6376C127.096 82.3317 126.971 84.1783 127.378 85.9438C127.785 87.7094 128.707 89.3145 130.026 90.5563C131.346 91.798 133.004 92.6205 134.791 92.9198C136.578 93.2191 138.413 92.9818 140.065 92.2378C141.717 91.4938 143.112 90.2765 144.072 88.74C145.359 86.6804 145.775 84.1941 145.23 81.8275C144.684 79.461 143.221 77.408 141.162 76.12Z" fill="#E0E0E0"/>
<path d="M78.9304 84.6893C78.9304 84.6893 79.0804 84.7493 79.3504 84.9193C79.7353 85.1647 80.0909 85.4532 80.4104 85.7793C81.4304 86.8098 82.1307 88.1133 82.427 89.5326C82.7233 90.952 82.6029 92.4268 82.0804 93.7793C81.5887 95.0458 80.7669 96.1577 79.7004 96.9993C78.51 97.9351 77.0698 98.4987 75.5604 98.6193C73.9358 98.7502 72.3122 98.3539 70.9306 97.4893C69.549 96.6246 68.4829 95.3377 67.8904 93.8193C67.5958 93.1096 67.4201 92.3561 67.3704 91.5893C67.3121 90.8521 67.3661 90.1103 67.5304 89.3893C67.8227 88.0583 68.4647 86.8294 69.3904 85.8293C70.1991 84.9661 71.1993 84.305 72.3104 83.8993C73.9267 83.32 75.694 83.32 77.3104 83.8993C77.7451 84.0388 78.1615 84.2302 78.5504 84.4693C78.8104 84.6393 78.9504 84.7293 78.9404 84.7493C78.9304 84.7693 78.3704 84.4193 77.2504 84.0693C75.6709 83.5933 73.9774 83.6602 72.4404 84.2593C71.3294 84.6964 70.3432 85.4004 69.5688 86.309C68.7944 87.2177 68.2558 88.3031 68.0004 89.4693C67.7061 90.8652 67.835 92.3171 68.3704 93.6393C68.9367 95.0591 69.9378 96.2633 71.2304 97.0793C72.5329 97.8818 74.0542 98.256 75.5804 98.1493C76.3015 98.1024 77.0105 97.9404 77.6804 97.6693C78.3296 97.4336 78.9372 97.096 79.4804 96.6693C80.4369 95.9316 81.1928 94.9653 81.6786 93.8592C82.1643 92.7532 82.3644 91.5428 82.2604 90.3393C82.128 88.6949 81.4485 87.1423 80.3304 85.9293C79.4804 85.0593 78.9004 84.7293 78.9304 84.6893Z" fill="#E0E0E0"/>
<path d="M87.1811 79.1712C87.1811 79.1712 87.1811 79.0812 87.2511 78.9212C87.3211 78.7612 87.3911 78.4813 87.5011 78.1613L88.5011 75.1613V75.2513L82.6111 71.6213H82.7611L79.8311 74.6213L79.7711 74.6813H79.6911C78.2568 74.2437 76.7701 74.0015 75.2711 73.9613H75.2011V73.8812L73.3711 70.1213L73.5611 70.2113L66.8211 71.7812L66.9611 71.6012C66.9611 72.8912 66.9611 74.3212 66.9611 75.7812V75.9013H66.8511C65.5348 76.6041 64.3175 77.4784 63.2311 78.5013L63.1411 78.5813H63.0211L59.0711 77.2113L59.3211 77.1213L55.6511 83.0013V82.7313L58.6511 85.7313L58.7511 85.8213V85.9512C58.3164 87.3763 58.071 88.8522 58.0211 90.3412V90.4813L57.8911 90.5413L54.0011 92.2712L54.1311 92.0113C54.6211 94.1413 55.1311 96.4313 55.6911 98.7513L55.4611 98.5713H59.6411H59.7811L59.8511 98.7012C60.5447 100.018 61.4125 101.236 62.4311 102.321C62.4311 102.431 62.4311 102.091 62.4811 102.561V102.621V102.751L62.3911 103.001L62.2211 103.491L61.8711 104.491L61.1811 106.491L61.0911 106.211L66.9511 109.881H66.6611L69.6611 106.881L69.7611 106.781H69.8911C71.3146 107.224 72.7912 107.473 74.2811 107.521H74.4211L74.4811 107.641C75.0911 108.911 75.7011 110.171 76.2911 111.411L76.0411 111.291L82.7911 109.741L82.6211 109.951C82.6211 108.531 82.6211 107.141 82.6211 105.771V105.641L82.7311 105.581C84.0542 104.888 85.2785 104.02 86.3711 103.001L86.4611 102.921H86.5711L90.5711 104.301L90.3411 104.391C91.6311 102.321 92.8611 100.391 94.0211 98.5312V98.7513L91.0211 95.7513L90.9411 95.6712V95.5813C91.3892 94.1519 91.6415 92.6684 91.6911 91.1712V91.0813H91.7711L95.5511 89.2712L95.4711 89.4313C94.8811 86.8213 94.3811 84.5913 93.9511 82.6813L94.0511 82.7613H89.7511C89.219 81.785 88.5963 80.8609 87.8911 80.0013C87.6611 79.7313 87.4911 79.5112 87.3611 79.3512C87.2972 79.2847 87.2371 79.2146 87.1811 79.1413C87.1811 79.1413 87.2611 79.2013 87.3911 79.3313C87.5211 79.4613 87.7111 79.6712 87.9511 79.9512C88.6855 80.827 89.3288 81.7752 89.8711 82.7812H89.8011H93.9811H94.0711V82.8613C94.5111 84.7713 95.0711 86.9912 95.6511 89.6012V89.7113H95.5511L91.7911 91.5513L91.8711 91.4113C91.8283 92.937 91.5828 94.4502 91.1411 95.9113V95.7412L94.1411 98.6712L94.2411 98.7812L94.1711 98.9013L90.5111 104.771L90.4311 104.911L90.2811 104.851L86.2811 103.481H86.4811C85.369 104.527 84.1211 105.419 82.7711 106.131L82.8811 105.951C82.8811 107.321 82.8811 108.711 82.8811 110.131V110.301H82.7111L76.0011 111.841H75.8311L75.7511 111.671C75.1511 110.441 74.5511 109.181 73.9311 107.911L74.1311 108.041C72.6005 107.991 71.0836 107.735 69.6211 107.281H69.8511L66.9111 110.281L66.7711 110.411L66.6211 110.311L60.7511 106.641L60.5911 106.541L60.6511 106.361L61.3411 104.361L61.6811 103.361L61.8611 102.861L61.9411 102.611V102.491V102.431C62.0411 102.901 61.9411 102.561 61.9911 102.661C60.9405 101.549 60.0487 100.297 59.3411 98.9413L59.5411 99.0612H55.3611H55.1711V98.8812C54.6411 96.5612 54.1111 94.2712 53.6211 92.1312V91.9512L53.7811 91.8713L57.5811 90.0013L57.4611 90.2012C57.5121 88.6715 57.7643 87.1552 58.2111 85.6913L58.2711 85.9113L55.2711 82.9113L55.1411 82.7913L55.2311 82.6413L59.0011 76.8713L59.0911 76.7313H59.2511L63.1911 78.1213H62.9911C64.109 77.0807 65.3599 76.193 66.7111 75.4813L66.6111 75.6513C66.6111 74.1913 66.6111 72.7613 66.6111 71.4713V71.3213H66.7511L73.5011 69.7812H73.6311L73.6911 69.9013C74.3211 71.2313 74.9311 72.5012 75.5011 73.6712L75.3611 73.5912C76.8854 73.6469 78.3954 73.9058 79.8511 74.3613H79.7111L82.7111 71.3613L82.7811 71.2913H82.8611L88.7011 74.9912H88.7511L87.6911 77.9113C87.5711 78.2213 87.4811 78.4713 87.4111 78.6613C87.3411 78.8513 87.1911 79.1612 87.1811 79.1712Z" fill="#E0E0E0"/>
<path d="M326.56 41.6802L297.16 41.5402C296.2 41.5597 295.253 41.7681 294.374 42.1536C293.494 42.5391 292.699 43.0941 292.034 43.7869C291.37 44.4796 290.848 45.2966 290.499 46.1911C290.149 47.0856 289.98 48.0402 290 49.0002V54.3302C290.017 55.2889 289.845 56.2416 289.494 57.1338C289.143 58.0261 288.62 58.8405 287.954 59.5305C287.288 60.2204 286.493 60.7725 285.614 61.1551C284.735 61.5376 283.789 61.7433 282.83 61.7602L225.52 61.5002C223.583 61.4478 221.746 60.6284 220.412 59.222C219.079 57.8156 218.359 55.9374 218.41 54.0002V48.6702C218.461 46.7329 217.741 44.8547 216.407 43.4483C215.074 42.0419 213.237 41.2225 211.3 41.1702H200.96L175.22 41.0002C169.092 40.9762 163.206 43.3847 158.852 47.697C154.499 52.0092 152.034 57.8727 152 64.0002L150.43 435.08C150.403 441.21 152.81 447.101 157.123 451.458C161.435 455.815 167.3 458.283 173.43 458.32L324.77 459.01C330.901 459.037 336.792 456.628 341.148 452.313C345.504 447.999 347.968 442.131 348 436L349.57 64.9202C349.586 61.8832 349.003 58.8728 347.855 56.0611C346.707 53.2493 345.016 50.6913 342.88 48.5331C340.743 46.3749 338.202 44.6589 335.402 43.4831C332.601 42.3072 329.597 41.6946 326.56 41.6802Z" fill="white"/>
<path d="M326.559 41.6811C326.559 41.6811 326.829 41.6811 327.349 41.6811C328.136 41.6884 328.921 41.7519 329.699 41.8711C332.766 42.2431 335.719 43.2659 338.359 44.8711C340.319 46.0228 342.09 47.4698 343.609 49.1611C345.48 51.2124 346.967 53.5834 347.999 56.1611C349.184 59.1469 349.758 62.3396 349.689 65.5511C349.689 68.9611 349.689 72.5511 349.689 76.4511C349.579 107.281 349.419 151.881 349.219 206.981C349.019 262.081 348.749 327.711 348.459 400.581C348.419 409.694 348.382 418.911 348.349 428.231C348.349 430.571 348.349 432.901 348.349 435.231C348.377 437.596 348.071 439.952 347.439 442.231C346.777 444.535 345.765 446.724 344.439 448.721C343.095 450.713 341.472 452.501 339.619 454.031C335.814 457.091 331.145 458.882 326.269 459.151C325.049 459.231 323.849 459.211 322.639 459.201H318.999H311.719L282.259 459.061L221.789 458.791L190.859 458.651L175.239 458.571C169.913 458.851 164.642 457.372 160.239 454.361C155.862 451.293 152.657 446.829 151.149 441.701C150.428 439.16 150.114 436.521 150.219 433.881V426.081C150.259 415.701 150.302 405.391 150.349 395.151C150.436 374.671 150.522 354.508 150.609 334.661C150.779 295.011 150.949 256.761 151.109 220.321C151.269 183.881 151.429 149.261 151.569 116.861C151.642 100.661 151.712 85.0311 151.779 69.9711C151.779 68.0911 151.779 66.2211 151.779 64.3611C151.779 63.4311 151.869 62.4911 151.919 61.5611C151.969 60.6311 152.159 59.7011 152.399 58.8111C153.227 55.2562 154.88 51.946 157.223 49.1475C159.566 46.3491 162.535 44.1408 165.889 42.7011C169.131 41.3215 172.638 40.6728 176.159 40.8011L196.329 40.9011L205.999 41.0011H210.749C212.36 40.9232 213.951 41.3765 215.279 42.2911C216.575 43.2028 217.554 44.4963 218.079 45.9911C218.507 47.4707 218.656 49.0169 218.519 50.5511C218.519 51.3011 218.519 52.0511 218.519 52.8011C218.492 53.5385 218.515 54.2769 218.589 55.0111C218.765 56.4523 219.364 57.8092 220.309 58.9111C221.228 60.0071 222.471 60.7841 223.859 61.1311C224.542 61.3001 225.246 61.3741 225.949 61.3511H228.079H236.429L266.939 61.5211L280.389 61.5911C281.449 61.5911 282.529 61.6511 283.539 61.5911C284.552 61.4759 285.526 61.1341 286.389 60.5911C287.217 60.0712 287.933 59.3912 288.494 58.591C289.056 57.7908 289.452 56.8864 289.659 55.9311C289.827 55.001 289.891 54.0552 289.849 53.1111C289.849 52.1811 289.849 51.2511 289.849 50.3511C289.812 49.449 289.855 48.5454 289.979 47.6511C290.131 46.7841 290.429 45.9491 290.859 45.1811C291.681 43.7094 292.983 42.5654 294.549 41.9411C296.069 41.2911 297.679 41.5011 299.139 41.4711L314.139 41.5711L323.369 41.6311C325.449 41.6311 326.509 41.6311 326.509 41.6311H323.369H314.139H299.139C297.616 41.4795 296.078 41.6394 294.619 42.1011C293.086 42.7052 291.812 43.8266 291.019 45.2711C290.597 46.0196 290.306 46.8346 290.159 47.6811C290.043 48.566 290.003 49.4593 290.039 50.3511C290.039 51.2611 290.039 52.1811 290.039 53.1111C290.079 54.0685 290.016 55.0274 289.849 55.9711C289.637 56.9547 289.231 57.886 288.654 58.7103C288.077 59.5346 287.341 60.2352 286.489 60.7711C285.599 61.3189 284.598 61.6606 283.559 61.7711C282.489 61.8611 281.449 61.7711 280.379 61.7711L266.999 61.7811L236.489 61.6611H228.139H225.999C225.269 61.6871 224.539 61.6131 223.829 61.4411C222.381 61.0778 221.084 60.2699 220.119 59.1311C219.133 57.9802 218.507 56.5648 218.319 55.0611C218.251 54.3131 218.228 53.5618 218.249 52.8111C218.249 52.0611 218.249 51.3111 218.249 50.5611C218.384 49.0639 218.238 47.5546 217.819 46.1111C217.312 44.683 216.376 43.4466 215.139 42.5711C213.866 41.6969 212.341 41.268 210.799 41.3511H206.049H196.339L176.179 41.2611C172.667 41.1137 169.168 41.7715 165.95 43.1841C162.731 44.5967 159.878 46.7266 157.609 49.4111C155.279 52.1946 153.635 55.4862 152.809 59.0211C152.569 59.9011 152.499 60.8211 152.329 61.7211C152.159 62.6211 152.209 63.5511 152.199 64.4811C152.199 66.3411 152.199 68.2111 152.199 70.0911C152.146 85.1311 152.086 100.761 152.019 116.981C151.889 149.381 151.749 183.981 151.609 220.451C151.469 256.921 151.299 295.131 151.139 334.791C151.059 354.611 150.976 374.771 150.889 395.271C150.849 405.511 150.806 415.824 150.759 426.211C150.759 428.798 150.759 431.398 150.759 434.011C150.66 436.596 150.967 439.181 151.669 441.671C153.138 446.653 156.242 450.996 160.479 454.001C164.802 456.948 169.974 458.392 175.199 458.111L190.819 458.191L221.739 458.331L282.209 458.611L311.679 458.751H318.959H322.579C323.789 458.751 324.999 458.751 326.179 458.701C330.948 458.443 335.517 456.694 339.239 453.701C341.059 452.206 342.652 450.454 343.969 448.501C345.261 446.547 346.242 444.405 346.879 442.151C347.508 439.906 347.811 437.582 347.779 435.251V428.251C347.819 418.918 347.859 409.701 347.899 400.601C348.229 327.731 348.529 262.111 348.769 207.001C349.009 151.891 349.259 107.301 349.409 76.4711C349.409 72.6211 349.409 68.9811 349.469 65.5711C349.547 62.378 348.982 59.2018 347.809 56.2311C346.786 53.6981 345.323 51.3656 343.489 49.3411C339.876 45.3725 334.999 42.7786 329.689 42.0011C328.914 41.8805 328.133 41.807 327.349 41.7811L326.559 41.6811Z" fill="#263238"/>
<path d="M299.389 158.512L297.119 155.823L303.879 152.193L272.469 141.562L283.099 172.003L286.969 166.932C286.969 166.932 307.289 202.692 286.969 224.432C266.789 246.022 242.969 241.342 242.969 241.342L247.559 256.342C247.559 256.342 284.999 259.003 305.089 225.163C325.179 191.323 299.389 158.512 299.389 158.512Z" fill="#FF6501"/>
<path d="M205.211 233.551L207.481 236.241L200.711 239.871L232.121 250.501L221.491 220.061L217.631 225.131C217.631 225.131 197.301 189.371 217.631 167.631C237.811 146.041 261.631 150.721 261.631 150.721L257.041 135.721C257.041 135.721 219.591 133.061 199.541 166.881C179.491 200.701 205.211 233.551 205.211 233.551Z" fill="#FF6501"/>
<path d="M299.389 158.512L297.119 155.823L303.879 152.193L272.469 141.562L283.099 172.003L286.969 166.932C286.969 166.932 307.289 202.692 286.969 224.432C266.789 246.022 242.969 241.342 242.969 241.342L247.559 256.342C247.559 256.342 284.999 259.003 305.089 225.163C325.179 191.323 299.389 158.512 299.389 158.512Z" fill="#FF6501"/>
<path d="M205.211 233.551L207.481 236.241L200.711 239.871L232.121 250.501L221.491 220.061L217.631 225.131C217.631 225.131 197.301 189.371 217.631 167.631C237.811 146.041 261.631 150.721 261.631 150.721L257.041 135.721C257.041 135.721 219.591 133.061 199.541 166.881C179.491 200.701 205.211 233.551 205.211 233.551Z" fill="#FF6501"/>
<g opacity="0.8">
<path d="M299.389 158.512L297.119 155.823L303.879 152.193L272.469 141.562L283.099 172.003L286.969 166.932C286.969 166.932 307.289 202.692 286.969 224.432C266.789 246.022 242.969 241.342 242.969 241.342L247.559 256.342C247.559 256.342 284.999 259.003 305.089 225.163C325.179 191.323 299.389 158.512 299.389 158.512Z" fill="white"/>
</g>
<g opacity="0.8">
<path d="M205.211 233.551L207.481 236.241L200.711 239.871L232.121 250.501L221.491 220.061L217.631 225.131C217.631 225.131 197.301 189.371 217.631 167.631C237.811 146.041 261.631 150.721 261.631 150.721L257.041 135.721C257.041 135.721 219.591 133.061 199.541 166.881C179.491 200.701 205.211 233.551 205.211 233.551Z" fill="white"/>
</g>
<path fill-rule="evenodd" clip-rule="evenodd" d="M270.21 178.27C271.698 179.864 272.966 181.65 273.98 183.58H279.98L282.22 193.31L276.79 195.94C276.716 198.119 276.353 200.278 275.71 202.36L280 206.61L274.7 215.07L269 213.07C267.412 214.564 265.629 215.836 263.7 216.85V222.85L254 225.11L251.38 219.67C249.215 219.597 247.07 219.237 245 218.6L240.75 222.88L232.28 217.59L234.28 211.89C232.791 210.301 231.523 208.518 230.51 206.59H224.51L222.27 196.86L227.7 194.24C227.772 192.062 228.135 189.903 228.78 187.82L224.5 183.57L229.79 175.1L235.49 177.1C237.08 175.609 238.862 174.338 240.79 173.32V167.32L250.52 165.07L253.14 170.51C255.319 170.579 257.478 170.942 259.56 171.59L263.81 167.3L272.28 172.6L270.28 178.29L270.21 178.27ZM258.3 186.27C256.504 185.143 254.414 184.575 252.295 184.636C250.176 184.698 248.123 185.387 246.396 186.616C244.669 187.846 243.345 189.56 242.593 191.542C241.841 193.524 241.694 195.685 242.171 197.751C242.648 199.816 243.727 201.694 245.271 203.146C246.816 204.598 248.757 205.559 250.848 205.907C252.94 206.255 255.087 205.974 257.019 205.101C258.95 204.227 260.579 202.8 261.7 201C262.445 199.808 262.949 198.48 263.182 197.093C263.415 195.706 263.372 194.287 263.057 192.916C262.741 191.546 262.158 190.251 261.342 189.105C260.526 187.96 259.492 186.986 258.3 186.24V186.27Z" fill="#FF6501"/>
<g opacity="0.6">
<path fill-rule="evenodd" clip-rule="evenodd" d="M258.3 186.239C256.504 185.116 254.415 184.551 252.298 184.614C250.181 184.678 248.13 185.368 246.405 186.597C244.68 187.826 243.358 189.54 242.607 191.52C241.855 193.501 241.708 195.659 242.183 197.723C242.659 199.788 243.736 201.664 245.278 203.117C246.82 204.569 248.758 205.531 250.847 205.882C252.936 206.232 255.082 205.956 257.014 205.087C258.946 204.218 260.576 202.795 261.7 200.999C262.446 199.807 262.95 198.479 263.182 197.092C263.415 195.705 263.373 194.286 263.057 192.915C262.741 191.545 262.159 190.25 261.342 189.104C260.526 187.959 259.492 186.985 258.3 186.239Z" fill="white"/>
</g>
<path d="M219.688 294.793V288.383H220.867V294.743C220.867 297.403 222.117 298.613 224.287 298.613C226.457 298.613 227.727 297.403 227.727 294.743V288.383H228.878V294.793C228.878 298.013 227.157 299.673 224.287 299.673C221.417 299.673 219.688 298.003 219.688 294.793Z" fill="#263238"/>
<path d="M241.197 292.223C241.197 294.603 239.478 296.043 236.628 296.043H233.628V299.573H232.438V288.383H236.628C239.478 288.383 241.197 289.823 241.197 292.223ZM240.018 292.223C240.018 290.433 238.838 289.403 236.598 289.403H233.598V295.003H236.598C238.838 295.003 239.997 294.003 239.997 292.223H240.018Z" fill="#263238"/>
<path d="M243.758 288.383H248.308C251.888 288.383 254.308 290.683 254.308 293.983C254.308 297.283 251.888 299.573 248.308 299.573H243.758V288.383ZM248.248 298.553C251.248 298.553 253.138 296.663 253.138 293.983C253.138 291.303 251.218 289.403 248.248 289.403H244.938V298.553H248.248Z" fill="#263238"/>
<path d="M263.81 296.581H257.58L256.23 299.581H255L260.12 288.391H261.29L266.4 299.581H265.16L263.81 296.581ZM263.38 295.581L260.7 289.581L258.01 295.581H263.38Z" fill="#263238"/>
<path d="M269.87 289.402H265.93V288.402H275V289.402H271.07V299.572H269.89L269.87 289.402Z" fill="#263238"/>
<path d="M284.777 298.553V299.553H276.867V288.383H284.537V289.383H278.047V293.383H283.837V294.383H278.047V298.543L284.777 298.553Z" fill="#263238"/>
<path d="M335.327 77.6806C335.327 77.7806 331.277 77.9006 326.277 77.9406C321.277 77.9806 317.277 77.9406 317.277 77.8306C317.277 77.7206 321.277 77.6006 326.277 77.5606C331.277 77.5206 335.327 77.5706 335.327 77.6806Z" fill="#263238"/>
<path d="M335.37 82.3113C335.37 82.4213 331.32 82.5413 326.32 82.5813C321.32 82.6213 317.27 82.5813 317.27 82.4613C317.27 82.3413 321.32 82.2413 326.32 82.2013C331.32 82.1613 335.37 82.2113 335.37 82.3113Z" fill="#263238"/>
<path d="M335.411 86.9402C335.411 87.0502 331.361 87.1702 326.361 87.2102C321.361 87.2502 317.301 87.2102 317.301 87.0902C317.301 86.9702 321.351 86.8702 326.361 86.8302C331.371 86.7902 335.411 86.8402 335.411 86.9402Z" fill="#263238"/>
<path d="M170.648 92.2318H171.018H172.018L175.888 92.1418L175.778 92.2518C175.778 91.3918 175.778 90.4618 175.778 89.4518C175.778 88.9218 175.778 88.4518 175.778 87.8318C175.84 87.521 175.999 87.238 176.233 87.024C176.467 86.81 176.763 86.6761 177.078 86.6418C177.698 86.6418 178.248 86.6418 178.928 86.6418C179.28 86.701 179.6 86.8831 179.831 87.156C180.061 87.4288 180.188 87.7745 180.188 88.1318C180.188 89.4418 180.188 90.8118 180.238 92.2218L180.058 92.0518H184.938L184.748 92.2318C184.748 90.2318 184.748 88.2318 184.748 86.1618C184.748 85.6418 184.748 85.1618 184.748 84.6118C184.727 84.3816 184.656 84.1588 184.538 83.9598C184.42 83.7608 184.26 83.5907 184.068 83.4618L181.938 81.3618L179.878 79.3618L178.878 78.3618C178.538 78.0318 178.268 77.6918 177.878 77.6118C177.687 77.5624 177.488 77.5555 177.294 77.5918C177.101 77.6281 176.917 77.7067 176.758 77.8218C176.458 78.0718 176.148 78.4318 175.848 78.7218L173.998 80.3418C172.898 81.4818 171.748 82.5318 170.918 83.5218C170.674 84.0955 170.588 84.7237 170.668 85.3418V87.0618C170.668 88.0618 170.668 89.0618 170.668 89.8218C170.668 90.5818 170.668 91.1118 170.668 91.5918C170.668 92.0718 170.668 92.2218 170.668 92.2318C170.656 92.0387 170.656 91.845 170.668 91.6518C170.668 91.1718 170.668 90.6018 170.668 89.9018C170.668 89.2018 170.668 88.1718 170.598 87.1118C170.598 86.5618 170.598 85.9818 170.598 85.3618C170.598 85.0518 170.598 84.7318 170.598 84.3618C170.595 84.0115 170.685 83.6666 170.858 83.3618C171.768 82.2518 172.858 81.2818 173.948 80.1018L175.688 78.3218C175.998 78.0118 176.258 77.7118 176.628 77.3918C176.826 77.2418 177.056 77.1387 177.301 77.0902C177.545 77.0417 177.797 77.0491 178.038 77.1118C178.502 77.2759 178.911 77.5669 179.218 77.9518L180.218 78.9518L182.278 80.9518L184.418 83.0518C184.617 83.23 184.798 83.4276 184.958 83.6418C185.118 83.8861 185.208 84.1698 185.218 84.4618C185.218 84.9718 185.218 85.4618 185.218 86.0118C185.218 88.1018 185.218 90.1318 185.218 92.0918V92.2818H184.998H180.118H179.948V92.1118C179.948 90.6918 179.948 89.3218 179.948 88.0218C179.953 87.736 179.855 87.4578 179.671 87.2389C179.487 87.02 179.23 86.8754 178.948 86.8318C178.388 86.8318 177.718 86.8318 177.178 86.8318C176.925 86.8547 176.686 86.9585 176.497 87.1279C176.308 87.2972 176.178 87.523 176.128 87.7718C176.128 88.2618 176.128 88.8418 176.128 89.3318V92.3018H176.018H172.088H171.088C170.939 92.295 170.791 92.2715 170.648 92.2318Z" fill="#263238"/>
<path d="M290.5 88.2795C290.5 88.4195 275.26 88.5395 256.5 88.5395C237.74 88.5395 222.5 88.4195 222.5 88.2795C222.5 88.1395 237.74 88.0195 256.5 88.0195C275.26 88.0195 290.5 88.1395 290.5 88.2795Z" fill="#263238"/>
<path d="M288.73 404.331H217.28C212.898 404.331 208.695 402.591 205.595 399.493C202.495 396.395 200.753 392.194 200.75 387.811C200.75 383.427 202.492 379.223 205.592 376.123C208.691 373.023 212.896 371.281 217.28 371.281H288.73C293.114 371.281 297.319 373.023 300.418 376.123C303.518 379.223 305.26 383.427 305.26 387.811C305.257 392.194 303.515 396.395 300.415 399.493C297.315 402.591 293.112 404.331 288.73 404.331Z" fill="#FF6501"/>
<path d="M239.367 390.221L239.967 388.901C240.701 389.412 241.573 389.687 242.467 389.691C243.467 389.691 243.937 389.351 243.937 388.881C243.937 387.461 239.517 388.431 239.517 385.611C239.517 384.321 240.517 383.251 242.717 383.251C243.642 383.229 244.555 383.461 245.357 383.921L244.817 385.251C244.176 384.877 243.449 384.674 242.707 384.661C241.707 384.661 241.267 385.051 241.267 385.531C241.267 386.931 245.677 385.961 245.677 388.751C245.677 390.021 244.627 391.101 242.457 391.101C241.362 391.127 240.285 390.82 239.367 390.221Z" fill="white"/>
<path d="M250.528 390.691C250.115 390.95 249.634 391.079 249.148 391.061C248.865 391.096 248.577 391.068 248.307 390.978C248.036 390.888 247.789 390.739 247.583 390.542C247.377 390.345 247.218 390.104 247.117 389.838C247.015 389.571 246.975 389.285 246.998 389.001V386.601H246.098V385.291H246.998V383.871H248.688V385.291H250.148V386.601H248.688V388.971C248.674 389.072 248.683 389.175 248.714 389.272C248.745 389.369 248.798 389.457 248.868 389.531C248.938 389.605 249.024 389.662 249.119 389.699C249.214 389.735 249.316 389.75 249.418 389.741C249.661 389.747 249.9 389.673 250.098 389.531L250.528 390.691Z" fill="white"/>
<path d="M256.648 387.639V390.999H255.058V390.279C254.861 390.562 254.593 390.787 254.279 390.929C253.966 391.072 253.62 391.127 253.278 391.089C251.908 391.089 251.098 390.329 251.098 389.319C251.098 388.309 251.828 387.569 253.608 387.569H254.998C254.998 386.849 254.568 386.419 253.658 386.419C253.053 386.414 252.463 386.607 251.978 386.969L251.368 385.779C252.12 385.303 252.997 385.059 253.888 385.079C255.608 385.049 256.648 385.869 256.648 387.639ZM254.948 389.129V388.529H253.788C252.998 388.529 252.788 388.819 252.788 389.209C252.788 389.599 253.148 389.919 253.738 389.919C254.005 389.942 254.272 389.877 254.499 389.734C254.726 389.592 254.901 389.379 254.998 389.129H254.948Z" fill="white"/>
<path d="M261.788 385.053V386.613H261.418C261.202 386.593 260.984 386.622 260.781 386.697C260.578 386.773 260.394 386.894 260.244 387.051C260.094 387.208 259.982 387.396 259.915 387.603C259.848 387.809 259.828 388.028 259.858 388.243V391.003H258.168V385.173H259.788V385.943C260.023 385.642 260.328 385.403 260.677 385.248C261.026 385.093 261.407 385.026 261.788 385.053Z" fill="white"/>
<path d="M266.769 390.69C266.356 390.949 265.875 391.078 265.389 391.06C265.101 391.099 264.808 391.072 264.532 390.982C264.256 390.892 264.004 390.741 263.795 390.54C263.585 390.34 263.424 390.094 263.322 389.822C263.221 389.55 263.182 389.259 263.209 388.97V386.57H262.309V385.26H263.209V383.84H264.909V385.26H266.359V386.57H264.909V388.94C264.895 389.04 264.904 389.142 264.934 389.238C264.965 389.334 265.017 389.422 265.086 389.496C265.155 389.57 265.239 389.627 265.333 389.664C265.427 389.701 265.528 389.717 265.629 389.71C265.875 389.714 266.116 389.641 266.319 389.5L266.769 390.69Z" fill="white"/>
<path d="M320.91 325.932C320.91 326.072 290.19 326.192 252.3 326.192C214.41 326.192 183.68 326.072 183.68 325.932C183.68 325.792 214.4 325.672 252.3 325.672C290.2 325.672 320.91 325.782 320.91 325.932Z" fill="#263238"/>
<path d="M293.57 334.342C293.57 334.482 275.09 334.602 252.3 334.602C229.51 334.602 211.02 334.482 211.02 334.342C211.02 334.202 229.5 334.082 252.3 334.082C275.1 334.082 293.57 334.192 293.57 334.342Z" fill="#263238"/>
<path d="M103.701 458.238L97.6211 480.708L117.371 482.508L121.521 461.118L103.701 458.238Z" fill="#FF6501"/>
<path d="M117.941 480.679C116.977 480.74 116.009 480.707 115.051 480.579C113.271 480.439 110.821 480.169 108.121 479.819L101.221 478.889C100.258 478.816 99.3035 478.652 98.3711 478.399C99.3357 478.339 100.304 478.376 101.261 478.509C103.041 478.649 105.491 478.929 108.191 479.269L115.091 480.189C116.054 480.269 117.007 480.433 117.941 480.679Z" fill="#263238"/>
<g opacity="0.6">
<path d="M97.6211 480.709L117.371 482.509L117.691 480.859L98.1911 478.379L97.6411 480.479" fill="white"/>
</g>
<path d="M107.43 479.708C107.909 476.807 108.536 473.934 109.31 471.098C109.933 468.225 110.711 465.387 111.64 462.598C111.161 465.498 110.533 468.372 109.76 471.208C109.131 474.079 108.353 476.917 107.43 479.708Z" fill="#263238"/>
<path d="M116.848 480.53C117.16 479.158 117.16 477.732 116.848 476.36C116.502 474.882 115.755 473.529 114.688 472.45C113.359 471.155 111.625 470.357 109.778 470.19C107.93 469.993 106.07 470.415 104.488 471.39C103.209 472.208 102.154 473.332 101.418 474.66C100.76 475.906 100.337 477.262 100.168 478.66C100.168 478.66 100.168 478.55 100.168 478.36C100.147 478.074 100.147 477.786 100.168 477.5C100.3 476.452 100.619 475.436 101.108 474.5C101.847 473.074 102.947 471.868 104.298 471C105.952 469.953 107.911 469.495 109.858 469.7C111.632 469.838 113.312 470.555 114.64 471.74C115.967 472.925 116.869 474.513 117.208 476.26C117.421 477.299 117.421 478.371 117.208 479.41C117.148 479.689 117.068 479.963 116.968 480.23C116.908 480.44 116.858 480.54 116.848 480.53Z" fill="#263238"/>
<path d="M185.22 452.211L183.9 472.211C183.9 472.211 203.76 478.801 203.9 482.521L165.09 482.801L165.87 451.621L185.22 452.211Z" fill="#FF6501"/>
<g opacity="0.6">
<path d="M172.001 470.129C171.625 470.23 171.299 470.467 171.087 470.793C170.875 471.12 170.791 471.514 170.851 471.899C170.938 472.28 171.168 472.613 171.494 472.829C171.82 473.045 172.216 473.128 172.601 473.059C173.001 472.95 173.346 472.696 173.568 472.346C173.79 471.997 173.873 471.577 173.801 471.169C173.668 470.782 173.391 470.462 173.028 470.276C172.664 470.089 172.242 470.051 171.851 470.169" fill="white"/>
</g>
<g opacity="0.6">
<path d="M165.07 482.759L165.15 479.609L202.63 480.609C203.028 480.813 203.369 481.112 203.622 481.481C203.876 481.849 204.033 482.275 204.08 482.719L165.07 482.759Z" fill="white"/>
</g>
<path d="M184.541 472.001C184.541 472.191 183.541 472.251 182.621 472.831C181.701 473.411 181.151 474.191 180.981 474.111C180.811 474.031 181.121 472.951 182.291 472.261C183.461 471.571 184.581 471.821 184.541 472.001Z" fill="#263238"/>
<path d="M188.549 473.799C188.549 473.979 187.759 474.279 187.089 475.059C186.419 475.839 186.209 476.689 186.029 476.669C185.849 476.649 185.749 475.579 186.599 474.669C187.449 473.759 188.549 473.619 188.549 473.799Z" fill="#263238"/>
<path d="M190.721 478.74C190.541 478.74 190.311 477.82 190.831 476.8C191.351 475.78 192.241 475.39 192.321 475.55C192.401 475.71 191.831 476.25 191.421 477.09C191.011 477.93 190.911 478.73 190.721 478.74Z" fill="#263238"/>
<path d="M184.331 467.411C184.251 467.581 183.391 467.301 182.331 467.341C181.271 467.381 180.421 467.691 180.331 467.521C180.241 467.351 181.061 466.711 182.331 466.681C183.601 466.651 184.431 467.271 184.331 467.411Z" fill="#263238"/>
<path d="M184.519 463.378C183.878 463.531 183.207 463.507 182.579 463.308C181.887 463.164 181.215 462.936 180.579 462.628C180.201 462.439 179.834 462.228 179.479 461.998C179.267 461.87 179.075 461.712 178.909 461.528C178.79 461.391 178.719 461.219 178.709 461.038C178.698 460.857 178.747 460.678 178.849 460.528C178.946 460.395 179.074 460.288 179.223 460.216C179.371 460.145 179.534 460.111 179.699 460.118C179.944 460.123 180.186 460.163 180.419 460.238C180.832 460.352 181.233 460.502 181.619 460.688C182.263 461.004 182.853 461.419 183.369 461.918C184.249 462.778 184.529 463.498 184.469 463.528C184.409 463.558 183.959 462.988 183.059 462.268C182.536 461.865 181.965 461.529 181.359 461.268C181.005 461.11 180.636 460.987 180.259 460.898C179.849 460.778 179.499 460.758 179.389 460.898C179.279 461.038 179.389 460.998 179.389 461.118C179.516 461.253 179.661 461.371 179.819 461.468C180.139 461.693 180.473 461.897 180.819 462.078C181.413 462.397 182.035 462.658 182.679 462.858C183.304 462.986 183.919 463.159 184.519 463.378Z" fill="#263238"/>
<path d="M184.269 463.651C183.921 463.082 183.76 462.417 183.809 461.751C183.789 460.6 184.087 459.465 184.669 458.471C184.783 458.219 184.959 457.999 185.181 457.835C185.404 457.67 185.665 457.566 185.939 457.531C186.113 457.536 186.281 457.592 186.423 457.692C186.565 457.791 186.675 457.93 186.739 458.091C186.831 458.322 186.892 458.564 186.919 458.811C186.98 459.246 186.98 459.687 186.919 460.121C186.79 460.851 186.485 461.537 186.029 462.121C185.239 463.121 184.439 463.311 184.429 463.241C184.419 463.171 185.039 462.801 185.649 461.851C185.999 461.303 186.228 460.685 186.319 460.041C186.369 459.67 186.369 459.293 186.319 458.921C186.269 458.511 186.119 458.171 185.969 458.211C185.819 458.251 185.439 458.501 185.269 458.821C185.068 459.138 184.897 459.472 184.759 459.821C184.522 460.441 184.374 461.09 184.319 461.751C184.189 462.901 184.369 463.621 184.269 463.651Z" fill="#263238"/>
<path d="M185.22 278.831L126.09 278.391L97.5195 466.071L122.06 469.181L153.51 314.861L162.92 469.731L162.95 470.191L189.49 469.731L185.22 278.831Z" fill="#263238"/>
<path d="M158.33 294C158.735 293.95 159.142 293.923 159.55 293.92L163.11 293.79L175.89 293.43H176.13V293.68C176.13 297.39 176.13 301.53 176.13 305.94V306.05L176.04 306.13L173.82 308.13L167.26 314.13L167.08 314.29L166.91 314.14L158.16 306.34L158.09 306.28V306.18C158.09 302.46 158.17 299.39 158.2 297.18C158.2 296.18 158.2 295.37 158.25 294.76C158.243 294.485 158.26 294.211 158.3 293.94C158.315 294.239 158.315 294.54 158.3 294.84C158.3 295.46 158.3 296.29 158.36 297.31C158.36 299.48 158.42 302.5 158.47 306.17L158.4 306.02L167.21 313.74H166.86L173.41 307.74L175.64 305.74L175.55 305.94C175.55 301.53 175.55 297.39 175.55 293.68L175.8 293.92L163.16 294.04H158.58C158.496 294.033 158.412 294.02 158.33 294Z" fill="#455A64"/>
<path d="M130.5 293.23C130.863 293.206 131.227 293.206 131.59 293.23L134.77 293.49L146.27 294.49H146.51V294.73C146.08 298.36 145.58 302.49 145.06 306.9V307.01L144.98 307.08L142.43 309.08L136.14 314.08L135.93 314.24L135.77 314.04L128.9 305.34L128.84 305.27V305.18C129.34 301.5 129.75 298.47 130.04 296.28C130.19 295.28 130.3 294.49 130.39 293.87C130.41 293.599 130.46 293.331 130.54 293.07C130.534 293.371 130.51 293.672 130.47 293.97C130.41 294.597 130.33 295.417 130.23 296.43L129.23 305.24V305.08C131.23 307.59 133.61 310.52 136.18 313.71H135.81L142.09 308.71L144.64 306.71L144.54 306.88C145.09 302.48 145.61 298.35 146.06 294.72L146.27 294.98L134.94 293.72L131.72 293.33C131.311 293.322 130.904 293.289 130.5 293.23Z" fill="#455A64"/>
<path d="M166.68 321.708C165.75 321.355 164.853 320.92 164 320.408C162.37 319.558 160.12 318.408 157.61 317.138C155.1 315.868 152.82 314.798 151.16 314.008C150.238 313.628 149.348 313.173 148.5 312.648C149.468 312.886 150.41 313.221 151.31 313.648C153.02 314.348 155.31 315.388 157.86 316.648C160.41 317.908 162.6 319.138 164.18 320.078C165.063 320.542 165.9 321.088 166.68 321.708Z" fill="#455A64"/>
<path d="M165.921 326.269C165.213 326.139 164.536 325.882 163.921 325.509C160.797 323.908 158.239 321.388 156.591 318.289C156.208 317.676 155.94 316.998 155.801 316.289C156.991 318.386 158.428 320.333 160.081 322.089C161.859 323.703 163.819 325.106 165.921 326.269Z" fill="#455A64"/>
<path d="M182.611 380.501C182.574 380.846 182.483 381.184 182.341 381.501C182.019 382.372 181.607 383.206 181.111 383.991C179.473 386.62 177.061 388.677 174.207 389.88C171.353 391.083 168.196 391.373 165.171 390.711C164.264 390.519 163.379 390.234 162.531 389.861C162.211 389.743 161.911 389.578 161.641 389.371C162.823 389.764 164.025 390.098 165.241 390.371C168.189 390.916 171.232 390.586 173.996 389.422C176.759 388.258 179.121 386.311 180.791 383.821C182.081 381.861 182.511 380.461 182.611 380.501Z" fill="#455A64"/>
<path d="M178.72 378.898C178.032 379.362 177.267 379.7 176.46 379.898C174.555 380.498 172.577 380.835 170.58 380.898C168.594 380.972 166.605 380.855 164.64 380.548C163.817 380.466 163.008 380.282 162.23 379.998C162.23 379.808 165.97 380.528 170.56 380.358C172.517 380.298 174.461 380.03 176.36 379.558C177.81 379.168 178.69 378.818 178.72 378.898Z" fill="#455A64"/>
<path d="M134.76 380C134.167 380.716 133.473 381.342 132.7 381.86C130.898 383.199 128.915 384.276 126.81 385.06C124.705 385.843 122.5 386.327 120.26 386.5C119.335 386.612 118.399 386.589 117.48 386.43C117.48 386.34 118.54 386.33 120.22 386.12C124.607 385.572 128.806 384.007 132.48 381.55C133.213 380.994 133.974 380.476 134.76 380Z" fill="#455A64"/>
<path d="M129.569 379.788C127.814 380.316 125.968 380.47 124.149 380.238C122.316 380.172 120.515 379.729 118.859 378.938C118.859 378.778 121.239 379.468 124.189 379.698C127.139 379.928 129.549 379.628 129.569 379.788Z" fill="#455A64"/>
<path d="M153.161 316.16C152.326 316.665 151.433 317.068 150.501 317.36C148.289 318.165 146.006 318.758 143.681 319.13C141.368 319.504 139.024 319.655 136.681 319.58C135.706 319.593 134.732 319.488 133.781 319.27C134.745 319.182 135.714 319.159 136.681 319.2C141.344 319.137 145.972 318.396 150.421 317C151.315 316.661 152.231 316.38 153.161 316.16Z" fill="#455A64"/>
<path d="M151.54 310.098C151.69 310.098 151.82 310.558 151.83 311.098C151.84 311.638 151.72 312.098 151.57 312.098C151.42 312.098 151.3 311.638 151.29 311.098C151.28 310.558 151.39 310.098 151.54 310.098Z" fill="#455A64"/>
<path d="M151.55 305.938C151.7 305.938 151.82 306.408 151.81 306.938C151.8 307.467 151.69 307.938 151.54 307.938C151.39 307.938 151.27 307.467 151.27 306.938C151.27 306.408 151.4 305.938 151.55 305.938Z" fill="#455A64"/>
<path d="M151.628 301.789C151.778 301.789 151.888 302.259 151.878 302.789C151.868 303.319 151.728 303.789 151.578 303.789C151.428 303.789 151.318 303.319 151.338 302.789C151.358 302.259 151.488 301.779 151.628 301.789Z" fill="#455A64"/>
<path d="M151.799 297.629C151.949 297.629 152.049 298.109 152.019 298.679C151.989 299.249 151.859 299.679 151.709 299.679C151.559 299.679 151.459 299.199 151.479 298.679C151.499 298.159 151.649 297.619 151.799 297.629Z" fill="#455A64"/>
<path d="M152.049 293.481C152.199 293.481 152.289 293.961 152.249 294.541C152.209 295.121 152.059 295.541 151.909 295.541C151.759 295.541 151.669 295.051 151.709 294.481C151.749 293.911 151.899 293.471 152.049 293.481Z" fill="#455A64"/>
<path d="M152.369 289.34C152.519 289.34 152.599 289.821 152.559 290.391C152.519 290.961 152.349 291.391 152.199 291.391C152.049 291.391 151.969 290.9 152.019 290.33C152.069 289.76 152.229 289.32 152.369 289.34Z" fill="#455A64"/>
<path d="M152.699 285.938C152.849 285.938 152.939 286.268 152.899 286.628C152.859 286.988 152.719 287.278 152.569 287.268C152.419 287.258 152.329 286.938 152.369 286.578C152.409 286.218 152.549 285.928 152.699 285.938Z" fill="#455A64"/>
<path d="M119.27 465.06C119.42 465.06 119.45 465.57 119.33 466.14C119.21 466.71 119.01 467.14 118.86 467.14C118.71 467.14 118.69 466.63 118.8 466.07C118.91 465.51 119.13 465 119.27 465.06Z" fill="#455A64"/>
<path d="M120.091 461C120.231 461 120.261 461.51 120.151 462.07C120.041 462.63 119.831 463.07 119.681 463.07C119.531 463.07 119.511 462.56 119.621 461.99C119.731 461.42 119.941 461 120.091 461Z" fill="#455A64"/>
<path d="M120.9 456.908C121.05 456.908 121.08 457.418 120.96 457.978C120.84 458.538 120.64 458.978 120.5 458.978C120.36 458.978 120.32 458.468 120.43 457.908C120.54 457.348 120.76 456.878 120.9 456.908Z" fill="#455A64"/>
<path d="M121.719 452.829C121.869 452.829 121.889 453.339 121.779 453.909C121.669 454.479 121.459 454.909 121.309 454.909C121.159 454.909 121.139 454.399 121.249 453.839C121.359 453.279 121.569 452.809 121.719 452.829Z" fill="#455A64"/>
<path d="M122.531 448.759C122.681 448.759 122.711 449.269 122.601 449.829C122.491 450.389 122.271 450.829 122.131 450.829C121.991 450.829 121.951 450.319 122.071 449.749C122.191 449.179 122.391 448.729 122.531 448.759Z" fill="#455A64"/>
<path d="M123.348 444.681C123.498 444.681 123.518 445.191 123.408 445.751C123.298 446.311 123.088 446.751 122.938 446.751C122.788 446.751 122.768 446.241 122.878 445.681C122.988 445.121 123.198 444.651 123.348 444.681Z" fill="#455A64"/>
<path d="M124.17 440.611C124.31 440.611 124.34 441.111 124.23 441.681C124.12 442.251 123.9 442.681 123.76 442.681C123.62 442.681 123.58 442.171 123.7 441.611C123.82 441.051 124 440.581 124.17 440.611Z" fill="#455A64"/>
<path d="M125.001 436.529C125.151 436.529 125.171 437.039 125.061 437.599C124.951 438.159 124.741 438.599 124.591 438.599C124.441 438.599 124.421 438.089 124.531 437.519C124.641 436.949 124.831 436.499 125.001 436.529Z" fill="#455A64"/>
<path d="M125.798 432.451C125.938 432.451 125.968 432.961 125.858 433.521C125.748 434.081 125.538 434.521 125.388 434.521C125.238 434.521 125.208 434.011 125.328 433.451C125.448 432.891 125.648 432.421 125.798 432.451Z" fill="#455A64"/>
<path d="M126.61 428.38C126.76 428.38 126.79 428.88 126.67 429.45C126.55 430.02 126.35 430.45 126.2 430.45C126.05 430.45 126.03 429.94 126.14 429.38C126.25 428.82 126.47 428.35 126.61 428.38Z" fill="#455A64"/>
<path d="M127.43 424.298C127.57 424.298 127.6 424.808 127.49 425.368C127.38 425.928 127.17 426.368 127.02 426.368C126.87 426.368 126.85 425.858 126.96 425.288C127.07 424.718 127.28 424.268 127.43 424.298Z" fill="#455A64"/>
<path d="M128.24 420.22C128.39 420.22 128.42 420.73 128.3 421.29C128.18 421.85 127.98 422.29 127.84 422.29C127.7 422.29 127.66 421.78 127.77 421.22C127.88 420.66 128.1 420.19 128.24 420.22Z" fill="#455A64"/>
<path d="M129.059 416.15C129.199 416.15 129.229 416.66 129.119 417.22C129.009 417.78 128.799 418.22 128.649 418.22C128.499 418.22 128.479 417.71 128.589 417.15C128.699 416.59 128.909 416.12 129.059 416.15Z" fill="#455A64"/>
<path d="M129.869 412.069C130.019 412.069 130.049 412.579 129.939 413.139C129.829 413.699 129.609 414.139 129.469 414.139C129.329 414.139 129.289 413.629 129.399 413.069C129.509 412.509 129.729 411.999 129.869 412.069Z" fill="#455A64"/>
<path d="M130.688 408C130.838 408 130.858 408.51 130.748 409.08C130.638 409.65 130.428 410.08 130.278 410.08C130.128 410.08 130.108 409.57 130.218 409.01C130.328 408.45 130.538 408 130.688 408Z" fill="#455A64"/>
<path d="M131.5 403.919C131.65 403.919 131.68 404.429 131.57 404.989C131.46 405.549 131.24 405.989 131.1 405.989C130.96 405.989 130.92 405.489 131.04 404.919C131.16 404.349 131.36 403.889 131.5 403.919Z" fill="#455A64"/>
<path d="M132.321 399.841C132.471 399.841 132.491 400.351 132.381 400.911C132.271 401.471 132.061 401.911 131.911 401.911C131.761 401.911 131.741 401.401 131.851 400.841C131.961 400.281 132.171 399.811 132.321 399.841Z" fill="#455A64"/>
<path d="M133.139 395.759C133.279 395.759 133.309 396.269 133.199 396.839C133.089 397.409 132.869 397.839 132.729 397.839C132.589 397.839 132.549 397.329 132.669 396.769C132.789 396.209 132.999 395.729 133.139 395.759Z" fill="#455A64"/>
<path d="M134.001 391.689C134.151 391.689 134.181 392.199 134.061 392.759C133.941 393.319 133.741 393.759 133.591 393.759C133.441 393.759 133.421 393.249 133.531 392.679C133.641 392.109 133.801 391.659 134.001 391.689Z" fill="#455A64"/>
<path d="M134.771 387.611C134.911 387.611 134.941 388.121 134.831 388.681C134.721 389.241 134.511 389.681 134.361 389.681C134.211 389.681 134.181 389.171 134.301 388.611C134.421 388.051 134.621 387.581 134.771 387.611Z" fill="#455A64"/>
<path d="M135.579 383.529C135.729 383.529 135.759 384.039 135.639 384.609C135.519 385.179 135.319 385.609 135.169 385.609C135.019 385.609 134.999 385.099 135.109 384.539C135.219 383.979 135.439 383.499 135.579 383.529Z" fill="#455A64"/>
<path d="M136.399 379.458C136.539 379.458 136.569 379.968 136.459 380.528C136.349 381.088 136.139 381.528 135.989 381.528C135.839 381.528 135.819 381.018 135.929 380.448C136.039 379.878 136.249 379.428 136.399 379.458Z" fill="#455A64"/>
<path d="M137.209 375.38C137.359 375.38 137.389 375.89 137.269 376.45C137.149 377.01 136.949 377.45 136.809 377.45C136.669 377.45 136.629 376.94 136.739 376.38C136.849 375.82 137.069 375.35 137.209 375.38Z" fill="#455A64"/>
<path d="M138.001 371.298C138.151 371.298 138.171 371.808 138.061 372.378C137.951 372.948 137.741 373.378 137.591 373.378C137.441 373.378 137.421 372.868 137.531 372.308C137.641 371.748 137.881 371.268 138.001 371.298Z" fill="#455A64"/>
<path d="M138.838 367.228C138.988 367.228 139.018 367.738 138.908 368.298C138.798 368.858 138.578 369.298 138.438 369.298C138.298 369.298 138.258 368.788 138.368 368.218C138.478 367.648 138.698 367.198 138.838 367.228Z" fill="#455A64"/>
<path d="M139.661 363.15C139.811 363.15 139.831 363.66 139.721 364.22C139.611 364.78 139.401 365.22 139.251 365.22C139.101 365.22 139.081 364.71 139.191 364.15C139.301 363.59 139.511 363.12 139.661 363.15Z" fill="#455A64"/>
<path d="M140.479 359.071C140.619 359.071 140.649 359.581 140.539 360.151C140.429 360.721 140.209 361.151 140.069 361.151C139.929 361.151 139.889 360.641 140.009 360.081C140.129 359.521 140.329 359.051 140.479 359.071Z" fill="#455A64"/>
<path d="M141.29 355C141.44 355 141.46 355.51 141.35 356.07C141.24 356.63 141.03 357.07 140.88 357.07C140.73 357.07 140.71 356.56 140.82 355.99C140.93 355.42 141.14 355 141.29 355Z" fill="#455A64"/>
<path d="M142.111 350.919C142.251 350.919 142.281 351.429 142.171 351.989C142.061 352.549 141.841 352.989 141.701 352.989C141.561 352.989 141.521 352.479 141.641 351.919C141.761 351.359 142.001 350.889 142.111 350.919Z" fill="#455A64"/>
<path d="M142.919 346.849C143.069 346.849 143.099 347.349 142.979 347.919C142.859 348.489 142.659 348.919 142.509 348.919C142.359 348.919 142.339 348.409 142.449 347.849C142.559 347.289 142.779 346.819 142.919 346.849Z" fill="#455A64"/>
<path d="M143.739 342.771C143.879 342.771 143.909 343.281 143.799 343.841C143.689 344.401 143.479 344.841 143.329 344.841C143.179 344.841 143.159 344.331 143.269 343.761C143.379 343.191 143.589 342.741 143.739 342.771Z" fill="#455A64"/>
<path d="M144.548 338.689C144.698 338.689 144.728 339.199 144.608 339.759C144.488 340.319 144.288 340.759 144.138 340.759C143.988 340.759 143.968 340.249 144.078 339.689C144.188 339.129 144.408 338.659 144.548 338.689Z" fill="#455A64"/>
<path d="M145.368 334.619C145.508 334.619 145.538 335.129 145.428 335.689C145.318 336.249 145.108 336.689 144.958 336.689C144.808 336.689 144.788 336.179 144.898 335.619C145.008 335.059 145.218 334.589 145.368 334.619Z" fill="#455A64"/>
<path d="M146.178 330.54C146.328 330.54 146.358 331.05 146.248 331.61C146.138 332.17 145.918 332.61 145.778 332.61C145.638 332.61 145.598 332.1 145.708 331.54C145.818 330.98 145.998 330.51 146.178 330.54Z" fill="#455A64"/>
<path d="M147.001 326.458C147.151 326.458 147.171 326.968 147.061 327.528C146.951 328.088 146.741 328.528 146.591 328.528C146.441 328.528 146.421 328.018 146.531 327.458C146.641 326.898 146.851 326.428 147.001 326.458Z" fill="#455A64"/>
<path d="M147.808 322.388C147.958 322.388 147.988 322.898 147.878 323.458C147.768 324.018 147.548 324.458 147.408 324.458C147.268 324.458 147.228 323.958 147.348 323.388C147.468 322.818 147.668 322.358 147.808 322.388Z" fill="#455A64"/>
<path d="M148.63 318.31C148.78 318.31 148.8 318.82 148.69 319.38C148.58 319.94 148.37 320.38 148.22 320.38C148.07 320.38 148.05 319.87 148.16 319.31C148.27 318.75 148.48 318.28 148.63 318.31Z" fill="#455A64"/>
<path d="M230.141 192.589C230.141 192.589 237.061 182.219 237.251 182.129C237.251 182.129 243.491 171.609 245.571 171.609C247.651 171.609 246.901 173.739 244.751 177.509C243.72 179.149 243.018 180.973 242.681 182.879L247.811 185.969C247.811 185.969 251.241 184.649 251.381 187.839C251.331 189.302 251.133 190.756 250.791 192.179C250.581 193.319 250.071 194.529 248.991 194.099C248.723 194.01 248.49 193.838 248.327 193.608C248.163 193.378 248.077 193.102 248.081 192.819C248.011 190.929 248.361 190.229 248.081 190.229C247.801 190.229 244.391 200.139 244.391 200.139L230.141 192.589Z" fill="#FFBE9D"/>
<path d="M244.109 184.448C244.625 184.061 245.178 183.726 245.759 183.448C246.342 183.174 246.991 183.074 247.629 183.158C247.87 183.179 248.102 183.258 248.305 183.387C248.509 183.517 248.679 183.693 248.8 183.902C248.922 184.111 248.991 184.345 249.003 184.586C249.015 184.828 248.969 185.068 248.869 185.288C248.664 185.801 248.377 186.277 248.019 186.698" fill="#FFBE9D"/>
<path d="M241.77 182.361C242.26 182.003 242.782 181.692 243.33 181.431C243.882 181.174 244.496 181.08 245.1 181.161C245.486 181.202 245.843 181.388 246.1 181.681C246.251 181.893 246.347 182.139 246.38 182.397C246.413 182.655 246.382 182.917 246.29 183.161C245.824 183.897 245.288 184.587 244.69 185.221" fill="#FFBE9D"/>
<path d="M232.559 186.738L222.559 208.118L233.559 219.388L239.299 203.448C239.299 203.448 242.379 204.058 243.639 202.018C245.039 199.738 246.879 193.158 246.879 193.158L232.559 186.738Z" fill="#FFBE9D"/>
<path d="M239.699 186.148C239.78 185.051 240.191 184.005 240.879 183.148C241.335 182.521 241.922 182.003 242.599 181.628C243.109 181.358 243.459 181.258 243.489 181.318C243.519 181.378 242.289 182.118 241.319 183.468C240.349 184.818 239.869 186.218 239.699 186.148Z" fill="#EB996E"/>
<path d="M250.79 186.241C250.79 186.311 250.4 186.121 249.79 186.021C249.046 185.885 248.277 186.005 247.61 186.361C246.96 186.784 246.411 187.343 246 188.001C245.65 188.501 245.41 188.811 245.34 188.771C245.27 188.731 245.39 188.371 245.68 187.771C246.046 186.989 246.634 186.332 247.37 185.881C247.756 185.673 248.18 185.545 248.616 185.505C249.053 185.466 249.493 185.515 249.91 185.651C250.55 185.871 250.83 186.191 250.79 186.241Z" fill="#EB996E"/>
<path d="M247.068 183.221C246.243 183.605 245.456 184.067 244.718 184.601C243.598 185.601 243.048 186.751 242.898 186.681C243.041 185.695 243.565 184.804 244.358 184.201C244.878 183.719 245.511 183.375 246.198 183.201C246.728 183.121 247.058 183.161 247.068 183.221Z" fill="#EB996E"/>
<path d="M249.528 187.838C249.668 187.788 249.928 188.618 249.398 189.438C248.868 190.258 248.018 190.438 248.008 190.248C247.998 190.058 248.548 189.808 248.948 189.158C249.348 188.508 249.368 187.858 249.528 187.838Z" fill="#EB996E"/>
<path d="M230.171 192.178C230.171 192.178 229.821 185.798 231.361 184.348C232.901 182.898 237.361 184.408 237.361 184.408" fill="#FFBE9D"/>
<path d="M237.998 181.371C237.389 182.672 236.62 183.891 235.708 185.001C234.941 186.215 234.028 187.33 232.988 188.321C234.353 185.801 236.033 183.466 237.988 181.371H237.998Z" fill="#EB996E"/>
<path d="M149.431 132.998L149.281 182.788L170.641 183.788L171.261 171.678C171.261 171.678 178.851 173.188 180.801 166.138C182.061 161.638 181.741 126.848 181.741 126.848L149.431 132.998Z" fill="#FFBE9D"/>
<path d="M184.551 130.358C181.191 131.358 180.461 136.828 180.461 136.828L175.181 148.478C172.491 146.378 168.881 146.478 168.181 151.228C167.681 154.638 171.931 155.328 171.931 155.328C169.461 159.538 167.781 162.938 164.181 166.938C160.291 171.268 158.111 171.698 153.881 171.768H149.231C149.231 171.768 146.951 164.368 142.731 145.868C138.041 125.338 162.321 127.978 166.821 122.738C174.171 114.208 195.161 127.328 184.551 130.358Z" fill="#263238"/>
<path d="M143.19 147.799C139.25 145.159 138.9 137.799 141.19 133.329C142.367 131.116 144.108 129.254 146.236 127.93C148.364 126.606 150.804 125.867 153.31 125.789C153.984 125.834 154.661 125.76 155.31 125.569C156.184 125.107 156.917 124.415 157.43 123.569C160.95 118.999 164.43 114.509 170.96 114.509C172.401 114.437 173.832 114.785 175.08 115.509C176.243 116.302 177.114 117.454 177.56 118.789C178.76 118.14 180.051 117.675 181.39 117.409C182.061 117.278 182.752 117.292 183.416 117.453C184.081 117.613 184.703 117.916 185.24 118.339C185.759 118.785 186.104 119.4 186.214 120.075C186.323 120.75 186.191 121.442 185.84 122.029C186.949 122.014 188.027 122.395 188.88 123.105C189.733 123.814 190.304 124.806 190.49 125.899C190.84 128.089 187.71 129.629 187.38 129.799C187.38 129.799 189.1 133.399 185 135.559C183.35 136.419 181.2 135.379 181 135.249" fill="#263238"/>
<path d="M158.788 152.59C159.076 153.839 159.035 155.142 158.668 156.37C158.467 157.636 157.948 158.83 157.158 159.84C157.008 159.77 157.698 158.24 158.158 156.25C158.618 154.26 158.628 152.59 158.788 152.59Z" fill="#455A64"/>
<path d="M161.371 150.148C161.558 151.362 161.49 152.602 161.171 153.788C161.027 155.007 160.647 156.186 160.051 157.258C160.133 156.052 160.33 154.857 160.641 153.688C160.778 152.489 161.022 151.304 161.371 150.148Z" fill="#455A64"/>
<path d="M168.768 141.93C168.768 142 168.218 142.44 167.448 143.34C166.457 144.531 165.679 145.884 165.148 147.34C164.615 148.797 164.187 150.291 163.868 151.81C163.776 152.46 163.598 153.096 163.338 153.7C163.29 153.029 163.34 152.355 163.488 151.7C163.704 150.129 164.089 148.587 164.638 147.1C165.199 145.607 166.06 144.246 167.168 143.1C167.595 142.582 168.145 142.179 168.768 141.93Z" fill="#455A64"/>
<path d="M171.761 136.328C172.006 136.738 172.15 137.201 172.181 137.678C172.492 139.971 171.908 142.295 170.551 144.168C170.031 144.868 169.551 145.168 169.551 145.168C170.364 143.85 171.009 142.436 171.471 140.958C171.761 139.433 171.859 137.878 171.761 136.328Z" fill="#455A64"/>
<path d="M146.27 148.77C146.19 148.9 145.54 148.67 144.8 148.26C144.06 147.85 143.53 147.42 143.61 147.26C143.69 147.1 144.33 147.35 145.07 147.76C145.81 148.17 146.34 148.64 146.27 148.77Z" fill="#455A64"/>
<path d="M156.59 143.45C156.677 144.225 156.458 145.003 155.98 145.62C155.32 146.72 154.43 147.28 154.34 147.17C154.25 147.06 154.91 146.35 155.51 145.34C156.11 144.33 156.43 143.42 156.59 143.45Z" fill="#455A64"/>
<path d="M159.759 141.75C159.736 142.694 159.402 143.605 158.809 144.34C157.949 145.64 156.879 146.34 156.809 146.22C157.289 145.464 157.814 144.736 158.379 144.04C158.791 143.249 159.252 142.484 159.759 141.75Z" fill="#455A64"/>
<path d="M175.539 120.901C175.539 120.901 175.129 120.591 174.359 120.151C173.253 119.569 172.027 119.254 170.779 119.231C168.929 119.184 167.106 119.673 165.529 120.641C163.627 121.888 162.086 123.612 161.059 125.641C160.282 127.126 159.672 128.692 159.239 130.311L159.159 130.621L158.869 130.471C157.399 129.699 155.769 129.281 154.109 129.251C152.791 129.219 151.477 129.419 150.229 129.841C149.118 130.252 148.056 130.782 147.059 131.421C147.264 131.178 147.503 130.966 147.769 130.791C148.492 130.268 149.283 129.844 150.119 129.531C151.396 129.047 152.752 128.803 154.119 128.811C155.857 128.808 157.571 129.219 159.119 130.011L158.739 130.181C159.166 128.516 159.784 126.905 160.579 125.381C161.659 123.277 163.282 121.499 165.279 120.231C166.942 119.237 168.863 118.76 170.799 118.861C172.098 118.922 173.36 119.311 174.469 119.991C174.762 120.181 175.037 120.398 175.289 120.641C175.469 120.791 175.549 120.881 175.539 120.901Z" fill="#455A64"/>
<path d="M186.771 123.61C186.771 123.61 187.361 123.45 188.001 124.16C188.361 124.596 188.537 125.156 188.491 125.72C188.435 126.09 188.294 126.443 188.079 126.75C187.864 127.057 187.581 127.31 187.251 127.49C186.463 127.939 185.532 128.068 184.651 127.85C183.679 127.602 182.767 127.16 181.971 126.55C181.135 125.901 180.26 125.303 179.351 124.76C178.367 124.226 177.303 123.851 176.201 123.65C174.051 123.268 171.84 123.419 169.761 124.09C168.061 124.65 166.456 125.466 165.001 126.51C163.675 127.514 162.403 128.589 161.191 129.73C161.429 129.342 161.715 128.986 162.041 128.67C162.877 127.767 163.79 126.941 164.771 126.2C166.231 125.083 167.862 124.212 169.601 123.62C171.756 122.887 174.062 122.715 176.301 123.12C177.46 123.332 178.577 123.727 179.611 124.29C180.535 124.851 181.42 125.472 182.261 126.15C183.002 126.727 183.848 127.155 184.751 127.41C185.525 127.627 186.352 127.537 187.061 127.16C187.35 127.015 187.602 126.807 187.798 126.55C187.993 126.294 188.128 125.996 188.191 125.68C188.255 125.187 188.126 124.689 187.831 124.29C187.568 123.947 187.193 123.706 186.771 123.61Z" fill="#455A64"/>
<path d="M126.688 188L107.608 220C105.468 223.74 103.498 227.72 101.608 231.85C100.889 233.923 100.695 236.141 101.044 238.307C101.393 240.473 102.274 242.518 103.608 244.26L103.068 243.48C104.113 244.772 105.435 245.814 106.935 246.531C108.435 247.247 110.076 247.619 111.738 247.62H112.238C114.407 247.619 116.529 246.984 118.343 245.794C120.156 244.603 121.583 242.91 122.448 240.92L128.578 231.62L126.688 188Z" fill="#FF6501"/>
<path d="M184.26 181.879C179.14 179.259 174.08 178.669 168.56 178.509C162.14 178.319 153.08 177.419 146.15 178.159C146.15 178.159 126.43 179.619 125.06 193.159L127.75 256.659L123.23 283.559L186.46 285.469L186 253.709C186.78 237.199 185.12 213.809 185.12 213.809C186.12 204.929 190.95 200.939 191.64 195.159C192.25 190.059 188.83 184.209 184.26 181.879Z" fill="#FF6501"/>
<path d="M166.439 257.551C166.167 257.882 165.855 258.178 165.509 258.431C164.608 259.178 163.644 259.847 162.629 260.431C159.261 262.366 155.458 263.416 151.574 263.485C147.69 263.553 143.853 262.636 140.419 260.821C139.384 260.281 138.398 259.656 137.469 258.951C137.102 258.709 136.767 258.423 136.469 258.101C136.529 258.011 137.929 259.201 140.549 260.481C143.957 262.165 147.72 263.008 151.521 262.94C155.323 262.873 159.052 261.895 162.399 260.091C164.999 258.701 166.369 257.471 166.439 257.551Z" fill="#263238"/>
<path d="M124.998 193.859C125.044 194.063 125.067 194.271 125.068 194.479C125.068 194.949 125.138 195.529 125.178 196.259C125.248 197.869 125.358 200.079 125.478 202.779C125.718 208.359 126.028 215.949 126.378 224.329C126.728 232.709 127.108 240.329 127.378 245.869C127.518 248.569 127.628 250.779 127.708 252.389C127.708 253.119 127.768 253.699 127.788 254.169C127.812 254.375 127.812 254.583 127.788 254.789C127.732 254.59 127.699 254.386 127.688 254.179C127.638 253.709 127.578 253.129 127.508 252.409C127.358 250.869 127.198 248.639 127.008 245.889C126.628 240.379 126.228 232.769 125.868 224.349C125.508 215.929 125.268 208.349 125.128 202.799C125.128 200.089 125.028 197.879 124.998 196.259C124.998 195.539 124.998 194.949 124.998 194.489C124.975 194.28 124.975 194.069 124.998 193.859Z" fill="#263238"/>
<path d="M120.999 197.228C120.951 197.401 120.877 197.566 120.779 197.718L120.069 199.088C119.429 200.268 118.479 201.958 117.259 204.018C114.859 208.168 111.259 213.728 107.609 220.018C105.779 223.178 104.239 226.298 102.899 229.148C101.635 231.622 101.003 234.37 101.059 237.148C101.155 239.02 101.657 240.849 102.529 242.508C103.149 243.678 103.669 244.218 103.619 244.258C103.479 244.145 103.352 244.017 103.239 243.878C102.906 243.479 102.605 243.054 102.339 242.608C101.373 240.947 100.804 239.085 100.679 237.168C100.559 234.316 101.164 231.481 102.439 228.928C103.769 226.038 105.299 222.928 107.139 219.728C110.799 213.388 114.449 207.878 116.929 203.728C118.149 201.728 119.149 200.108 119.879 198.888C120.209 198.368 120.469 197.888 120.689 197.578C120.909 197.268 120.999 197.218 120.999 197.228Z" fill="#263238"/>
<path d="M237.298 214.659L222.668 205.089L213.428 221.089C213.428 221.089 200.628 203.299 194.818 192.879C189.458 183.279 182.538 180.699 179.198 179.999C178.968 179.952 178.731 179.96 178.505 180.022C178.279 180.084 178.072 180.199 177.899 180.357C177.726 180.515 177.593 180.712 177.511 180.932C177.429 181.151 177.401 181.387 177.428 181.619L182.428 216.219C183.068 218.019 193.628 233.329 199.528 241.029C209.378 253.889 223.888 245.659 227.868 236.659C231.078 229.509 235.998 218.659 237.298 214.659Z" fill="#FF6501"/>
<path d="M217.64 235.52C217.458 234.774 217.364 234.008 217.36 233.24C217.238 231.41 217.001 229.59 216.65 227.79C216.289 226.002 215.659 224.279 214.78 222.68C214.1 221.47 213.51 220.81 213.58 220.75C214.208 221.211 214.73 221.8 215.11 222.48C216.111 224.072 216.813 225.835 217.18 227.68C217.545 229.504 217.732 231.36 217.74 233.22C217.803 233.988 217.769 234.761 217.64 235.52Z" fill="#263238"/>
<path d="M221.92 228.37C221.83 228.37 221.76 227.63 221.4 226.5C220.924 225.035 220.124 223.695 219.06 222.58C218.077 221.407 216.688 220.647 215.17 220.45C214.54 220.455 213.915 220.563 213.32 220.77C213.26 220.77 213.87 220.11 215.18 220.07C216 220.114 216.802 220.326 217.536 220.693C218.271 221.059 218.922 221.572 219.45 222.2C220.578 223.369 221.378 224.814 221.77 226.39C221.977 227.029 222.028 227.708 221.92 228.37Z" fill="#263238"/>
<path d="M178.249 184.268C178.145 184.415 178.024 184.549 177.889 184.668L177.439 185.128C177.279 185.338 177.089 185.558 176.879 185.808C175.724 187.268 174.864 188.939 174.349 190.728C173.579 193.376 173.392 196.16 173.799 198.888C174.003 200.497 174.424 202.071 175.049 203.568C175.758 205.174 176.549 206.742 177.419 208.268C180.999 214.558 184.689 219.998 187.349 223.928C188.669 225.828 189.759 227.388 190.569 228.538C190.984 229.088 191.371 229.659 191.729 230.248C191.729 230.248 191.589 230.128 191.359 229.858C191.129 229.588 190.799 229.198 190.359 228.668C189.529 227.668 188.359 226.078 186.999 224.148C183.407 219.111 180.069 213.898 176.999 208.528C176.117 206.989 175.319 205.403 174.609 203.778C173.96 202.25 173.52 200.643 173.299 198.998C172.911 196.198 173.146 193.346 173.989 190.648C174.546 188.829 175.475 187.147 176.719 185.708L177.329 185.058L177.819 184.628C178.089 184.358 178.229 184.248 178.249 184.268Z" fill="#263238"/>
<path d="M178.281 276.188C178.145 276.272 177.996 276.336 177.841 276.378L176.521 276.837C175.951 277.037 175.251 277.258 174.421 277.478C173.591 277.698 172.651 277.997 171.601 278.217C169.137 278.807 166.644 279.264 164.131 279.587C157.969 280.394 151.729 280.414 145.561 279.647C143.05 279.331 140.557 278.887 138.091 278.318C137.031 278.098 136.091 277.817 135.261 277.587C134.431 277.357 133.731 277.157 133.151 276.957L131.841 276.508C131.541 276.408 131.381 276.338 131.391 276.318C131.554 276.333 131.714 276.363 131.871 276.408L133.211 276.758C133.791 276.918 134.501 277.107 135.341 277.297C136.181 277.487 137.111 277.747 138.171 277.938C140.271 278.398 142.801 278.807 145.621 279.147C148.686 279.484 151.767 279.655 154.851 279.658C157.932 279.634 161.01 279.447 164.071 279.098C166.891 278.748 169.411 278.318 171.511 277.848C172.571 277.648 173.511 277.388 174.341 277.188C175.171 276.988 175.881 276.798 176.461 276.638L177.801 276.277C177.955 276.221 178.117 276.191 178.281 276.188Z" fill="#263238"/>
<g opacity="0.3">
<path d="M123.82 238.91L126.67 234.48L125.18 199.59L123.82 238.91Z" fill="black"/>
</g>
<g opacity="0.3">
<path d="M173.129 197.23C173.129 197.23 173.219 209.94 176.129 214.98C179.039 220.02 185.999 230.9 185.999 230.25C185.999 229.6 185.609 221.25 185.609 221.25C185.609 221.25 173.189 204.34 173.129 197.23Z" fill="black"/>
</g>
<path d="M121.289 240C121.009 240.157 120.698 240.25 120.379 240.27C119.504 240.365 118.619 240.248 117.799 239.93C116.586 239.469 115.495 238.737 114.609 237.79C113.559 236.625 112.662 235.332 111.939 233.94C111.233 232.56 110.445 231.224 109.579 229.94C108.86 228.928 107.978 228.042 106.969 227.32C106.013 226.689 104.937 226.263 103.809 226.07C104.139 226.003 104.479 226.003 104.809 226.07C105.67 226.211 106.494 226.527 107.229 227C108.304 227.712 109.248 228.606 110.019 229.64C110.914 230.918 111.722 232.254 112.439 233.64C113.142 234.995 114.001 236.264 114.999 237.42C115.836 238.335 116.859 239.061 117.999 239.55C119.038 239.983 120.171 240.138 121.289 240Z" fill="white"/>
<path d="M125.16 218.059C125.07 218.059 124.85 217.299 124.24 216.179C123.442 214.719 122.342 213.446 121.015 212.442C119.688 211.439 118.163 210.729 116.54 210.359C115.29 210.079 114.48 210.079 114.48 209.989C115.179 209.837 115.902 209.837 116.6 209.989C118.319 210.271 119.943 210.963 121.336 212.008C122.729 213.053 123.849 214.418 124.6 215.989C124.935 216.63 125.126 217.336 125.16 218.059Z" fill="white"/>
<path d="M173.36 199.328C173.36 199.328 172.67 199.198 171.43 199.098C169.676 198.977 167.914 199.135 166.21 199.568C163.679 200.23 161.24 201.204 158.95 202.468C156.33 203.838 153.56 205.578 150.42 207.018C147.467 208.396 144.282 209.206 141.03 209.408C138.378 209.562 135.718 209.316 133.14 208.678C131.408 208.257 129.731 207.64 128.14 206.838C127.57 206.568 127.14 206.298 126.87 206.138C126.6 205.978 126.44 205.868 126.45 205.848C126.46 205.828 127.09 206.148 128.23 206.648C129.836 207.371 131.511 207.93 133.23 208.318C135.777 208.895 138.394 209.1 141 208.928C144.188 208.699 147.309 207.892 150.21 206.548C153.3 205.128 156.08 203.408 158.73 202.048C161.055 200.778 163.541 199.826 166.12 199.218C167.864 198.801 169.668 198.693 171.45 198.898C171.932 198.954 172.41 199.044 172.88 199.168C173.047 199.197 173.208 199.251 173.36 199.328Z" fill="white"/>
<path d="M185.65 233.929C185.468 234.015 185.277 234.079 185.08 234.119C184.522 234.292 183.954 234.432 183.38 234.539C181.277 234.96 179.132 235.132 176.99 235.049C173.814 234.916 170.659 234.474 167.57 233.729C164.07 232.929 160.31 231.779 156.36 230.619C152.662 229.498 148.884 228.659 145.06 228.109C141.944 227.662 138.782 227.638 135.66 228.039C133.555 228.31 131.498 228.876 129.55 229.719C128.18 230.319 127.45 230.719 127.43 230.719C127.581 230.584 127.749 230.47 127.93 230.379C128.29 230.199 128.77 229.849 129.47 229.549C131.414 228.63 133.483 228.003 135.61 227.689C138.764 227.25 141.965 227.25 145.12 227.689C148.973 228.214 152.779 229.047 156.5 230.179C160.5 231.339 164.21 232.499 167.68 233.319C170.734 234.087 173.855 234.562 177 234.739C179.122 234.852 181.251 234.738 183.35 234.399C184.83 234.089 185.64 233.879 185.65 233.929Z" fill="white"/>
<path d="M186.001 253.709C183.363 252.527 180.555 251.771 177.681 251.469C174.559 251.218 171.419 251.326 168.321 251.789C164.811 252.269 160.991 253.069 156.961 253.789C152.931 254.509 149.071 255.209 145.511 255.519C142.365 255.838 139.193 255.818 136.051 255.459C133.93 255.207 131.845 254.707 129.841 253.969C129.131 253.729 128.611 253.439 128.251 253.289C128.06 253.217 127.879 253.123 127.711 253.009C127.711 252.959 128.491 253.299 129.911 253.779C131.919 254.43 133.991 254.869 136.091 255.089C139.209 255.413 142.353 255.413 145.471 255.089C148.991 254.759 152.841 254.089 156.871 253.329C160.901 252.569 164.721 251.779 168.261 251.329C171.394 250.874 174.57 250.8 177.721 251.109C179.847 251.338 181.93 251.864 183.911 252.669C184.449 252.886 184.973 253.137 185.481 253.419C185.664 253.497 185.838 253.594 186.001 253.709Z" fill="white"/>
<path d="M153.498 279.208C153.142 279.037 152.806 278.826 152.498 278.578C151.878 278.138 150.978 277.518 149.848 276.778C146.918 274.839 143.865 273.092 140.708 271.548C137.541 270.007 134.277 268.671 130.938 267.548C129.658 267.118 128.618 266.798 127.938 266.548C127.553 266.463 127.18 266.329 126.828 266.148C127.221 266.175 127.609 266.242 127.988 266.348C128.738 266.508 129.798 266.788 131.098 267.168C137.892 269.2 144.309 272.324 150.098 276.418C151.208 277.198 152.098 277.868 152.658 278.358C152.971 278.607 153.253 278.893 153.498 279.208Z" fill="white"/>
<path d="M184.28 278.868C183.649 279.343 182.937 279.699 182.18 279.918C178.549 281.209 174.565 281.088 171.02 279.578C170.29 279.302 169.614 278.903 169.02 278.398C169.757 278.642 170.481 278.922 171.19 279.238C172.939 279.843 174.77 280.18 176.62 280.238C178.472 280.287 180.321 280.048 182.1 279.528C183.43 279.168 184.24 278.788 184.28 278.868Z" fill="white"/>
<path d="M206.168 212.848C206.189 213.149 206.148 213.452 206.048 213.738C205.81 214.527 205.411 215.259 204.878 215.888C204.086 216.811 203.134 217.584 202.068 218.168C200.777 218.857 199.44 219.459 198.068 219.968C196.722 220.473 195.446 221.145 194.268 221.968C193.33 222.655 192.558 223.543 192.008 224.568C191.515 225.523 191.294 226.595 191.368 227.668C191.225 227.401 191.156 227.1 191.168 226.798C191.136 225.968 191.311 225.143 191.678 224.398C192.21 223.294 192.994 222.331 193.968 221.588C195.166 220.716 196.479 220.013 197.868 219.498C199.232 218.991 200.567 218.41 201.868 217.758C202.896 217.213 203.828 216.503 204.628 215.658C205.329 214.837 205.853 213.88 206.168 212.848Z" fill="white"/>
<path d="M193.878 191.629C193.868 191.94 193.81 192.246 193.708 192.539C193.631 192.88 193.527 193.215 193.398 193.539C193.254 193.996 193.084 194.443 192.888 194.879C192.392 196.027 191.789 197.125 191.088 198.159C190.207 199.417 189.202 200.583 188.088 201.639C186.966 202.683 185.74 203.608 184.428 204.399C183.354 205.039 182.223 205.574 181.048 205.999C180.599 206.168 180.142 206.311 179.678 206.429C179.351 206.533 179.016 206.613 178.678 206.669C178.378 206.75 178.068 206.791 177.758 206.789C177.758 206.689 179.028 206.439 180.968 205.649C182.087 205.188 183.168 204.636 184.198 203.999C186.747 202.416 188.953 200.338 190.688 197.889C191.397 196.895 192.02 195.841 192.548 194.739C193.458 192.869 193.778 191.599 193.878 191.629Z" fill="white"/>
<path d="M174.629 178.508C174.164 178.762 173.679 178.98 173.179 179.158C172.239 179.558 170.839 180.058 169.089 180.608C167.339 181.158 165.229 181.698 162.849 182.188C157.683 183.216 152.41 183.602 147.149 183.338C145.003 183.232 142.863 183.015 140.739 182.688C138.929 182.398 137.479 182.108 136.479 181.848C135.957 181.752 135.445 181.608 134.949 181.418C135.482 181.454 136.01 181.535 136.529 181.658C137.529 181.848 138.989 182.088 140.789 182.318C142.589 182.548 144.789 182.758 147.169 182.858C149.78 182.952 152.393 182.908 154.999 182.728C157.601 182.529 160.192 182.195 162.759 181.728C165.119 181.268 167.239 180.728 168.989 180.258C170.739 179.788 172.149 179.318 173.109 178.978C173.602 178.78 174.111 178.623 174.629 178.508Z" fill="white"/>
<path d="M213.918 222C214.09 222.312 214.212 222.65 214.278 223C214.518 223.947 214.662 224.915 214.708 225.89C214.744 229.108 214.409 232.319 213.708 235.46C213.435 237.216 212.979 238.939 212.348 240.6C211.819 241.967 211.031 243.22 210.028 244.29C209.354 245.015 208.546 245.602 207.648 246.02C207.339 246.19 206.999 246.299 206.648 246.34C207.829 245.779 208.891 244.999 209.778 244.04C210.708 242.974 211.437 241.747 211.928 240.42C212.517 238.778 212.949 237.084 213.218 235.36C213.9 232.254 214.278 229.089 214.348 225.91C214.28 224.6 214.136 223.294 213.918 222Z" fill="white"/>
<path d="M233.999 224.601C233.909 224.601 233.439 223.601 232.399 222.061C231.019 220.088 229.307 218.369 227.339 216.981C225.361 215.607 223.158 214.592 220.829 213.981C219.039 213.521 217.829 213.441 217.889 213.351C218.16 213.3 218.438 213.3 218.709 213.351C219.449 213.388 220.185 213.488 220.909 213.651C221.995 213.883 223.056 214.218 224.079 214.651C226.593 215.691 228.849 217.267 230.689 219.271C231.434 220.086 232.103 220.966 232.689 221.901C233.081 222.537 233.416 223.206 233.689 223.901C233.827 224.117 233.932 224.353 233.999 224.601Z" fill="white"/>
<g opacity="0.3">
<path d="M175.21 276.998C175.45 276.88 175.661 276.712 175.829 276.505C175.998 276.298 176.119 276.057 176.186 275.799C176.252 275.541 176.262 275.271 176.214 275.008C176.167 274.746 176.063 274.497 175.91 274.278C175.537 273.904 175.084 273.62 174.585 273.447C174.086 273.274 173.555 273.216 173.03 273.278C167.86 273.378 163.35 276.838 158.27 277.768C154.41 278.468 150.42 277.678 146.66 276.538C142.9 275.398 139.23 273.908 135.37 273.178C134.572 272.974 133.738 272.953 132.93 273.118C132.527 273.207 132.158 273.411 131.869 273.706C131.579 274.001 131.382 274.373 131.3 274.778C131.2 275.588 131.39 276.198 132.61 276.608C132.61 276.608 145.4 280.168 154.61 280.028C161.565 279.751 168.471 278.736 175.21 276.998Z" fill="black"/>
</g>
<path d="M441.694 423.77H371.934V433.36H441.694V423.77Z" fill="#263238"/>
<path d="M441.812 433.478H371.812V423.648H441.812V433.478ZM372.052 433.238H441.573V423.888H372.052V433.238Z" fill="#263238"/>
<path d="M378.402 430.168L388.442 479.698H425.602L435.302 433.358L378.402 430.168Z" fill="#263238"/>
<path d="M378.402 475.02L383.762 482.38H428.922L435.302 475.02H378.402Z" fill="#455A64"/>
<path d="M404.192 431.608C404.062 431.608 403.882 408.658 403.802 380.358C403.722 352.058 403.802 329.098 403.912 329.098C404.022 329.098 404.222 352.038 404.302 380.358C404.382 408.678 404.332 431.608 404.192 431.608Z" fill="#263238"/>
<path d="M419.73 374.18C419.693 374.363 419.632 374.541 419.55 374.71C419.38 375.1 419.18 375.6 418.92 376.2L418.47 377.27C418.32 377.67 418.17 378.11 418 378.57C417.83 379.03 417.66 379.57 417.47 380.07C417.28 380.57 417.13 381.17 416.95 381.77C416.121 384.572 415.47 387.425 415 390.31C414.455 393.852 414.094 397.42 413.92 401C413.662 407.508 413.846 414.026 414.47 420.51C414.69 423 414.92 425.02 415.09 426.41C415.16 427.06 415.22 427.59 415.26 428.01C415.287 428.195 415.287 428.384 415.26 428.57C415.192 428.393 415.148 428.208 415.13 428.02L414.86 426.43C414.64 425.05 414.36 423.04 414.09 420.55C413.36 414.054 413.126 407.511 413.39 400.98C413.564 397.385 413.942 393.802 414.52 390.25C415.01 387.349 415.698 384.486 416.58 381.68C416.78 381.08 416.94 380.5 417.14 379.97L417.71 378.48L418.22 377.19C418.39 376.8 418.57 376.45 418.72 376.13L419.43 374.68C419.51 374.501 419.611 374.334 419.73 374.18Z" fill="#263238"/>
<path d="M418.002 355.617C417.954 355.877 417.88 356.132 417.782 356.377C417.602 356.907 417.362 357.617 417.052 358.507L416.522 360.047C416.342 360.617 416.162 361.237 415.962 361.897C415.552 363.227 415.082 364.737 414.662 366.437C414.432 367.277 414.202 368.167 413.962 369.087C413.722 370.007 413.532 370.987 413.302 371.987C412.812 373.987 412.462 376.157 412.012 378.427C411.242 382.977 410.572 388.017 410.102 393.337C409.632 398.657 409.472 403.737 409.402 408.337C409.332 412.937 409.402 417.127 409.642 420.627C409.702 422.377 409.812 423.957 409.902 425.337C409.992 426.717 410.072 427.917 410.152 428.897C410.232 429.877 410.282 430.587 410.332 431.147C410.356 431.407 410.356 431.668 410.332 431.927C410.266 431.675 410.225 431.417 410.212 431.157C410.142 430.597 410.052 429.847 409.942 428.917C409.832 427.987 409.712 426.747 409.602 425.357C409.492 423.967 409.352 422.357 409.262 420.647C409.032 417.147 408.932 412.977 408.922 408.337C408.912 403.697 409.142 398.607 409.592 393.277C410.042 387.947 410.752 382.887 411.542 378.327C412.012 376.047 412.372 373.877 412.882 371.877C413.122 370.877 413.342 369.877 413.562 368.977C413.782 368.077 414.062 367.167 414.302 366.317C414.742 364.627 415.242 363.117 415.672 361.797C415.892 361.137 416.092 360.517 416.272 359.947C416.452 359.377 416.672 358.887 416.852 358.427L417.662 356.317C417.755 356.075 417.869 355.84 418.002 355.617Z" fill="#263238"/>
<path d="M399.781 435.668C399.771 435.578 399.771 435.487 399.781 435.397C399.781 435.197 399.781 434.937 399.721 434.607L399.511 431.607C399.341 428.927 399.111 425.117 398.811 420.427C398.211 410.987 397.331 397.947 395.741 383.607C394.931 376.447 393.991 369.607 393.011 363.467C392.491 360.377 392.011 357.467 391.481 354.717C390.951 351.967 390.481 349.458 389.981 347.138C389.481 344.818 388.981 342.748 388.601 340.918C388.221 339.088 387.801 337.508 387.481 336.228L386.751 333.228C386.681 332.918 386.621 332.657 386.581 332.457C386.552 332.37 386.535 332.279 386.531 332.188C386.572 332.27 386.602 332.357 386.621 332.448C386.681 332.648 386.761 332.897 386.851 333.207C387.041 333.907 387.321 334.898 387.661 336.138C388.001 337.378 388.441 338.977 388.871 340.807C389.301 342.637 389.871 344.707 390.321 347.027C390.771 349.347 391.381 351.867 391.891 354.607C392.401 357.347 392.891 360.268 393.461 363.348C394.461 369.528 395.461 376.347 396.241 383.517C397.831 397.867 398.651 410.917 399.161 420.367C399.421 425.087 399.601 428.907 399.701 431.557C399.701 432.847 399.791 433.867 399.821 434.557C399.821 434.877 399.821 435.138 399.821 435.348C399.824 435.456 399.81 435.563 399.781 435.668Z" fill="#263238"/>
<path d="M403.62 340.129C403.32 336.879 400.04 334.429 396.77 334.399C393.5 334.369 390.46 336.319 388.47 338.899C386.59 341.58 385.233 344.593 384.47 347.779C382.27 355.439 381.07 363.489 382.01 371.399C382.95 379.309 386.16 387.099 391.83 392.699C392.76 393.609 393.95 394.509 395.22 394.239C395.904 394.038 396.522 393.658 397.01 393.139C402.569 388.047 406.974 381.826 409.932 374.893C412.89 367.96 414.332 360.475 414.16 352.939C414.07 349.939 413.68 346.799 412.01 344.299C410.34 341.799 406.46 339.129 403.62 340.129Z" fill="#FF6501"/>
<path d="M379.241 314.087L374.641 322.418C374.541 322.608 374.391 322.828 374.171 322.848C373.951 322.868 373.751 322.638 373.621 322.438L361.461 303.777L364.261 302.188L379.241 314.087Z" fill="#FF6501"/>
<g opacity="0.2">
<path d="M379.241 314.087L374.641 322.418C374.541 322.608 374.391 322.828 374.171 322.848C373.951 322.868 373.751 322.638 373.621 322.438L361.461 303.777L364.261 302.188L379.241 314.087Z" fill="black"/>
</g>
<path d="M403.911 329.099L362.431 304.629C361.987 304.428 361.632 304.073 361.431 303.629C361.407 303.311 361.462 302.992 361.591 302.701C361.72 302.409 361.92 302.154 362.171 301.959C365.023 299.001 368.478 296.693 372.302 295.192C376.126 293.69 380.229 293.031 384.331 293.259C388.425 293.559 392.385 294.85 395.869 297.02C399.353 299.191 402.257 302.176 404.331 305.719C408.331 312.869 408.471 322.329 403.881 329.119" fill="#FF6501"/>
<path d="M368.41 296.81C368.587 296.771 368.769 296.75 368.95 296.75C369.31 296.75 369.84 296.66 370.52 296.67C372.447 296.648 374.372 296.802 376.27 297.13C379.099 297.606 381.855 298.443 384.47 299.62C388.992 301.656 393.009 304.666 396.233 308.434C399.457 312.203 401.809 316.637 403.12 321.42C403.625 323.279 403.959 325.18 404.12 327.1C404.19 327.78 404.18 328.31 404.2 328.67C404.228 328.849 404.228 329.031 404.2 329.21C404.2 329.21 404.11 328.46 403.94 327.12C403.121 319.852 399.979 313.041 394.982 307.7C389.985 302.358 383.398 298.771 376.2 297.47C374.323 297.116 372.42 296.912 370.51 296.86C369.16 296.83 368.41 296.86 368.41 296.81Z" fill="#263238"/>
<path d="M398.293 312.207C397.635 312.622 396.93 312.958 396.193 313.207C394.873 313.727 393.033 314.397 390.963 315.047C388.893 315.697 386.963 316.227 385.623 316.567C384.889 316.796 384.131 316.941 383.363 316.997C384.057 316.665 384.785 316.406 385.533 316.227L390.813 314.577L396.083 312.877C396.793 312.573 397.534 312.348 398.293 312.207Z" fill="#263238"/>
<path d="M391.762 294.66C392.128 296.175 392.293 297.732 392.252 299.29C392.371 300.844 392.287 302.408 392.002 303.94C391.788 302.403 391.705 300.851 391.752 299.3C391.632 297.756 391.635 296.204 391.762 294.66Z" fill="#263238"/>
<path d="M362.07 304.16C363.039 303.723 364.042 303.369 365.07 303.1C366.96 302.52 369.58 301.78 372.5 301.1C375.42 300.42 378.1 299.85 380.04 299.51C381.082 299.274 382.143 299.134 383.21 299.09C382.196 299.418 381.16 299.675 380.11 299.86C378.19 300.29 375.54 300.86 372.62 301.58C369.7 302.3 367.07 302.97 365.17 303.46C364.155 303.766 363.119 304 362.07 304.16Z" fill="#263238"/>
<path d="M384.782 332.439C381.212 329.729 377.442 329.199 372.972 329.379C368.478 329.671 364.079 330.8 360.002 332.709C353.002 335.779 346.432 340.289 342.262 346.709C338.092 353.129 336.622 361.559 339.752 368.519C339.994 369.249 340.501 369.863 341.172 370.239C341.948 370.463 342.779 370.4 343.512 370.059C351.462 367.469 359.512 364.849 366.792 360.789C374.072 356.729 380.792 351.069 384.682 343.679C385.691 341.938 386.334 340.008 386.572 338.009C386.683 337.009 386.577 335.996 386.261 335.04C385.946 334.084 385.427 333.207 384.742 332.469" fill="#FF6501"/>
<path d="M384.853 331.598C384.67 331.69 384.479 331.767 384.283 331.828L382.613 332.398L381.413 332.808C380.973 332.958 380.503 333.158 380.003 333.358C379.003 333.758 377.823 334.168 376.593 334.768L374.643 335.648C373.963 335.968 373.293 336.348 372.573 336.718C371.133 337.418 369.673 338.328 368.123 339.248C364.807 341.334 361.657 343.674 358.703 346.248C355.784 348.855 353.066 351.68 350.573 354.698C349.473 356.128 348.383 357.458 347.503 358.798C347.043 359.458 346.583 360.078 346.183 360.708L345.053 362.538C344.303 363.678 343.753 364.788 343.223 365.728L342.493 367.058L341.943 368.208L341.163 369.788C341.084 369.975 340.983 370.153 340.863 370.318C340.907 370.119 340.978 369.927 341.073 369.748L341.773 368.118C341.923 367.768 342.103 367.378 342.283 366.958C342.463 366.538 342.723 366.088 342.973 365.598C343.483 364.598 343.973 363.518 344.753 362.358L345.863 360.508C346.253 359.868 346.713 359.238 347.163 358.558C348.033 357.208 349.113 355.858 350.223 354.418C355.16 348.249 361.137 342.99 367.883 338.878C369.453 337.958 370.933 337.068 372.383 336.368C373.113 336.008 373.793 335.628 374.483 335.368L376.483 334.498C377.733 333.918 378.913 333.498 379.933 333.148L381.363 332.638L382.583 332.278L384.283 331.788C384.466 331.704 384.657 331.64 384.853 331.598Z" fill="#263238"/>
<path d="M357.002 346.688C354.164 347.774 351.27 348.705 348.332 349.478C345.437 350.414 342.492 351.188 339.512 351.797C342.353 350.712 345.25 349.781 348.192 349.008C351.084 348.073 354.025 347.299 357.002 346.688Z" fill="#263238"/>
<path d="M356.63 365.841C356.474 364.946 356.41 364.038 356.44 363.131C356.39 361.461 356.38 359.131 356.44 356.601C356.5 354.071 356.65 351.741 356.79 350.071C356.82 349.169 356.934 348.272 357.13 347.391C357.21 348.289 357.21 349.192 357.13 350.091C357.13 351.931 357.01 354.151 356.93 356.611C356.85 359.071 356.81 361.301 356.77 363.131C356.797 364.036 356.751 364.943 356.63 365.841Z" fill="#263238"/>
<path d="M373.002 357.479C372.862 357.479 372.432 352.789 372.002 346.989C371.572 341.189 371.382 336.479 371.522 336.469C371.662 336.459 372.092 341.159 372.522 346.959C372.952 352.759 373.172 357.469 373.002 357.479Z" fill="#263238"/>
<path d="M352.613 336C353.535 335.884 354.466 335.854 355.393 335.91C357.113 335.91 359.483 335.98 362.093 336.06C364.703 336.14 367.093 336.25 368.783 336.36C369.713 336.364 370.639 336.451 371.553 336.62C370.631 336.736 369.701 336.766 368.773 336.71C367.063 336.71 364.693 336.65 362.073 336.56C359.453 336.47 357.073 336.37 355.383 336.26C354.454 336.255 353.527 336.168 352.613 336Z" fill="#263238"/>
<path d="M393.612 394.93C393.579 394.742 393.559 394.551 393.552 394.36C393.552 393.94 393.552 393.36 393.482 392.73C393.422 391.32 393.402 389.27 393.482 386.73C393.562 384.19 393.692 381.19 393.992 377.85C394.292 374.51 394.782 370.85 395.452 367.05C396.122 363.25 396.962 359.64 397.812 356.4C398.662 353.16 399.572 350.28 400.402 347.89C401.232 345.5 401.942 343.57 402.492 342.26L403.122 340.76C403.189 340.582 403.272 340.411 403.372 340.25C403.344 340.438 403.293 340.623 403.222 340.8C403.072 341.2 402.892 341.71 402.672 342.33C402.182 343.66 401.512 345.59 400.732 348C399.952 350.41 399.102 353.29 398.252 356.52C397.402 359.75 396.622 363.34 395.942 367.13C395.262 370.92 394.792 374.57 394.452 377.89C394.112 381.21 393.922 384.22 393.832 386.75C393.742 389.28 393.692 391.32 393.692 392.75C393.692 393.41 393.692 393.95 393.692 394.38C393.688 394.566 393.661 394.75 393.612 394.93Z" fill="#263238"/>
<path d="M395.8 366.629C395.32 367.295 394.766 367.906 394.15 368.449C393.07 369.519 391.55 370.949 389.81 372.449C388.07 373.949 386.45 375.299 385.25 376.219C384.634 376.754 383.964 377.223 383.25 377.619C383.783 377.027 384.369 376.485 385 375.999L389.45 372.119L393.88 368.209C394.468 367.622 395.111 367.093 395.8 366.629Z" fill="#263238"/>
<path d="M408.931 377.208C408.285 376.439 407.696 375.623 407.171 374.768L403.071 368.768L398.881 362.848C398.26 362.059 397.702 361.223 397.211 360.348C397.944 361.05 398.614 361.816 399.211 362.638C400.361 364.098 401.901 366.158 403.521 368.488C405.141 370.818 406.521 372.978 407.521 374.568C408.071 375.402 408.543 376.286 408.931 377.208Z" fill="#263238"/>
<path d="M402.053 344C402.133 344.11 397.773 347.05 392.313 350.56C386.853 354.07 382.383 356.81 382.313 356.69C382.243 356.57 386.603 353.64 392.053 350.14C397.503 346.64 402.003 343.83 402.053 344Z" fill="#263238"/>
<path d="M414.35 357.218C412.039 355.312 409.835 353.279 407.75 351.128C405.55 349.091 403.464 346.934 401.5 344.668C403.807 346.582 406.01 348.619 408.1 350.768C410.301 352.801 412.388 354.954 414.35 357.218Z" fill="#263238"/>
<path d="M417.442 356.998L421.182 356.688C423.84 356.473 426.419 355.685 428.742 354.378C429.879 353.711 431.058 353.12 432.272 352.608C436.902 350.748 442.062 351.078 447.042 350.828C455.198 350.419 463.189 348.379 470.542 344.828C470.961 344.625 471.309 344.301 471.542 343.898C472.312 342.498 470.882 341.248 469.652 340.488C463.342 336.598 456.922 332.668 449.772 330.738C442.622 328.808 434.502 329.138 428.402 333.338C421.232 338.268 418.622 348.338 417.402 356.998" fill="#FF6501"/>
<path d="M471.652 343.39C471.433 343.309 471.223 343.209 471.022 343.09L469.242 342.16C467.702 341.35 465.492 340.16 462.692 338.82C459.432 337.217 456.035 335.908 452.542 334.91C448.277 333.682 443.809 333.318 439.402 333.84C434.98 334.331 430.804 336.124 427.402 338.99C424.747 341.455 422.624 344.436 421.162 347.75C420.141 349.98 419.233 352.26 418.442 354.58C418.172 355.36 417.942 355.99 417.782 356.47C417.713 356.695 417.623 356.913 417.512 357.12C417.555 356.891 417.611 356.663 417.682 356.44L418.262 354.52C418.978 352.166 419.84 349.858 420.842 347.61C422.276 344.206 424.409 341.14 427.102 338.61C430.555 335.666 434.811 333.824 439.322 333.32C443.798 332.794 448.334 333.171 452.662 334.43C456.168 335.448 459.572 336.787 462.832 338.43C465.622 339.82 467.832 341.06 469.332 341.92L471.062 342.92C471.277 343.052 471.475 343.21 471.652 343.39Z" fill="#263238"/>
<path d="M462.661 348.219C462.581 348.329 457.661 345.159 451.731 341.139C445.801 337.119 440.991 333.769 441.071 333.659C441.151 333.549 446.071 336.659 452.001 340.729C457.931 344.799 462.741 348.099 462.661 348.219Z" fill="#263238"/>
<path d="M458.001 333.19C456.779 333.655 455.488 333.912 454.181 333.95C452.888 334.155 451.569 334.138 450.281 333.9C451.55 333.646 452.838 333.499 454.131 333.46C455.411 333.261 456.706 333.17 458.001 333.19Z" fill="#263238"/>
<path d="M436.001 329.25C435.605 330.388 435.064 331.471 434.391 332.47C433.864 333.556 433.191 334.566 432.391 335.47C432.786 334.332 433.327 333.249 434.001 332.25C434.531 331.166 435.204 330.157 436.001 329.25Z" fill="#263238"/>
<path d="M440.391 351.1C439.565 350.757 438.777 350.328 438.041 349.82C436.621 348.96 434.711 347.71 432.671 346.22C430.631 344.73 428.821 343.34 427.531 342.31C426.816 341.789 426.147 341.207 425.531 340.57C426.324 340.981 427.075 341.471 427.771 342.03L432.991 345.82C434.991 347.3 436.901 348.6 438.261 349.53C439.014 349.993 439.727 350.518 440.391 351.1Z" fill="#263238"/>
<path d="M423.002 372.86C419.432 371.92 415.182 375.39 414.442 379.01C413.702 382.63 415.062 386.33 416.652 389.66C420.033 397.136 425.066 403.749 431.372 409C437.762 414.1 445.772 417.36 453.942 417.31C452.432 410.31 454.342 402.98 453.502 395.86C452.765 389.582 449.918 383.741 445.426 379.293C440.935 374.845 435.066 372.055 428.782 371.38C426.502 371.13 423.862 370.77 422.952 372.88" fill="#FF6501"/>
<path d="M453.943 417.289C453.767 417.236 453.598 417.159 453.443 417.059C452.971 416.8 452.522 416.498 452.103 416.159C450.605 414.859 449.401 413.253 448.573 411.449C448.003 410.339 447.373 409.139 446.753 407.809C446.133 406.479 445.503 405.059 444.833 403.559C444.137 402.004 443.349 400.491 442.473 399.029C441.505 397.475 440.418 395.997 439.223 394.609C436.773 391.739 434.153 389.249 431.883 386.879C429.825 384.806 427.951 382.558 426.283 380.159C425.165 378.535 424.245 376.783 423.543 374.939C423.359 374.438 423.203 373.927 423.073 373.409C423.02 373.229 422.979 373.045 422.953 372.859C423.003 372.859 423.203 373.589 423.723 374.859C424.488 376.653 425.443 378.36 426.573 379.949C428.268 382.298 430.151 384.506 432.203 386.549C434.493 388.899 437.133 391.379 439.603 394.279C440.811 395.686 441.907 397.183 442.883 398.759C443.768 400.244 444.556 401.784 445.243 403.369L447.123 407.629C447.723 408.949 448.343 410.159 448.893 411.269C449.671 413.056 450.804 414.665 452.223 415.999C453.273 416.909 454.003 417.249 453.943 417.289Z" fill="#263238"/>
<path d="M435.48 411.47C435.496 410.656 435.607 409.848 435.81 409.06C436.09 407.59 436.55 405.57 437.16 403.38C437.77 401.19 438.45 399.21 438.98 397.81C439.227 397.034 439.562 396.289 439.98 395.59C439.843 396.389 439.628 397.172 439.34 397.93C438.9 399.35 438.29 401.32 437.67 403.51C437.05 405.7 436.55 407.69 436.18 409.14C436.018 409.936 435.784 410.716 435.48 411.47Z" fill="#263238"/>
<path d="M453.272 394.26C452.417 394.14 451.574 393.946 450.752 393.68C449.212 393.28 447.092 392.73 444.752 392.19C442.412 391.65 440.232 391.25 438.672 390.95C437.818 390.841 436.975 390.657 436.152 390.4C437.017 390.374 437.882 390.441 438.732 390.6C440.312 390.81 442.492 391.17 444.862 391.71C447.232 392.25 449.362 392.85 450.862 393.34C451.698 393.555 452.506 393.864 453.272 394.26Z" fill="#263238"/>
<path d="M422.23 399.258C422.264 398.32 422.395 397.389 422.62 396.478C422.93 394.768 423.43 392.428 424.1 389.868C424.77 387.308 425.48 385.018 426.03 383.378C426.274 382.473 426.609 381.595 427.03 380.758C426.869 381.68 426.638 382.59 426.34 383.478C425.87 385.148 425.21 387.478 424.55 389.988C423.89 392.498 423.33 394.868 422.93 396.548C422.771 397.469 422.537 398.375 422.23 399.258Z" fill="#263238"/>
<path d="M445.084 379.258C445.084 379.398 440.604 379.028 435.084 378.448C431.764 378.182 428.459 377.748 425.184 377.148C425.184 377.018 429.654 377.378 435.134 377.958C438.47 378.222 441.791 378.656 445.084 379.258Z" fill="#263238"/>
<path d="M441.812 433.32C441.812 433.45 426.143 433.56 406.812 433.56C387.483 433.56 371.812 433.45 371.812 433.32C371.812 433.19 387.472 433.07 406.812 433.07C426.153 433.07 441.812 433.18 441.812 433.32Z" fill="#455A64"/>
<path d="M430.91 453.48C430.91 453.62 420.35 453.73 407.33 453.73C394.31 453.73 383.75 453.62 383.75 453.48C383.75 453.34 394.3 453.23 407.33 453.23C420.36 453.23 430.91 453.34 430.91 453.48Z" fill="#455A64"/>
<path d="M431.32 456.359C431.32 456.499 420.76 456.609 407.74 456.609C394.72 456.609 384.16 456.499 384.16 456.359C384.16 456.219 394.72 456.109 407.74 456.109C420.76 456.109 431.32 456.229 431.32 456.359Z" fill="#455A64"/>
<path d="M431.323 451.099C431.323 451.239 420.403 451.349 406.933 451.349C393.463 451.349 382.543 451.239 382.543 451.099C382.543 450.959 393.463 450.859 406.933 450.859C420.403 450.859 431.323 450.999 431.323 451.099Z" fill="#455A64"/>
<path d="M461.23 482.381C461.23 482.531 366.65 482.641 250.01 482.641C133.37 482.641 38.7695 482.531 38.7695 482.381C38.7695 482.231 133.33 482.121 250.01 482.121C366.69 482.121 461.23 482.241 461.23 482.381Z" fill="#263238"/>
</svg>
