<svg width="452" height="452" viewBox="0 0 452 452" fill="none" xmlns="http://www.w3.org/2000/svg">
<path d="M141.222 33.918H30.9883V216.381H141.222V33.918Z" fill="#E0E0E0"/>
<path d="M137.552 33.918H27.3184V216.381H137.552V33.918Z" fill="#EBEBEB"/>
<path d="M132.861 37.6172H32.0195V212.677H132.861V37.6172Z" fill="#FAFAFA"/>
<path d="M113.216 60.3594H51.2109V189.921H113.216V60.3594Z" fill="#EBEBEB"/>
<path d="M51.2104 144.081C51.0658 131.976 61.9499 120.161 73.937 118.471C79.6502 117.666 85.689 118.796 91.0678 116.608C100.596 112.703 103.633 100.038 113.225 96.2773L113.659 189.932H51.2104V144.081Z" fill="#E0E0E0"/>
<path d="M383.387 84.6893L374.338 84.7383L374.581 129.757L383.63 129.708L383.387 84.6893Z" fill="#E0E0E0"/>
<path d="M319.394 84.8029L295.963 84.9297L296.097 109.78L319.529 109.654L319.394 84.8029Z" fill="#EBEBEB"/>
<path d="M342.716 84.6857L319.285 84.8125L319.42 109.663L342.851 109.536L342.716 84.6857Z" fill="#F5F5F5"/>
<path d="M295.996 91.8178C311.563 91.9444 327.175 91.8178 342.742 91.6009C342.8 91.5898 342.852 91.5589 342.89 91.5135C342.927 91.4682 342.948 91.4111 342.948 91.3523C342.948 91.2934 342.927 91.2364 342.89 91.191C342.852 91.1456 342.8 91.1147 342.742 91.1037C327.169 91.0133 311.587 91.1067 295.996 91.3839C295.939 91.3839 295.884 91.4068 295.843 91.4474C295.802 91.4881 295.779 91.5433 295.779 91.6009C295.779 91.6584 295.802 91.7136 295.843 91.7543C295.884 91.795 295.939 91.8178 295.996 91.8178Z" fill="#E0E0E0"/>
<path d="M323.93 109.246L281.361 109.477L281.471 129.726L324.04 129.496L323.93 109.246Z" fill="#EBEBEB"/>
<path d="M366.289 109.02L323.721 109.25L323.83 129.499L366.399 129.269L366.289 109.02Z" fill="#F5F5F5"/>
<path d="M281.378 115.122C309.655 115.448 338.032 115.122 366.309 114.707C366.367 114.696 366.419 114.665 366.456 114.619C366.494 114.574 366.514 114.517 366.514 114.458C366.514 114.399 366.494 114.342 366.456 114.297C366.419 114.251 366.367 114.221 366.309 114.209C338.032 114.056 309.655 114.074 281.378 114.698C281.329 114.708 281.285 114.734 281.254 114.773C281.222 114.812 281.205 114.86 281.205 114.91C281.205 114.96 281.222 115.008 281.254 115.047C281.285 115.086 281.329 115.112 281.378 115.122Z" fill="#E0E0E0"/>
<path d="M430.376 129.742H265.459V137.001H430.376V129.742Z" fill="#E0E0E0"/>
<path d="M299.16 133.23H292.461V157.991H299.16V133.23Z" fill="#E0E0E0"/>
<path d="M399.097 133.23H392.398V157.991H399.097V133.23Z" fill="#E0E0E0"/>
<path d="M392.219 67.9003L383.17 67.9492L383.505 129.863L392.554 129.814L392.219 67.9003Z" fill="#EBEBEB"/>
<path d="M406.356 79.4318L392.299 79.5078L392.57 129.679L406.627 129.603L406.356 79.4318Z" fill="#F5F5F5"/>
<path d="M406.249 89.1152C401.569 89.4406 396.871 89.4406 392.191 89.1152C396.871 88.7897 401.569 88.7897 406.249 89.1152Z" fill="#E0E0E0"/>
<path d="M406.249 87.0097C401.569 87.3351 396.871 87.3351 392.191 87.0097C396.871 86.6843 401.569 86.6843 406.249 87.0097Z" fill="#E0E0E0"/>
<path d="M406.249 122.041C401.569 122.366 396.871 122.366 392.191 122.041C396.871 121.716 401.569 121.716 406.249 122.041Z" fill="#E0E0E0"/>
<path d="M406.249 119.971C401.568 120.284 396.872 120.284 392.191 119.971C396.871 119.645 401.569 119.645 406.249 119.971Z" fill="#E0E0E0"/>
<path d="M399.449 115.367C399.314 115.367 399.205 110.304 399.205 104.058C399.205 97.8112 399.314 92.7578 399.449 92.7578C399.585 92.7578 399.693 97.8112 399.693 104.058C399.693 110.304 399.567 115.367 399.449 115.367Z" fill="#E0E0E0"/>
<path d="M421.707 91.7656H406.402V129.634H421.707V91.7656Z" fill="#EBEBEB"/>
<path d="M390.156 78.4958C390.165 79.0126 390.02 79.5203 389.739 79.9544C389.459 80.3884 389.055 80.7292 388.58 80.9332C388.106 81.1372 387.581 81.1952 387.073 81.0999C386.565 81.0046 386.097 80.7603 385.728 80.3981C385.359 80.0358 385.107 79.572 385.003 79.0658C384.898 78.5596 384.947 78.0338 385.143 77.5554C385.339 77.0771 385.672 76.6678 386.101 76.3796C386.53 76.0915 387.035 75.9376 387.552 75.9375C388.236 75.9351 388.893 76.2024 389.38 76.6814C389.868 77.1604 390.146 77.8125 390.156 78.4958Z" fill="#E0E0E0"/>
<path d="M388.357 85.6445H386.748V122.473H388.357V85.6445Z" fill="#E0E0E0"/>
<path d="M157.105 372.99C157.105 372.99 148.816 379.318 156.753 387.643C156.821 387.714 156.902 387.771 156.992 387.81C157.082 387.849 157.179 387.869 157.277 387.869L229.697 387.445C229.697 387.445 235.88 380.511 230.745 372.52L157.105 372.99Z" fill="#EBEBEB"/>
<path d="M213.687 379.582C213.687 379.664 204.647 379.727 193.555 379.727C182.463 379.727 173.414 379.664 173.414 379.582C173.414 379.501 182.454 379.438 193.555 379.438C204.656 379.438 213.687 379.501 213.687 379.582Z" fill="#E0E0E0"/>
<path d="M202.424 382.201C202.424 382.282 198.193 382.345 192.959 382.345C187.725 382.345 183.494 382.282 183.494 382.201C183.494 382.119 187.734 382.047 192.959 382.047C198.184 382.047 202.424 382.119 202.424 382.201Z" fill="#E0E0E0"/>
<path d="M221.091 387.21C221.091 387.21 221.254 386.379 221.48 385.041C221.769 383.296 221.909 381.53 221.895 379.761C221.878 377.99 221.705 376.224 221.38 374.482C221.127 373.144 220.91 372.331 220.955 372.312C221.044 372.492 221.114 372.679 221.163 372.873C221.332 373.386 221.471 373.908 221.579 374.437C221.967 376.183 222.173 377.964 222.194 379.752C222.204 381.54 222.031 383.324 221.678 385.077C221.543 385.746 221.407 386.288 221.299 386.65C221.19 387.012 221.118 387.219 221.091 387.21Z" fill="#E0E0E0"/>
<path d="M226.497 372.449C226.63 372.608 226.74 372.784 226.823 372.974C226.942 373.185 227.051 373.402 227.148 373.624C227.285 373.919 227.406 374.221 227.51 374.528C227.806 375.307 228.039 376.108 228.206 376.924C228.395 377.929 228.501 378.948 228.522 379.971C228.52 380.995 228.429 382.017 228.251 383.026C228.1 383.847 227.883 384.654 227.6 385.44C227.492 385.783 227.356 386.072 227.248 386.344C227.156 386.567 227.051 386.785 226.931 386.995C226.851 387.184 226.748 387.364 226.624 387.528C226.57 387.528 226.976 386.723 227.41 385.385C227.969 383.632 228.244 381.801 228.224 379.961C228.212 378.955 228.115 377.951 227.935 376.96C227.785 376.151 227.58 375.354 227.32 374.574C226.904 373.227 226.452 372.449 226.497 372.449Z" fill="#E0E0E0"/>
<path d="M168.533 387.31C168.399 387.162 168.283 386.998 168.189 386.822C168.065 386.63 167.953 386.431 167.855 386.225C167.711 385.955 167.582 385.677 167.466 385.394C167.16 384.655 166.924 383.889 166.761 383.106C166.571 382.145 166.477 381.167 166.481 380.187C166.502 379.206 166.623 378.231 166.842 377.276C167.025 376.499 167.282 375.743 167.611 375.016C167.73 374.734 167.866 374.459 168.017 374.193C168.118 373.985 168.236 373.785 168.37 373.596C168.578 373.28 168.704 373.108 168.722 373.126C168.741 373.144 168.307 373.849 167.818 375.097C167.523 375.823 167.29 376.573 167.122 377.339C166.926 378.279 166.814 379.235 166.788 380.196C166.789 381.153 166.874 382.109 167.041 383.052C167.195 383.82 167.406 384.576 167.674 385.312C168.144 386.569 168.578 387.283 168.533 387.31Z" fill="#E0E0E0"/>
<path d="M160.713 389.073C160.563 388.912 160.438 388.729 160.342 388.531C160.212 388.302 160.1 388.063 160.007 387.817C159.843 387.524 159.695 387.222 159.565 386.913C159.216 386.086 158.94 385.23 158.742 384.354C158.236 382.207 158.187 379.977 158.597 377.809C158.757 376.925 158.996 376.056 159.311 375.215C159.429 374.853 159.583 374.546 159.7 374.266C159.805 374.027 159.922 373.795 160.053 373.57C160.148 373.369 160.263 373.178 160.396 373C160.45 373 159.989 373.859 159.492 375.287C159.212 376.125 158.998 376.983 158.85 377.855C158.681 378.922 158.602 380.001 158.615 381.082C158.663 383.051 159.045 384.999 159.745 386.84C160.261 388.241 160.758 389.046 160.713 389.073Z" fill="#E0E0E0"/>
<path d="M227.039 409.512V423.361H200.227V409.512H227.039Z" fill="#EBEBEB"/>
<path d="M140.436 416.556C140.436 416.683 140.436 416.8 140.436 416.927C140.565 418.949 141.463 420.845 142.946 422.227C144.428 423.609 146.383 424.371 148.41 424.358H228.269V423.354H209.285C207.448 423.354 205.687 422.625 204.388 421.326C203.09 420.027 202.36 418.266 202.36 416.429C202.36 414.593 203.09 412.832 204.388 411.533C205.687 410.234 207.448 409.505 209.285 409.505H228.269V408.031L148.391 408.302C147.322 408.305 146.265 408.523 145.281 408.943C144.298 409.363 143.409 409.975 142.667 410.745C141.925 411.515 141.345 412.426 140.962 413.424C140.579 414.422 140.4 415.487 140.436 416.556Z" fill="#E0E0E0"/>
<path d="M227.039 416.609C227.039 416.691 221.525 416.763 214.727 416.763C207.928 416.763 202.414 416.691 202.414 416.609C202.414 416.528 207.928 416.465 214.727 416.465C221.525 416.465 227.039 416.537 227.039 416.609Z" fill="#E0E0E0"/>
<path d="M226.651 419.734C226.651 419.816 221.435 419.879 214.998 419.879C208.562 419.879 203.346 419.816 203.346 419.734C203.346 419.653 208.562 419.59 214.998 419.59C221.435 419.59 226.651 419.653 226.651 419.734Z" fill="#E0E0E0"/>
<path d="M227.039 422.594C227.039 422.675 222.347 422.739 216.561 422.739C210.776 422.739 206.084 422.675 206.084 422.594C206.084 422.513 210.776 422.449 216.561 422.449C222.347 422.449 227.039 422.513 227.039 422.594Z" fill="#E0E0E0"/>
<path d="M227.039 413.805C227.039 413.886 221.615 413.949 214.979 413.949C208.344 413.949 202.92 413.886 202.92 413.805C202.92 413.723 208.344 413.66 214.979 413.66C221.615 413.66 227.039 413.723 227.039 413.805Z" fill="#E0E0E0"/>
<path d="M226.65 411.004C226.65 411.085 221.84 411.149 215.919 411.149C209.998 411.149 205.18 411.085 205.18 411.004C205.18 410.923 209.989 410.859 215.919 410.859C221.849 410.859 226.65 410.923 226.65 411.004Z" fill="#E0E0E0"/>
<path d="M150.118 408.527C149.498 409.152 148.929 409.826 148.419 410.543C147.206 412.293 146.568 414.376 146.592 416.504C146.617 418.632 147.302 420.7 148.554 422.422C149.086 423.124 149.669 423.786 150.299 424.402C150.094 424.282 149.903 424.139 149.729 423.977C149.234 423.549 148.786 423.07 148.391 422.548C147.062 420.812 146.33 418.692 146.305 416.505C146.281 414.318 146.965 412.182 148.256 410.417C148.636 409.886 149.072 409.398 149.558 408.961C149.725 408.793 149.913 408.647 150.118 408.527Z" fill="#F5F5F5"/>
<path d="M147.415 408.227C146.803 408.862 146.235 409.538 145.716 410.252C144.508 412.002 143.874 414.083 143.9 416.209C143.925 418.335 144.611 420.401 145.861 422.121C146.389 422.826 146.973 423.488 147.605 424.101C147.394 423.985 147.2 423.843 147.027 423.676C146.532 423.248 146.083 422.769 145.689 422.248C144.359 420.515 143.626 418.399 143.6 416.215C143.574 414.031 144.256 411.898 145.544 410.134C145.924 409.6 146.361 409.109 146.846 408.67C147.017 408.5 147.209 408.351 147.415 408.227Z" fill="#F5F5F5"/>
<path d="M201.673 408.527C201.06 409.157 200.495 409.831 199.982 410.543C198.77 412.293 198.132 414.376 198.156 416.504C198.18 418.632 198.866 420.7 200.118 422.422C200.65 423.124 201.233 423.786 201.862 424.402C201.653 424.284 201.459 424.141 201.284 423.977C200.792 423.548 200.347 423.07 199.955 422.548C198.62 420.816 197.882 418.698 197.851 416.511C197.82 414.324 198.498 412.186 199.783 410.417C200.16 409.883 200.597 409.395 201.085 408.961C201.264 408.795 201.461 408.649 201.673 408.527Z" fill="#F5F5F5"/>
<path d="M198.98 408.227C198.361 408.856 197.793 409.533 197.28 410.252C196.068 411.999 195.429 414.081 195.453 416.208C195.478 418.335 196.164 420.402 197.416 422.121C197.948 422.823 198.531 423.485 199.161 424.101C198.955 423.981 198.764 423.839 198.591 423.676C198.094 423.251 197.645 422.772 197.253 422.248C195.924 420.515 195.191 418.399 195.165 416.215C195.139 414.031 195.821 411.898 197.109 410.134C197.489 409.6 197.925 409.109 198.41 408.67C198.58 408.497 198.771 408.348 198.98 408.227Z" fill="#F5F5F5"/>
<path d="M159.204 418.551L159.122 412.91C159.151 412.42 159.086 411.93 158.932 411.464C158.85 411.231 158.707 411.024 158.518 410.865C158.329 410.706 158.1 410.601 157.857 410.56C157.151 410.243 156.049 410.831 155.56 411.645C155.128 412.499 154.937 413.456 155.009 414.411C154.991 415.896 155.063 417.382 155.226 418.858C155.256 419.569 155.435 420.264 155.75 420.902C155.891 421.231 156.132 421.508 156.439 421.692C156.746 421.876 157.104 421.959 157.461 421.928C157.818 421.897 158.156 421.754 158.427 421.519C158.697 421.284 158.887 420.97 158.968 420.621C159.178 419.953 159.258 419.25 159.204 418.551Z" fill="#F5F5F5"/>
<path d="M190.219 416.879C190.219 416.96 184.442 417.033 177.328 417.033C170.213 417.033 164.428 416.96 164.428 416.879C164.428 416.798 170.204 416.734 177.328 416.734C184.451 416.734 190.219 416.798 190.219 416.879Z" fill="#F5F5F5"/>
<path d="M153.852 407.975L153.707 394.84H160.858L161.102 407.975H153.852Z" fill="#F5F5F5"/>
<path d="M160.432 397.171C159.329 397.322 158.216 397.373 157.105 397.324C155.997 397.373 154.886 397.322 153.787 397.171C154.887 397.026 155.997 396.977 157.105 397.026C158.216 396.977 159.329 397.026 160.432 397.171Z" fill="#E0E0E0"/>
<path d="M160.432 399.206C159.329 399.351 158.216 399.399 157.105 399.351C155.997 399.399 154.887 399.351 153.787 399.206C154.887 399.061 155.997 399.013 157.105 399.061C158.216 399.013 159.329 399.061 160.432 399.206Z" fill="#E0E0E0"/>
<path d="M160.432 401.229C159.329 401.374 158.216 401.423 157.105 401.374C155.997 401.423 154.887 401.374 153.787 401.229C154.887 401.084 155.997 401.036 157.105 401.085C158.216 401.036 159.329 401.084 160.432 401.229Z" fill="#E0E0E0"/>
<path d="M160.432 403.257C159.329 403.402 158.216 403.45 157.105 403.401C155.997 403.45 154.887 403.402 153.787 403.257C154.887 403.112 155.997 403.063 157.105 403.112C158.216 403.063 159.329 403.112 160.432 403.257Z" fill="#E0E0E0"/>
<path d="M160.432 405.281C159.329 405.432 158.216 405.484 157.105 405.435C155.997 405.484 154.886 405.432 153.787 405.281C154.887 405.141 155.997 405.093 157.105 405.137C158.216 405.093 159.328 405.142 160.432 405.281Z" fill="#E0E0E0"/>
<path d="M153.326 394.488H232.571C233.481 399.179 233.481 404 232.571 408.69H153.679V407.705H158.506C158.805 407.705 159.101 407.646 159.377 407.531C159.652 407.417 159.903 407.249 160.114 407.037C160.325 406.825 160.492 406.574 160.605 406.298C160.719 406.021 160.776 405.725 160.775 405.427V397.571C160.776 397.272 160.719 396.976 160.605 396.7C160.492 396.423 160.325 396.172 160.114 395.961C159.903 395.749 159.652 395.581 159.377 395.466C159.101 395.352 158.805 395.293 158.506 395.293H153.344L153.326 394.488Z" fill="#EBEBEB"/>
<path d="M172.058 401.602H173.377C173.425 401.588 173.475 401.588 173.522 401.602C173.567 401.624 173.605 401.659 173.63 401.703C173.656 401.746 173.669 401.796 173.667 401.846C173.672 401.876 173.672 401.906 173.667 401.936C173.667 402.045 173.612 402.153 173.576 402.271C173.418 402.826 173.133 403.336 172.745 403.763C172.609 403.933 172.439 404.074 172.246 404.175C172.053 404.276 171.841 404.336 171.624 404.35H171.461C171.271 404.315 171.092 404.239 170.936 404.126C170.779 404.014 170.65 403.868 170.557 403.699C170.281 403.216 170.147 402.664 170.168 402.108C170.171 401.724 170.222 401.341 170.322 400.969C170.467 400.408 170.736 399.886 171.108 399.441C171.248 399.254 171.428 399.101 171.634 398.991C171.84 398.882 172.068 398.819 172.302 398.809C172.473 398.808 172.643 398.845 172.799 398.917C173.174 399.126 173.452 399.473 173.576 399.884C173.585 399.929 173.585 399.975 173.576 400.02C173.589 400.064 173.589 400.111 173.576 400.156C173.552 400.199 173.517 400.236 173.474 400.261C173.431 400.286 173.382 400.3 173.332 400.3C173.303 400.31 173.271 400.31 173.242 400.3C173.2 400.289 173.161 400.267 173.13 400.237C173.098 400.207 173.075 400.17 173.061 400.128C173.021 400.016 172.967 399.91 172.898 399.812C172.833 399.702 172.74 399.61 172.63 399.545C172.519 399.48 172.394 399.445 172.265 399.441C172.108 399.443 171.955 399.497 171.832 399.595C171.5 399.869 171.249 400.228 171.108 400.635C170.909 401.107 170.804 401.614 170.801 402.126C170.788 402.53 170.865 402.931 171.027 403.301C171.076 403.447 171.168 403.574 171.291 403.666C171.413 403.758 171.561 403.81 171.714 403.817C171.843 403.802 171.966 403.759 172.077 403.692C172.188 403.625 172.283 403.535 172.356 403.428C172.659 403.069 172.889 402.655 173.034 402.208C172.428 402.208 172.13 402.208 172.085 402.208C172.001 402.208 171.92 402.174 171.861 402.115C171.802 402.056 171.768 401.975 171.768 401.891V401.792C171.793 401.735 171.833 401.688 171.885 401.654C171.936 401.62 171.996 401.602 172.058 401.602Z" fill="#FAFAFA"/>
<path d="M176.559 399.016C176.559 399.016 176.559 399.08 176.559 399.116C176.613 399.303 176.914 400.939 177.463 404.024C177.467 404.048 177.467 404.073 177.463 404.097C177.475 404.144 177.475 404.194 177.463 404.241C177.442 404.286 177.409 404.323 177.367 404.349C177.325 404.374 177.277 404.387 177.228 404.386H177.183C177.131 404.377 177.083 404.354 177.045 404.319C177.006 404.283 176.979 404.238 176.966 404.187L176.649 402.551H175.022L174.236 404.196C174.242 404.214 174.242 404.233 174.236 404.25C174.209 404.291 174.172 404.324 174.13 404.348C174.087 404.371 174.04 404.384 173.992 404.386C173.937 404.385 173.884 404.369 173.838 404.341C173.799 404.313 173.767 404.277 173.745 404.234C173.723 404.192 173.711 404.145 173.711 404.097C173.703 404.07 173.703 404.042 173.711 404.015C173.757 403.898 173.838 403.726 173.955 403.482C175.094 400.987 175.763 399.522 175.998 399.07C176.02 399.015 176.057 398.967 176.105 398.932C176.153 398.897 176.21 398.876 176.27 398.872C176.326 398.868 176.383 398.88 176.434 398.905C176.484 398.931 176.527 398.969 176.559 399.016ZM176.206 400.119L175.302 401.972H176.55L176.206 400.119Z" fill="#FAFAFA"/>
<path d="M180.981 404.387H178.594C178.54 404.386 178.487 404.371 178.44 404.342C178.399 404.304 178.366 404.258 178.343 404.207C178.319 404.155 178.306 404.1 178.305 404.044C178.305 403.953 178.522 402.317 178.965 399.162C178.96 399.126 178.96 399.09 178.965 399.054C178.984 399.001 179.02 398.955 179.067 398.924C179.114 398.893 179.17 398.879 179.227 398.882C179.268 398.873 179.312 398.873 179.353 398.882C179.401 398.905 179.44 398.941 179.468 398.986C179.495 399.031 179.509 399.083 179.507 399.135L179.353 400.473C179.082 402.564 178.937 403.667 178.919 403.782H180.953C181.004 403.772 181.056 403.772 181.107 403.782C181.162 403.802 181.209 403.84 181.241 403.888C181.273 403.937 181.29 403.994 181.288 404.053C181.292 404.083 181.292 404.113 181.288 404.143C181.27 404.212 181.231 404.273 181.175 404.317C181.12 404.361 181.051 404.386 180.981 404.387Z" fill="#FAFAFA"/>
<path d="M184.243 399.016C184.243 399.016 184.243 399.079 184.243 399.115C184.298 399.305 184.614 400.923 185.147 404.024C185.151 404.048 185.151 404.072 185.147 404.096C185.145 404.148 185.129 404.197 185.102 404.241C185.081 404.285 185.048 404.322 185.006 404.348C184.964 404.374 184.916 404.387 184.867 404.385H184.822C184.771 404.375 184.724 404.351 184.686 404.316C184.648 404.281 184.62 404.236 184.605 404.187L184.415 402.55H182.788L182.001 404.196C182.005 404.214 182.005 404.232 182.001 404.25C181.971 404.289 181.933 404.322 181.89 404.345C181.846 404.369 181.798 404.382 181.748 404.385C181.694 404.383 181.641 404.368 181.595 404.34C181.555 404.313 181.524 404.276 181.501 404.234C181.479 404.191 181.468 404.144 181.468 404.096C181.464 404.069 181.464 404.042 181.468 404.015C181.513 403.897 181.595 403.726 181.712 403.481C182.851 400.986 183.52 399.522 183.755 399.07C183.777 399.015 183.814 398.967 183.862 398.932C183.91 398.896 183.967 398.875 184.026 398.871C184.071 398.879 184.113 398.896 184.15 398.921C184.187 398.946 184.219 398.978 184.243 399.016ZM183.891 400.119L182.987 401.972H184.234L183.891 400.119Z" fill="#FAFAFA"/>
<path d="M188.031 401.835L188.465 403.028C188.709 403.716 188.836 404.068 188.836 404.104C188.85 404.151 188.85 404.202 188.836 404.249C188.81 404.29 188.774 404.324 188.731 404.348C188.689 404.372 188.641 404.384 188.592 404.384C188.483 404.384 188.411 404.321 188.357 404.195C188.303 404.068 188.357 404.104 188.312 404.068C188.185 403.77 187.968 403.164 187.67 402.387L186.323 404.195C186.296 404.238 186.259 404.275 186.215 404.302C186.171 404.329 186.121 404.345 186.07 404.348C186.022 404.358 185.973 404.358 185.925 404.348C185.882 404.325 185.846 404.289 185.822 404.246C185.798 404.203 185.787 404.154 185.789 404.104V404.086C185.821 403.999 185.87 403.918 185.934 403.851C186.386 403.264 186.838 402.567 187.435 401.763C187.38 401.6 187.326 401.456 187.272 401.311C186.766 399.946 186.504 399.241 186.504 399.196C186.495 399.148 186.495 399.099 186.504 399.051C186.526 399.008 186.56 398.972 186.601 398.946C186.643 398.921 186.69 398.907 186.739 398.906C186.793 398.907 186.846 398.922 186.892 398.951C186.939 398.98 186.976 399.021 187.001 399.069L187.805 401.22L189.396 399.051C189.424 399.009 189.461 398.974 189.506 398.951C189.55 398.927 189.599 398.915 189.65 398.915C189.691 398.906 189.734 398.906 189.776 398.915C189.823 398.938 189.861 398.975 189.887 399.02C189.913 399.065 189.924 399.117 189.921 399.168C189.933 399.213 189.933 399.26 189.921 399.304L188.031 401.835Z" fill="#FAFAFA"/>
<path d="M193.963 398.89C194.004 398.88 194.047 398.88 194.089 398.89C194.136 398.911 194.175 398.945 194.203 398.989C194.23 399.032 194.244 399.082 194.243 399.134C193.854 402.225 193.637 403.889 193.601 404.142C193.533 404.61 193.357 405.056 193.086 405.444C192.828 405.806 192.449 406.063 192.018 406.17C191.587 406.276 191.131 406.223 190.735 406.022C190.38 405.876 190.084 405.615 189.895 405.281C189.886 405.236 189.886 405.19 189.895 405.145C189.881 405.098 189.881 405.048 189.895 405.001C189.917 404.956 189.952 404.918 189.995 404.892C190.039 404.867 190.088 404.854 190.139 404.856C190.181 404.859 190.222 404.871 190.26 404.891C190.297 404.911 190.33 404.94 190.356 404.973C190.489 405.179 190.669 405.349 190.881 405.47C191.093 405.591 191.332 405.66 191.576 405.67C191.753 405.661 191.925 405.614 192.082 405.531C192.238 405.448 192.374 405.332 192.48 405.19C192.805 404.756 192.989 404.232 193.004 403.69C192.914 403.836 192.794 403.963 192.652 404.06C192.407 404.245 192.108 404.343 191.802 404.341H191.639C191.449 404.307 191.27 404.231 191.113 404.118C190.957 404.006 190.827 403.859 190.735 403.69C190.453 403.208 190.315 402.656 190.338 402.099C190.338 401.809 190.338 401.511 190.338 401.195C190.38 400.707 190.488 400.02 190.663 399.134C190.655 399.107 190.655 399.079 190.663 399.052C190.677 398.996 190.71 398.945 190.755 398.909C190.801 398.873 190.858 398.854 190.916 398.853C190.965 398.856 191.011 398.872 191.052 398.899C191.095 398.918 191.132 398.95 191.158 398.99C191.184 399.03 191.197 399.077 191.196 399.125C191.171 399.488 191.126 399.85 191.061 400.209C190.967 400.763 190.907 401.321 190.88 401.882C190.862 402.322 190.933 402.762 191.088 403.174C191.251 403.563 191.486 403.753 191.793 403.753H191.892C192.193 403.658 192.447 403.455 192.607 403.184C192.892 402.789 193.092 402.34 193.194 401.864L193.556 399.152C193.551 399.113 193.551 399.073 193.556 399.034C193.567 398.993 193.588 398.955 193.616 398.924C193.645 398.893 193.681 398.869 193.721 398.855C193.761 398.841 193.804 398.836 193.846 398.842C193.888 398.849 193.928 398.865 193.963 398.89Z" fill="#FAFAFA"/>
<path d="M229.615 408.868C229.533 408.868 229.461 405.614 229.461 401.591C229.461 397.568 229.533 394.305 229.615 394.305C229.696 394.305 229.759 397.568 229.759 401.591C229.759 405.614 229.678 408.868 229.615 408.868Z" fill="#F5F5F5"/>
<path d="M164.744 408.868C164.663 408.868 164.6 405.614 164.6 401.591C164.6 397.568 164.663 394.305 164.744 394.305C164.826 394.305 164.889 397.568 164.889 401.591C164.889 405.614 164.826 408.868 164.744 408.868Z" fill="#E0E0E0"/>
<path d="M230.981 408.868C230.908 408.868 230.836 405.614 230.836 401.591C230.836 397.568 230.908 394.305 230.981 394.305C231.053 394.305 231.134 397.568 231.134 401.591C231.134 405.614 231.062 408.868 230.981 408.868Z" fill="#F5F5F5"/>
<path d="M163.453 408.868C163.371 408.868 163.299 405.614 163.299 401.591C163.299 397.568 163.371 394.305 163.453 394.305C163.534 394.305 163.597 397.568 163.597 401.591C163.597 405.614 163.525 408.868 163.453 408.868Z" fill="#E0E0E0"/>
<path d="M210.379 396.703L218.75 403.456L218.822 403.519H218.732L217.62 403.818L210.551 405.671L204.141 402.959L202.333 402.181L201.854 401.973L201.737 401.919L201.863 401.973L202.342 402.163L204.15 402.923L210.569 405.635L217.638 403.772L218.759 403.474V403.555L210.397 396.785" fill="#E0E0E0"/>
<path d="M217.981 402.387L218.442 402.812L219.056 402.685L218.785 403.246L219.102 403.788L218.478 403.716L218.062 404.177L217.945 403.562L217.375 403.309L217.917 403.01L217.981 402.387Z" fill="#E0E0E0"/>
<path d="M209.953 405.047L210.261 405.309L210.659 405.201L210.505 405.58L210.731 405.915L210.324 405.888L210.071 406.204L209.971 405.815L209.592 405.671L209.935 405.454L209.953 405.047Z" fill="#E0E0E0"/>
<path d="M201.076 401.412L201.573 401.439L201.881 401.051L202.007 401.53L202.477 401.702L202.052 401.964L202.034 402.47L201.646 402.154L201.176 402.289L201.356 401.819L201.076 401.412Z" fill="#E0E0E0"/>
<path d="M221.742 396.811L222.239 396.847L222.547 396.449L222.673 396.937L223.134 397.109L222.719 397.371L222.7 397.869L222.312 397.552L221.833 397.688L222.022 397.227L221.742 396.811Z" fill="#E0E0E0"/>
<path d="M209.971 396.484L210.287 396.502L210.486 396.258L210.567 396.565L210.866 396.674L210.594 396.845L210.585 397.162L210.341 396.954L210.034 397.044L210.152 396.746L209.971 396.484Z" fill="#E0E0E0"/>
<path d="M222.437 397.165C222.437 397.165 219.725 397.101 216.39 396.966C213.054 396.83 210.342 396.676 210.342 396.64C210.342 396.604 213.054 396.704 216.39 396.848C219.725 396.993 222.437 397.128 222.437 397.165Z" fill="#E0E0E0"/>
<path d="M225.485 394.369H145.11C144.062 391.983 143.799 389.714 145.11 387.68H225.485C225.983 388.724 226.242 389.867 226.242 391.024C226.242 392.182 225.983 393.325 225.485 394.369Z" fill="#E0E0E0"/>
<path d="M205.298 389.586H161.752V392.018H205.298V389.586Z" fill="#EBEBEB"/>
<path d="M148.193 394.406C147.927 394.182 147.712 393.904 147.56 393.592C147.15 392.862 146.901 392.053 146.827 391.219C146.754 390.386 146.859 389.546 147.135 388.756C147.225 388.42 147.392 388.11 147.623 387.852C147.544 388.182 147.448 388.508 147.334 388.828C147.124 389.602 147.05 390.406 147.117 391.205C147.196 392.003 147.407 392.782 147.741 393.511C147.918 393.795 148.069 394.094 148.193 394.406Z" fill="#E0E0E0"/>
<path d="M149.937 394.406C149.665 394.187 149.449 393.909 149.304 393.592C148.889 392.865 148.636 392.057 148.563 391.223C148.491 390.388 148.596 389.548 148.87 388.756C148.968 388.424 149.135 388.116 149.358 387.852C149.284 388.183 149.188 388.509 149.069 388.828C148.862 389.602 148.792 390.407 148.861 391.205C148.931 392.005 149.142 392.785 149.485 393.511C149.653 393.8 149.804 394.099 149.937 394.406Z" fill="#E0E0E0"/>
<path d="M222.23 394.244C222.552 393.183 222.743 392.088 222.8 390.981C222.753 389.87 222.574 388.768 222.267 387.699C222.857 388.689 223.143 389.83 223.089 390.981C223.135 392.13 222.836 393.267 222.23 394.244Z" fill="#F5F5F5"/>
<path d="M220.738 394.234C220.647 394.234 220.982 392.796 220.973 391.024C220.964 389.253 220.638 387.842 220.729 387.824C221.446 389.901 221.446 392.157 220.729 394.234H220.738Z" fill="#F5F5F5"/>
<path d="M271.427 363.193L158.49 363.12C155.261 363.119 152.064 362.482 149.081 361.245C146.098 360.008 143.388 358.196 141.106 355.912C138.823 353.628 137.013 350.917 135.778 347.933C134.544 344.949 133.909 341.751 133.91 338.522L133.964 55.3986C133.966 52.1672 134.603 48.9677 135.841 45.9827C137.079 42.9977 138.892 40.2857 141.178 38.0016C143.464 35.7175 146.177 33.9059 149.163 32.6704C152.149 31.4349 155.349 30.7996 158.58 30.8008L271.508 30.8731C278.029 30.8779 284.282 33.4713 288.893 38.0835C293.503 42.6957 296.094 48.9495 296.097 55.4709L296.034 338.595C296.034 341.826 295.397 345.025 294.16 348.01C292.924 350.995 291.111 353.707 288.826 355.991C286.541 358.275 283.828 360.087 280.843 361.323C277.857 362.558 274.658 363.194 271.427 363.193Z" fill="#263238"/>
<path d="M271.138 40.9722H249.243C248.528 40.9863 247.823 41.1415 247.169 41.4289C246.515 41.7163 245.923 42.1302 245.429 42.6469C244.935 43.1635 244.548 43.7727 244.291 44.4395C244.033 45.1062 243.909 45.8173 243.927 46.5318V50.5004C243.944 51.215 243.82 51.9258 243.561 52.5921C243.302 53.2583 242.914 53.8669 242.419 54.3827C241.924 54.8985 241.332 55.3114 240.678 55.5977C240.023 55.884 239.318 56.0381 238.603 56.051H195.925C195.21 56.0369 194.506 55.8817 193.851 55.5943C193.197 55.3069 192.605 54.893 192.111 54.3763C191.617 53.8597 191.23 53.2505 190.973 52.5838C190.715 51.917 190.592 51.2059 190.61 50.4914V46.5138C190.632 45.7984 190.513 45.0856 190.26 44.4165C190.006 43.7473 189.622 43.135 189.13 42.6148C188.639 42.0947 188.049 41.6769 187.395 41.3857C186.742 41.0945 186.037 40.9355 185.321 40.918H177.619H158.463C156.199 40.9133 153.956 41.3548 151.863 42.2175C149.769 43.0801 147.866 44.3469 146.263 45.9454C144.659 47.544 143.386 49.4429 142.517 51.5336C141.648 53.6244 141.199 55.8659 141.197 58.1302L141.143 334.483C141.136 336.743 141.575 338.982 142.435 341.073C143.294 343.163 144.559 345.063 146.154 346.663C147.75 348.264 149.646 349.534 151.733 350.401C153.821 351.267 156.059 351.713 158.319 351.713L271.029 351.776C273.292 351.778 275.533 351.333 277.624 350.468C279.715 349.604 281.615 348.335 283.216 346.736C284.816 345.137 286.087 343.238 286.954 341.148C287.821 339.058 288.267 336.818 288.269 334.555L288.377 58.2025C288.377 55.939 287.931 53.6977 287.065 51.6067C286.198 49.5156 284.928 47.6158 283.327 46.0157C281.726 44.4156 279.826 43.1466 277.734 42.2812C275.643 41.4159 273.401 40.9711 271.138 40.9722Z" fill="white"/>
<path d="M289.616 84.8796C289.616 85.0061 256.34 85.1146 215.307 85.1146C174.275 85.1146 141.025 84.979 141.025 84.8796C141.025 84.7801 174.293 84.6445 215.352 84.6445C256.412 84.6445 289.616 84.744 289.616 84.8796Z" fill="#263238"/>
<path d="M156.528 74.6374C156.418 74.6385 156.312 74.5999 156.229 74.5289L151.935 70.7592C151.885 70.7181 151.844 70.6655 151.818 70.6058C151.791 70.5462 151.779 70.481 151.782 70.4157C151.781 70.3499 151.795 70.2847 151.824 70.2252C151.852 70.1657 151.893 70.1133 151.944 70.0722L156.238 66.4562C156.331 66.3813 156.449 66.3459 156.568 66.3577C156.686 66.3696 156.795 66.4277 156.871 66.5195C156.91 66.5648 156.938 66.6173 156.956 66.674C156.973 66.7306 156.979 66.7902 156.974 66.8493C156.968 66.9083 156.95 66.9655 156.922 67.0176C156.893 67.0696 156.854 67.1154 156.808 67.1523L152.93 70.3886L156.817 73.8057C156.862 73.8439 156.899 73.8907 156.926 73.9434C156.953 73.9961 156.969 74.0536 156.973 74.1126C156.977 74.1715 156.97 74.2308 156.951 74.2867C156.932 74.3427 156.902 74.3943 156.862 74.4385C156.826 74.4954 156.777 74.543 156.719 74.5775C156.66 74.6121 156.595 74.6326 156.528 74.6374Z" fill="#263238"/>
<path d="M250.229 70.1686C250.229 70.3042 236.244 70.4037 218.986 70.4037C201.729 70.4037 187.744 70.3042 187.744 70.1686C187.744 70.033 201.729 69.9336 218.986 69.9336C236.244 69.9336 250.229 70.0421 250.229 70.1686Z" fill="#263238"/>
<path d="M268.327 70.1428C268.327 70.4647 268.231 70.7793 268.052 71.0468C267.874 71.3144 267.62 71.523 267.322 71.6462C267.025 71.7693 266.698 71.8015 266.382 71.7388C266.066 71.676 265.776 71.521 265.549 71.2934C265.321 71.0659 265.166 70.7759 265.104 70.4603C265.041 70.1446 265.073 69.8175 265.196 69.5201C265.319 69.2228 265.528 68.9687 265.795 68.7899C266.063 68.6111 266.378 68.5156 266.699 68.5156C267.131 68.5156 267.545 68.6871 267.85 68.9922C268.155 69.2974 268.327 69.7113 268.327 70.1428Z" fill="#263238"/>
<path d="M273.008 70.1428C273.008 70.4651 272.913 70.78 272.733 71.0478C272.554 71.3156 272.3 71.5241 272.002 71.647C271.704 71.7699 271.376 71.8016 271.06 71.7381C270.744 71.6746 270.455 71.5187 270.227 71.2902C270 71.0617 269.846 70.771 269.784 70.4547C269.722 70.1385 269.756 69.811 269.88 69.5139C270.005 69.2167 270.215 68.9632 270.484 68.7855C270.752 68.6078 271.068 68.5139 271.39 68.5157C271.603 68.5156 271.815 68.5578 272.011 68.6397C272.208 68.7216 272.387 68.8416 272.538 68.9928C272.688 69.144 272.807 69.3235 272.888 69.5208C272.969 69.7182 273.009 69.9296 273.008 70.1428Z" fill="#263238"/>
<path d="M277.7 70.1428C277.7 70.4647 277.604 70.7793 277.426 71.0468C277.247 71.3144 276.993 71.523 276.695 71.6462C276.398 71.7693 276.071 71.8015 275.755 71.7388C275.439 71.676 275.149 71.521 274.922 71.2934C274.694 71.0659 274.539 70.7759 274.477 70.4603C274.414 70.1446 274.446 69.8175 274.569 69.5201C274.692 69.2228 274.901 68.9687 275.169 68.7899C275.436 68.6111 275.751 68.5156 276.073 68.5156C276.504 68.5156 276.918 68.6871 277.223 68.9922C277.528 69.2974 277.7 69.7113 277.7 70.1428Z" fill="#263238"/>
<path d="M201.204 145.591C201.204 146.64 200.77 147.272 200.047 147.272C199.877 147.289 199.706 147.244 199.565 147.147C199.424 147.049 199.323 146.905 199.279 146.739C199.158 146.915 198.993 147.056 198.802 147.149C198.61 147.243 198.398 147.285 198.185 147.272C197.797 147.243 197.434 147.067 197.169 146.782C196.904 146.496 196.757 146.121 196.757 145.731C196.757 145.342 196.904 144.966 197.169 144.681C197.434 144.395 197.797 144.22 198.185 144.19C198.376 144.18 198.566 144.214 198.742 144.289C198.917 144.364 199.073 144.479 199.197 144.624V144.226H199.866V146.287C199.866 146.595 200.011 146.703 200.183 146.703C200.508 146.703 200.689 146.314 200.689 145.6C200.694 145.301 200.636 145.004 200.519 144.729C200.402 144.454 200.228 144.206 200.009 144.002C199.79 143.798 199.53 143.643 199.247 143.546C198.964 143.449 198.664 143.413 198.366 143.44C198.052 143.411 197.736 143.449 197.437 143.55C197.139 143.651 196.865 143.812 196.632 144.025C196.4 144.238 196.214 144.496 196.087 144.785C195.96 145.073 195.894 145.384 195.894 145.7C195.894 146.015 195.96 146.326 196.087 146.614C196.214 146.903 196.4 147.161 196.632 147.374C196.865 147.587 197.139 147.748 197.437 147.849C197.736 147.95 198.052 147.988 198.366 147.96C198.773 147.961 199.175 147.869 199.541 147.688L199.704 148.176C199.284 148.369 198.827 148.465 198.366 148.457C197.99 148.478 197.613 148.423 197.26 148.294C196.906 148.165 196.582 147.965 196.308 147.706C196.035 147.448 195.816 147.136 195.667 146.79C195.518 146.444 195.441 146.072 195.441 145.695C195.441 145.318 195.518 144.946 195.667 144.6C195.816 144.254 196.035 143.942 196.308 143.684C196.582 143.425 196.906 143.225 197.26 143.096C197.613 142.967 197.99 142.912 198.366 142.933C198.73 142.906 199.097 142.954 199.441 143.076C199.786 143.197 200.102 143.389 200.369 143.639C200.636 143.888 200.848 144.191 200.992 144.527C201.135 144.863 201.208 145.226 201.204 145.591ZM199.206 145.727C199.196 145.551 199.134 145.381 199.028 145.24C198.923 145.099 198.778 144.991 198.612 144.931C198.447 144.871 198.267 144.861 198.095 144.901C197.924 144.942 197.768 145.032 197.647 145.161C197.525 145.289 197.445 145.45 197.414 145.624C197.383 145.797 197.404 145.976 197.474 146.138C197.543 146.3 197.659 146.438 197.806 146.536C197.954 146.633 198.126 146.685 198.302 146.685C198.426 146.685 198.548 146.66 198.661 146.611C198.775 146.563 198.877 146.491 198.962 146.401C199.046 146.311 199.112 146.205 199.154 146.089C199.196 145.973 199.214 145.85 199.206 145.727Z" fill="#263238"/>
<path d="M235.366 147.236C235.366 147.363 228.821 147.471 220.758 147.471C212.694 147.471 206.158 147.363 206.158 147.236C206.158 147.11 212.694 146.992 220.758 146.992C228.821 146.992 235.366 147.101 235.366 147.236Z" fill="#263238"/>
<path d="M177.61 188.548C176.279 188.861 174.892 188.861 173.561 188.548C174.892 188.234 176.279 188.234 177.61 188.548Z" fill="#263238"/>
<path d="M187.128 198.348C187.128 198.475 182.246 198.583 176.217 198.583C170.187 198.583 165.314 198.475 165.314 198.348C165.314 198.222 170.196 198.113 176.217 198.113C182.237 198.113 187.128 198.222 187.128 198.348Z" fill="#263238"/>
<path d="M221.481 188.548C219.423 188.786 217.35 188.865 215.28 188.783C213.209 188.865 211.136 188.786 209.078 188.548C211.137 188.316 213.209 188.237 215.28 188.313C217.35 188.237 219.423 188.316 221.481 188.548Z" fill="#263238"/>
<path d="M225.15 197.825C225.15 197.951 220.151 198.06 213.986 198.06C207.821 198.06 202.812 197.951 202.812 197.825C202.812 197.698 207.812 197.59 213.986 197.59C220.16 197.59 225.15 197.698 225.15 197.825Z" fill="#263238"/>
<path d="M261.98 188.684C259.199 188.917 256.407 188.996 253.618 188.919C250.828 188.996 248.037 188.917 245.256 188.684C248.036 188.446 250.828 188.368 253.618 188.449C256.407 188.368 259.199 188.446 261.98 188.684Z" fill="#263238"/>
<path d="M265.107 198.212C265.107 198.347 260.288 198.447 254.34 198.447C248.392 198.447 243.564 198.347 243.564 198.212C243.564 198.076 248.383 197.977 254.34 197.977C260.298 197.977 265.107 198.085 265.107 198.212Z" fill="#263238"/>
<path d="M233.875 207.488H172.602C171.329 207.488 170.297 208.52 170.297 209.793V224.122C170.297 225.395 171.329 226.427 172.602 226.427H233.875C235.148 226.427 236.18 225.395 236.18 224.122V209.793C236.18 208.52 235.148 207.488 233.875 207.488Z" fill="#FF6501"/>
<path d="M223.722 217.278C223.722 217.405 215.242 217.513 204.783 217.513C194.324 217.513 185.799 217.405 185.799 217.278C185.799 217.151 194.278 217.043 204.783 217.043C215.287 217.043 223.722 217.142 223.722 217.278Z" fill="white"/>
<path d="M258.31 207.137H243.773C242.59 207.137 241.631 208.096 241.631 209.279V224.403C241.631 225.586 242.59 226.546 243.773 226.546H258.31C259.493 226.546 260.452 225.586 260.452 224.403V209.279C260.452 208.096 259.493 207.137 258.31 207.137Z" fill="#EBEBEB"/>
<path d="M249.008 215.848H253.067L251.214 218.695L249.008 215.848Z" fill="#263238"/>
<path d="M236.18 240.512C236.18 240.648 225.702 240.747 212.784 240.747C199.866 240.747 189.389 240.648 189.389 240.512C189.389 240.377 199.866 240.277 212.784 240.277C225.702 240.277 236.18 240.386 236.18 240.512Z" fill="#E0E0E0"/>
<path d="M249.794 249.325C249.794 249.451 234.426 249.56 215.442 249.56C196.458 249.56 181.09 249.451 181.09 249.325C181.09 249.198 196.458 249.09 215.442 249.09C234.426 249.09 249.794 249.198 249.794 249.325Z" fill="#E0E0E0"/>
<path d="M289.282 264.602C289.282 264.738 256.331 264.846 215.678 264.846C175.025 264.846 142.074 264.738 142.074 264.602C142.074 264.467 175.025 264.367 215.678 264.367C256.331 264.367 289.282 264.476 289.282 264.602Z" fill="#263238"/>
<path d="M217.142 281.751C216.909 278.979 216.831 276.196 216.907 273.416C216.831 270.638 216.909 267.859 217.142 265.09C217.38 267.858 217.459 270.638 217.377 273.416C217.459 276.196 217.38 278.979 217.142 281.751Z" fill="#263238"/>
<path d="M208.001 159.574L203.77 169.283H201.962L197.723 159.574H199.675L202.903 167.059L206.166 159.574H208.001Z" fill="#FF6501"/>
<path d="M215.243 166.139H209.43C209.537 166.684 209.842 167.17 210.286 167.503C210.73 167.837 211.281 167.995 211.835 167.947C212.207 167.962 212.578 167.898 212.924 167.759C213.27 167.621 213.583 167.41 213.841 167.142L214.745 168.209C214.368 168.617 213.904 168.936 213.389 169.144C212.873 169.352 212.317 169.443 211.762 169.411C209.285 169.411 207.676 167.82 207.676 165.614C207.658 165.105 207.746 164.598 207.934 164.125C208.123 163.652 208.407 163.223 208.77 162.866C209.133 162.509 209.567 162.231 210.043 162.051C210.519 161.87 211.028 161.791 211.536 161.818C212.04 161.799 212.541 161.886 213.009 162.073C213.477 162.259 213.901 162.542 214.253 162.902C214.606 163.262 214.879 163.692 215.055 164.163C215.232 164.635 215.308 165.139 215.279 165.641C215.27 165.759 215.252 165.967 215.243 166.139ZM209.421 164.982H213.615C213.565 164.47 213.32 163.998 212.932 163.661C212.543 163.325 212.041 163.15 211.527 163.174C211.013 163.154 210.51 163.33 210.12 163.665C209.729 164 209.48 164.47 209.421 164.982Z" fill="#FF6501"/>
<path d="M221.219 161.816V163.461C221.088 163.434 220.955 163.419 220.821 163.416C220.521 163.393 220.219 163.437 219.938 163.546C219.657 163.655 219.404 163.825 219.198 164.045C218.992 164.264 218.837 164.527 218.746 164.814C218.654 165.101 218.628 165.405 218.669 165.703V169.319H216.961V161.915H218.615V162.991C218.912 162.588 219.308 162.269 219.763 162.063C220.219 161.857 220.72 161.772 221.219 161.816Z" fill="#FF6501"/>
<path d="M222.457 159.621C222.458 159.479 222.488 159.338 222.545 159.207C222.602 159.077 222.685 158.959 222.789 158.862C222.894 158.765 223.016 158.69 223.15 158.642C223.284 158.593 223.427 158.573 223.569 158.581C223.708 158.57 223.847 158.588 223.979 158.632C224.11 158.677 224.231 158.748 224.335 158.841C224.438 158.934 224.521 159.047 224.579 159.174C224.637 159.3 224.669 159.437 224.672 159.576C224.647 159.852 224.519 160.109 224.314 160.297C224.11 160.484 223.842 160.588 223.564 160.588C223.287 160.588 223.019 160.484 222.814 160.297C222.61 160.109 222.482 159.852 222.457 159.576V159.621ZM222.692 161.881H224.428V169.285H222.692V161.881Z" fill="#FF6501"/>
<path d="M229.617 158.898C230.17 158.873 230.718 159.015 231.19 159.305L230.702 160.606C230.42 160.41 230.086 160.302 229.743 160.299C229.02 160.299 228.649 160.697 228.649 161.492V161.935H230.692V163.318H228.713V169.285H226.905V163.318H225.693V161.935H226.905V161.465C226.876 161.108 226.927 160.749 227.055 160.414C227.184 160.08 227.385 159.778 227.646 159.532C227.906 159.285 228.218 159.1 228.559 158.991C228.9 158.881 229.262 158.849 229.617 158.898ZM232.726 159.621C232.727 159.479 232.757 159.338 232.815 159.207C232.872 159.077 232.955 158.959 233.059 158.862C233.163 158.765 233.286 158.69 233.42 158.642C233.554 158.593 233.696 158.573 233.838 158.581C233.977 158.57 234.116 158.588 234.248 158.632C234.38 158.677 234.501 158.748 234.604 158.841C234.707 158.934 234.791 159.047 234.848 159.174C234.906 159.3 234.938 159.437 234.941 159.576C234.916 159.852 234.789 160.109 234.584 160.297C234.379 160.484 234.111 160.588 233.834 160.588C233.556 160.588 233.289 160.484 233.084 160.297C232.879 160.109 232.751 159.852 232.726 159.576V159.621ZM232.962 161.881H234.697V169.285H232.962V161.881Z" fill="#FF6501"/>
<path d="M243.864 166.138H238.06C238.165 166.682 238.468 167.168 238.911 167.502C239.353 167.836 239.903 167.994 240.455 167.946C240.829 167.958 241.201 167.893 241.547 167.754C241.894 167.616 242.209 167.407 242.471 167.141L243.375 168.208C242.998 168.617 242.535 168.937 242.019 169.145C241.503 169.353 240.947 169.444 240.392 169.41C237.915 169.41 236.306 167.819 236.306 165.614C236.292 165.11 236.382 164.608 236.57 164.141C236.757 163.673 237.039 163.249 237.398 162.894C237.756 162.54 238.184 162.263 238.654 162.081C239.124 161.899 239.626 161.815 240.13 161.835C240.633 161.816 241.135 161.903 241.603 162.09C242.071 162.277 242.495 162.559 242.847 162.919C243.199 163.279 243.473 163.709 243.649 164.181C243.826 164.652 243.902 165.156 243.873 165.659C243.891 165.758 243.882 165.966 243.864 166.138ZM238.042 164.981H242.273C242.22 164.469 241.973 163.996 241.583 163.66C241.193 163.324 240.69 163.149 240.175 163.173C239.657 163.149 239.149 163.322 238.753 163.657C238.357 163.993 238.103 164.466 238.042 164.981Z" fill="#FF6501"/>
<path d="M252.813 158.996V169.284H251.15V168.325C250.847 168.673 250.469 168.948 250.045 169.13C249.621 169.311 249.161 169.395 248.7 169.374C247.695 169.374 246.732 168.975 246.022 168.265C245.311 167.554 244.912 166.591 244.912 165.586C244.912 164.582 245.311 163.618 246.022 162.908C246.732 162.198 247.695 161.798 248.7 161.798C249.145 161.779 249.589 161.857 250 162.029C250.411 162.201 250.779 162.462 251.077 162.793V158.996H252.813ZM251.104 165.577C251.083 165.146 250.936 164.731 250.681 164.383C250.426 164.035 250.075 163.769 249.67 163.618C249.266 163.468 248.826 163.439 248.406 163.536C247.985 163.633 247.602 163.851 247.305 164.164C247.007 164.476 246.807 164.869 246.731 165.294C246.654 165.718 246.704 166.156 246.873 166.553C247.043 166.95 247.325 167.288 247.685 167.526C248.045 167.764 248.467 167.891 248.899 167.891C249.199 167.897 249.498 167.84 249.775 167.725C250.053 167.609 250.303 167.437 250.51 167.219C250.718 167.002 250.878 166.743 250.98 166.461C251.082 166.178 251.125 165.877 251.104 165.577Z" fill="#FF6501"/>
<path d="M184.064 171.717C188.262 171.717 191.666 168.313 191.666 164.114C191.666 159.916 188.262 156.512 184.064 156.512C179.865 156.512 176.461 159.916 176.461 164.114C176.461 168.313 179.865 171.717 184.064 171.717Z" fill="#FF6501"/>
<path d="M180.629 164.26L181.605 163.284L183.495 164.956L187.192 161.395L188.096 162.371L183.35 166.837L180.629 164.26Z" fill="white"/>
<path d="M216.744 351.738H157.08C152.813 351.723 148.725 350.016 145.715 346.991C142.705 343.965 141.018 339.869 141.025 335.601V281.75H216.79L216.744 351.738Z" fill="#EBEBEB"/>
<path d="M271.77 351.882L216.057 351.738V281.75H288.539V335.149C288.447 339.564 286.649 343.772 283.523 346.891C280.397 350.011 276.185 351.799 271.77 351.882Z" fill="#455A64"/>
<path d="M289.28 281.751C289.28 281.877 256.33 281.986 215.686 281.986C175.042 281.986 142.082 281.877 142.082 281.751C142.082 281.624 175.024 281.516 215.686 281.516C256.348 281.516 289.28 281.624 289.28 281.751Z" fill="#263238"/>
<path d="M214.582 322.729C214.582 322.729 214.501 322.729 214.374 322.602L213.805 322.186L211.653 320.577L203.789 314.575C202.134 313.318 200.308 311.863 198.365 310.443C197.846 310.142 197.252 309.994 196.653 310.014C196.053 310.035 195.471 310.225 194.975 310.561C194.474 310.976 194.002 311.426 193.564 311.908L192.127 313.363L179.471 326.146L178.694 326.932L178.549 327.077L178.386 326.959L171.082 321.535L167.61 318.941C167.136 318.492 166.539 318.194 165.895 318.086C165.251 317.978 164.589 318.065 163.994 318.335C163.437 318.658 162.931 319.064 162.494 319.538L161.066 320.866L158.354 323.398L153.472 327.918L146.394 334.444L144.45 336.198L143.944 336.65C143.829 336.753 143.766 336.798 143.754 336.786C143.798 336.722 143.849 336.665 143.908 336.614L144.387 336.135L146.267 334.327L153.246 327.692L158.091 323.117L160.803 320.577L162.223 319.239L162.946 318.561C163.216 318.316 163.521 318.112 163.85 317.956C164.509 317.636 165.251 317.529 165.974 317.648C166.34 317.705 166.694 317.821 167.023 317.992C167.344 318.163 167.647 318.366 167.927 318.597L171.407 321.174L178.721 326.598H178.413L179.191 325.802L191.847 313.047L193.293 311.6C193.749 311.1 194.241 310.635 194.767 310.208C195.33 309.834 195.987 309.626 196.663 309.607C197.339 309.588 198.007 309.758 198.591 310.1C200.597 311.591 202.351 313.02 204.015 314.303L211.789 320.423L213.895 322.105L214.429 322.557C214.487 322.607 214.539 322.665 214.582 322.729Z" fill="#263238"/>
<path d="M185.013 299.226C184.959 299.226 185.013 298.648 184.715 297.644C184.326 296.24 183.48 295.006 182.31 294.137C181.511 293.54 180.582 293.14 179.598 292.971C178.48 292.772 177.33 292.872 176.263 293.26C175.081 293.692 174.055 294.466 173.316 295.484C172.517 296.57 172.087 297.883 172.087 299.231C172.087 300.579 172.517 301.892 173.316 302.978C174.025 303.94 174.989 304.686 176.099 305.13C177.209 305.574 178.421 305.699 179.598 305.491C180.583 305.321 181.513 304.918 182.31 304.316C183.48 303.446 184.326 302.212 184.715 300.808C184.986 299.814 184.959 299.226 185.013 299.226C185.027 299.368 185.027 299.51 185.013 299.651C185.014 300.056 184.969 300.459 184.878 300.853C184.542 302.333 183.701 303.65 182.5 304.578C181.673 305.227 180.703 305.67 179.671 305.871C178.417 306.114 177.119 305.996 175.929 305.532C174.739 305.068 173.704 304.277 172.945 303.249C172.083 302.087 171.617 300.678 171.617 299.231C171.617 297.784 172.083 296.375 172.945 295.213C173.741 294.128 174.843 293.306 176.109 292.853C177.251 292.449 178.481 292.355 179.671 292.582C180.702 292.787 181.671 293.229 182.5 293.875C183.7 294.804 184.54 296.12 184.878 297.599C184.969 297.996 185.015 298.403 185.013 298.81C185.027 298.949 185.027 299.088 185.013 299.226Z" fill="#263238"/>
<path d="M286.297 320.488C286.297 320.488 286.225 320.488 286.098 320.361L285.556 319.955L283.477 318.337L275.892 312.325C274.301 311.068 272.547 309.613 270.676 308.194C270.176 307.893 269.597 307.748 269.014 307.779C268.431 307.81 267.87 308.014 267.404 308.365C266.928 308.787 266.478 309.237 266.057 309.712L264.683 311.168L252.578 323.905L251.819 324.692L251.674 324.845L251.502 324.719L244.46 319.295L241.115 316.7C240.665 316.248 240.083 315.95 239.453 315.85C238.823 315.749 238.177 315.851 237.608 316.14C237.078 316.479 236.594 316.886 236.171 317.351L234.805 318.68L232.193 321.202L227.501 325.722L220.712 332.231L218.85 333.985L218.353 334.428C218.244 334.527 218.181 334.581 218.172 334.572C218.216 334.509 218.267 334.451 218.326 334.401C218.443 334.265 218.597 334.111 218.778 333.921L220.586 332.113L227.275 325.496L231.922 320.931C232.762 320.117 233.621 319.268 234.516 318.391L235.872 317.062L236.568 316.384C236.816 316.141 237.096 315.935 237.4 315.769C238.037 315.432 238.766 315.308 239.479 315.417C239.839 315.469 240.188 315.582 240.51 315.751C240.829 315.925 241.132 316.127 241.414 316.357L244.759 318.942L251.81 324.366H251.493L252.253 323.571L264.384 310.86L265.767 309.414C266.208 308.921 266.679 308.456 267.178 308.022C267.712 307.628 268.351 307.401 269.014 307.371C269.677 307.34 270.334 307.507 270.902 307.85C272.846 309.342 274.518 310.77 276.127 312.054L283.612 318.183L285.628 319.873L286.144 320.316L286.297 320.488Z" fill="#263238"/>
<path d="M255.562 297.208C255.517 297.208 255.562 296.629 255.273 295.635C254.888 294.229 254.041 292.994 252.868 292.128C252.192 291.623 251.423 291.257 250.605 291.05C249.787 290.844 248.936 290.802 248.101 290.927C247.267 291.051 246.465 291.339 245.743 291.775C245.02 292.211 244.391 292.785 243.892 293.465C243.093 294.552 242.663 295.865 242.663 297.213C242.663 298.561 243.093 299.873 243.892 300.96C244.63 301.976 245.657 302.748 246.839 303.174C247.838 303.544 248.915 303.655 249.97 303.497C251.024 303.338 252.021 302.917 252.868 302.27C254.039 301.403 254.886 300.168 255.273 298.763C255.397 298.241 255.493 297.713 255.562 297.181C255.586 297.322 255.586 297.465 255.562 297.606C255.563 298.01 255.518 298.414 255.427 298.808C255.116 300.29 254.301 301.619 253.121 302.569C252.291 303.211 251.322 303.651 250.292 303.852C249.102 304.088 247.87 303.995 246.73 303.581C245.464 303.131 244.362 302.313 243.566 301.231C242.704 300.069 242.238 298.66 242.238 297.213C242.238 295.765 242.704 294.357 243.566 293.194C244.325 292.167 245.36 291.375 246.55 290.911C247.74 290.447 249.038 290.33 250.292 290.573C251.322 290.775 252.291 291.214 253.121 291.856C254.323 292.788 255.163 294.107 255.499 295.59C255.59 295.984 255.635 296.388 255.635 296.792C255.635 296.934 255.611 297.075 255.562 297.208Z" fill="#263238"/>
<path d="M217.169 139.662C228.732 139.662 238.106 130.289 238.106 118.726C238.106 107.163 228.732 97.7891 217.169 97.7891C205.606 97.7891 196.232 107.163 196.232 118.726C196.232 130.289 205.606 139.662 217.169 139.662Z" fill="#F5F5F5"/>
<path d="M230.702 134.606C230.345 131.285 228.752 128.22 226.241 126.018C223.729 123.816 220.481 122.638 217.142 122.719C209.711 122.719 204.622 128.342 203.582 134.652C203.582 134.652 208.174 139.732 217.142 139.66C226.11 139.587 230.702 134.606 230.702 134.606Z" fill="#E0E0E0"/>
<path d="M225.687 116.676C226.412 112.188 223.362 107.962 218.874 107.237C214.386 106.511 210.16 109.562 209.434 114.05C208.709 118.538 211.759 122.764 216.247 123.489C220.735 124.214 224.962 121.164 225.687 116.676Z" fill="#E0E0E0"/>
<path d="M230.601 133.893C230.345 132.553 229.916 131.253 229.326 130.024C228.565 128.649 227.56 127.423 226.361 126.408C224.787 125.078 222.974 124.059 221.019 123.406L220.585 123.271L220.982 123.063C222.362 122.313 223.496 121.179 224.246 119.799C224.899 118.583 225.225 117.219 225.193 115.839C225.161 114.459 224.772 113.111 224.063 111.926C223.355 110.742 222.351 109.761 221.15 109.08C219.95 108.4 218.593 108.042 217.213 108.042C215.833 108.042 214.476 108.4 213.275 109.08C212.075 109.761 211.071 110.742 210.363 111.926C209.654 113.111 209.265 114.459 209.233 115.839C209.201 117.219 209.527 118.583 210.18 119.799C210.56 120.504 211.041 121.15 211.608 121.716C212.158 122.245 212.764 122.712 213.416 123.108L213.778 123.334L213.362 123.451C211.361 123.978 209.522 124.994 208.01 126.408C206.863 127.494 205.915 128.773 205.208 130.186C204.752 131.093 204.383 132.04 204.105 133.016C204.005 133.35 203.942 133.612 203.897 133.784C203.885 133.875 203.861 133.963 203.825 134.046C203.808 133.957 203.808 133.865 203.825 133.775C203.825 133.594 203.897 133.323 203.978 132.989C204.215 131.991 204.558 131.021 205 130.096C205.685 128.635 206.628 127.309 207.784 126.182C209.307 124.714 211.171 123.648 213.208 123.081L213.154 123.424C212.471 123.022 211.835 122.546 211.255 122.005C210.654 121.414 210.142 120.738 209.737 119.998C208.843 118.33 208.535 116.41 208.863 114.546C209.19 112.682 210.135 110.982 211.545 109.72C213.089 108.329 215.094 107.559 217.172 107.559C219.251 107.559 221.255 108.329 222.8 109.72C223.808 110.626 224.582 111.762 225.056 113.033C225.531 114.303 225.691 115.669 225.523 117.014C225.355 118.359 224.864 119.644 224.093 120.759C223.321 121.873 222.291 122.785 221.091 123.415V123.063C223.086 123.745 224.929 124.811 226.515 126.2C227.729 127.259 228.732 128.538 229.471 129.969C229.729 130.499 229.944 131.05 230.113 131.615C230.253 132.024 230.359 132.444 230.429 132.871C230.474 133.188 230.511 133.45 230.538 133.667C230.565 133.884 230.619 133.893 230.601 133.893Z" fill="#263238"/>
<path d="M238.105 118.724C238.077 118.611 238.062 118.496 238.06 118.38C238.06 118.136 238.06 117.811 237.988 117.395L237.942 116.663C237.942 116.392 237.852 116.102 237.798 115.759C237.704 115.029 237.556 114.306 237.355 113.598C236.864 111.647 236.081 109.782 235.032 108.066C232.549 103.922 228.7 100.772 224.147 99.1565C219.594 97.5415 214.62 97.5624 210.081 99.2155C209.151 99.5507 208.245 99.9494 207.369 100.409C206.485 100.893 205.636 101.44 204.829 102.045C204.002 102.658 203.217 103.326 202.478 104.043C201.748 104.799 201.069 105.602 200.444 106.448C199.16 108.178 198.162 110.104 197.488 112.152C196.066 116.396 196.066 120.988 197.488 125.233C198.162 127.283 199.16 129.212 200.444 130.946C201.071 131.79 201.75 132.593 202.478 133.351C203.217 134.068 204.002 134.735 204.829 135.348C205.638 135.95 206.487 136.497 207.369 136.985C211.528 139.177 216.301 139.919 220.929 139.091C223.835 138.556 226.595 137.412 229.028 135.734C231.46 134.056 233.509 131.882 235.041 129.355C236.091 127.636 236.875 125.768 237.364 123.813C237.565 123.108 237.713 122.389 237.807 121.662C237.861 121.345 237.915 121.056 237.951 120.758L237.997 120.026C237.997 119.61 238.051 119.284 238.069 119.031C238.071 118.918 238.086 118.806 238.114 118.697C238.126 118.811 238.126 118.926 238.114 119.04C238.114 119.284 238.114 119.619 238.114 120.035C238.114 120.261 238.114 120.505 238.114 120.767C238.114 121.029 238.033 121.336 237.997 121.671C237.916 122.406 237.78 123.135 237.59 123.85C237.121 125.832 236.352 127.731 235.312 129.481C233.788 132.06 231.734 134.286 229.286 136.011C226.838 137.736 224.051 138.922 221.11 139.489C217.389 140.185 213.55 139.873 209.991 138.585C209.043 138.243 208.118 137.839 207.224 137.373C206.319 136.88 205.449 136.324 204.621 135.71C203.774 135.084 202.971 134.402 202.216 133.667C201.468 132.899 200.774 132.08 200.137 131.217C198.817 129.447 197.791 127.475 197.1 125.377C196.406 123.217 196.038 120.965 196.006 118.697C196.035 116.424 196.407 114.169 197.109 112.007C197.795 109.912 198.818 107.943 200.137 106.176C200.774 105.311 201.468 104.489 202.216 103.717C202.975 102.99 203.778 102.311 204.621 101.683C205.449 101.069 206.319 100.513 207.224 100.02C208.118 99.5549 209.043 99.1502 209.991 98.8087C213.547 97.5208 217.383 97.2087 221.101 97.9047C224.044 98.47 226.833 99.6547 229.283 101.38C231.733 103.105 233.788 105.332 235.312 107.912C236.352 109.66 237.12 111.556 237.59 113.535C237.78 114.253 237.916 114.984 237.997 115.723C237.997 116.039 238.087 116.337 238.114 116.627C238.141 116.916 238.114 117.142 238.114 117.368C238.114 117.784 238.114 118.118 238.114 118.362C238.124 118.483 238.121 118.604 238.105 118.724Z" fill="#263238"/>
<path d="M130.573 213.824C119.581 219.519 111.146 229.328 105.09 240.122C99.0328 250.915 95.1456 262.767 91.2494 274.528L87.8594 335.186C100.651 313.427 110.92 287.844 113.696 262.749L105.18 261.989C110.893 261.085 115.684 256.981 118.74 252.045C121.796 247.109 123.359 241.478 124.887 235.918L114.5 237.455C122.694 231.934 128.449 223.473 130.573 213.824Z" fill="#455A64"/>
<path d="M130.573 213.824C119.581 219.519 111.146 229.328 105.09 240.122C99.0328 250.915 95.1456 262.767 91.2494 274.528L87.8594 335.186C100.651 313.427 110.92 287.844 113.696 262.749L105.18 261.989C110.893 261.085 115.684 256.981 118.74 252.045C121.796 247.109 123.359 241.478 124.887 235.918L114.5 237.455C122.694 231.934 128.449 223.473 130.573 213.824Z" fill="#455A64"/>
<path d="M85.9611 349.405C85.9611 349.405 58.1992 316.165 58.5156 284.435H69.7343C69.7343 284.435 57.5483 276.425 58.5156 271.942C59.4829 267.458 59.7993 250.462 59.7993 250.462L70.0597 253.03C70.0597 253.03 62.3667 249.188 61.3994 243.086C60.4321 236.984 63.6413 208.824 63.6413 208.824C63.6413 208.824 76.1436 221.959 79.9947 235.42C83.8457 248.88 93.9343 264.583 90.9692 305.606C88.0041 346.63 85.9611 349.405 85.9611 349.405Z" fill="#455A64"/>
<path d="M100.045 352.56C100.045 352.56 130.13 332.519 136.811 306.935L127.771 304.486C127.771 304.486 139.324 300.707 139.523 296.892C139.722 293.077 143.139 279.345 143.139 279.345L134.334 279.165C134.334 279.165 141.358 277.754 143.464 273.072C145.57 268.389 149.241 244.984 149.241 244.984C149.241 244.984 136.314 252.822 130.257 262.802C124.2 272.782 112.665 283.196 106.075 316.825C99.4846 350.454 100.045 352.56 100.045 352.56Z" fill="#455A64"/>
<path d="M71.2344 237.754C71.2344 237.754 71.2344 237.871 71.3248 238.097C71.4152 238.323 71.4694 238.694 71.5689 239.119C71.7768 240.023 72.0661 241.379 72.4729 243.069C72.8797 244.76 73.3045 246.884 73.7837 249.325C74.2628 251.766 74.8504 254.55 75.4109 257.633C76.6041 263.798 77.8517 271.193 79.1444 279.329C80.4371 287.465 81.6485 296.568 82.7604 306.078C83.8723 315.588 84.6949 324.683 85.3458 332.954C85.9967 341.226 86.4216 348.693 86.6657 354.958C86.8284 358.094 86.9007 360.933 86.9821 363.428C87.0634 365.923 87.1086 368.066 87.1267 369.819C87.1448 371.573 87.1267 372.911 87.1719 373.86V374.909C87.1719 375.144 87.1719 375.27 87.1719 375.27C87.1568 375.15 87.1568 375.029 87.1719 374.909V373.86C87.1719 372.911 87.0905 371.555 87.0363 369.819C86.9821 368.084 86.9188 365.923 86.8103 363.437C86.7018 360.951 86.6024 358.112 86.4306 354.976C86.1323 348.711 85.6351 341.262 85.0023 332.99C84.3695 324.719 83.4655 315.643 82.3807 306.132C81.2959 296.622 80.0303 287.591 78.7647 279.392C77.4991 271.193 76.2787 263.825 75.1487 257.696C74.6063 254.604 74.0549 251.829 73.5938 249.379C73.1328 246.929 72.6898 244.859 72.3553 243.106C72.0209 241.352 71.7497 240.077 71.5689 239.146C71.4875 238.703 71.4152 238.369 71.37 238.106C71.3138 237.993 71.2684 237.875 71.2344 237.754Z" fill="#263238"/>
<path d="M82.11 369.735C82.11 369.735 56.6985 340.925 48.8157 323.495L54.773 320.919C50.4519 321.633 46.0313 319.78 42.6775 316.96C39.3237 314.139 36.8738 310.433 34.4601 306.78L42.3069 305.452C35.0853 303.401 28.933 298.645 25.1309 292.172C34.3878 293.7 42.7679 298.78 49.6654 305.144C55.2612 310.288 59.9891 316.263 64.5362 322.374C66.7606 325.347 68.695 328.525 70.3128 331.866C74.6158 340.717 82.1281 359.167 82.11 369.735Z" fill="#455A64"/>
<path d="M137.209 261.773C137.183 261.875 137.144 261.972 137.092 262.063L136.703 262.903C136.332 263.663 135.799 264.711 135.148 266.095C134.497 267.478 133.638 269.177 132.698 271.157C131.758 273.137 130.664 275.379 129.516 277.883C127.166 282.882 124.472 288.866 121.57 295.556C118.668 302.246 115.64 309.676 112.593 317.523C109.547 325.37 106.844 332.891 104.457 339.807C102.071 346.722 100.064 352.96 98.4367 358.23C97.6051 360.861 96.909 363.256 96.2671 365.354C95.6253 367.451 95.101 369.259 94.6761 370.778C94.2512 372.296 93.9167 373.381 93.6727 374.186L93.4015 375.09C93.3758 375.193 93.3395 375.293 93.293 375.388C93.305 375.281 93.3262 375.175 93.3562 375.072C93.4105 374.846 93.4918 374.556 93.5822 374.168L94.4862 370.733C94.884 369.25 95.3903 367.424 95.9959 365.309C96.6016 363.193 97.2886 360.789 98.1022 358.167C99.6842 352.879 101.718 346.623 104.023 339.707C106.329 332.792 109.104 325.243 112.159 317.388C115.215 309.532 118.28 302.119 121.199 295.42C124.119 288.722 126.858 282.764 129.236 277.783C130.411 275.279 131.523 273.046 132.49 271.076C133.458 269.105 134.298 267.46 135.013 266.049L136.64 262.894L137.074 262.081C137.108 261.974 137.154 261.871 137.209 261.773Z" fill="#263238"/>
<path d="M84.2696 382.11C84.2103 381.938 84.1709 381.759 84.1521 381.577L83.908 380.049C83.8086 379.38 83.691 378.567 83.5103 377.626C83.3295 376.686 83.1848 375.611 82.9227 374.435C82.4707 372.076 81.8198 369.292 80.9881 366.218C80.1564 363.144 79.0807 359.836 77.7879 356.401C76.4952 352.965 75.0759 349.774 73.7019 346.909C72.3278 344.043 70.9899 341.539 69.7242 339.469C69.1366 338.411 68.5491 337.498 68.0519 336.684C67.5547 335.871 67.1478 335.166 66.7501 334.605L65.9184 333.294C65.8171 333.146 65.7293 332.988 65.6562 332.824C65.7891 332.947 65.9047 333.086 65.9998 333.24L66.9038 334.506C67.2925 335.048 67.7626 335.735 68.2779 336.54C68.7931 337.344 69.3988 338.248 70.0045 339.297C71.2701 341.349 72.6532 343.871 74.0906 346.719C75.5279 349.566 76.9201 352.794 78.2309 356.229C79.5417 359.664 80.5723 363.027 81.4039 366.109C82.2356 369.192 82.8413 372.004 83.2119 374.372C83.447 375.556 83.5826 376.641 83.7272 377.59C83.8719 378.539 83.9803 379.353 84.0436 380.022C84.1069 380.691 84.1611 381.161 84.1973 381.568C84.2455 381.745 84.2698 381.927 84.2696 382.11Z" fill="#263238"/>
<path d="M117.8 375.332H62.1855V386.677H117.8V375.332Z" fill="#FF6501"/>
<path d="M67.4824 386.676L73.5031 424.834H107.105L112.71 386.676H67.4824Z" fill="#FF6501"/>
<path d="M114.393 386.678C114.393 386.804 103.87 386.913 90.8888 386.913C77.9073 386.913 67.3848 386.804 67.3848 386.678C67.3848 386.551 77.9073 386.434 90.8888 386.434C103.87 386.434 114.393 386.542 114.393 386.678Z" fill="#263238"/>
<g opacity="0.3">
<path d="M130.573 213.824C119.581 219.519 111.146 229.328 105.09 240.122C99.0328 250.915 95.1456 262.767 91.2494 274.528L87.8594 335.186C100.651 313.427 110.92 287.844 113.696 262.749L105.18 261.989C110.893 261.085 115.684 256.981 118.74 252.045C121.796 247.109 123.359 241.478 124.887 235.918L114.5 237.455C122.694 231.934 128.449 223.473 130.573 213.824Z" fill="black"/>
</g>
<path d="M418.615 424.7C418.615 424.826 332.373 424.935 226.008 424.935C119.644 424.935 33.375 424.826 33.375 424.7C33.375 424.573 119.608 424.465 226.008 424.465C332.409 424.465 418.615 424.564 418.615 424.7Z" fill="#263238"/>
</svg>
