<svg width="679" height="679" viewBox="0 0 679 679" fill="none" xmlns="http://www.w3.org/2000/svg">
<path d="M338.21 660.055C514.918 660.055 658.169 577.349 658.169 475.326C658.169 373.304 514.918 290.598 338.21 290.598C161.502 290.598 18.252 373.304 18.252 475.326C18.252 577.349 161.502 660.055 338.21 660.055Z" fill="#F0F0F0"/>
<path d="M521.96 539.425C500.979 527.312 500.979 507.675 521.96 495.562C542.942 483.448 576.959 483.448 597.941 495.562C618.922 507.675 618.922 527.312 597.941 539.425C576.959 551.538 542.942 551.538 521.96 539.425Z" fill="#E0E0E0"/>
<path d="M95.2227 541.111L40.0335 509.252C36.9237 507.459 36.9237 504.54 40.0335 502.747L361.051 317.407C362.796 316.523 364.724 316.062 366.68 316.062C368.636 316.062 370.564 316.523 372.309 317.407L427.512 349.266C430.621 351.059 430.621 353.978 427.512 355.771L106.494 541.111C104.747 541.995 102.816 542.456 100.858 542.456C98.9003 542.456 96.9697 541.995 95.2227 541.111Z" fill="#E0E0E0"/>
<path d="M293.6 484.316L341.048 456.884C345.937 454.059 348.381 450.366 348.381 446.658C348.381 442.951 348.381 440.058 348.381 440.058L299.167 412.301C297.793 411.412 296.648 410.21 295.826 408.794C295.005 407.378 294.531 405.788 294.442 404.153V345.637L211.604 393.52V452.009C211.699 453.642 212.176 455.23 212.997 456.645C213.818 458.06 214.959 459.263 216.329 460.157L258.21 484.275C267.961 489.965 283.822 489.965 293.6 484.316Z" fill="#FF6501"/>
<g opacity="0.6">
<path d="M293.6 484.316L341.048 456.884C345.937 454.059 348.381 450.366 348.381 446.658C348.381 442.951 348.381 440.058 348.381 440.058L299.167 412.301C297.793 411.412 296.648 410.21 295.826 408.794C295.005 407.378 294.531 405.788 294.442 404.153V345.637L211.604 393.52V452.009C211.699 453.642 212.176 455.23 212.997 456.645C213.818 458.06 214.959 459.263 216.329 460.157L258.21 484.275C267.961 489.965 283.822 489.965 293.6 484.316Z" fill="black"/>
</g>
<path opacity="0.3" d="M231.471 462.369V468.942L216.288 460.183C214.919 459.29 213.778 458.087 212.959 456.671C212.141 455.256 211.667 453.667 211.576 452.035V393.518L227.356 384.406C227.682 388.412 228.035 392.554 228.375 396.628L217.28 403.011V448.708C217.368 450.342 217.842 451.933 218.663 453.35C219.485 454.766 220.63 455.967 222.006 456.856L231.471 462.369Z" fill="black"/>
<path d="M217.279 448.722C217.373 450.356 217.849 451.945 218.67 453.36C219.491 454.776 220.633 455.978 222.005 456.87L258.155 477.702C267.933 483.338 283.794 483.351 293.585 477.702L341.115 450.27C350.906 444.621 350.906 435.468 341.115 429.819L304.938 408.987C303.57 408.093 302.43 406.889 301.612 405.474C300.794 404.059 300.319 402.471 300.226 400.839V355.129L217.388 403.012L217.279 448.722Z" fill="#FF6501"/>
<path opacity="0.3" d="M217.279 448.722C217.373 450.356 217.849 451.945 218.67 453.36C219.491 454.776 220.633 455.978 222.005 456.87L258.155 477.702C267.933 483.338 283.794 483.351 293.585 477.702L341.115 450.27C350.906 444.621 350.906 435.468 341.115 429.819L304.938 408.987C303.57 408.093 302.43 406.889 301.612 405.474C300.794 404.059 300.319 402.471 300.226 400.839V355.129L217.388 403.012L217.279 448.722Z" fill="black"/>
<path opacity="0.5" d="M314.512 414.569L304.884 409.014C303.516 408.12 302.377 406.917 301.558 405.501C300.74 404.086 300.265 402.499 300.172 400.866V355.129L217.334 403.012V448.722C217.427 450.356 217.904 451.945 218.725 453.36C219.546 454.776 220.688 455.978 222.06 456.87L231.566 462.302L314.512 414.569Z" fill="black"/>
<path d="M348.395 440.07V446.67C348.395 450.378 345.937 454.058 341.062 456.896L293.532 484.314C288.331 487.09 282.521 488.532 276.625 488.51V481.937C282.521 481.96 288.331 480.518 293.532 477.741L341.062 450.296C345.937 447.485 348.395 443.778 348.395 440.07Z" fill="#FF6501"/>
<path opacity="0.5" d="M348.395 440.07V446.67C348.395 450.378 345.937 454.058 341.062 456.896L293.532 484.314C288.331 487.09 282.521 488.532 276.625 488.51V481.937C282.521 481.96 288.331 480.518 293.532 477.741L341.062 450.296C345.937 447.485 348.395 443.778 348.395 440.07Z" fill="black"/>
<path d="M84.1957 505.528C85.9865 506.393 87.9554 506.825 89.9439 506.789C91.9324 506.754 93.8847 506.252 95.6436 505.324L416.132 320.297C417.85 319.176 419.28 317.666 420.307 315.889C421.333 314.113 421.926 312.119 422.039 310.071V50.8014C421.978 48.8084 421.446 46.858 420.488 45.1093C419.53 43.3606 418.172 41.8631 416.525 40.7386C414.737 39.8727 412.769 39.4411 410.782 39.4788C408.795 39.5166 406.845 40.0227 405.091 40.9559L84.6031 226.038C82.8906 227.166 81.469 228.682 80.4542 230.464C79.4394 232.246 78.8601 234.242 78.7637 236.291V495.519C78.8242 497.496 79.3472 499.431 80.2905 501.169C81.2338 502.907 82.5713 504.4 84.1957 505.528Z" fill="#FF6501"/>
<path d="M95.6846 505.312L416.173 320.284C417.893 319.166 419.325 317.656 420.352 315.879C421.379 314.102 421.971 312.108 422.08 310.058V50.8025C422.08 47.0408 419.432 45.5063 416.173 47.3939L95.6846 232.421C93.9654 233.541 92.5346 235.051 91.5082 236.828C90.4818 238.605 89.8888 240.598 89.7773 242.647V501.903C89.7773 505.665 92.4254 507.199 95.6846 505.312Z" fill="#FF6501"/>
<path opacity="0.5" d="M95.6846 505.312L416.173 320.284C417.893 319.166 419.325 317.656 420.352 315.879C421.379 314.102 421.971 312.108 422.08 310.058V50.8025C422.08 47.0408 419.432 45.5063 416.173 47.3939L95.6846 232.421C93.9654 233.541 92.5346 235.051 91.5082 236.828C90.4818 238.605 89.8888 240.598 89.7773 242.647V501.903C89.7773 505.665 92.4254 507.199 95.6846 505.312Z" fill="black"/>
<path d="M94.8152 512.046C93.1346 512.78 91.315 513.14 89.4816 513.103C87.6483 513.065 85.8449 512.631 84.1957 511.829C82.5677 510.698 81.228 509.201 80.2845 507.458C79.341 505.715 78.82 503.775 78.7637 501.793V478.191L89.8314 484.601V508.203C89.7635 511.639 91.9499 513.201 94.8152 512.046Z" fill="#FF6501"/>
<path opacity="0.5" d="M94.8152 512.046C93.1346 512.78 91.315 513.14 89.4816 513.103C87.6483 513.065 85.8449 512.631 84.1957 511.829C82.5677 510.698 81.228 509.201 80.2845 507.458C79.341 505.715 78.82 503.775 78.7637 501.793V478.191L89.8314 484.601V508.203C89.7635 511.639 91.9499 513.201 94.8152 512.046Z" fill="black"/>
<path d="M89.7637 484.602V508.204C89.7637 511.966 92.4797 513.487 95.671 511.613L416.159 326.585C417.87 325.47 419.296 323.968 420.322 322.202C421.348 320.435 421.945 318.453 422.066 316.414V292.703L89.7637 484.602Z" fill="#FF6501"/>
<path opacity="0.3" d="M89.7773 484.548V508.204C89.7773 511.966 92.4933 513.487 95.6846 511.613L416.173 326.585C417.881 325.468 419.305 323.966 420.328 322.2C421.352 320.434 421.947 318.452 422.066 316.414V292.703L89.7773 484.548Z" fill="black"/>
<path d="M100.846 454.929V246.326C100.909 245.097 101.262 243.901 101.875 242.834C102.489 241.767 103.346 240.861 104.377 240.188L407.401 65.1828C409.356 64.0557 410.945 64.9655 410.945 67.2198V275.931C410.879 277.161 410.524 278.358 409.908 279.424C409.292 280.491 408.433 281.397 407.401 282.069L104.39 457.034C102.435 458.161 100.846 457.237 100.846 454.929Z" fill="#FF6501"/>
<path d="M100.846 454.929V246.326C100.909 245.097 101.262 243.901 101.875 242.834C102.489 241.767 103.346 240.861 104.377 240.188L407.401 65.1828C409.356 64.0557 410.945 64.9655 410.945 67.2198V275.931C410.879 277.161 410.524 278.358 409.908 279.424C409.292 280.491 408.433 281.397 407.401 282.069L104.39 457.034C102.435 458.161 100.846 457.237 100.846 454.929Z" fill="#263238"/>
<path d="M255.916 396.167C254.303 397.217 252.96 398.632 251.997 400.298C251.034 401.964 250.479 403.833 250.375 405.755C250.375 409.286 252.86 410.725 255.916 408.96C257.53 407.909 258.874 406.492 259.837 404.823C260.8 403.155 261.355 401.282 261.456 399.359C261.456 395.828 258.971 394.402 255.916 396.167Z" fill="#FF6501"/>
<path opacity="0.7" d="M91.5153 236.809C90.4628 238.578 89.8612 240.578 89.7635 242.634V484.603L78.7637 478.193V236.293C78.8349 234.23 79.4333 232.219 80.5019 230.453L91.5153 236.809Z" fill="black"/>
<path opacity="0.3" d="M422.011 49.8242C421.59 46.7822 419.132 45.7502 416.158 47.3934L95.6703 232.421C93.9326 233.508 92.4984 235.017 91.5012 236.807L80.4199 230.411C81.4237 228.621 82.8622 227.112 84.6026 226.025L405.091 41.0108C406.847 40.0774 408.799 39.5713 410.789 39.5335C412.778 39.4958 414.747 39.9274 416.538 40.7935C418.044 41.8192 419.312 43.1563 420.256 44.7143C421.2 46.2723 421.799 48.0149 422.011 49.8242Z" fill="black"/>
<path d="M439.298 81.7373C438.822 81.4984 438.29 81.3937 437.759 81.4343C437.228 81.475 436.718 81.6596 436.284 81.9681L133.884 256.661C132.691 257.451 131.7 258.51 130.993 259.753C130.285 260.996 129.88 262.389 129.81 263.818V471.144C129.768 471.844 129.907 472.543 130.214 473.173C130.521 473.804 130.985 474.344 131.562 474.742C132.227 475.109 135.785 477.173 136.845 477.744C137.219 477.935 137.638 478.023 138.058 477.999C138.478 477.975 138.884 477.84 139.235 477.608L441.566 302.915C442.759 302.125 443.75 301.066 444.458 299.823C445.166 298.58 445.571 297.187 445.64 295.758V87.3594C445.701 86.8328 445.614 86.2997 445.388 85.8199C445.163 85.3402 444.808 84.9327 444.364 84.6434C443.685 84.1953 440.059 82.1854 439.298 81.7373Z" fill="#FF6501"/>
<path d="M139.168 259.593L441.581 84.9678C443.862 83.6098 445.655 84.7234 445.655 87.3579V295.757C445.585 297.186 445.18 298.578 444.472 299.821C443.765 301.065 442.774 302.124 441.581 302.913L139.168 477.606C136.886 478.964 135.094 476.778 135.094 474.143V266.75C135.165 265.321 135.571 263.929 136.279 262.686C136.987 261.443 137.976 260.384 139.168 259.593Z" fill="#FAFAFA"/>
<path d="M443.428 85.7564C444.229 85.7564 444.351 86.7614 444.351 87.3589V295.758C444.278 296.954 443.927 298.117 443.326 299.154C442.725 300.192 441.89 301.074 440.888 301.733L138.516 476.426C138.313 476.557 138.079 476.633 137.837 476.643C137.076 476.643 136.479 475.475 136.479 474.144V266.751C136.544 265.554 136.885 264.389 137.474 263.346C138.062 262.303 138.884 261.409 139.874 260.735L442.26 86.1367C442.61 85.9109 443.012 85.7799 443.428 85.7564ZM443.428 84.3984C442.773 84.4263 442.137 84.6228 441.581 84.9688L139.168 259.594C137.976 260.385 136.987 261.445 136.279 262.688C135.571 263.93 135.165 265.322 135.094 266.751V474.144C135.094 476.236 136.262 478.001 137.81 478.001C138.289 477.992 138.758 477.856 139.168 477.607L441.567 302.914C442.76 302.125 443.751 301.066 444.459 299.822C445.167 298.579 445.572 297.187 445.641 295.758V87.3589C445.641 85.4848 444.718 84.3984 443.36 84.3984H443.428Z" fill="#E0E0E0"/>
<path d="M131.481 474.744C131.929 474.974 135.147 476.808 136.56 477.623C136.052 477.202 135.651 476.668 135.387 476.065C135.123 475.461 135.003 474.804 135.039 474.146V280.292L129.742 277.195V471.145C129.699 471.844 129.835 472.542 130.14 473.172C130.444 473.802 130.906 474.344 131.481 474.744Z" fill="#F0F0F0"/>
<path d="M445.709 87.3183C445.709 84.711 443.849 83.6517 441.635 84.969L139.168 259.594C137.976 260.385 136.987 261.445 136.279 262.688C135.571 263.931 135.165 265.322 135.094 266.751V280.331L445.709 100.898V87.3183Z" fill="#FF6501"/>
<g opacity="0.4">
<path d="M441.58 84.9695L139.167 259.581C137.954 260.347 136.954 261.407 136.261 262.664L131.006 259.608C131.697 258.396 132.689 257.381 133.885 256.661L436.284 81.9683C436.717 81.6576 437.227 81.4706 437.758 81.4276C438.289 81.3845 438.822 81.4869 439.299 81.7239C440.032 82.1856 443.468 84.1275 444.351 84.6028C443.894 84.4335 443.403 84.3784 442.92 84.4423C442.437 84.5062 441.977 84.6872 441.58 84.9695Z" fill="white"/>
</g>
<path opacity="0.15" d="M129.742 277.209V263.751C129.798 262.285 130.233 260.858 131.005 259.609L136.274 262.651C135.513 263.878 135.087 265.283 135.038 266.725V280.305L129.742 277.209Z" fill="black"/>
<path d="M381.936 243.653L200.819 348.219C199.939 348.79 199.205 349.561 198.679 350.47C198.153 351.379 197.849 352.398 197.791 353.447V405.377C197.849 406.425 198.153 407.445 198.679 408.354C199.205 409.262 199.939 410.034 200.819 410.605L206.102 413.647C207.041 414.122 208.078 414.369 209.13 414.369C210.182 414.369 211.22 414.122 212.159 413.647L393.248 309.081C394.129 308.507 394.862 307.733 395.388 306.822C395.915 305.911 396.219 304.889 396.276 303.839V251.896C396.219 250.847 395.915 249.827 395.388 248.919C394.862 248.01 394.129 247.239 393.248 246.667L387.952 243.625C387.017 243.158 385.986 242.917 384.941 242.922C383.896 242.927 382.866 243.177 381.936 243.653Z" fill="#FF6501"/>
<path opacity="0.5" d="M396.276 251.433C396.059 249.871 394.796 249.301 393.275 250.184L212.159 354.75C211.266 355.305 210.531 356.081 210.027 357.004L198.688 350.458C199.196 349.55 199.924 348.784 200.806 348.231L381.936 243.665C382.872 243.189 383.907 242.941 384.958 242.941C386.008 242.941 387.043 243.189 387.979 243.665L393.275 246.707C394.083 247.236 394.768 247.932 395.286 248.746C395.803 249.561 396.141 250.477 396.276 251.433Z" fill="white"/>
<path d="M211.643 413.903C210.756 414.252 209.805 414.411 208.853 414.369C207.901 414.327 206.968 414.085 206.116 413.658L200.819 410.616C199.94 410.043 199.208 409.272 198.682 408.363C198.156 407.455 197.851 406.436 197.791 405.388V353.458C197.832 352.398 198.14 351.366 198.687 350.457L210.027 357.003C209.476 357.9 209.167 358.924 209.13 359.977V411.92C209.13 413.645 210.217 414.446 211.643 413.903Z" fill="#263238"/>
<path d="M212.159 354.75L393.276 250.184C394.946 249.22 396.304 249.994 396.304 251.922V303.866C396.247 304.916 395.942 305.938 395.416 306.849C394.89 307.759 394.157 308.533 393.276 309.108L212.187 413.674C210.516 414.638 209.158 413.85 209.158 411.922V359.992C209.213 358.944 209.513 357.924 210.034 357.013C210.555 356.103 211.283 355.328 212.159 354.75Z" fill="#FF6501"/>
<path d="M333.917 271.383L200.833 348.232C199.952 348.785 199.223 349.551 198.715 350.459L210.054 357.005C210.559 356.082 211.293 355.305 212.186 354.75L345.27 277.915L333.917 271.383Z" fill="#455A64"/>
<path d="M345.243 277.914L212.159 354.75C211.278 355.324 210.545 356.098 210.019 357.009C209.493 357.92 209.188 358.941 209.131 359.992V411.908C209.131 413.836 210.489 414.624 212.159 413.66L345.243 336.824V277.914Z" fill="#37474F"/>
<path d="M242.85 348.42L311.524 308.78C314.362 307.136 316.671 308.304 316.671 311.387C316.544 313.118 316.01 314.795 315.114 316.282C314.217 317.768 312.983 319.022 311.51 319.942L242.85 359.596C240.012 361.239 237.689 360.071 237.689 356.989C237.818 355.256 238.351 353.577 239.248 352.089C240.144 350.6 241.378 349.343 242.85 348.42Z" fill="#FF6501"/>
<path d="M377.347 304.736L364.16 312.341L366.211 293.845C364.622 293.003 363.617 290.953 363.617 288.006C363.617 282.75 366.822 276.653 370.76 274.426C374.698 272.199 377.89 274.561 377.89 279.858C377.808 282.974 376.919 286.015 375.31 288.685L377.347 304.736Z" fill="#455A64"/>
<path d="M377.36 304.734L365.749 298.039L364.16 312.352L377.36 304.734Z" fill="#37474F"/>
<path d="M370.732 274.385C367.861 276.325 365.719 279.169 364.648 282.465L375.282 288.603C376.891 285.934 377.78 282.892 377.862 279.776C377.889 274.521 374.698 272.117 370.732 274.385Z" fill="#37474F"/>
<path d="M306.636 212.797C302.114 210.19 295.88 210.556 288.982 214.535C275.212 222.493 264.049 241.817 264.049 257.72C264.049 265.705 266.873 271.3 271.409 273.88L280.195 278.986C284.704 281.593 290.937 281.213 297.849 277.234C311.62 269.29 322.782 249.952 322.782 234.05C322.782 226.105 319.985 220.47 315.476 217.93" fill="#FF6501"/>
<path d="M297.835 219.657C284.065 227.615 272.902 246.953 272.902 262.841C272.902 278.73 284.065 285.194 297.835 277.236C311.605 269.278 322.782 249.954 322.768 234.052C322.755 218.15 311.592 211.713 297.835 219.657Z" fill="#FF6501"/>
<path d="M311.593 254.939V256.758C308.294 262.647 303.563 267.607 297.837 271.18C292.472 274.263 287.624 274.603 284.066 272.633V268.885C284.249 264.986 285.362 261.187 287.313 257.806C289.265 254.425 291.998 251.56 295.283 249.452L298.909 247.361C302.114 245.514 305.238 245.27 307.682 246.696C310.126 248.122 311.593 251.123 311.593 254.939Z" fill="#FF6501"/>
<path opacity="0.4" d="M306.635 212.797L315.462 217.93C310.953 215.309 304.72 215.676 297.808 219.655C288.791 224.869 280.887 234.959 276.514 245.769L267.674 240.649C272.06 229.785 279.896 219.75 288.967 214.535C295.893 210.57 302.126 210.189 306.635 212.797Z" fill="white"/>
<path opacity="0.2" d="M279.883 278.781L271.423 273.879C266.887 271.299 264.062 265.731 264.062 257.719L272.903 262.852C272.957 270.593 275.565 276.106 279.883 278.781Z" fill="black"/>
<path opacity="0.1" d="M267.702 240.652L276.543 245.772C274.278 251.184 273.061 256.976 272.958 262.842L264.117 257.709C264.226 251.848 265.443 246.061 267.702 240.652Z" fill="black"/>
<path d="M294.684 246.504C293.842 246.513 293.012 246.297 292.281 245.879C291.399 245.291 290.693 244.476 290.236 243.52C289.779 242.564 289.59 241.502 289.687 240.447C289.802 237.973 290.508 235.562 291.746 233.417C292.984 231.271 294.718 229.454 296.803 228.116C297.64 227.448 298.66 227.047 299.728 226.968C300.797 226.888 301.865 227.133 302.792 227.67C303.719 228.207 304.463 229.011 304.925 229.978C305.388 230.944 305.548 232.027 305.385 233.086C305.268 235.56 304.561 237.97 303.323 240.115C302.085 242.26 300.352 244.078 298.269 245.417C297.192 246.09 295.954 246.465 294.684 246.504Z" fill="white"/>
<path d="M307.682 246.68C305.238 245.254 302.114 245.499 298.909 247.345L295.283 249.437C291.996 251.546 289.262 254.413 287.31 257.796C285.359 261.18 284.246 264.981 284.066 268.883V272.645C287.624 274.614 292.472 274.275 297.837 271.192C303.563 267.619 308.294 262.658 311.593 256.77V254.95C311.593 251.121 310.181 248.119 307.682 246.68Z" fill="white"/>
<path d="M586.859 481.616C586.859 481.616 588.666 465.754 596.556 453.437C604.445 441.12 615.282 433.447 625.399 432.646C635.517 431.845 643.692 441.161 632.868 447.584C622.045 454.007 602.816 460.499 593.962 484.399L586.859 481.616Z" fill="#FF6501"/>
<path opacity="0.1" d="M586.859 481.616C586.859 481.616 588.666 465.754 596.556 453.437C604.445 441.12 615.282 433.447 625.399 432.646C635.517 431.845 643.692 441.161 632.868 447.584C622.045 454.007 602.816 460.499 593.962 484.399L586.859 481.616Z" fill="black"/>
<path d="M589.834 477.489H589.725C589.592 477.435 589.486 477.33 589.43 477.197C589.374 477.065 589.372 476.916 589.426 476.783C600.1 450.505 620.416 439.519 629.677 437.401C629.747 437.385 629.819 437.382 629.889 437.394C629.96 437.406 630.027 437.432 630.088 437.469C630.148 437.507 630.201 437.557 630.242 437.615C630.283 437.673 630.313 437.739 630.329 437.808C630.345 437.878 630.347 437.95 630.336 438.02C630.324 438.09 630.298 438.158 630.26 438.218C630.223 438.279 630.173 438.331 630.115 438.373C630.057 438.414 629.991 438.444 629.922 438.46C620.85 440.551 600.928 451.334 590.431 477.204C590.379 477.312 590.291 477.399 590.182 477.451C590.074 477.503 589.951 477.516 589.834 477.489Z" fill="white"/>
<path d="M643.855 477.798C642.945 479.862 640.691 480.949 638.599 481.791C636.508 482.633 634.227 483.543 633.086 485.498C630.805 489.436 634.553 495.004 632.108 498.82C631.533 499.588 630.808 500.232 629.977 500.713C629.146 501.194 628.227 501.501 627.274 501.617C625.712 501.903 624.123 501.903 622.548 502.038C621.793 502.029 621.04 501.97 620.294 501.862C618.099 501.372 615.805 501.616 613.762 502.555C610.625 504.32 609.688 508.272 607.759 511.327C606.581 513.126 605.028 514.65 603.207 515.793C601.386 516.937 599.34 517.674 597.208 517.954C595.85 518.131 593.134 518.389 591.776 517.588C591.669 517.535 591.569 517.472 591.477 517.397C591.273 517.18 591.029 516.895 590.92 516.746C590.913 516.714 590.913 516.682 590.92 516.651C590.363 514.6 591.273 512.481 591.314 510.363V509.983C591.219 507.525 591.151 505.08 591.097 502.636C590.979 498.109 590.934 493.583 590.961 489.056C590.961 486.123 590.635 482.918 591.884 480.161C593.242 477.119 596.664 477.051 597.955 474.077C598.471 472.882 598.742 471.619 599.245 470.411C600.021 468.653 601.265 467.143 602.84 466.044C604.416 464.945 606.263 464.299 608.18 464.177C614.142 463.879 619.479 468.7 625.44 468.251C626.975 468.129 628.482 467.654 630.003 467.382C634.824 466.472 640.406 467.844 643.122 471.932C643.718 472.773 644.096 473.749 644.224 474.773C644.352 475.796 644.225 476.836 643.855 477.798Z" fill="#FF6501"/>
<path d="M590.323 507.24C590.194 507.202 590.086 507.115 590.02 506.999C589.954 506.882 589.936 506.744 589.97 506.615C598.199 475.734 630.71 471.307 638.355 471.823C638.423 471.826 638.488 471.843 638.549 471.873C638.61 471.902 638.664 471.943 638.708 471.994C638.752 472.045 638.786 472.104 638.807 472.168C638.828 472.232 638.836 472.299 638.831 472.366C638.817 472.498 638.753 472.62 638.652 472.706C638.55 472.792 638.42 472.836 638.287 472.828C630.832 472.298 599 476.657 590.947 506.886C590.91 507.015 590.823 507.123 590.707 507.189C590.59 507.255 590.452 507.273 590.323 507.24Z" fill="white"/>
<path d="M626.487 491.597C626.384 491.583 626.288 491.535 626.215 491.462C623.209 488.857 619.666 486.947 615.837 485.87C612.009 484.792 607.989 484.573 604.066 485.228C603.934 485.241 603.802 485.203 603.696 485.122C603.591 485.042 603.519 484.924 603.496 484.794C603.476 484.661 603.509 484.525 603.588 484.416C603.666 484.307 603.784 484.233 603.917 484.21C608.008 483.529 612.2 483.761 616.191 484.89C620.183 486.02 623.875 488.018 627.003 490.742C627.051 490.789 627.089 490.845 627.115 490.906C627.141 490.968 627.155 491.035 627.155 491.102C627.155 491.169 627.141 491.235 627.115 491.297C627.089 491.359 627.051 491.415 627.003 491.462C626.941 491.535 626.859 491.587 626.766 491.612C626.674 491.636 626.576 491.631 626.487 491.597Z" fill="white"/>
<path d="M512.128 108.64L516.447 110.297V100.791C516.447 93.2406 522.463 91.4345 528.995 95.2097C535.54 98.9849 540.836 108.151 540.836 115.702V117.06C541.747 116.782 542.708 116.713 543.649 116.859C544.589 117.005 545.485 117.361 546.268 117.902C548.749 119.519 550.812 121.699 552.292 124.264C553.771 126.829 554.625 129.707 554.783 132.663V133.288L560.812 136.764C562.444 137.829 563.801 139.263 564.776 140.95C565.75 142.637 566.314 144.529 566.421 146.474C566.421 150.059 563.909 151.512 560.812 149.72L512.128 121.596C510.496 120.533 509.138 119.1 508.165 117.412C507.193 115.725 506.634 113.831 506.533 111.886C506.533 108.314 509.018 106.861 512.128 108.64Z" fill="#E6E6E6"/>
<path d="M569.964 101.118L577.8 105.64C577.757 105.298 577.735 104.953 577.732 104.608V102.34C577.732 98.266 580.557 96.6636 584.061 98.687C585.566 99.6088 586.854 100.846 587.836 102.313C588.406 97.2339 592.399 95.3463 597.233 98.1302C599.996 99.9278 602.296 102.351 603.948 105.204C605.599 108.056 606.556 111.257 606.739 114.548V117.943C606.774 119.3 606.5 120.647 605.938 121.882L612.456 125.63C613.472 126.303 614.316 127.206 614.92 128.265C615.523 129.324 615.87 130.51 615.933 131.727C615.933 133.968 614.358 134.878 612.416 133.764L569.964 109.32C568.938 108.651 568.084 107.749 567.473 106.687C566.861 105.625 566.51 104.433 566.447 103.209C566.447 100.914 568.023 100.004 569.964 101.118Z" fill="#E6E6E6"/>
<path d="M539.628 307.22C533.924 316.861 528.438 325.24 524.581 329.26C517.261 332.655 500.069 337.897 493.347 338.766C492.166 338.916 490.971 338.637 489.979 337.978C487.331 336.24 485.28 335.955 482.497 334.991C480.31 334.244 479.387 333.198 478.979 333.633C478.558 334.126 478.347 334.764 478.39 335.411C478.433 336.058 478.728 336.663 479.21 337.096C480.255 338.088 481.413 338.954 482.66 339.676C479.678 340.415 476.567 340.471 473.561 339.839C467.735 338.304 464.992 341.102 468.93 347.43C470.288 349.684 475.883 353.31 487.127 352.332C491.139 352.116 495.134 351.663 499.091 350.974C509.874 348.666 521.865 346.439 529.239 344.184C531.982 343.106 534.437 341.404 536.409 339.214C548.808 325.077 552.923 315.001 558.354 305.848L557.893 290.91C549.093 290.611 544.394 299.153 539.628 307.22Z" fill="#FFA8A7"/>
<path d="M559.4 290.61C556.848 290.252 554.247 290.597 551.877 291.61C549.508 292.622 547.46 294.263 545.955 296.355C539.926 304.082 529.252 322.632 529.252 322.632C529.252 322.632 532.742 331.934 542.167 333.496L557.308 313.044C557.308 313.044 564.478 298.84 559.4 290.61Z" fill="#455A64"/>
<path d="M592.142 499.117H582.27V516.717H592.142V499.117Z" fill="#FFA8A7"/>
<path d="M557.92 498.183L548.061 498.536L547.559 479.904L557.92 479.551V498.183Z" fill="#FFA8A7"/>
<path d="M593.526 346.765C593.526 356.57 592.087 435.565 592.087 435.565C592.304 438.389 594.803 443.604 594.3 454.454C593.553 469.189 592.562 507.919 592.562 507.919C590.867 508.786 588.998 509.256 587.094 509.294C585.191 509.332 583.304 508.936 581.576 508.136C581.576 508.136 573.564 453.816 571.798 439.272C570.25 426.52 566.285 384.314 566.285 384.314L560.948 434.207C562.079 439.56 562.49 445.041 562.17 450.503C561.708 457.293 558.531 492.438 558.531 492.438C556.825 493.444 554.913 494.049 552.939 494.206C550.965 494.364 548.981 494.07 547.137 493.348C547.137 493.348 541.515 440.386 541.406 434.166C541.27 427.104 544.693 346.684 544.693 346.684L593.526 346.765Z" fill="#37474F"/>
<path d="M582.268 511.639V510.173C581.318 510.594 579.132 519.312 575.207 523.033C572.097 525.993 567.86 529.402 566.774 532.702C565.687 536.002 572.681 538.025 575.601 537.496C578.969 536.871 584.835 534.386 586.302 532.064C587.768 529.741 588.461 526.373 589.656 524.69C590.851 523.006 593.608 521.132 594.246 519.176C594.445 517.346 594.255 515.495 593.689 513.744C593.228 511.924 592.739 509.928 592.141 510.105V511.218C590.749 512.361 588.999 512.976 587.198 512.956C585.759 513.079 582.255 512.78 582.268 511.639Z" fill="#263238"/>
<path d="M547.951 495.357C547.435 495.357 547.014 496.131 545.887 497.408C544.211 499.171 542.251 500.64 540.089 501.754C536.395 503.682 529.225 506.642 525.952 508.177C523.915 509.127 524.01 511.68 526.115 513.134C528.22 514.587 533.285 515.632 539.369 514.22C542.682 513.446 547.001 510.255 549.744 510.431C552.487 510.608 557.58 510.553 559.603 509.073C561.626 507.593 560.812 504.524 560.241 501.876C559.617 498.97 558.883 494.447 557.919 494.651V495.67C556.738 497.544 550.613 498.304 548.006 496.933L547.951 495.357Z" fill="#263238"/>
<path d="M566.286 384.314C561.15 382.632 556.455 379.825 552.543 376.098C552.543 376.098 555.259 381.272 563.081 386.093L561.397 430.648L566.286 384.314Z" fill="#263238"/>
<path d="M588.013 292.053C588.013 292.053 596.161 293.927 595.577 308.647L593.879 332.073V367.245C586.628 375.475 554.497 374.877 543.43 366.593C543.43 366.593 544.679 324.971 545.426 308.946C545.956 297.566 548.577 291.835 559.766 290.586L573.523 291.183L588.013 292.053Z" fill="#FF6501"/>
<path d="M577.639 261.469C577.686 263.439 577.342 265.4 576.628 267.237C575.913 269.075 574.842 270.752 573.476 272.174C572.111 273.595 570.477 274.732 568.669 275.519C566.862 276.307 564.917 276.728 562.946 276.76C554.798 276.76 550.017 269.725 548.252 261.469C544.993 246.354 554.825 246.164 562.946 246.164C566.923 246.246 570.706 247.904 573.461 250.774C576.216 253.644 577.719 257.491 577.639 261.469Z" fill="#263238"/>
<path d="M585.134 267.648C585.134 267.648 582.88 278.675 581.97 280.495C581.398 281.59 580.425 282.422 579.254 282.817L579.417 275.063L585.134 267.648Z" fill="#263238"/>
<path d="M582.295 251.854C582.295 251.854 583.911 251.447 585.636 254.135C587.102 256.431 587.442 261.591 585.133 267.715L580.883 268.232L582.295 251.854Z" fill="#263238"/>
<path d="M583.857 254.094L589.072 254.189C589.108 253.852 589.073 253.511 588.971 253.188C588.869 252.865 588.701 252.566 588.478 252.311C588.254 252.056 587.981 251.85 587.674 251.706C587.368 251.561 587.034 251.482 586.696 251.473C585.983 251.483 585.299 251.756 584.775 252.24C584.251 252.724 583.924 253.384 583.857 254.094Z" fill="#263238"/>
<path d="M584.496 252.858L588.353 249.151C588.131 248.889 587.856 248.676 587.548 248.525C587.239 248.375 586.902 248.29 586.559 248.276C586.216 248.261 585.873 248.319 585.553 248.444C585.233 248.569 584.943 248.759 584.7 249.002C584.188 249.502 583.884 250.176 583.846 250.89C583.808 251.605 584.04 252.307 584.496 252.858Z" fill="#263238"/>
<path d="M579.608 268.165C580.464 268.694 581.672 266.997 582.732 265.843C583.791 264.688 587.077 263.629 588.788 267.377C590.499 271.125 587.58 274.833 585.135 276.055C580.749 278.228 579.364 275.063 579.364 275.063L578.997 292.527C572.832 302.033 558.844 301.735 563.882 292.066V286.756C561.81 287.1 559.705 287.21 557.609 287.082C554.186 286.539 552.041 283.727 550.995 279.871C549.338 273.678 548.7 268.681 550.112 256.5C551.66 243.164 566.571 243.015 574.556 248.352C582.541 253.689 579.608 268.165 579.608 268.165Z" fill="#FFA8A7"/>
<path d="M561.029 254.421C564.587 254.068 568.105 253.335 571.676 253.063C572.446 252.97 573.227 253.006 573.985 253.172C576.701 253.919 576.375 257.096 576.809 259.31C577.556 263.139 578.167 269.617 579.607 269.644C580.041 269.644 581.671 266.833 582.73 265.828C583.313 264.962 583.642 263.951 583.681 262.909C583.952 261.333 584.088 259.717 584.211 258.115C584.319 256.757 584.455 255.399 584.455 254.041C584.517 252.506 584.394 250.97 584.088 249.464C583.748 248.184 583.095 247.008 582.187 246.042L581.916 245.743C580.126 243.872 577.953 242.408 575.546 241.452C572.084 240.155 568.452 239.364 564.764 239.103C561.081 238.842 557.414 238.389 553.778 237.745C553.569 237.684 553.348 237.684 553.139 237.745C552.992 237.826 552.867 237.944 552.777 238.086C552.687 238.229 552.634 238.391 552.623 238.56C552.474 239.403 552.568 240.272 552.892 241.065C553.217 241.858 553.759 242.543 554.457 243.041C551.999 243.231 549.174 241.955 546.811 241.303C546.62 241.222 546.415 241.18 546.207 241.18C545.999 241.18 545.794 241.222 545.603 241.303C545.366 241.468 545.197 241.715 545.127 241.995C544.955 242.633 544.932 243.302 545.059 243.951C545.276 245.916 546.006 247.79 547.178 249.383C549.008 251.766 551.594 253.456 554.511 254.177C556.659 254.591 558.857 254.673 561.029 254.421Z" fill="#263238"/>
<path d="M563.895 286.756C563.895 286.756 571.527 285.154 574.188 283.673C575.774 282.806 577.061 281.481 577.882 279.871C577.481 281.489 576.766 283.011 575.777 284.352C573.835 286.96 563.895 288.861 563.895 288.861V286.756Z" fill="#F28F8F"/>
<path d="M565.728 266.169C565.713 266.588 565.864 266.996 566.149 267.304C566.434 267.612 566.829 267.794 567.248 267.812C567.581 267.839 567.914 267.765 568.204 267.6C568.494 267.435 568.728 267.186 568.874 266.886C569.02 266.586 569.072 266.248 569.023 265.918C568.974 265.588 568.827 265.28 568.6 265.035C568.373 264.79 568.078 264.62 567.752 264.545C567.427 264.471 567.087 264.497 566.776 264.62C566.466 264.742 566.199 264.956 566.012 265.232C565.825 265.508 565.726 265.835 565.728 266.169Z" fill="#263238"/>
<path d="M568.174 259.581L571.447 261.469C571.685 261.003 571.739 260.465 571.598 259.962C571.457 259.459 571.131 259.027 570.686 258.753C570.469 258.631 570.229 258.556 569.981 258.532C569.734 258.508 569.484 258.536 569.247 258.614C569.011 258.692 568.794 258.818 568.609 258.984C568.424 259.151 568.276 259.354 568.174 259.581Z" fill="#263238"/>
<path d="M564.574 277.18L561.084 278.538C561.154 278.777 561.273 278.999 561.433 279.191C561.592 279.383 561.79 279.539 562.013 279.651C562.236 279.763 562.479 279.829 562.728 279.843C562.977 279.857 563.226 279.819 563.46 279.733C563.936 279.528 564.315 279.15 564.522 278.676C564.729 278.202 564.747 277.667 564.574 277.18Z" fill="#F28F8F"/>
<path d="M551.688 260.979L554.675 258.589C554.541 258.381 554.365 258.203 554.158 258.067C553.951 257.931 553.717 257.84 553.472 257.8C553.228 257.76 552.977 257.773 552.738 257.836C552.498 257.9 552.274 258.013 552.081 258.168C551.682 258.507 551.421 258.98 551.349 259.499C551.276 260.017 551.397 260.544 551.688 260.979Z" fill="#263238"/>
<path d="M553.003 265.719C553.027 266.016 553.137 266.3 553.319 266.536C553.502 266.772 553.749 266.949 554.03 267.047C554.312 267.145 554.616 267.158 554.905 267.086C555.194 267.013 555.456 266.858 555.659 266.64C555.861 266.421 555.996 266.148 556.046 265.854C556.096 265.56 556.059 265.258 555.94 264.985C555.821 264.712 555.625 264.479 555.376 264.315C555.127 264.151 554.836 264.063 554.538 264.062C554.328 264.069 554.122 264.118 553.931 264.205C553.74 264.292 553.568 264.417 553.425 264.571C553.282 264.725 553.172 264.906 553.099 265.103C553.027 265.3 552.994 265.509 553.003 265.719Z" fill="#263238"/>
<path d="M561.192 264.441L561.016 274.097L555.529 272.847L561.192 264.441Z" fill="#F28F8F"/>
<path d="M430.906 345.312L439.421 340.396L442.789 336.309L434.288 341.225L430.906 345.312Z" fill="#FF6501"/>
<path opacity="0.4" d="M430.906 345.312L439.421 340.396L442.789 336.309L434.288 341.225L430.906 345.312Z" fill="black"/>
<path d="M454.061 358.676L462.575 353.76L469.678 347.473L461.176 352.375L454.061 358.676Z" fill="#FF6501"/>
<path opacity="0.4" d="M454.061 358.676L462.575 353.76L469.678 347.473L461.176 352.375L454.061 358.676Z" fill="black"/>
<path d="M526.388 375.637C528.401 378.336 529.619 381.544 529.905 384.898C527.9 382.195 526.683 378.99 526.388 375.637ZM546.174 375.895C543.308 356.408 532.838 337.138 520.372 329.927C514.383 326.464 508.842 326.342 504.402 328.935L496.389 333.553L495.941 333.824C495.584 334.021 495.24 334.238 494.909 334.476C494.251 334.929 493.633 335.438 493.062 335.997L492.791 336.255C492.546 336.499 492.288 336.785 492.057 337.056C491.827 337.328 491.473 337.749 491.202 338.115C490.625 338.874 490.104 339.673 489.64 340.505C489.396 340.926 489.165 341.375 488.948 341.863L418.97 301.477L410.469 306.379V311.811L411.188 312.218L411.867 312.612V313.699L410.509 314.5V317.65L420.79 339.378L430.947 345.258L434.329 341.184L443.292 346.549L448.438 355.362L454.115 358.635L461.217 352.334L469.936 357.372L472.869 369.472L487.522 377.946C488.246 381.025 489.153 384.059 490.238 387.031C490.333 387.329 490.455 387.642 490.577 387.981C495.439 400.746 503.166 411.678 511.884 416.716C512.929 417.336 514.024 417.868 515.157 418.305C515.756 418.543 516.368 418.748 516.99 418.916C517.533 419.061 518.077 419.183 518.62 419.283C520.335 419.596 522.092 419.596 523.807 419.283L524.514 419.107C524.851 419.038 525.183 418.943 525.505 418.821L526.265 418.523C526.535 418.425 526.794 418.303 527.039 418.156C527.291 418.047 527.535 417.925 527.773 417.789L528.126 417.572C528.19 417.551 528.25 417.519 528.302 417.477C530.244 416.363 535.025 413.593 536.328 412.86C542.792 409.112 546.975 399.633 546.975 386.229C546.964 382.769 546.696 379.315 546.174 375.895Z" fill="#FF6501"/>
<path d="M523.902 392.082C520.535 390.14 517.819 384.382 517.819 379.222C517.819 374.062 520.535 371.441 523.902 373.369C527.27 375.297 529.973 381.069 529.973 386.243C529.973 391.417 527.257 394.024 523.902 392.082ZM537.659 380.797C534.807 361.324 524.337 342.04 511.857 334.843C506.072 331.502 500.721 331.257 496.376 333.552L495.928 333.824C495.571 334.02 495.226 334.238 494.896 334.476C494.237 334.929 493.619 335.438 493.049 335.997L492.777 336.255C492.533 336.499 492.275 336.785 492.044 337.056C491.813 337.328 491.46 337.749 491.188 338.115C490.612 338.874 490.09 339.673 489.626 340.505C489.382 340.926 489.151 341.375 488.934 341.863C487.668 344.488 486.755 347.269 486.218 350.134L410.455 306.379V311.811L411.175 312.218L411.854 312.612V313.699L410.496 314.5V317.65L420.776 339.378L430.934 345.258L434.315 341.184L443.278 346.549L448.425 355.362L454.101 358.635L461.204 352.334L469.922 357.372L472.855 369.472L487.522 377.946C488.246 381.025 489.153 384.059 490.238 387.031C490.333 387.329 490.455 387.642 490.577 387.981C495.439 400.746 503.166 411.678 511.884 416.716C512.929 417.336 514.024 417.868 515.157 418.305C515.756 418.543 516.368 418.747 516.99 418.916C517.533 419.061 518.077 419.183 518.62 419.283C520.335 419.596 522.092 419.596 523.807 419.283L524.513 419.106C524.851 419.038 525.183 418.943 525.505 418.821L526.265 418.523C526.534 418.425 526.794 418.303 527.039 418.156C527.29 418.047 527.535 417.925 527.773 417.789L528.126 417.572C528.19 417.551 528.25 417.519 528.302 417.477C534.495 413.566 538.474 404.223 538.474 391.145C538.451 387.681 538.179 384.223 537.659 380.797Z" fill="#FF6501"/>
<path opacity="0.4" d="M529.972 386.228C529.972 391.402 527.256 394.022 523.902 392.081C520.548 390.139 517.818 384.394 517.818 379.22C517.818 374.046 520.534 371.425 523.902 373.367C524.872 373.958 525.716 374.733 526.387 375.649C526.679 379.002 527.897 382.208 529.905 384.91C529.954 385.348 529.977 385.787 529.972 386.228Z" fill="black"/>
<path opacity="0.4" d="M546.947 386.216C546.947 399.619 542.764 409.098 536.3 412.846C534.942 413.58 530.216 416.35 528.274 417.463C534.467 413.552 538.446 404.209 538.446 391.132C538.431 387.673 538.168 384.219 537.658 380.797C534.806 361.324 524.336 342.04 511.856 334.843C506.071 331.502 500.721 331.258 496.375 333.553L504.387 328.935C508.828 326.342 514.369 326.464 520.357 329.927C532.837 337.138 543.307 356.408 546.159 375.895C546.677 379.311 546.94 382.761 546.947 386.216Z" fill="white"/>
<path d="M538.447 391.105C538.447 404.183 534.468 413.526 528.275 417.437C530.217 416.323 534.997 413.553 536.301 412.819C542.765 409.071 546.948 399.593 546.948 386.189C546.948 385.7 546.948 385.198 546.948 384.695L538.447 389.611C538.433 390.141 538.447 390.63 538.447 391.105Z" fill="#FF6501"/>
<path opacity="0.1" d="M538.447 391.105C538.447 404.183 534.468 413.526 528.275 417.437C530.217 416.323 534.997 413.553 536.301 412.819C542.765 409.071 546.948 399.593 546.948 386.189C546.948 385.7 546.948 385.198 546.948 384.695L538.447 389.611C538.433 390.141 538.447 390.63 538.447 391.105Z" fill="black"/>
<path opacity="0.15" d="M486.544 355.687V358.444L410.469 314.526L411.867 313.711V312.57L486.544 355.687Z" fill="black"/>
<path opacity="0.15" d="M486.544 356.829V358.445L410.469 314.528L411.867 313.713V313.699L486.544 356.829Z" fill="black"/>
<path opacity="0.15" d="M519.625 412.831C516.742 412.756 513.93 411.918 511.477 410.401C499.078 403.244 488.988 381.951 488.988 362.939C488.988 351.844 492.343 343.56 498.196 340.178C502.27 337.815 507.09 338.114 512.156 341.034C524.541 348.191 534.631 369.552 534.631 388.564C534.631 399.645 531.276 407.943 525.423 411.31C523.658 412.319 521.658 412.843 519.625 412.831ZM504.076 339.975C502.266 339.965 500.486 340.433 498.915 341.333C493.578 344.415 490.387 352.495 490.387 362.925C490.387 381.502 500.165 402.307 512.197 409.206C516.8 411.922 521.159 412.166 524.785 410.075C530.122 406.992 533.313 398.925 533.313 388.496C533.313 369.905 523.536 349.114 511.518 342.202C509.271 340.835 506.704 340.086 504.076 340.029V339.975Z" fill="black"/>
<path opacity="0.4" d="M488.879 341.836C487.613 344.461 486.7 347.242 486.163 350.106L410.4 306.352L418.901 301.449L488.879 341.836Z" fill="white"/>
<path d="M587.348 346.086C591.314 338.576 595.849 321.709 598.104 313.195C601.308 301.109 596.121 293.504 590.227 293.191C586.547 293.762 574.42 337.856 574.42 337.856C573.062 338.929 554.634 348.285 548.713 350.635C547.654 351.035 546.486 351.035 545.427 350.635C542.589 349.603 540.647 349.793 537.863 349.521C535.676 349.304 534.576 348.53 534.291 348.992C534.032 349.565 533.999 350.214 534.198 350.811C534.397 351.407 534.813 351.907 535.364 352.21C536.563 352.908 537.839 353.464 539.166 353.867C536.786 354.589 534.306 354.924 531.82 354.858C526.116 354.736 524.065 357.208 528.493 363.006C531.209 366.618 535.703 367.759 545.739 364.296C548.618 363.291 552.529 361.349 556.182 360.032C563.705 357.316 565.688 356.99 571.419 355.048C579.771 352.224 585.583 349.426 587.348 346.086Z" fill="#FFA8A7"/>
<path d="M588.013 292.051C591.476 292.526 594.803 293.3 596.853 296.125C598.904 298.949 600.547 302.915 598.537 313.711C596.998 321.303 594.938 328.781 592.372 336.091C592.372 336.091 584.305 339.54 575.736 330.795L581.63 308.007C581.63 308.007 582.581 293.192 588.013 292.051Z" fill="#455A64"/>
</svg>
